<?xml version="1.0" encoding="utf-8"?>
<svg xmlns="http://www.w3.org/2000/svg" xmlns:xlink="http://www.w3.org/1999/xlink" width="400" height="300" viewBox="0 0 1600 1200">
<defs>
  <clipPath id="clip820">
    <rect x="0" y="0" width="1600" height="1200"/>
  </clipPath>
</defs>
<path clip-path="url(#clip820)" d="
M0 1200 L1600 1200 L1600 0 L0 0  Z
  " fill="#ffffff" fill-rule="evenodd" fill-opacity="1"/>
<defs>
  <clipPath id="clip821">
    <rect x="320" y="0" width="1121" height="1121"/>
  </clipPath>
</defs>
<path clip-path="url(#clip820)" d="
M209.542 1016.92 L1552.76 1016.92 L1552.76 131.032 L209.542 131.032  Z
  " fill="#ffffff" fill-rule="evenodd" fill-opacity="1"/>
<defs>
  <clipPath id="clip822">
    <rect x="209" y="131" width="1344" height="887"/>
  </clipPath>
</defs>
<polyline clip-path="url(#clip822)" style="stroke:#000000; stroke-width:2; stroke-opacity:0.1; fill:none" points="
  261.287,1016.92 261.287,131.032 
  "/>
<polyline clip-path="url(#clip822)" style="stroke:#000000; stroke-width:2; stroke-opacity:0.1; fill:none" points="
  574.65,1016.92 574.65,131.032 
  "/>
<polyline clip-path="url(#clip822)" style="stroke:#000000; stroke-width:2; stroke-opacity:0.1; fill:none" points="
  888.014,1016.92 888.014,131.032 
  "/>
<polyline clip-path="url(#clip822)" style="stroke:#000000; stroke-width:2; stroke-opacity:0.1; fill:none" points="
  1201.38,1016.92 1201.38,131.032 
  "/>
<polyline clip-path="url(#clip822)" style="stroke:#000000; stroke-width:2; stroke-opacity:0.1; fill:none" points="
  1514.74,1016.92 1514.74,131.032 
  "/>
<polyline clip-path="url(#clip820)" style="stroke:#000000; stroke-width:4; stroke-opacity:1; fill:none" points="
  209.542,1016.92 1552.76,1016.92 
  "/>
<polyline clip-path="url(#clip820)" style="stroke:#000000; stroke-width:4; stroke-opacity:1; fill:none" points="
  261.287,1016.92 261.287,1006.29 
  "/>
<polyline clip-path="url(#clip820)" style="stroke:#000000; stroke-width:4; stroke-opacity:1; fill:none" points="
  574.65,1016.92 574.65,1006.29 
  "/>
<polyline clip-path="url(#clip820)" style="stroke:#000000; stroke-width:4; stroke-opacity:1; fill:none" points="
  888.014,1016.92 888.014,1006.29 
  "/>
<polyline clip-path="url(#clip820)" style="stroke:#000000; stroke-width:4; stroke-opacity:1; fill:none" points="
  1201.38,1016.92 1201.38,1006.29 
  "/>
<polyline clip-path="url(#clip820)" style="stroke:#000000; stroke-width:4; stroke-opacity:1; fill:none" points="
  1514.74,1016.92 1514.74,1006.29 
  "/>
<path clip-path="url(#clip820)" d="M 0 0 M243.602 1039.71 Q239.991 1039.71 238.162 1043.28 Q236.357 1046.82 236.357 1053.95 Q236.357 1061.05 238.162 1064.62 Q239.991 1068.16 243.602 1068.16 Q247.236 1068.16 249.042 1064.62 Q250.871 1061.05 250.871 1053.95 Q250.871 1046.82 249.042 1043.28 Q247.236 1039.71 243.602 1039.71 M243.602 1036.01 Q249.412 1036.01 252.468 1040.61 Q255.546 1045.2 255.546 1053.95 Q255.546 1062.67 252.468 1067.28 Q249.412 1071.86 243.602 1071.86 Q237.792 1071.86 234.713 1067.28 Q231.658 1062.67 231.658 1053.95 Q231.658 1045.2 234.713 1040.61 Q237.792 1036.01 243.602 1036.01 Z" fill="#000000" fill-rule="evenodd" fill-opacity="1" /><path clip-path="url(#clip820)" d="M 0 0 M260.616 1065.31 L265.5 1065.31 L265.5 1071.19 L260.616 1071.19 L260.616 1065.31 Z" fill="#000000" fill-rule="evenodd" fill-opacity="1" /><path clip-path="url(#clip820)" d="M 0 0 M274.597 1067.26 L290.917 1067.26 L290.917 1071.19 L268.972 1071.19 L268.972 1067.26 Q271.634 1064.5 276.218 1059.87 Q280.824 1055.22 282.005 1053.88 Q284.25 1051.35 285.13 1049.62 Q286.032 1047.86 286.032 1046.17 Q286.032 1043.41 284.088 1041.68 Q282.167 1039.94 279.065 1039.94 Q276.866 1039.94 274.412 1040.71 Q271.982 1041.47 269.204 1043.02 L269.204 1038.3 Q272.028 1037.16 274.482 1036.59 Q276.935 1036.01 278.972 1036.01 Q284.343 1036.01 287.537 1038.69 Q290.731 1041.38 290.731 1045.87 Q290.731 1048 289.921 1049.92 Q289.134 1051.82 287.028 1054.41 Q286.449 1055.08 283.347 1058.3 Q280.245 1061.49 274.597 1067.26 Z" fill="#000000" fill-rule="evenodd" fill-opacity="1" /><path clip-path="url(#clip820)" d="M 0 0 M555.924 1039.71 Q552.313 1039.71 550.484 1043.28 Q548.678 1046.82 548.678 1053.95 Q548.678 1061.05 550.484 1064.62 Q552.313 1068.16 555.924 1068.16 Q559.558 1068.16 561.363 1064.62 Q563.192 1061.05 563.192 1053.95 Q563.192 1046.82 561.363 1043.28 Q559.558 1039.71 555.924 1039.71 M555.924 1036.01 Q561.734 1036.01 564.789 1040.61 Q567.868 1045.2 567.868 1053.95 Q567.868 1062.67 564.789 1067.28 Q561.734 1071.86 555.924 1071.86 Q550.114 1071.86 547.035 1067.28 Q543.979 1062.67 543.979 1053.95 Q543.979 1045.2 547.035 1040.61 Q550.114 1036.01 555.924 1036.01 Z" fill="#000000" fill-rule="evenodd" fill-opacity="1" /><path clip-path="url(#clip820)" d="M 0 0 M572.938 1065.31 L577.822 1065.31 L577.822 1071.19 L572.938 1071.19 L572.938 1065.31 Z" fill="#000000" fill-rule="evenodd" fill-opacity="1" /><path clip-path="url(#clip820)" d="M 0 0 M595.738 1040.71 L583.933 1059.15 L595.738 1059.15 L595.738 1040.71 M594.511 1036.63 L600.391 1036.63 L600.391 1059.15 L605.322 1059.15 L605.322 1063.04 L600.391 1063.04 L600.391 1071.19 L595.738 1071.19 L595.738 1063.04 L580.137 1063.04 L580.137 1058.53 L594.511 1036.63 Z" fill="#000000" fill-rule="evenodd" fill-opacity="1" /><path clip-path="url(#clip820)" d="M 0 0 M869.449 1039.71 Q865.838 1039.71 864.009 1043.28 Q862.204 1046.82 862.204 1053.95 Q862.204 1061.05 864.009 1064.62 Q865.838 1068.16 869.449 1068.16 Q873.083 1068.16 874.889 1064.62 Q876.718 1061.05 876.718 1053.95 Q876.718 1046.82 874.889 1043.28 Q873.083 1039.71 869.449 1039.71 M869.449 1036.01 Q875.259 1036.01 878.315 1040.61 Q881.393 1045.2 881.393 1053.95 Q881.393 1062.67 878.315 1067.28 Q875.259 1071.86 869.449 1071.86 Q863.639 1071.86 860.56 1067.28 Q857.505 1062.67 857.505 1053.95 Q857.505 1045.2 860.56 1040.61 Q863.639 1036.01 869.449 1036.01 Z" fill="#000000" fill-rule="evenodd" fill-opacity="1" /><path clip-path="url(#clip820)" d="M 0 0 M886.463 1065.31 L891.347 1065.31 L891.347 1071.19 L886.463 1071.19 L886.463 1065.31 Z" fill="#000000" fill-rule="evenodd" fill-opacity="1" /><path clip-path="url(#clip820)" d="M 0 0 M906.995 1052.05 Q903.847 1052.05 901.995 1054.2 Q900.166 1056.35 900.166 1060.1 Q900.166 1063.83 901.995 1066.01 Q903.847 1068.16 906.995 1068.16 Q910.143 1068.16 911.972 1066.01 Q913.824 1063.83 913.824 1060.1 Q913.824 1056.35 911.972 1054.2 Q910.143 1052.05 906.995 1052.05 M916.278 1037.4 L916.278 1041.65 Q914.518 1040.82 912.713 1040.38 Q910.93 1039.94 909.171 1039.94 Q904.541 1039.94 902.088 1043.07 Q899.657 1046.19 899.31 1052.51 Q900.676 1050.5 902.736 1049.43 Q904.796 1048.34 907.273 1048.34 Q912.481 1048.34 915.49 1051.52 Q918.523 1054.66 918.523 1060.1 Q918.523 1065.43 915.375 1068.65 Q912.227 1071.86 906.995 1071.86 Q901 1071.86 897.829 1067.28 Q894.657 1062.67 894.657 1053.95 Q894.657 1045.75 898.546 1040.89 Q902.435 1036.01 908.986 1036.01 Q910.745 1036.01 912.528 1036.35 Q914.333 1036.7 916.278 1037.4 Z" fill="#000000" fill-rule="evenodd" fill-opacity="1" /><path clip-path="url(#clip820)" d="M 0 0 M1182.94 1039.71 Q1179.33 1039.71 1177.5 1043.28 Q1175.69 1046.82 1175.69 1053.95 Q1175.69 1061.05 1177.5 1064.62 Q1179.33 1068.16 1182.94 1068.16 Q1186.57 1068.16 1188.38 1064.62 Q1190.21 1061.05 1190.21 1053.95 Q1190.21 1046.82 1188.38 1043.28 Q1186.57 1039.71 1182.94 1039.71 M1182.94 1036.01 Q1188.75 1036.01 1191.81 1040.61 Q1194.88 1045.2 1194.88 1053.95 Q1194.88 1062.67 1191.81 1067.28 Q1188.75 1071.86 1182.94 1071.86 Q1177.13 1071.86 1174.05 1067.28 Q1171 1062.67 1171 1053.95 Q1171 1045.2 1174.05 1040.61 Q1177.13 1036.01 1182.94 1036.01 Z" fill="#000000" fill-rule="evenodd" fill-opacity="1" /><path clip-path="url(#clip820)" d="M 0 0 M1199.95 1065.31 L1204.84 1065.31 L1204.84 1071.19 L1199.95 1071.19 L1199.95 1065.31 Z" fill="#000000" fill-rule="evenodd" fill-opacity="1" /><path clip-path="url(#clip820)" d="M 0 0 M1219.91 1054.78 Q1216.57 1054.78 1214.65 1056.56 Q1212.75 1058.34 1212.75 1061.47 Q1212.75 1064.59 1214.65 1066.38 Q1216.57 1068.16 1219.91 1068.16 Q1223.24 1068.16 1225.16 1066.38 Q1227.08 1064.57 1227.08 1061.47 Q1227.08 1058.34 1225.16 1056.56 Q1223.26 1054.78 1219.91 1054.78 M1215.23 1052.79 Q1212.22 1052.05 1210.53 1049.99 Q1208.87 1047.93 1208.87 1044.97 Q1208.87 1040.82 1211.81 1038.41 Q1214.77 1036.01 1219.91 1036.01 Q1225.07 1036.01 1228.01 1038.41 Q1230.95 1040.82 1230.95 1044.97 Q1230.95 1047.93 1229.26 1049.99 Q1227.59 1052.05 1224.61 1052.79 Q1227.99 1053.58 1229.86 1055.87 Q1231.76 1058.16 1231.76 1061.47 Q1231.76 1066.49 1228.68 1069.18 Q1225.62 1071.86 1219.91 1071.86 Q1214.19 1071.86 1211.11 1069.18 Q1208.06 1066.49 1208.06 1061.47 Q1208.06 1058.16 1209.95 1055.87 Q1211.85 1053.58 1215.23 1052.79 M1213.52 1045.4 Q1213.52 1048.09 1215.18 1049.59 Q1216.87 1051.1 1219.91 1051.1 Q1222.92 1051.1 1224.61 1049.59 Q1226.32 1048.09 1226.32 1045.4 Q1226.32 1042.72 1224.61 1041.22 Q1222.92 1039.71 1219.91 1039.71 Q1216.87 1039.71 1215.18 1041.22 Q1213.52 1042.72 1213.52 1045.4 Z" fill="#000000" fill-rule="evenodd" fill-opacity="1" /><path clip-path="url(#clip820)" d="M 0 0 M1486.64 1067.26 L1494.28 1067.26 L1494.28 1040.89 L1485.97 1042.56 L1485.97 1038.3 L1494.23 1036.63 L1498.91 1036.63 L1498.91 1067.26 L1506.55 1067.26 L1506.55 1071.19 L1486.64 1071.19 L1486.64 1067.26 Z" fill="#000000" fill-rule="evenodd" fill-opacity="1" /><path clip-path="url(#clip820)" d="M 0 0 M1511.62 1065.31 L1516.5 1065.31 L1516.5 1071.19 L1511.62 1071.19 L1511.62 1065.31 Z" fill="#000000" fill-rule="evenodd" fill-opacity="1" /><path clip-path="url(#clip820)" d="M 0 0 M1531.57 1039.71 Q1527.96 1039.71 1526.13 1043.28 Q1524.32 1046.82 1524.32 1053.95 Q1524.32 1061.05 1526.13 1064.62 Q1527.96 1068.16 1531.57 1068.16 Q1535.2 1068.16 1537.01 1064.62 Q1538.84 1061.05 1538.84 1053.95 Q1538.84 1046.82 1537.01 1043.28 Q1535.2 1039.71 1531.57 1039.71 M1531.57 1036.01 Q1537.38 1036.01 1540.43 1040.61 Q1543.51 1045.2 1543.51 1053.95 Q1543.51 1062.67 1540.43 1067.28 Q1537.38 1071.86 1531.57 1071.86 Q1525.76 1071.86 1522.68 1067.28 Q1519.62 1062.67 1519.62 1053.95 Q1519.62 1045.2 1522.68 1040.61 Q1525.76 1036.01 1531.57 1036.01 Z" fill="#000000" fill-rule="evenodd" fill-opacity="1" /><path clip-path="url(#clip820)" d="M 0 0 M897.764 1114.14 L884.873 1131.48 L898.432 1149.78 L891.525 1149.78 L881.149 1135.78 L870.773 1149.78 L863.866 1149.78 L877.712 1131.13 L865.044 1114.14 L871.951 1114.14 L881.404 1126.84 L890.857 1114.14 L897.764 1114.14 Z" fill="#000000" fill-rule="evenodd" fill-opacity="1" /><polyline clip-path="url(#clip822)" style="stroke:#000000; stroke-width:2; stroke-opacity:0.1; fill:none" points="
  209.542,850.079 1552.76,850.079 
  "/>
<polyline clip-path="url(#clip822)" style="stroke:#000000; stroke-width:2; stroke-opacity:0.1; fill:none" points="
  209.542,676.585 1552.76,676.585 
  "/>
<polyline clip-path="url(#clip822)" style="stroke:#000000; stroke-width:2; stroke-opacity:0.1; fill:none" points="
  209.542,503.092 1552.76,503.092 
  "/>
<polyline clip-path="url(#clip822)" style="stroke:#000000; stroke-width:2; stroke-opacity:0.1; fill:none" points="
  209.542,329.598 1552.76,329.598 
  "/>
<polyline clip-path="url(#clip822)" style="stroke:#000000; stroke-width:2; stroke-opacity:0.1; fill:none" points="
  209.542,156.104 1552.76,156.104 
  "/>
<polyline clip-path="url(#clip820)" style="stroke:#000000; stroke-width:4; stroke-opacity:1; fill:none" points="
  209.542,1016.92 209.542,131.032 
  "/>
<polyline clip-path="url(#clip820)" style="stroke:#000000; stroke-width:4; stroke-opacity:1; fill:none" points="
  209.542,850.079 225.661,850.079 
  "/>
<polyline clip-path="url(#clip820)" style="stroke:#000000; stroke-width:4; stroke-opacity:1; fill:none" points="
  209.542,676.585 225.661,676.585 
  "/>
<polyline clip-path="url(#clip820)" style="stroke:#000000; stroke-width:4; stroke-opacity:1; fill:none" points="
  209.542,503.092 225.661,503.092 
  "/>
<polyline clip-path="url(#clip820)" style="stroke:#000000; stroke-width:4; stroke-opacity:1; fill:none" points="
  209.542,329.598 225.661,329.598 
  "/>
<polyline clip-path="url(#clip820)" style="stroke:#000000; stroke-width:4; stroke-opacity:1; fill:none" points="
  209.542,156.104 225.661,156.104 
  "/>
<path clip-path="url(#clip820)" d="M 0 0 M138.228 835.877 Q134.617 835.877 132.788 839.442 Q130.983 842.984 130.983 850.114 Q130.983 857.22 132.788 860.785 Q134.617 864.326 138.228 864.326 Q141.862 864.326 143.668 860.785 Q145.496 857.22 145.496 850.114 Q145.496 842.984 143.668 839.442 Q141.862 835.877 138.228 835.877 M138.228 832.174 Q144.038 832.174 147.094 836.78 Q150.172 841.364 150.172 850.114 Q150.172 858.84 147.094 863.447 Q144.038 868.03 138.228 868.03 Q132.418 868.03 129.339 863.447 Q126.283 858.84 126.283 850.114 Q126.283 841.364 129.339 836.78 Q132.418 832.174 138.228 832.174 Z" fill="#000000" fill-rule="evenodd" fill-opacity="1" /><path clip-path="url(#clip820)" d="M 0 0 M155.242 861.479 L160.126 861.479 L160.126 867.359 L155.242 867.359 L155.242 861.479 Z" fill="#000000" fill-rule="evenodd" fill-opacity="1" /><path clip-path="url(#clip820)" d="M 0 0 M169.223 863.424 L185.542 863.424 L185.542 867.359 L163.598 867.359 L163.598 863.424 Q166.26 860.669 170.843 856.039 Q175.45 851.387 176.63 850.044 Q178.876 847.521 179.755 845.785 Q180.658 844.026 180.658 842.336 Q180.658 839.581 178.714 837.845 Q176.792 836.109 173.691 836.109 Q171.492 836.109 169.038 836.873 Q166.607 837.637 163.83 839.188 L163.83 834.465 Q166.654 833.331 169.107 832.753 Q171.561 832.174 173.598 832.174 Q178.968 832.174 182.163 834.859 Q185.357 837.544 185.357 842.035 Q185.357 844.164 184.547 846.086 Q183.76 847.984 181.654 850.576 Q181.075 851.248 177.973 854.465 Q174.871 857.66 169.223 863.424 Z" fill="#000000" fill-rule="evenodd" fill-opacity="1" /><path clip-path="url(#clip820)" d="M 0 0 M136.145 662.384 Q132.533 662.384 130.705 665.949 Q128.899 669.49 128.899 676.62 Q128.899 683.726 130.705 687.291 Q132.533 690.833 136.145 690.833 Q139.779 690.833 141.584 687.291 Q143.413 683.726 143.413 676.62 Q143.413 669.49 141.584 665.949 Q139.779 662.384 136.145 662.384 M136.145 658.68 Q141.955 658.68 145.01 663.287 Q148.089 667.87 148.089 676.62 Q148.089 685.347 145.01 689.953 Q141.955 694.536 136.145 694.536 Q130.334 694.536 127.256 689.953 Q124.2 685.347 124.2 676.62 Q124.2 667.87 127.256 663.287 Q130.334 658.68 136.145 658.68 Z" fill="#000000" fill-rule="evenodd" fill-opacity="1" /><path clip-path="url(#clip820)" d="M 0 0 M153.158 687.986 L158.043 687.986 L158.043 693.865 L153.158 693.865 L153.158 687.986 Z" fill="#000000" fill-rule="evenodd" fill-opacity="1" /><path clip-path="url(#clip820)" d="M 0 0 M175.959 663.379 L164.154 681.828 L175.959 681.828 L175.959 663.379 M174.732 659.305 L180.612 659.305 L180.612 681.828 L185.542 681.828 L185.542 685.717 L180.612 685.717 L180.612 693.865 L175.959 693.865 L175.959 685.717 L160.357 685.717 L160.357 681.203 L174.732 659.305 Z" fill="#000000" fill-rule="evenodd" fill-opacity="1" /><path clip-path="url(#clip820)" d="M 0 0 M136.469 488.89 Q132.858 488.89 131.029 492.455 Q129.223 495.997 129.223 503.126 Q129.223 510.233 131.029 513.798 Q132.858 517.339 136.469 517.339 Q140.103 517.339 141.908 513.798 Q143.737 510.233 143.737 503.126 Q143.737 495.997 141.908 492.455 Q140.103 488.89 136.469 488.89 M136.469 485.187 Q142.279 485.187 145.334 489.793 Q148.413 494.376 148.413 503.126 Q148.413 511.853 145.334 516.46 Q142.279 521.043 136.469 521.043 Q130.658 521.043 127.58 516.46 Q124.524 511.853 124.524 503.126 Q124.524 494.376 127.58 489.793 Q130.658 485.187 136.469 485.187 Z" fill="#000000" fill-rule="evenodd" fill-opacity="1" /><path clip-path="url(#clip820)" d="M 0 0 M153.482 514.492 L158.367 514.492 L158.367 520.372 L153.482 520.372 L153.482 514.492 Z" fill="#000000" fill-rule="evenodd" fill-opacity="1" /><path clip-path="url(#clip820)" d="M 0 0 M174.015 501.228 Q170.867 501.228 169.015 503.381 Q167.186 505.534 167.186 509.284 Q167.186 513.011 169.015 515.186 Q170.867 517.339 174.015 517.339 Q177.163 517.339 178.992 515.186 Q180.843 513.011 180.843 509.284 Q180.843 505.534 178.992 503.381 Q177.163 501.228 174.015 501.228 M183.297 486.575 L183.297 490.835 Q181.538 490.001 179.732 489.562 Q177.95 489.122 176.191 489.122 Q171.561 489.122 169.107 492.247 Q166.677 495.372 166.33 501.691 Q167.695 499.677 169.755 498.612 Q171.816 497.525 174.292 497.525 Q179.501 497.525 182.51 500.696 Q185.542 503.844 185.542 509.284 Q185.542 514.608 182.394 517.825 Q179.246 521.043 174.015 521.043 Q168.019 521.043 164.848 516.46 Q161.677 511.853 161.677 503.126 Q161.677 494.932 165.566 490.071 Q169.455 485.187 176.005 485.187 Q177.765 485.187 179.547 485.534 Q181.353 485.881 183.297 486.575 Z" fill="#000000" fill-rule="evenodd" fill-opacity="1" /><path clip-path="url(#clip820)" d="M 0 0 M136.723 315.397 Q133.112 315.397 131.283 318.961 Q129.478 322.503 129.478 329.633 Q129.478 336.739 131.283 340.304 Q133.112 343.846 136.723 343.846 Q140.357 343.846 142.163 340.304 Q143.992 336.739 143.992 329.633 Q143.992 322.503 142.163 318.961 Q140.357 315.397 136.723 315.397 M136.723 311.693 Q142.533 311.693 145.589 316.299 Q148.668 320.883 148.668 329.633 Q148.668 338.36 145.589 342.966 Q142.533 347.549 136.723 347.549 Q130.913 347.549 127.834 342.966 Q124.779 338.36 124.779 329.633 Q124.779 320.883 127.834 316.299 Q130.913 311.693 136.723 311.693 Z" fill="#000000" fill-rule="evenodd" fill-opacity="1" /><path clip-path="url(#clip820)" d="M 0 0 M153.737 340.998 L158.621 340.998 L158.621 346.878 L153.737 346.878 L153.737 340.998 Z" fill="#000000" fill-rule="evenodd" fill-opacity="1" /><path clip-path="url(#clip820)" d="M 0 0 M173.691 330.466 Q170.357 330.466 168.436 332.248 Q166.538 334.031 166.538 337.156 Q166.538 340.281 168.436 342.063 Q170.357 343.846 173.691 343.846 Q177.024 343.846 178.945 342.063 Q180.867 340.258 180.867 337.156 Q180.867 334.031 178.945 332.248 Q177.047 330.466 173.691 330.466 M169.015 328.475 Q166.005 327.735 164.316 325.674 Q162.649 323.614 162.649 320.651 Q162.649 316.508 165.589 314.1 Q168.552 311.693 173.691 311.693 Q178.853 311.693 181.792 314.1 Q184.732 316.508 184.732 320.651 Q184.732 323.614 183.042 325.674 Q181.376 327.735 178.39 328.475 Q181.769 329.262 183.644 331.554 Q185.542 333.846 185.542 337.156 Q185.542 342.179 182.464 344.864 Q179.408 347.549 173.691 347.549 Q167.973 347.549 164.894 344.864 Q161.839 342.179 161.839 337.156 Q161.839 333.846 163.737 331.554 Q165.635 329.262 169.015 328.475 M167.302 321.091 Q167.302 323.776 168.968 325.281 Q170.658 326.786 173.691 326.786 Q176.7 326.786 178.39 325.281 Q180.103 323.776 180.103 321.091 Q180.103 318.406 178.39 316.901 Q176.7 315.397 173.691 315.397 Q170.658 315.397 168.968 316.901 Q167.302 318.406 167.302 321.091 Z" fill="#000000" fill-rule="evenodd" fill-opacity="1" /><path clip-path="url(#clip820)" d="M 0 0 M128.668 169.449 L136.307 169.449 L136.307 143.084 L127.996 144.75 L127.996 140.491 L136.26 138.824 L140.936 138.824 L140.936 169.449 L148.575 169.449 L148.575 173.384 L128.668 173.384 L128.668 169.449 Z" fill="#000000" fill-rule="evenodd" fill-opacity="1" /><path clip-path="url(#clip820)" d="M 0 0 M153.644 167.505 L158.529 167.505 L158.529 173.384 L153.644 173.384 L153.644 167.505 Z" fill="#000000" fill-rule="evenodd" fill-opacity="1" /><path clip-path="url(#clip820)" d="M 0 0 M173.598 141.903 Q169.987 141.903 168.158 145.468 Q166.353 149.01 166.353 156.139 Q166.353 163.246 168.158 166.81 Q169.987 170.352 173.598 170.352 Q177.232 170.352 179.038 166.81 Q180.867 163.246 180.867 156.139 Q180.867 149.01 179.038 145.468 Q177.232 141.903 173.598 141.903 M173.598 138.199 Q179.408 138.199 182.464 142.806 Q185.542 147.389 185.542 156.139 Q185.542 164.866 182.464 169.472 Q179.408 174.056 173.598 174.056 Q167.788 174.056 164.709 169.472 Q161.654 164.866 161.654 156.139 Q161.654 147.389 164.709 142.806 Q167.788 138.199 173.598 138.199 Z" fill="#000000" fill-rule="evenodd" fill-opacity="1" /><path clip-path="url(#clip820)" d="M 0 0 M36.419 609.306 L49.5641 609.306 Q49.5641 602.972 54.4339 598.739 Q59.3992 594.378 68.152 594.378 Q76.9049 594.378 81.8701 598.739 Q86.7399 602.972 86.7399 609.306 L99.5031 609.306 L99.5031 615.13 L86.7399 615.13 Q86.7399 621.464 81.8701 625.729 Q76.9049 630.058 68.152 630.058 Q59.3992 630.058 54.4339 625.729 Q49.5641 621.464 49.5641 615.13 L36.419 615.13 L36.419 609.306 M81.52 609.306 Q81.52 605.709 78.2417 603.258 Q74.5814 600.585 68.152 600.553 Q61.7863 600.521 58.0624 603.258 Q54.784 605.709 54.784 609.306 L81.52 609.306 M81.52 615.13 L54.784 615.13 Q54.784 618.727 58.0624 621.146 Q61.7863 623.915 68.152 623.883 Q74.5814 623.851 78.2417 621.146 Q81.52 618.727 81.52 615.13 Z" fill="#000000" fill-rule="evenodd" fill-opacity="1" /><path clip-path="url(#clip820)" d="M 0 0 M36.4826 574.167 Q43.8032 578.432 50.9646 580.501 Q58.126 582.57 65.4784 582.57 Q72.8308 582.57 80.0559 580.501 Q87.2491 578.4 94.5379 574.167 L94.5379 579.26 Q87.0582 584.034 79.8331 586.421 Q72.608 588.776 65.4784 588.776 Q58.3806 588.776 51.1874 586.421 Q43.9942 584.066 36.4826 579.26 L36.4826 574.167 Z" fill="#000000" fill-rule="evenodd" fill-opacity="1" /><path clip-path="url(#clip820)" d="M 0 0 M50.2962 538.392 L67.6428 551.282 L85.9442 537.723 L85.9442 544.63 L71.9396 555.006 L85.9442 565.382 L85.9442 572.289 L67.2926 558.444 L50.2962 571.111 L50.2962 564.205 L62.9958 554.752 L50.2962 545.298 L50.2962 538.392 Z" fill="#000000" fill-rule="evenodd" fill-opacity="1" /><path clip-path="url(#clip820)" d="M 0 0 M36.4826 532.503 L36.4826 527.411 Q43.9942 522.637 51.1874 520.281 Q58.3806 517.894 65.4784 517.894 Q72.608 517.894 79.8331 520.281 Q87.0582 522.637 94.5379 527.411 L94.5379 532.503 Q87.2491 528.27 80.0559 526.201 Q72.8308 524.101 65.4784 524.101 Q58.126 524.101 50.9646 526.201 Q43.8032 528.27 36.4826 532.503 Z" fill="#000000" fill-rule="evenodd" fill-opacity="1" /><path clip-path="url(#clip820)" d="M 0 0 M285.14 14.0809 L285.14 22.0612 Q280.481 19.8332 276.349 18.7395 Q272.217 17.6457 268.369 17.6457 Q261.685 17.6457 258.039 20.2383 Q254.434 22.8309 254.434 27.611 Q254.434 31.6214 256.824 33.6873 Q259.254 35.7128 265.979 36.9686 L270.921 37.9813 Q280.076 39.7232 284.41 44.1387 Q288.785 48.5136 288.785 55.8863 Q288.785 64.6767 282.871 69.2137 Q276.997 73.7508 265.614 73.7508 Q261.32 73.7508 256.459 72.7785 Q251.639 71.8063 246.453 69.9024 L246.453 61.4765 Q251.436 64.2716 256.216 65.6895 Q260.996 67.1073 265.614 67.1073 Q272.622 67.1073 276.43 64.3527 Q280.238 61.598 280.238 56.4939 Q280.238 52.0379 277.483 49.5264 Q274.769 47.0148 268.531 45.759 L263.548 44.7868 Q254.393 42.9639 250.302 39.075 Q246.21 35.1862 246.21 28.2591 Q246.21 20.2383 251.841 15.6203 Q257.512 11.0023 267.437 11.0023 Q271.691 11.0023 276.106 11.7719 Q280.522 12.5416 285.14 14.0809 Z" fill="#000000" fill-rule="evenodd" fill-opacity="1" /><path clip-path="url(#clip820)" d="M 0 0 M333.183 14.0809 L333.183 22.0612 Q328.525 19.8332 324.393 18.7395 Q320.261 17.6457 316.413 17.6457 Q309.729 17.6457 306.083 20.2383 Q302.477 22.8309 302.477 27.611 Q302.477 31.6214 304.868 33.6873 Q307.298 35.7128 314.023 36.9686 L318.965 37.9813 Q328.12 39.7232 332.454 44.1387 Q336.829 48.5136 336.829 55.8863 Q336.829 64.6767 330.915 69.2137 Q325.041 73.7508 313.658 73.7508 Q309.364 73.7508 304.503 72.7785 Q299.682 71.8063 294.497 69.9024 L294.497 61.4765 Q299.48 64.2716 304.26 65.6895 Q309.04 67.1073 313.658 67.1073 Q320.666 67.1073 324.474 64.3527 Q328.282 61.598 328.282 56.4939 Q328.282 52.0379 325.527 49.5264 Q322.813 47.0148 316.575 45.759 L311.592 44.7868 Q302.437 42.9639 298.346 39.075 Q294.254 35.1862 294.254 28.2591 Q294.254 20.2383 299.885 15.6203 Q305.556 11.0023 315.481 11.0023 Q319.734 11.0023 324.15 11.7719 Q328.565 12.5416 333.183 14.0809 Z" fill="#000000" fill-rule="evenodd" fill-opacity="1" /><path clip-path="url(#clip820)" d="M 0 0 M344.971 12.096 L355.99 12.096 L382.807 62.6918 L382.807 12.096 L390.747 12.096 L390.747 72.576 L379.728 72.576 L352.911 21.9802 L352.911 72.576 L344.971 72.576 L344.971 12.096 Z" fill="#000000" fill-rule="evenodd" fill-opacity="1" /><path clip-path="url(#clip820)" d="M 0 0 M461.516 14.0809 L461.516 22.0612 Q456.857 19.8332 452.726 18.7395 Q448.594 17.6457 444.745 17.6457 Q438.061 17.6457 434.415 20.2383 Q430.81 22.8309 430.81 27.611 Q430.81 31.6214 433.2 33.6873 Q435.631 35.7128 442.355 36.9686 L447.297 37.9813 Q456.452 39.7232 460.787 44.1387 Q465.162 48.5136 465.162 55.8863 Q465.162 64.6767 459.247 69.2137 Q453.374 73.7508 441.991 73.7508 Q437.697 73.7508 432.836 72.7785 Q428.015 71.8063 422.83 69.9024 L422.83 61.4765 Q427.812 64.2716 432.593 65.6895 Q437.373 67.1073 441.991 67.1073 Q448.999 67.1073 452.807 64.3527 Q456.614 61.598 456.614 56.4939 Q456.614 52.0379 453.86 49.5264 Q451.146 47.0148 444.907 45.759 L439.925 44.7868 Q430.77 42.9639 426.678 39.075 Q422.587 35.1862 422.587 28.2591 Q422.587 20.2383 428.218 15.6203 Q433.889 11.0023 443.814 11.0023 Q448.067 11.0023 452.482 11.7719 Q456.898 12.5416 461.516 14.0809 Z" fill="#000000" fill-rule="evenodd" fill-opacity="1" /><path clip-path="url(#clip820)" d="M 0 0 M472.98 27.2059 L480.434 27.2059 L480.434 72.576 L472.98 72.576 L472.98 27.2059 M472.98 9.54393 L480.434 9.54393 L480.434 18.9825 L472.98 18.9825 L472.98 9.54393 Z" fill="#000000" fill-rule="evenodd" fill-opacity="1" /><path clip-path="url(#clip820)" d="M 0 0 M523.576 35.9153 Q526.371 30.8922 530.26 28.5022 Q534.149 26.1121 539.415 26.1121 Q546.504 26.1121 550.352 31.0947 Q554.201 36.0368 554.201 45.1919 L554.201 72.576 L546.707 72.576 L546.707 45.4349 Q546.707 38.913 544.397 35.7533 Q542.088 32.5936 537.349 32.5936 Q531.556 32.5936 528.194 36.4419 Q524.832 40.2903 524.832 46.9338 L524.832 72.576 L517.337 72.576 L517.337 45.4349 Q517.337 38.8725 515.028 35.7533 Q512.719 32.5936 507.899 32.5936 Q502.187 32.5936 498.825 36.4824 Q495.463 40.3308 495.463 46.9338 L495.463 72.576 L487.968 72.576 L487.968 27.2059 L495.463 27.2059 L495.463 34.2544 Q498.015 30.082 501.579 28.0971 Q505.144 26.1121 510.046 26.1121 Q514.988 26.1121 518.431 28.6237 Q521.915 31.1352 523.576 35.9153 Z" fill="#000000" fill-rule="evenodd" fill-opacity="1" /><path clip-path="url(#clip820)" d="M 0 0 M561.249 54.671 L561.249 27.2059 L568.703 27.2059 L568.703 54.3874 Q568.703 60.8284 571.214 64.0691 Q573.726 67.2693 578.749 67.2693 Q584.785 67.2693 588.269 63.421 Q591.793 59.5726 591.793 52.9291 L591.793 27.2059 L599.247 27.2059 L599.247 72.576 L591.793 72.576 L591.793 65.6084 Q589.079 69.7404 585.474 71.7658 Q581.909 73.7508 577.169 73.7508 Q569.351 73.7508 565.3 68.8897 Q561.249 64.0286 561.249 54.671 M580.005 26.1121 L580.005 26.1121 Z" fill="#000000" fill-rule="evenodd" fill-opacity="1" /><path clip-path="url(#clip820)" d="M 0 0 M607.065 9.54393 L614.519 9.54393 L614.519 72.576 L607.065 72.576 L607.065 9.54393 Z" fill="#000000" fill-rule="evenodd" fill-opacity="1" /><path clip-path="url(#clip820)" d="M 0 0 M642.956 49.7694 Q633.922 49.7694 630.439 51.8354 Q626.955 53.9013 626.955 58.8839 Q626.955 62.8538 629.548 65.2034 Q632.181 67.5124 636.677 67.5124 Q642.875 67.5124 646.602 63.1374 Q650.369 58.7219 650.369 51.4303 L650.369 49.7694 L642.956 49.7694 M657.823 46.6907 L657.823 72.576 L650.369 72.576 L650.369 65.6895 Q647.817 69.8214 644.009 71.8063 Q640.201 73.7508 634.692 73.7508 Q627.725 73.7508 623.593 69.8619 Q619.501 65.9325 619.501 59.3701 Q619.501 51.7138 624.605 47.825 Q629.75 43.9361 639.918 43.9361 L650.369 43.9361 L650.369 43.2069 Q650.369 38.0623 646.966 35.2672 Q643.604 32.4315 637.487 32.4315 Q633.598 32.4315 629.912 33.3632 Q626.226 34.295 622.823 36.1584 L622.823 29.2718 Q626.914 27.692 630.763 26.9223 Q634.611 26.1121 638.257 26.1121 Q648.101 26.1121 652.962 31.2163 Q657.823 36.3204 657.823 46.6907 Z" fill="#000000" fill-rule="evenodd" fill-opacity="1" /><path clip-path="url(#clip820)" d="M 0 0 M673.014 14.324 L673.014 27.2059 L688.367 27.2059 L688.367 32.9987 L673.014 32.9987 L673.014 57.6282 Q673.014 63.1779 674.513 64.7578 Q676.052 66.3376 680.71 66.3376 L688.367 66.3376 L688.367 72.576 L680.71 72.576 Q672.082 72.576 668.801 69.3758 Q665.52 66.1351 665.52 57.6282 L665.52 32.9987 L660.051 32.9987 L660.051 27.2059 L665.52 27.2059 L665.52 14.324 L673.014 14.324 Z" fill="#000000" fill-rule="evenodd" fill-opacity="1" /><path clip-path="url(#clip820)" d="M 0 0 M696.185 27.2059 L703.639 27.2059 L703.639 72.576 L696.185 72.576 L696.185 27.2059 M696.185 9.54393 L703.639 9.54393 L703.639 18.9825 L696.185 18.9825 L696.185 9.54393 Z" fill="#000000" fill-rule="evenodd" fill-opacity="1" /><path clip-path="url(#clip820)" d="M 0 0 M729.038 32.4315 Q723.042 32.4315 719.559 37.1306 Q716.075 41.7891 716.075 49.9314 Q716.075 58.0738 719.518 62.7728 Q723.002 67.4314 729.038 67.4314 Q734.993 67.4314 738.476 62.7323 Q741.96 58.0333 741.96 49.9314 Q741.96 41.8701 738.476 37.1711 Q734.993 32.4315 729.038 32.4315 M729.038 26.1121 Q738.76 26.1121 744.31 32.4315 Q749.859 38.7509 749.859 49.9314 Q749.859 61.0714 744.31 67.4314 Q738.76 73.7508 729.038 73.7508 Q719.275 73.7508 713.725 67.4314 Q708.216 61.0714 708.216 49.9314 Q708.216 38.7509 713.725 32.4315 Q719.275 26.1121 729.038 26.1121 Z" fill="#000000" fill-rule="evenodd" fill-opacity="1" /><path clip-path="url(#clip820)" d="M 0 0 M795.392 45.1919 L795.392 72.576 L787.938 72.576 L787.938 45.4349 Q787.938 38.994 785.426 35.7938 Q782.915 32.5936 777.892 32.5936 Q771.856 32.5936 768.372 36.4419 Q764.888 40.2903 764.888 46.9338 L764.888 72.576 L757.394 72.576 L757.394 27.2059 L764.888 27.2059 L764.888 34.2544 Q767.562 30.163 771.167 28.1376 Q774.813 26.1121 779.552 26.1121 Q787.371 26.1121 791.381 30.9732 Q795.392 35.7938 795.392 45.1919 Z" fill="#000000" fill-rule="evenodd" fill-opacity="1" /><path clip-path="url(#clip820)" d="M 0 0 M837.683 65.6895 L866.242 65.6895 L866.242 72.576 L827.839 72.576 L827.839 65.6895 Q832.498 60.8689 840.519 52.7671 Q848.58 44.6248 850.646 42.2752 Q854.575 37.8598 856.115 34.8216 Q857.694 31.7429 857.694 28.7857 Q857.694 23.9651 854.292 20.927 Q850.929 17.8888 845.501 17.8888 Q841.653 17.8888 837.359 19.2256 Q833.105 20.5624 828.244 23.2765 L828.244 15.0127 Q833.186 13.0277 837.48 12.015 Q841.774 11.0023 845.339 11.0023 Q854.737 11.0023 860.328 15.7013 Q865.918 20.4004 865.918 28.2591 Q865.918 31.9859 864.5 35.3482 Q863.123 38.6699 859.436 43.2069 Q858.424 44.3817 852.995 50.0125 Q847.567 55.6027 837.683 65.6895 Z" fill="#000000" fill-rule="evenodd" fill-opacity="1" /><path clip-path="url(#clip820)" d="M 0 0 M875.113 62.2867 L883.661 62.2867 L883.661 72.576 L875.113 72.576 L875.113 62.2867 Z" fill="#000000" fill-rule="evenodd" fill-opacity="1" /><path clip-path="url(#clip820)" d="M 0 0 M893.95 65.6895 L907.318 65.6895 L907.318 19.5497 L892.775 22.4663 L892.775 15.0127 L907.237 12.096 L915.42 12.096 L915.42 65.6895 L928.788 65.6895 L928.788 72.576 L893.95 72.576 L893.95 65.6895 Z" fill="#000000" fill-rule="evenodd" fill-opacity="1" /><path clip-path="url(#clip820)" d="M 0 0 M959.21 46.5287 L981.044 46.5287 L981.044 53.1722 L959.21 53.1722 L959.21 46.5287 Z" fill="#000000" fill-rule="evenodd" fill-opacity="1" /><path clip-path="url(#clip820)" d="M 0 0 M1038.36 9.54393 L1038.36 26.2742 Q1046.43 26.2742 1051.81 32.472 Q1057.36 38.7915 1057.36 49.9314 Q1057.36 61.0714 1051.81 67.3908 Q1046.43 73.5887 1038.36 73.5887 L1038.36 89.8329 L1030.95 89.8329 L1030.95 73.5887 Q1022.89 73.5887 1017.46 67.3908 Q1011.95 61.0714 1011.95 49.9314 Q1011.95 38.7915 1017.46 32.472 Q1022.89 26.2742 1030.95 26.2742 L1030.95 9.54393 L1038.36 9.54393 M1038.36 66.9452 Q1042.94 66.9452 1046.06 62.7728 Q1049.46 58.1143 1049.5 49.9314 Q1049.55 41.8296 1046.06 37.0901 Q1042.94 32.9176 1038.36 32.9176 L1038.36 66.9452 M1030.95 66.9452 L1030.95 32.9176 Q1026.37 32.9176 1023.3 37.0901 Q1019.77 41.8296 1019.81 49.9314 Q1019.85 58.1143 1023.3 62.7728 Q1026.37 66.9452 1030.95 66.9452 Z" fill="#000000" fill-rule="evenodd" fill-opacity="1" /><path clip-path="url(#clip820)" d="M 0 0 M1083.09 9.62495 Q1077.66 18.942 1075.03 28.0566 Q1072.39 37.1711 1072.39 46.5287 Q1072.39 55.8863 1075.03 65.0818 Q1077.7 74.2369 1083.09 83.5134 L1076.61 83.5134 Q1070.53 73.9938 1067.49 64.7983 Q1064.49 55.6027 1064.49 46.5287 Q1064.49 37.4952 1067.49 28.3401 Q1070.49 19.1851 1076.61 9.62495 L1083.09 9.62495 Z" fill="#000000" fill-rule="evenodd" fill-opacity="1" /><path clip-path="url(#clip820)" d="M 0 0 M1128.62 27.2059 L1112.21 49.2833 L1129.47 72.576 L1120.68 72.576 L1107.47 54.752 L1094.27 72.576 L1085.48 72.576 L1103.1 48.8377 L1086.98 27.2059 L1095.77 27.2059 L1107.8 43.369 L1119.83 27.2059 L1128.62 27.2059 Z" fill="#000000" fill-rule="evenodd" fill-opacity="1" /><path clip-path="url(#clip820)" d="M 0 0 M1136.11 9.62495 L1142.59 9.62495 Q1148.67 19.1851 1151.67 28.3401 Q1154.71 37.4952 1154.71 46.5287 Q1154.71 55.6027 1151.67 64.7983 Q1148.67 73.9938 1142.59 83.5134 L1136.11 83.5134 Q1141.5 74.2369 1144.13 65.0818 Q1146.81 55.8863 1146.81 46.5287 Q1146.81 37.1711 1144.13 28.0566 Q1141.5 18.942 1136.11 9.62495 Z" fill="#000000" fill-rule="evenodd" fill-opacity="1" /><path clip-path="url(#clip820)" d="M 0 0 M1209.52 49.7694 Q1200.48 49.7694 1197 51.8354 Q1193.51 53.9013 1193.51 58.8839 Q1193.51 62.8538 1196.11 65.2034 Q1198.74 67.5124 1203.24 67.5124 Q1209.43 67.5124 1213.16 63.1374 Q1216.93 58.7219 1216.93 51.4303 L1216.93 49.7694 L1209.52 49.7694 M1224.38 46.6907 L1224.38 72.576 L1216.93 72.576 L1216.93 65.6895 Q1214.38 69.8214 1210.57 71.8063 Q1206.76 73.7508 1201.25 73.7508 Q1194.28 73.7508 1190.15 69.8619 Q1186.06 65.9325 1186.06 59.3701 Q1186.06 51.7138 1191.16 47.825 Q1196.31 43.9361 1206.48 43.9361 L1216.93 43.9361 L1216.93 43.2069 Q1216.93 38.0623 1213.53 35.2672 Q1210.16 32.4315 1204.05 32.4315 Q1200.16 32.4315 1196.47 33.3632 Q1192.79 34.295 1189.38 36.1584 L1189.38 29.2718 Q1193.47 27.692 1197.32 26.9223 Q1201.17 26.1121 1204.82 26.1121 Q1214.66 26.1121 1219.52 31.2163 Q1224.38 36.3204 1224.38 46.6907 Z" fill="#000000" fill-rule="evenodd" fill-opacity="1" /><path clip-path="url(#clip820)" d="M 0 0 M1262.06 49.3643 Q1262.06 41.2625 1258.69 36.8065 Q1255.37 32.3505 1249.34 32.3505 Q1243.34 32.3505 1239.98 36.8065 Q1236.66 41.2625 1236.66 49.3643 Q1236.66 57.4256 1239.98 61.8816 Q1243.34 66.3376 1249.34 66.3376 Q1255.37 66.3376 1258.69 61.8816 Q1262.06 57.4256 1262.06 49.3643 M1269.51 66.9452 Q1269.51 78.5308 1264.36 84.1616 Q1259.22 89.8329 1248.61 89.8329 Q1244.68 89.8329 1241.19 89.2252 Q1237.71 88.6581 1234.43 87.4428 L1234.43 80.1917 Q1237.71 81.9741 1240.91 82.8248 Q1244.11 83.6755 1247.43 83.6755 Q1254.76 83.6755 1258.41 79.8271 Q1262.06 76.0193 1262.06 68.282 L1262.06 64.5957 Q1259.75 68.6061 1256.14 70.5911 Q1252.54 72.576 1247.51 72.576 Q1239.17 72.576 1234.06 66.2161 Q1228.96 59.8562 1228.96 49.3643 Q1228.96 38.832 1234.06 32.472 Q1239.17 26.1121 1247.51 26.1121 Q1252.54 26.1121 1256.14 28.0971 Q1259.75 30.082 1262.06 34.0924 L1262.06 27.2059 L1269.51 27.2059 L1269.51 66.9452 Z" fill="#000000" fill-rule="evenodd" fill-opacity="1" /><path clip-path="url(#clip820)" d="M 0 0 M1297.95 49.7694 Q1288.91 49.7694 1285.43 51.8354 Q1281.95 53.9013 1281.95 58.8839 Q1281.95 62.8538 1284.54 65.2034 Q1287.17 67.5124 1291.67 67.5124 Q1297.87 67.5124 1301.59 63.1374 Q1305.36 58.7219 1305.36 51.4303 L1305.36 49.7694 L1297.95 49.7694 M1312.81 46.6907 L1312.81 72.576 L1305.36 72.576 L1305.36 65.6895 Q1302.81 69.8214 1299 71.8063 Q1295.19 73.7508 1289.68 73.7508 Q1282.72 73.7508 1278.58 69.8619 Q1274.49 65.9325 1274.49 59.3701 Q1274.49 51.7138 1279.6 47.825 Q1284.74 43.9361 1294.91 43.9361 L1305.36 43.9361 L1305.36 43.2069 Q1305.36 38.0623 1301.96 35.2672 Q1298.59 32.4315 1292.48 32.4315 Q1288.59 32.4315 1284.9 33.3632 Q1281.22 34.295 1277.81 36.1584 L1277.81 29.2718 Q1281.91 27.692 1285.75 26.9223 Q1289.6 26.1121 1293.25 26.1121 Q1303.09 26.1121 1307.95 31.2163 Q1312.81 36.3204 1312.81 46.6907 Z" fill="#000000" fill-rule="evenodd" fill-opacity="1" /><path clip-path="url(#clip820)" d="M 0 0 M1320.63 27.2059 L1328.09 27.2059 L1328.09 72.576 L1320.63 72.576 L1320.63 27.2059 M1320.63 9.54393 L1328.09 9.54393 L1328.09 18.9825 L1320.63 18.9825 L1320.63 9.54393 Z" fill="#000000" fill-rule="evenodd" fill-opacity="1" /><path clip-path="url(#clip820)" d="M 0 0 M1373.62 45.1919 L1373.62 72.576 L1366.16 72.576 L1366.16 45.4349 Q1366.16 38.994 1363.65 35.7938 Q1361.14 32.5936 1356.12 32.5936 Q1350.08 32.5936 1346.6 36.4419 Q1343.11 40.2903 1343.11 46.9338 L1343.11 72.576 L1335.62 72.576 L1335.62 27.2059 L1343.11 27.2059 L1343.11 34.2544 Q1345.79 30.163 1349.39 28.1376 Q1353.04 26.1121 1357.78 26.1121 Q1365.6 26.1121 1369.61 30.9732 Q1373.62 35.7938 1373.62 45.1919 Z" fill="#000000" fill-rule="evenodd" fill-opacity="1" /><path clip-path="url(#clip820)" d="M 0 0 M1410.36 28.5427 L1410.36 35.5912 Q1407.2 33.9709 1403.8 33.1607 Q1400.39 32.3505 1396.75 32.3505 Q1391.2 32.3505 1388.4 34.0519 Q1385.65 35.7533 1385.65 39.156 Q1385.65 41.7486 1387.63 43.2475 Q1389.62 44.7058 1395.61 46.0426 L1398.17 46.6097 Q1406.11 48.3111 1409.43 51.4303 Q1412.79 54.509 1412.79 60.0587 Q1412.79 66.3781 1407.77 70.0644 Q1402.78 73.7508 1394.03 73.7508 Q1390.39 73.7508 1386.42 73.0216 Q1382.49 72.3329 1378.11 70.9151 L1378.11 63.2184 Q1382.25 65.3654 1386.26 66.4591 Q1390.27 67.5124 1394.2 67.5124 Q1399.46 67.5124 1402.3 65.73 Q1405.13 63.9071 1405.13 60.6258 Q1405.13 57.5877 1403.07 55.9673 Q1401.04 54.3469 1394.12 52.8481 L1391.52 52.2405 Q1384.6 50.7821 1381.52 47.7845 Q1378.44 44.7463 1378.44 39.4801 Q1378.44 33.0797 1382.98 29.5959 Q1387.51 26.1121 1395.86 26.1121 Q1399.99 26.1121 1403.63 26.7198 Q1407.28 27.3274 1410.36 28.5427 Z" fill="#000000" fill-rule="evenodd" fill-opacity="1" /><path clip-path="url(#clip820)" d="M 0 0 M1427.98 14.324 L1427.98 27.2059 L1443.33 27.2059 L1443.33 32.9987 L1427.98 32.9987 L1427.98 57.6282 Q1427.98 63.1779 1429.48 64.7578 Q1431.02 66.3376 1435.68 66.3376 L1443.33 66.3376 L1443.33 72.576 L1435.68 72.576 Q1427.05 72.576 1423.77 69.3758 Q1420.49 66.1351 1420.49 57.6282 L1420.49 32.9987 L1415.02 32.9987 L1415.02 27.2059 L1420.49 27.2059 L1420.49 14.324 L1427.98 14.324 Z" fill="#000000" fill-rule="evenodd" fill-opacity="1" /><path clip-path="url(#clip820)" d="M 0 0 M1515.24 27.2059 L1498.83 49.2833 L1516.09 72.576 L1507.3 72.576 L1494.09 54.752 L1480.89 72.576 L1472.1 72.576 L1489.72 48.8377 L1473.59 27.2059 L1482.38 27.2059 L1494.42 43.369 L1506.45 27.2059 L1515.24 27.2059 Z" fill="#000000" fill-rule="evenodd" fill-opacity="1" /><polyline clip-path="url(#clip822)" style="stroke:#009af9; stroke-width:4; stroke-opacity:1; fill:none" points="
  1514.74,156.104 1510.04,161.301 1504.79,167.085 1499,173.441 1492.68,180.358 1485.83,187.818 1478.47,195.805 1470.59,204.3 1462.22,213.285 1453.36,222.739 
  1444.03,232.64 1434.23,242.965 1423.98,253.691 1413.3,264.793 1402.2,276.248 1390.69,288.029 1378.79,300.112 1366.52,312.469 1353.89,325.075 1340.92,337.904 
  1327.62,350.929 1314.02,364.125 1300.13,377.465 1285.97,390.924 1271.56,404.478 1256.92,418.101 1242.06,431.77 1227,445.462 1211.76,459.153 1196.37,472.824 
  1180.82,486.451 1165.15,500.017 1149.38,513.501 1133.51,526.886 1117.57,540.155 1101.56,553.291 1085.52,566.28 1069.45,579.108 1053.37,591.762 1037.29,604.23 
  1021.24,616.501 1005.21,628.566 989.233,640.415 973.313,652.042 957.465,663.438 941.7,674.598 926.03,685.516 910.465,696.189 895.017,706.614 879.695,716.786 
  864.508,726.706 849.465,736.37 834.574,745.779 819.843,754.933 805.28,763.832 790.89,772.478 776.68,780.872 762.657,789.016 748.824,796.913 735.188,804.565 
  721.752,811.977 708.52,819.152 695.495,826.093 682.682,832.804 670.082,839.291 657.699,845.557 645.533,851.607 633.586,857.446 621.861,863.079 610.357,868.512 
  599.077,873.748 588.019,878.793 577.184,883.653 566.572,888.333 556.183,892.837 546.016,897.171 536.07,901.34 526.344,905.349 516.838,909.203 507.549,912.907 
  498.476,916.466 489.618,919.885 480.972,923.168 472.537,926.321 464.311,929.347 456.291,932.251 448.475,935.038 440.86,937.711 433.445,940.275 426.227,942.733 
  419.202,945.09 412.368,947.35 405.724,949.515 399.264,951.59 392.988,953.578 386.892,955.482 380.973,957.306 375.228,959.053 369.655,960.725 364.249,962.326 
  359.01,963.858 353.932,965.324 349.015,966.726 344.253,968.068 339.646,969.351 335.189,970.578 330.879,971.75 326.715,972.871 322.692,973.943 318.808,974.966 
  315.061,975.943 311.447,976.876 307.963,977.767 304.607,978.617 301.376,979.428 298.268,980.201 295.279,980.938 292.407,981.64 289.65,982.308 287.004,982.945 
  284.468,983.55 282.038,984.126 279.713,984.673 277.489,985.193 275.365,985.686 273.338,986.154 271.406,986.597 269.567,987.016 267.817,987.412 266.156,987.787 
  264.581,988.14 263.089,988.473 261.68,988.787 260.349,989.081 259.097,989.357 257.92,989.615 256.817,989.857 255.786,990.081 254.825,990.29 253.932,990.484 
  253.105,990.662 252.343,990.826 251.644,990.976 251.006,991.113 250.427,991.237 249.907,991.348 249.443,991.447 249.033,991.534 248.678,991.61 248.373,991.675 
  248.12,991.728 247.915,991.772 247.758,991.805 247.647,991.829 247.58,991.843 247.558,991.848 247.578,991.843 247.638,991.831 247.739,991.809 247.878,991.78 
  248.055,991.742 248.268,991.697 248.516,991.644 248.798,991.584 249.114,991.517 249.461,991.443 249.84,991.363 250.248,991.275 250.685,991.182 251.151,991.082 
  251.644,990.976 252.163,990.865 252.707,990.748 253.276,990.625 253.868,990.497 254.483,990.364 255.121,990.226 255.779,990.083 256.458,989.935 257.157,989.782 
  257.875,989.625 258.611,989.464 259.364,989.298 260.134,989.129 260.921,988.955 261.723,988.777 262.54,988.596 263.371,988.411 264.216,988.222 265.074,988.03 
  265.945,987.835 266.827,987.636 267.721,987.434 268.626,987.229 269.541,987.022 270.465,986.811 271.4,986.598 272.343,986.382 273.294,986.164 274.253,985.943 
  275.22,985.72 276.193,985.494 277.173,985.266 278.159,985.037 279.151,984.805 280.149,984.571 281.151,984.335 282.157,984.098 283.168,983.859 284.183,983.618 
  285.201,983.376 286.222,983.132 287.246,982.887 288.273,982.64 289.301,982.392 290.331,982.143 291.363,981.893 292.396,981.642 293.43,981.39 294.465,981.137 
  295.5,980.883 296.535,980.629 297.57,980.373 298.604,980.117 299.638,979.861 300.671,979.604 301.702,979.346 302.733,979.088 303.762,978.83 304.789,978.571 
  305.814,978.312 306.836,978.053 307.857,977.794 308.874,977.535 309.889,977.276 310.901,977.016 311.91,976.757 312.916,976.498 313.918,976.239 314.917,975.981 
  315.911,975.722 316.902,975.464 317.889,975.207 318.871,974.949 319.849,974.693 320.823,974.436 321.792,974.181 322.756,973.926 323.715,973.671 324.67,973.417 
  325.619,973.164 326.563,972.912 327.502,972.661 328.435,972.41 329.363,972.16 330.285,971.911 331.201,971.663 332.112,971.416 333.017,971.17 333.916,970.925 
  334.809,970.682 335.695,970.439 336.576,970.197 337.45,969.957 338.318,969.718 339.18,969.48 340.035,969.243 340.884,969.007 341.727,968.773 342.562,968.54 
  343.391,968.309 344.214,968.079 345.029,967.85 345.838,967.623 346.641,967.397 347.436,967.173 348.224,966.95 349.006,966.729 349.78,966.509 350.548,966.291 
  351.309,966.074 352.062,965.859 352.809,965.645 353.549,965.434 354.281,965.223 355.007,965.015 355.725,964.808 356.437,964.603 357.141,964.399 357.838,964.197 
  358.528,963.997 359.211,963.799 359.887,963.602 360.556,963.408 361.217,963.215 361.872,963.023 362.519,962.834 363.159,962.646 363.793,962.46 364.419,962.276 
  365.038,962.093 365.65,961.913 366.255,961.734 366.853,961.557 367.443,961.382 368.027,961.209 368.604,961.038 369.174,960.868 369.737,960.7 370.293,960.534 
  370.843,960.37 371.385,960.208 371.92,960.048 372.449,959.889 372.971,959.733 373.486,959.578 373.994,959.425 374.496,959.274 374.991,959.124 375.479,958.977 
  375.961,958.831 376.436,958.687 376.905,958.545 377.367,958.405 377.823,958.267 378.272,958.13 378.715,957.996 379.151,957.863 379.582,957.731 380.006,957.602 
  380.423,957.474 380.835,957.349 381.24,957.225 381.639,957.102 382.032,956.982 382.419,956.863 382.8,956.746 383.175,956.631 383.545,956.517 383.908,956.405 
  384.265,956.295 384.617,956.186 384.963,956.079 385.304,955.974 385.638,955.871 385.967,955.769 386.291,955.669 386.609,955.57 386.922,955.473 387.229,955.378 
  387.531,955.284 387.828,955.192 388.119,955.101 388.405,955.012 388.686,954.925 388.962,954.839 389.233,954.754 389.499,954.671 389.76,954.59 390.016,954.51 
  390.267,954.431 390.513,954.354 390.755,954.279 390.992,954.205 391.224,954.132 391.451,954.061 391.675,953.991 391.893,953.922 392.107,953.855 392.317,953.789 
  392.522,953.725 392.723,953.661 392.92,953.6 393.112,953.539 393.301,953.48 393.485,953.422 393.665,953.365 393.841,953.31 394.013,953.255 394.182,953.202 
  394.346,953.15 394.507,953.1 394.664,953.05 394.817,953.002 394.966,952.955 395.112,952.908 395.254,952.863 395.393,952.82 395.528,952.777 395.66,952.735 
  395.789,952.695 395.914,952.655 396.035,952.616 396.154,952.579 396.269,952.542 396.382,952.507 396.491,952.472 396.597,952.438 396.7,952.406 396.8,952.374 
  396.897,952.343 396.991,952.313 397.083,952.284 397.171,952.256 397.257,952.229 397.34,952.203 397.421,952.177 397.499,952.152 397.574,952.128 397.647,952.105 
  397.717,952.083 397.785,952.061 397.85,952.04 397.913,952.02 397.974,952.001 398.032,951.983 398.089,951.965 398.143,951.947 398.194,951.931 398.244,951.915 
  398.292,951.9 398.337,951.886 398.38,951.872 398.422,951.859 398.462,951.846 398.499,951.834 398.535,951.823 398.569,951.812 398.601,951.802 398.631,951.792 
  398.66,951.783 398.687,951.774 398.712,951.766 398.736,951.759 398.758,951.752 398.778,951.745 398.797,951.739 398.815,951.733 398.831,951.728 398.845,951.724 
  398.859,951.719 398.87,951.716 398.881,951.712 398.89,951.709 398.898,951.707 398.904,951.705 398.91,951.703 398.914,951.702 398.917,951.701 398.919,951.7 
  398.92,951.7 398.919,951.7 398.918,951.701 398.916,951.701 398.912,951.702 398.908,951.704 398.903,951.705 398.896,951.707 398.889,951.71 398.881,951.712 
  398.872,951.715 398.862,951.718 398.852,951.722 398.841,951.725 398.829,951.729 398.816,951.733 398.802,951.737 398.788,951.742 398.773,951.747 398.757,951.752 
  398.741,951.757 398.724,951.762 398.707,951.768 398.689,951.773 398.671,951.779 398.651,951.785 398.632,951.792 398.612,951.798 398.591,951.805 398.57,951.811 
  398.549,951.818 398.527,951.825 398.505,951.832 398.482,951.839 398.459,951.847 398.435,951.854 398.411,951.862 398.387,951.87 398.363,951.877 398.338,951.885 
  398.313,951.893 398.288,951.901 398.262,951.909 398.236,951.918 398.21,951.926 398.184,951.934 398.158,951.943 398.131,951.951 398.104,951.96 398.077,951.968 
  398.05,951.977 398.023,951.986 397.995,951.994 397.968,952.003 397.94,952.012 397.912,952.021 397.885,952.03 397.857,952.038 397.829,952.047 397.801,952.056 
  397.772,952.065 397.744,952.074 397.716,952.083 397.688,952.092 397.66,952.101 397.632,952.11 397.603,952.119 397.575,952.128 397.547,952.137 397.519,952.146 
  397.491,952.155 397.463,952.164 397.434,952.173 397.406,952.181 397.379,952.19 397.351,952.199 397.323,952.208 397.295,952.217 397.268,952.226 397.24,952.234 
  397.213,952.243 397.185,952.252 397.158,952.26 397.131,952.269 397.104,952.278 397.077,952.286 397.05,952.295 397.024,952.303 396.997,952.311 396.971,952.32 
  396.945,952.328 396.919,952.336 396.893,952.345 396.867,952.353 396.842,952.361 396.816,952.369 396.791,952.377 396.766,952.385 396.741,952.393 396.716,952.401 
  396.692,952.408 396.667,952.416 396.643,952.424 396.619,952.431 396.596,952.439 396.572,952.446 396.549,952.454 396.525,952.461 396.502,952.468 396.479,952.476 
  396.457,952.483 396.434,952.49 396.412,952.497 396.39,952.504 396.368,952.511 396.347,952.518 396.325,952.524 396.304,952.531 396.283,952.538 396.262,952.544 
  396.242,952.551 396.222,952.557 396.201,952.564 396.182,952.57 396.162,952.576 396.142,952.582 396.123,952.589 396.104,952.595 396.085,952.601 396.066,952.606 
  396.048,952.612 396.03,952.618 396.012,952.624 395.994,952.629 395.977,952.635 395.959,952.64 395.942,952.646 395.925,952.651 395.908,952.657 395.892,952.662 
  395.876,952.667 395.86,952.672 395.844,952.677 395.828,952.682 395.813,952.687 395.797,952.692 395.782,952.696 395.767,952.701 395.753,952.706 395.738,952.71 
  395.724,952.715 395.71,952.719 395.696,952.724 395.683,952.728 395.669,952.732 395.656,952.736 395.643,952.741 395.63,952.745 395.618,952.749 395.605,952.752 
  395.593,952.756 395.581,952.76 395.569,952.764 395.557,952.768 395.546,952.771 395.535,952.775 395.524,952.778 395.513,952.782 395.502,952.785 395.491,952.789 
  395.481,952.792 395.471,952.795 395.461,952.798 395.451,952.801 395.441,952.804 395.432,952.807 395.422,952.81 395.413,952.813 395.404,952.816 395.395,952.819 
  395.387,952.822 395.378,952.824 395.37,952.827 395.362,952.83 395.354,952.832 395.346,952.835 395.338,952.837 395.33,952.839 395.323,952.842 395.316,952.844 
  395.309,952.846 395.302,952.849 395.295,952.851 395.288,952.853 395.282,952.855 395.275,952.857 395.269,952.859 395.263,952.861 395.257,952.863 395.251,952.865 
  395.245,952.866 395.24,952.868 395.234,952.87 395.229,952.872 395.224,952.873 395.218,952.875 395.213,952.876 395.209,952.878 395.204,952.879 395.199,952.881 
  395.195,952.882 395.19,952.884 395.186,952.885 395.182,952.886 395.178,952.888 395.174,952.889 395.17,952.89 395.166,952.891 395.163,952.892 395.159,952.894 
  395.156,952.895 395.152,952.896 395.149,952.897 395.146,952.898 395.143,952.899 395.14,952.9 395.137,952.901 395.134,952.901 395.132,952.902 395.129,952.903 
  395.127,952.904 395.124,952.905 395.122,952.905 395.119,952.906 395.117,952.907 395.115,952.907 395.113,952.908 395.111,952.909 395.109,952.909 395.107,952.91 
  395.106,952.91 395.104,952.911 395.102,952.911 395.101,952.912 395.099,952.912 395.098,952.913 395.097,952.913 395.096,952.914 395.094,952.914 395.093,952.914 
  395.092,952.915 395.091,952.915 395.09,952.915 395.089,952.916 395.088,952.916 395.087,952.916 395.087,952.916 395.086,952.917 395.085,952.917 395.085,952.917 
  395.084,952.917 395.084,952.917 395.083,952.918 395.083,952.918 395.083,952.918 395.082,952.918 395.082,952.918 395.082,952.918 395.081,952.918 395.081,952.918 
  395.081,952.918 395.081,952.918 395.081,952.918 395.081,952.918 395.081,952.918 395.081,952.918 395.081,952.918 395.081,952.918 395.082,952.918 395.082,952.918 
  395.082,952.918 395.082,952.918 395.082,952.918 395.083,952.918 395.083,952.918 395.083,952.918 395.084,952.917 395.084,952.917 395.085,952.917 395.085,952.917 
  395.086,952.917 395.086,952.917 395.087,952.917 395.087,952.916 395.088,952.916 395.088,952.916 395.089,952.916 395.089,952.916 395.09,952.915 395.091,952.915 
  395.091,952.915 395.092,952.915 395.093,952.915 395.093,952.914 395.094,952.914 395.095,952.914 395.096,952.914 395.096,952.913 395.097,952.913 395.098,952.913 
  395.099,952.913 395.1,952.912 395.1,952.912 395.101,952.912 395.102,952.912 395.103,952.911 395.104,952.911 395.105,952.911 395.105,952.911 395.106,952.91 
  395.107,952.91 395.108,952.91 395.109,952.909 395.11,952.909 395.111,952.909 395.112,952.909 395.112,952.908 395.113,952.908 395.114,952.908 395.115,952.907 
  395.116,952.907 395.117,952.907 395.118,952.907 395.119,952.906 395.12,952.906 395.121,952.906 395.122,952.905 395.123,952.905 395.123,952.905 395.124,952.905 
  395.125,952.904 395.126,952.904 395.127,952.904 395.128,952.903 395.129,952.903 395.13,952.903 395.131,952.903 395.132,952.902 395.133,952.902 395.134,952.902 
  395.134,952.901 395.135,952.901 395.136,952.901 395.137,952.901 395.138,952.9 395.139,952.9 395.14,952.9 395.141,952.899 395.142,952.899 395.142,952.899 
  395.143,952.899 395.144,952.898 395.145,952.898 395.146,952.898 395.147,952.898 395.148,952.897 395.148,952.897 395.149,952.897 395.15,952.896 395.151,952.896 
  395.152,952.896 395.152,952.896 395.153,952.895 395.154,952.895 395.155,952.895 395.156,952.895 395.156,952.894 395.157,952.894 395.158,952.894 395.159,952.894 
  395.159,952.893 395.16,952.893 395.161,952.893 395.162,952.893 395.162,952.893 395.163,952.892 395.164,952.892 395.165,952.892 395.165,952.892 395.166,952.891 
  395.167,952.891 395.167,952.891 395.168,952.891 395.169,952.891 395.169,952.89 395.17,952.89 395.171,952.89 395.171,952.89 395.172,952.89 395.173,952.889 
  395.173,952.889 395.174,952.889 395.174,952.889 395.175,952.889 395.176,952.888 395.176,952.888 395.177,952.888 395.177,952.888 395.178,952.888 395.178,952.887 
  395.179,952.887 395.18,952.887 395.18,952.887 395.181,952.887 395.181,952.887 395.182,952.886 395.182,952.886 395.183,952.886 395.183,952.886 395.184,952.886 
  395.184,952.886 395.185,952.886 395.185,952.885 395.186,952.885 395.186,952.885 395.186,952.885 395.187,952.885 395.187,952.885 395.188,952.885 395.188,952.884 
  395.189,952.884 395.189,952.884 395.189,952.884 395.19,952.884 395.19,952.884 395.191,952.884 395.191,952.884 395.191,952.883 395.192,952.883 395.192,952.883 
  395.192,952.883 395.193,952.883 395.193,952.883 395.193,952.883 395.194,952.883 395.194,952.883 395.194,952.882 395.195,952.882 395.195,952.882 395.195,952.882 
  395.196,952.882 395.196,952.882 395.196,952.882 395.197,952.882 395.197,952.882 395.197,952.882 395.197,952.881 395.198,952.881 395.198,952.881 395.198,952.881 
  395.198,952.881 395.199,952.881 395.199,952.881 395.199,952.881 395.199,952.881 395.2,952.881 395.2,952.881 395.2,952.881 395.2,952.881 395.2,952.881 
  395.201,952.88 395.201,952.88 395.201,952.88 395.201,952.88 395.201,952.88 395.201,952.88 395.202,952.88 395.202,952.88 395.202,952.88 395.202,952.88 
  395.202,952.88 395.202,952.88 395.203,952.88 395.203,952.88 395.203,952.88 395.203,952.88 395.203,952.88 395.203,952.88 395.203,952.88 395.204,952.88 
  395.204,952.879 395.204,952.879 395.204,952.879 395.204,952.879 395.204,952.879 395.204,952.879 395.204,952.879 395.204,952.879 395.205,952.879 395.205,952.879 
  395.205,952.879 395.205,952.879 395.205,952.879 395.205,952.879 395.205,952.879 395.205,952.879 395.205,952.879 395.205,952.879 395.205,952.879 395.205,952.879 
  395.205,952.879 395.206,952.879 395.206,952.879 395.206,952.879 395.206,952.879 395.206,952.879 395.206,952.879 395.206,952.879 395.206,952.879 395.206,952.879 
  395.206,952.879 395.206,952.879 395.206,952.879 395.206,952.879 395.206,952.879 395.206,952.879 395.206,952.879 395.206,952.879 395.206,952.879 395.206,952.879 
  395.206,952.879 395.206,952.879 395.206,952.879 395.206,952.879 395.206,952.879 395.206,952.879 395.206,952.879 395.206,952.879 395.206,952.879 395.206,952.879 
  395.206,952.879 395.206,952.879 395.206,952.879 395.206,952.879 395.206,952.879 395.206,952.879 395.206,952.879 395.206,952.879 395.206,952.879 395.206,952.879 
  395.206,952.879 
  "/>
<path clip-path="url(#clip820)" d="
M1277.16 281.522 L1507.98 281.522 L1507.98 160.562 L1277.16 160.562  Z
  " fill="#ffffff" fill-rule="evenodd" fill-opacity="1"/>
<polyline clip-path="url(#clip820)" style="stroke:#000000; stroke-width:4; stroke-opacity:1; fill:none" points="
  1277.16,281.522 1507.98,281.522 1507.98,160.562 1277.16,160.562 1277.16,281.522 
  "/>
<polyline clip-path="url(#clip820)" style="stroke:#009af9; stroke-width:4; stroke-opacity:1; fill:none" points="
  1292.09,221.042 1381.63,221.042 
  "/>
<path clip-path="url(#clip820)" d="M 0 0 M1411.65 202.303 L1411.65 211.864 Q1416.26 211.864 1419.34 215.405 Q1422.51 219.016 1422.51 225.382 Q1422.51 231.748 1419.34 235.359 Q1416.26 238.9 1411.65 238.9 L1411.65 248.183 L1407.42 248.183 L1407.42 238.9 Q1402.81 238.9 1399.71 235.359 Q1396.56 231.748 1396.56 225.382 Q1396.56 219.016 1399.71 215.405 Q1402.81 211.864 1407.42 211.864 L1407.42 202.303 L1411.65 202.303 M1411.65 235.104 Q1414.27 235.104 1416.05 232.72 Q1417.99 230.058 1418.02 225.382 Q1418.04 220.752 1416.05 218.044 Q1414.27 215.66 1411.65 215.66 L1411.65 235.104 M1407.42 235.104 L1407.42 215.66 Q1404.8 215.66 1403.04 218.044 Q1401.03 220.752 1401.05 225.382 Q1401.07 230.058 1403.04 232.72 Q1404.8 235.104 1407.42 235.104 Z" fill="#000000" fill-rule="evenodd" fill-opacity="1" /><path clip-path="url(#clip820)" d="M 0 0 M1437.21 202.35 Q1434.11 207.674 1432.6 212.882 Q1431.1 218.09 1431.1 223.438 Q1431.1 228.785 1432.6 234.039 Q1434.13 239.271 1437.21 244.572 L1433.5 244.572 Q1430.03 239.132 1428.3 233.877 Q1426.58 228.623 1426.58 223.438 Q1426.58 218.276 1428.3 213.044 Q1430.01 207.813 1433.5 202.35 L1437.21 202.35 Z" fill="#000000" fill-rule="evenodd" fill-opacity="1" /><path clip-path="url(#clip820)" d="M 0 0 M1463.23 212.396 L1453.85 225.012 L1463.71 238.322 L1458.69 238.322 L1451.14 228.137 L1443.6 238.322 L1438.57 238.322 L1448.64 224.757 L1439.43 212.396 L1444.45 212.396 L1451.33 221.632 L1458.2 212.396 L1463.23 212.396 Z" fill="#000000" fill-rule="evenodd" fill-opacity="1" /><path clip-path="url(#clip820)" d="M 0 0 M1467.51 202.35 L1471.21 202.35 Q1474.68 207.813 1476.4 213.044 Q1478.13 218.276 1478.13 223.438 Q1478.13 228.623 1476.4 233.877 Q1474.68 239.132 1471.21 244.572 L1467.51 244.572 Q1470.59 239.271 1472.09 234.039 Q1473.62 228.785 1473.62 223.438 Q1473.62 218.09 1472.09 212.882 Q1470.59 207.674 1467.51 202.35 Z" fill="#000000" fill-rule="evenodd" fill-opacity="1" /></svg>
