<?xml version="1.0" encoding="utf-8"?>
<svg xmlns="http://www.w3.org/2000/svg" xmlns:xlink="http://www.w3.org/1999/xlink" width="400" height="300" viewBox="0 0 1600 1200">
<defs>
  <clipPath id="clip620">
    <rect x="0" y="0" width="1600" height="1200"/>
  </clipPath>
</defs>
<path clip-path="url(#clip620)" d="
M0 1200 L1600 1200 L1600 0 L0 0  Z
  " fill="#ffffff" fill-rule="evenodd" fill-opacity="1"/>
<defs>
  <clipPath id="clip621">
    <rect x="320" y="0" width="1121" height="1121"/>
  </clipPath>
</defs>
<path clip-path="url(#clip620)" d="
M266.278 1016.92 L1552.76 1016.92 L1552.76 179.632 L266.278 179.632  Z
  " fill="#ffffff" fill-rule="evenodd" fill-opacity="1"/>
<defs>
  <clipPath id="clip622">
    <rect x="266" y="179" width="1287" height="838"/>
  </clipPath>
</defs>
<polyline clip-path="url(#clip622)" style="stroke:#000000; stroke-width:2; stroke-opacity:0.1; fill:none" points="
  301.474,1016.92 301.474,179.632 
  "/>
<polyline clip-path="url(#clip622)" style="stroke:#000000; stroke-width:2; stroke-opacity:0.1; fill:none" points="
  604.889,1016.92 604.889,179.632 
  "/>
<polyline clip-path="url(#clip622)" style="stroke:#000000; stroke-width:2; stroke-opacity:0.1; fill:none" points="
  908.303,1016.92 908.303,179.632 
  "/>
<polyline clip-path="url(#clip622)" style="stroke:#000000; stroke-width:2; stroke-opacity:0.1; fill:none" points="
  1211.72,1016.92 1211.72,179.632 
  "/>
<polyline clip-path="url(#clip622)" style="stroke:#000000; stroke-width:2; stroke-opacity:0.1; fill:none" points="
  1515.13,1016.92 1515.13,179.632 
  "/>
<polyline clip-path="url(#clip620)" style="stroke:#000000; stroke-width:4; stroke-opacity:1; fill:none" points="
  266.278,1016.92 1552.76,1016.92 
  "/>
<polyline clip-path="url(#clip620)" style="stroke:#000000; stroke-width:4; stroke-opacity:1; fill:none" points="
  301.474,1016.92 301.474,1006.87 
  "/>
<polyline clip-path="url(#clip620)" style="stroke:#000000; stroke-width:4; stroke-opacity:1; fill:none" points="
  604.889,1016.92 604.889,1006.87 
  "/>
<polyline clip-path="url(#clip620)" style="stroke:#000000; stroke-width:4; stroke-opacity:1; fill:none" points="
  908.303,1016.92 908.303,1006.87 
  "/>
<polyline clip-path="url(#clip620)" style="stroke:#000000; stroke-width:4; stroke-opacity:1; fill:none" points="
  1211.72,1016.92 1211.72,1006.87 
  "/>
<polyline clip-path="url(#clip620)" style="stroke:#000000; stroke-width:4; stroke-opacity:1; fill:none" points="
  1515.13,1016.92 1515.13,1006.87 
  "/>
<path clip-path="url(#clip620)" d="M 0 0 M301.474 1039.71 Q297.863 1039.71 296.035 1043.28 Q294.229 1046.82 294.229 1053.95 Q294.229 1061.05 296.035 1064.62 Q297.863 1068.16 301.474 1068.16 Q305.109 1068.16 306.914 1064.62 Q308.743 1061.05 308.743 1053.95 Q308.743 1046.82 306.914 1043.28 Q305.109 1039.71 301.474 1039.71 M301.474 1036.01 Q307.284 1036.01 310.34 1040.61 Q313.419 1045.2 313.419 1053.95 Q313.419 1062.67 310.34 1067.28 Q307.284 1071.86 301.474 1071.86 Q295.664 1071.86 292.585 1067.28 Q289.53 1062.67 289.53 1053.95 Q289.53 1045.2 292.585 1040.61 Q295.664 1036.01 301.474 1036.01 Z" fill="#000000" fill-rule="evenodd" fill-opacity="1" /><path clip-path="url(#clip620)" d="M 0 0 M573.026 1067.26 L589.345 1067.26 L589.345 1071.19 L567.401 1071.19 L567.401 1067.26 Q570.063 1064.5 574.646 1059.87 Q579.252 1055.22 580.433 1053.88 Q582.678 1051.35 583.558 1049.62 Q584.461 1047.86 584.461 1046.17 Q584.461 1043.41 582.516 1041.68 Q580.595 1039.94 577.493 1039.94 Q575.294 1039.94 572.84 1040.71 Q570.41 1041.47 567.632 1043.02 L567.632 1038.3 Q570.456 1037.16 572.91 1036.59 Q575.364 1036.01 577.401 1036.01 Q582.771 1036.01 585.965 1038.69 Q589.16 1041.38 589.16 1045.87 Q589.16 1048 588.35 1049.92 Q587.563 1051.82 585.456 1054.41 Q584.877 1055.08 581.776 1058.3 Q578.674 1061.49 573.026 1067.26 Z" fill="#000000" fill-rule="evenodd" fill-opacity="1" /><path clip-path="url(#clip620)" d="M 0 0 M594.461 1036.63 L612.817 1036.63 L612.817 1040.57 L598.743 1040.57 L598.743 1049.04 Q599.762 1048.69 600.78 1048.53 Q601.799 1048.34 602.817 1048.34 Q608.604 1048.34 611.984 1051.52 Q615.363 1054.69 615.363 1060.1 Q615.363 1065.68 611.891 1068.78 Q608.419 1071.86 602.1 1071.86 Q599.924 1071.86 597.655 1071.49 Q595.41 1071.12 593.002 1070.38 L593.002 1065.68 Q595.086 1066.82 597.308 1067.37 Q599.53 1067.93 602.007 1067.93 Q606.012 1067.93 608.349 1065.82 Q610.687 1063.72 610.687 1060.1 Q610.687 1056.49 608.349 1054.39 Q606.012 1052.28 602.007 1052.28 Q600.132 1052.28 598.257 1052.7 Q596.405 1053.11 594.461 1053.99 L594.461 1036.63 Z" fill="#000000" fill-rule="evenodd" fill-opacity="1" /><path clip-path="url(#clip620)" d="M 0 0 M630.433 1039.71 Q626.822 1039.71 624.993 1043.28 Q623.187 1046.82 623.187 1053.95 Q623.187 1061.05 624.993 1064.62 Q626.822 1068.16 630.433 1068.16 Q634.067 1068.16 635.872 1064.62 Q637.701 1061.05 637.701 1053.95 Q637.701 1046.82 635.872 1043.28 Q634.067 1039.71 630.433 1039.71 M630.433 1036.01 Q636.243 1036.01 639.298 1040.61 Q642.377 1045.2 642.377 1053.95 Q642.377 1062.67 639.298 1067.28 Q636.243 1071.86 630.433 1071.86 Q624.623 1071.86 621.544 1067.28 Q618.488 1062.67 618.488 1053.95 Q618.488 1045.2 621.544 1040.61 Q624.623 1036.01 630.433 1036.01 Z" fill="#000000" fill-rule="evenodd" fill-opacity="1" /><path clip-path="url(#clip620)" d="M 0 0 M871.567 1036.63 L889.924 1036.63 L889.924 1040.57 L875.85 1040.57 L875.85 1049.04 Q876.868 1048.69 877.887 1048.53 Q878.905 1048.34 879.924 1048.34 Q885.711 1048.34 889.091 1051.52 Q892.47 1054.69 892.47 1060.1 Q892.47 1065.68 888.998 1068.78 Q885.526 1071.86 879.206 1071.86 Q877.03 1071.86 874.762 1071.49 Q872.517 1071.12 870.109 1070.38 L870.109 1065.68 Q872.192 1066.82 874.415 1067.37 Q876.637 1067.93 879.114 1067.93 Q883.118 1067.93 885.456 1065.82 Q887.794 1063.72 887.794 1060.1 Q887.794 1056.49 885.456 1054.39 Q883.118 1052.28 879.114 1052.28 Q877.239 1052.28 875.364 1052.7 Q873.512 1053.11 871.567 1053.99 L871.567 1036.63 Z" fill="#000000" fill-rule="evenodd" fill-opacity="1" /><path clip-path="url(#clip620)" d="M 0 0 M907.54 1039.71 Q903.928 1039.71 902.1 1043.28 Q900.294 1046.82 900.294 1053.95 Q900.294 1061.05 902.1 1064.62 Q903.928 1068.16 907.54 1068.16 Q911.174 1068.16 912.979 1064.62 Q914.808 1061.05 914.808 1053.95 Q914.808 1046.82 912.979 1043.28 Q911.174 1039.71 907.54 1039.71 M907.54 1036.01 Q913.35 1036.01 916.405 1040.61 Q919.484 1045.2 919.484 1053.95 Q919.484 1062.67 916.405 1067.28 Q913.35 1071.86 907.54 1071.86 Q901.729 1071.86 898.651 1067.28 Q895.595 1062.67 895.595 1053.95 Q895.595 1045.2 898.651 1040.61 Q901.729 1036.01 907.54 1036.01 Z" fill="#000000" fill-rule="evenodd" fill-opacity="1" /><path clip-path="url(#clip620)" d="M 0 0 M934.553 1039.71 Q930.942 1039.71 929.113 1043.28 Q927.308 1046.82 927.308 1053.95 Q927.308 1061.05 929.113 1064.62 Q930.942 1068.16 934.553 1068.16 Q938.188 1068.16 939.993 1064.62 Q941.822 1061.05 941.822 1053.95 Q941.822 1046.82 939.993 1043.28 Q938.188 1039.71 934.553 1039.71 M934.553 1036.01 Q940.363 1036.01 943.419 1040.61 Q946.498 1045.2 946.498 1053.95 Q946.498 1062.67 943.419 1067.28 Q940.363 1071.86 934.553 1071.86 Q928.743 1071.86 925.664 1067.28 Q922.609 1062.67 922.609 1053.95 Q922.609 1045.2 925.664 1040.61 Q928.743 1036.01 934.553 1036.01 Z" fill="#000000" fill-rule="evenodd" fill-opacity="1" /><path clip-path="url(#clip620)" d="M 0 0 M1174.09 1036.63 L1196.31 1036.63 L1196.31 1038.62 L1183.77 1071.19 L1178.88 1071.19 L1190.69 1040.57 L1174.09 1040.57 L1174.09 1036.63 Z" fill="#000000" fill-rule="evenodd" fill-opacity="1" /><path clip-path="url(#clip620)" d="M 0 0 M1201.43 1036.63 L1219.79 1036.63 L1219.79 1040.57 L1205.71 1040.57 L1205.71 1049.04 Q1206.73 1048.69 1207.75 1048.53 Q1208.77 1048.34 1209.79 1048.34 Q1215.57 1048.34 1218.95 1051.52 Q1222.33 1054.69 1222.33 1060.1 Q1222.33 1065.68 1218.86 1068.78 Q1215.39 1071.86 1209.07 1071.86 Q1206.89 1071.86 1204.62 1071.49 Q1202.38 1071.12 1199.97 1070.38 L1199.97 1065.68 Q1202.05 1066.82 1204.28 1067.37 Q1206.5 1067.93 1208.97 1067.93 Q1212.98 1067.93 1215.32 1065.82 Q1217.66 1063.72 1217.66 1060.1 Q1217.66 1056.49 1215.32 1054.39 Q1212.98 1052.28 1208.97 1052.28 Q1207.1 1052.28 1205.22 1052.7 Q1203.37 1053.11 1201.43 1053.99 L1201.43 1036.63 Z" fill="#000000" fill-rule="evenodd" fill-opacity="1" /><path clip-path="url(#clip620)" d="M 0 0 M1237.4 1039.71 Q1233.79 1039.71 1231.96 1043.28 Q1230.16 1046.82 1230.16 1053.95 Q1230.16 1061.05 1231.96 1064.62 Q1233.79 1068.16 1237.4 1068.16 Q1241.03 1068.16 1242.84 1064.62 Q1244.67 1061.05 1244.67 1053.95 Q1244.67 1046.82 1242.84 1043.28 Q1241.03 1039.71 1237.4 1039.71 M1237.4 1036.01 Q1243.21 1036.01 1246.27 1040.61 Q1249.35 1045.2 1249.35 1053.95 Q1249.35 1062.67 1246.27 1067.28 Q1243.21 1071.86 1237.4 1071.86 Q1231.59 1071.86 1228.51 1067.28 Q1225.46 1062.67 1225.46 1053.95 Q1225.46 1045.2 1228.51 1040.61 Q1231.59 1036.01 1237.4 1036.01 Z" fill="#000000" fill-rule="evenodd" fill-opacity="1" /><path clip-path="url(#clip620)" d="M 0 0 M1464.99 1067.26 L1472.63 1067.26 L1472.63 1040.89 L1464.32 1042.56 L1464.32 1038.3 L1472.59 1036.63 L1477.26 1036.63 L1477.26 1067.26 L1484.9 1067.26 L1484.9 1071.19 L1464.99 1071.19 L1464.99 1067.26 Z" fill="#000000" fill-rule="evenodd" fill-opacity="1" /><path clip-path="url(#clip620)" d="M 0 0 M1499.97 1039.71 Q1496.36 1039.71 1494.53 1043.28 Q1492.73 1046.82 1492.73 1053.95 Q1492.73 1061.05 1494.53 1064.62 Q1496.36 1068.16 1499.97 1068.16 Q1503.6 1068.16 1505.41 1064.62 Q1507.24 1061.05 1507.24 1053.95 Q1507.24 1046.82 1505.41 1043.28 Q1503.6 1039.71 1499.97 1039.71 M1499.97 1036.01 Q1505.78 1036.01 1508.84 1040.61 Q1511.91 1045.2 1511.91 1053.95 Q1511.91 1062.67 1508.84 1067.28 Q1505.78 1071.86 1499.97 1071.86 Q1494.16 1071.86 1491.08 1067.28 Q1488.03 1062.67 1488.03 1053.95 Q1488.03 1045.2 1491.08 1040.61 Q1494.16 1036.01 1499.97 1036.01 Z" fill="#000000" fill-rule="evenodd" fill-opacity="1" /><path clip-path="url(#clip620)" d="M 0 0 M1526.98 1039.71 Q1523.37 1039.71 1521.54 1043.28 Q1519.74 1046.82 1519.74 1053.95 Q1519.74 1061.05 1521.54 1064.62 Q1523.37 1068.16 1526.98 1068.16 Q1530.62 1068.16 1532.42 1064.62 Q1534.25 1061.05 1534.25 1053.95 Q1534.25 1046.82 1532.42 1043.28 Q1530.62 1039.71 1526.98 1039.71 M1526.98 1036.01 Q1532.79 1036.01 1535.85 1040.61 Q1538.93 1045.2 1538.93 1053.95 Q1538.93 1062.67 1535.85 1067.28 Q1532.79 1071.86 1526.98 1071.86 Q1521.17 1071.86 1518.1 1067.28 Q1515.04 1062.67 1515.04 1053.95 Q1515.04 1045.2 1518.1 1040.61 Q1521.17 1036.01 1526.98 1036.01 Z" fill="#000000" fill-rule="evenodd" fill-opacity="1" /><path clip-path="url(#clip620)" d="M 0 0 M1554 1039.71 Q1550.39 1039.71 1548.56 1043.28 Q1546.75 1046.82 1546.75 1053.95 Q1546.75 1061.05 1548.56 1064.62 Q1550.39 1068.16 1554 1068.16 Q1557.63 1068.16 1559.44 1064.62 Q1561.27 1061.05 1561.27 1053.95 Q1561.27 1046.82 1559.44 1043.28 Q1557.63 1039.71 1554 1039.71 M1554 1036.01 Q1559.81 1036.01 1562.86 1040.61 Q1565.94 1045.2 1565.94 1053.95 Q1565.94 1062.67 1562.86 1067.28 Q1559.81 1071.86 1554 1071.86 Q1548.19 1071.86 1545.11 1067.28 Q1542.05 1062.67 1542.05 1053.95 Q1542.05 1045.2 1545.11 1040.61 Q1548.19 1036.01 1554 1036.01 Z" fill="#000000" fill-rule="evenodd" fill-opacity="1" /><path clip-path="url(#clip620)" d="M 0 0 M780.532 1104.01 L780.532 1114.14 L792.595 1114.14 L792.595 1118.69 L780.532 1118.69 L780.532 1138.04 Q780.532 1142.4 781.71 1143.64 Q782.919 1144.88 786.579 1144.88 L792.595 1144.88 L792.595 1149.78 L786.579 1149.78 Q779.8 1149.78 777.222 1147.27 Q774.644 1144.72 774.644 1138.04 L774.644 1118.69 L770.347 1118.69 L770.347 1114.14 L774.644 1114.14 L774.644 1104.01 L780.532 1104.01 Z" fill="#000000" fill-rule="evenodd" fill-opacity="1" /><path clip-path="url(#clip620)" d="M 0 0 M798.738 1114.14 L804.594 1114.14 L804.594 1149.78 L798.738 1149.78 L798.738 1114.14 M798.738 1100.26 L804.594 1100.26 L804.594 1107.67 L798.738 1107.67 L798.738 1100.26 Z" fill="#000000" fill-rule="evenodd" fill-opacity="1" /><path clip-path="url(#clip620)" d="M 0 0 M838.492 1120.98 Q840.688 1117.03 843.743 1115.15 Q846.799 1113.28 850.937 1113.28 Q856.507 1113.28 859.53 1117.19 Q862.554 1121.07 862.554 1128.27 L862.554 1149.78 L856.666 1149.78 L856.666 1128.46 Q856.666 1123.33 854.852 1120.85 Q853.037 1118.37 849.313 1118.37 Q844.762 1118.37 842.12 1121.39 Q839.478 1124.42 839.478 1129.64 L839.478 1149.78 L833.59 1149.78 L833.59 1128.46 Q833.59 1123.3 831.776 1120.85 Q829.962 1118.37 826.174 1118.37 Q821.686 1118.37 819.044 1121.42 Q816.403 1124.45 816.403 1129.64 L816.403 1149.78 L810.514 1149.78 L810.514 1114.14 L816.403 1114.14 L816.403 1119.67 Q818.408 1116.4 821.209 1114.84 Q824.01 1113.28 827.861 1113.28 Q831.744 1113.28 834.449 1115.25 Q837.187 1117.22 838.492 1120.98 Z" fill="#000000" fill-rule="evenodd" fill-opacity="1" /><path clip-path="url(#clip620)" d="M 0 0 M899.189 1130.5 L899.189 1133.36 L872.262 1133.36 Q872.644 1139.41 875.89 1142.59 Q879.169 1145.74 884.993 1145.74 Q888.367 1145.74 891.518 1144.91 Q894.701 1144.09 897.82 1142.43 L897.82 1147.97 Q894.669 1149.31 891.359 1150.01 Q888.049 1150.71 884.643 1150.71 Q876.113 1150.71 871.116 1145.74 Q866.151 1140.78 866.151 1132.31 Q866.151 1123.56 870.861 1118.43 Q875.604 1113.28 883.625 1113.28 Q890.818 1113.28 894.987 1117.92 Q899.189 1122.54 899.189 1130.5 M893.332 1128.78 Q893.269 1123.97 890.627 1121.11 Q888.017 1118.24 883.688 1118.24 Q878.787 1118.24 875.827 1121.01 Q872.898 1123.78 872.453 1128.81 L893.332 1128.78 Z" fill="#000000" fill-rule="evenodd" fill-opacity="1" /><path clip-path="url(#clip620)" d="M 0 0 M940.12 1100.32 Q935.855 1107.64 933.786 1114.8 Q931.717 1121.97 931.717 1129.32 Q931.717 1136.67 933.786 1143.9 Q935.887 1151.09 940.12 1158.38 L935.028 1158.38 Q930.253 1150.9 927.866 1143.67 Q925.511 1136.45 925.511 1129.32 Q925.511 1122.22 927.866 1115.03 Q930.222 1107.83 935.028 1100.32 L940.12 1100.32 Z" fill="#000000" fill-rule="evenodd" fill-opacity="1" /><path clip-path="url(#clip620)" d="M 0 0 M974.018 1120.98 Q976.214 1117.03 979.269 1115.15 Q982.325 1113.28 986.463 1113.28 Q992.033 1113.28 995.056 1117.19 Q998.08 1121.07 998.08 1128.27 L998.08 1149.78 L992.192 1149.78 L992.192 1128.46 Q992.192 1123.33 990.377 1120.85 Q988.563 1118.37 984.839 1118.37 Q980.288 1118.37 977.646 1121.39 Q975.004 1124.42 975.004 1129.64 L975.004 1149.78 L969.116 1149.78 L969.116 1128.46 Q969.116 1123.3 967.302 1120.85 Q965.488 1118.37 961.7 1118.37 Q957.212 1118.37 954.57 1121.42 Q951.929 1124.45 951.929 1129.64 L951.929 1149.78 L946.04 1149.78 L946.04 1114.14 L951.929 1114.14 L951.929 1119.67 Q953.934 1116.4 956.735 1114.84 Q959.536 1113.28 963.387 1113.28 Q967.27 1113.28 969.975 1115.25 Q972.713 1117.22 974.018 1120.98 Z" fill="#000000" fill-rule="evenodd" fill-opacity="1" /><path clip-path="url(#clip620)" d="M 0 0 M1026.95 1115.19 L1026.95 1120.72 Q1024.47 1119.45 1021.79 1118.81 Q1019.12 1118.18 1016.25 1118.18 Q1011.89 1118.18 1009.7 1119.51 Q1007.53 1120.85 1007.53 1123.53 Q1007.53 1125.56 1009.09 1126.74 Q1010.65 1127.89 1015.36 1128.94 L1017.37 1129.38 Q1023.61 1130.72 1026.22 1133.17 Q1028.86 1135.59 1028.86 1139.95 Q1028.86 1144.91 1024.91 1147.81 Q1021 1150.71 1014.12 1150.71 Q1011.26 1150.71 1008.14 1150.13 Q1005.05 1149.59 1001.61 1148.48 L1001.61 1142.43 Q1004.86 1144.12 1008.01 1144.98 Q1011.16 1145.81 1014.25 1145.81 Q1018.39 1145.81 1020.61 1144.4 Q1022.84 1142.97 1022.84 1140.39 Q1022.84 1138.01 1021.22 1136.73 Q1019.63 1135.46 1014.19 1134.28 L1012.15 1133.81 Q1006.71 1132.66 1004.29 1130.3 Q1001.87 1127.92 1001.87 1123.78 Q1001.87 1118.75 1005.43 1116.01 Q1009 1113.28 1015.55 1113.28 Q1018.8 1113.28 1021.66 1113.75 Q1024.53 1114.23 1026.95 1115.19 Z" fill="#000000" fill-rule="evenodd" fill-opacity="1" /><path clip-path="url(#clip620)" d="M 0 0 M1034.08 1100.32 L1039.17 1100.32 Q1043.94 1107.83 1046.3 1115.03 Q1048.69 1122.22 1048.69 1129.32 Q1048.69 1136.45 1046.3 1143.67 Q1043.94 1150.9 1039.17 1158.38 L1034.08 1158.38 Q1038.31 1151.09 1040.38 1143.9 Q1042.48 1136.67 1042.48 1129.32 Q1042.48 1121.97 1040.38 1114.8 Q1038.31 1107.64 1034.08 1100.32 Z" fill="#000000" fill-rule="evenodd" fill-opacity="1" /><polyline clip-path="url(#clip622)" style="stroke:#000000; stroke-width:2; stroke-opacity:0.1; fill:none" points="
  266.278,880.484 1552.76,880.484 
  "/>
<polyline clip-path="url(#clip622)" style="stroke:#000000; stroke-width:2; stroke-opacity:0.1; fill:none" points="
  266.278,729.077 1552.76,729.077 
  "/>
<polyline clip-path="url(#clip622)" style="stroke:#000000; stroke-width:2; stroke-opacity:0.1; fill:none" points="
  266.278,577.67 1552.76,577.67 
  "/>
<polyline clip-path="url(#clip622)" style="stroke:#000000; stroke-width:2; stroke-opacity:0.1; fill:none" points="
  266.278,426.263 1552.76,426.263 
  "/>
<polyline clip-path="url(#clip622)" style="stroke:#000000; stroke-width:2; stroke-opacity:0.1; fill:none" points="
  266.278,274.856 1552.76,274.856 
  "/>
<polyline clip-path="url(#clip620)" style="stroke:#000000; stroke-width:4; stroke-opacity:1; fill:none" points="
  266.278,1016.92 266.278,179.632 
  "/>
<polyline clip-path="url(#clip620)" style="stroke:#000000; stroke-width:4; stroke-opacity:1; fill:none" points="
  266.278,880.484 281.716,880.484 
  "/>
<polyline clip-path="url(#clip620)" style="stroke:#000000; stroke-width:4; stroke-opacity:1; fill:none" points="
  266.278,729.077 281.716,729.077 
  "/>
<polyline clip-path="url(#clip620)" style="stroke:#000000; stroke-width:4; stroke-opacity:1; fill:none" points="
  266.278,577.67 281.716,577.67 
  "/>
<polyline clip-path="url(#clip620)" style="stroke:#000000; stroke-width:4; stroke-opacity:1; fill:none" points="
  266.278,426.263 281.716,426.263 
  "/>
<polyline clip-path="url(#clip620)" style="stroke:#000000; stroke-width:4; stroke-opacity:1; fill:none" points="
  266.278,274.856 281.716,274.856 
  "/>
<path clip-path="url(#clip620)" d="M 0 0 M124.2 880.935 L153.876 880.935 L153.876 884.87 L124.2 884.87 L124.2 880.935 Z" fill="#000000" fill-rule="evenodd" fill-opacity="1" /><path clip-path="url(#clip620)" d="M 0 0 M168.945 866.282 Q165.334 866.282 163.506 869.847 Q161.7 873.389 161.7 880.518 Q161.7 887.625 163.506 891.189 Q165.334 894.731 168.945 894.731 Q172.58 894.731 174.385 891.189 Q176.214 887.625 176.214 880.518 Q176.214 873.389 174.385 869.847 Q172.58 866.282 168.945 866.282 M168.945 862.579 Q174.755 862.579 177.811 867.185 Q180.89 871.768 180.89 880.518 Q180.89 889.245 177.811 893.851 Q174.755 898.435 168.945 898.435 Q163.135 898.435 160.056 893.851 Q157.001 889.245 157.001 880.518 Q157.001 871.768 160.056 867.185 Q163.135 862.579 168.945 862.579 Z" fill="#000000" fill-rule="evenodd" fill-opacity="1" /><path clip-path="url(#clip620)" d="M 0 0 M185.959 891.884 L190.843 891.884 L190.843 897.764 L185.959 897.764 L185.959 891.884 Z" fill="#000000" fill-rule="evenodd" fill-opacity="1" /><path clip-path="url(#clip620)" d="M 0 0 M199.94 893.828 L216.26 893.828 L216.26 897.764 L194.316 897.764 L194.316 893.828 Q196.978 891.074 201.561 886.444 Q206.167 881.791 207.348 880.449 Q209.593 877.926 210.473 876.19 Q211.376 874.43 211.376 872.74 Q211.376 869.986 209.431 868.25 Q207.51 866.514 204.408 866.514 Q202.209 866.514 199.755 867.278 Q197.325 868.041 194.547 869.592 L194.547 864.87 Q197.371 863.736 199.825 863.157 Q202.278 862.579 204.315 862.579 Q209.686 862.579 212.88 865.264 Q216.075 867.949 216.075 872.44 Q216.075 874.569 215.264 876.49 Q214.477 878.389 212.371 880.981 Q211.792 881.652 208.69 884.87 Q205.589 888.064 199.94 893.828 Z" fill="#000000" fill-rule="evenodd" fill-opacity="1" /><path clip-path="url(#clip620)" d="M 0 0 M221.376 863.204 L239.732 863.204 L239.732 867.139 L225.658 867.139 L225.658 875.611 Q226.676 875.264 227.695 875.102 Q228.713 874.916 229.732 874.916 Q235.519 874.916 238.899 878.088 Q242.278 881.259 242.278 886.676 Q242.278 892.254 238.806 895.356 Q235.334 898.435 229.014 898.435 Q226.838 898.435 224.57 898.064 Q222.325 897.694 219.917 896.953 L219.917 892.254 Q222.001 893.389 224.223 893.944 Q226.445 894.5 228.922 894.5 Q232.926 894.5 235.264 892.393 Q237.602 890.287 237.602 886.676 Q237.602 883.065 235.264 880.958 Q232.926 878.852 228.922 878.852 Q227.047 878.852 225.172 879.268 Q223.32 879.685 221.376 880.565 L221.376 863.204 Z" fill="#000000" fill-rule="evenodd" fill-opacity="1" /><path clip-path="url(#clip620)" d="M 0 0 M166.353 714.875 Q162.742 714.875 160.913 718.44 Q159.107 721.982 159.107 729.111 Q159.107 736.218 160.913 739.783 Q162.742 743.324 166.353 743.324 Q169.987 743.324 171.792 739.783 Q173.621 736.218 173.621 729.111 Q173.621 721.982 171.792 718.44 Q169.987 714.875 166.353 714.875 M166.353 711.172 Q172.163 711.172 175.218 715.778 Q178.297 720.361 178.297 729.111 Q178.297 737.838 175.218 742.445 Q172.163 747.028 166.353 747.028 Q160.543 747.028 157.464 742.445 Q154.408 737.838 154.408 729.111 Q154.408 720.361 157.464 715.778 Q160.543 711.172 166.353 711.172 Z" fill="#000000" fill-rule="evenodd" fill-opacity="1" /><path clip-path="url(#clip620)" d="M 0 0 M183.367 740.477 L188.251 740.477 L188.251 746.357 L183.367 746.357 L183.367 740.477 Z" fill="#000000" fill-rule="evenodd" fill-opacity="1" /><path clip-path="url(#clip620)" d="M 0 0 M203.32 714.875 Q199.709 714.875 197.88 718.44 Q196.075 721.982 196.075 729.111 Q196.075 736.218 197.88 739.783 Q199.709 743.324 203.32 743.324 Q206.954 743.324 208.76 739.783 Q210.589 736.218 210.589 729.111 Q210.589 721.982 208.76 718.44 Q206.954 714.875 203.32 714.875 M203.32 711.172 Q209.13 711.172 212.186 715.778 Q215.264 720.361 215.264 729.111 Q215.264 737.838 212.186 742.445 Q209.13 747.028 203.32 747.028 Q197.51 747.028 194.431 742.445 Q191.376 737.838 191.376 729.111 Q191.376 720.361 194.431 715.778 Q197.51 711.172 203.32 711.172 Z" fill="#000000" fill-rule="evenodd" fill-opacity="1" /><path clip-path="url(#clip620)" d="M 0 0 M230.334 714.875 Q226.723 714.875 224.894 718.44 Q223.089 721.982 223.089 729.111 Q223.089 736.218 224.894 739.783 Q226.723 743.324 230.334 743.324 Q233.968 743.324 235.774 739.783 Q237.602 736.218 237.602 729.111 Q237.602 721.982 235.774 718.44 Q233.968 714.875 230.334 714.875 M230.334 711.172 Q236.144 711.172 239.2 715.778 Q242.278 720.361 242.278 729.111 Q242.278 737.838 239.2 742.445 Q236.144 747.028 230.334 747.028 Q224.524 747.028 221.445 742.445 Q218.389 737.838 218.389 729.111 Q218.389 720.361 221.445 715.778 Q224.524 711.172 230.334 711.172 Z" fill="#000000" fill-rule="evenodd" fill-opacity="1" /><path clip-path="url(#clip620)" d="M 0 0 M168.945 563.468 Q165.334 563.468 163.506 567.033 Q161.7 570.575 161.7 577.704 Q161.7 584.811 163.506 588.376 Q165.334 591.917 168.945 591.917 Q172.58 591.917 174.385 588.376 Q176.214 584.811 176.214 577.704 Q176.214 570.575 174.385 567.033 Q172.58 563.468 168.945 563.468 M168.945 559.765 Q174.755 559.765 177.811 564.371 Q180.89 568.954 180.89 577.704 Q180.89 586.431 177.811 591.038 Q174.755 595.621 168.945 595.621 Q163.135 595.621 160.056 591.038 Q157.001 586.431 157.001 577.704 Q157.001 568.954 160.056 564.371 Q163.135 559.765 168.945 559.765 Z" fill="#000000" fill-rule="evenodd" fill-opacity="1" /><path clip-path="url(#clip620)" d="M 0 0 M185.959 589.07 L190.843 589.07 L190.843 594.95 L185.959 594.95 L185.959 589.07 Z" fill="#000000" fill-rule="evenodd" fill-opacity="1" /><path clip-path="url(#clip620)" d="M 0 0 M199.94 591.014 L216.26 591.014 L216.26 594.95 L194.316 594.95 L194.316 591.014 Q196.978 588.26 201.561 583.63 Q206.167 578.978 207.348 577.635 Q209.593 575.112 210.473 573.376 Q211.376 571.616 211.376 569.927 Q211.376 567.172 209.431 565.436 Q207.51 563.7 204.408 563.7 Q202.209 563.7 199.755 564.464 Q197.325 565.228 194.547 566.778 L194.547 562.056 Q197.371 560.922 199.825 560.343 Q202.278 559.765 204.315 559.765 Q209.686 559.765 212.88 562.45 Q216.075 565.135 216.075 569.626 Q216.075 571.755 215.264 573.677 Q214.477 575.575 212.371 578.167 Q211.792 578.839 208.69 582.056 Q205.589 585.251 199.94 591.014 Z" fill="#000000" fill-rule="evenodd" fill-opacity="1" /><path clip-path="url(#clip620)" d="M 0 0 M221.376 560.39 L239.732 560.39 L239.732 564.325 L225.658 564.325 L225.658 572.797 Q226.676 572.45 227.695 572.288 Q228.713 572.103 229.732 572.103 Q235.519 572.103 238.899 575.274 Q242.278 578.445 242.278 583.862 Q242.278 589.44 238.806 592.542 Q235.334 595.621 229.014 595.621 Q226.838 595.621 224.57 595.251 Q222.325 594.88 219.917 594.139 L219.917 589.44 Q222.001 590.575 224.223 591.13 Q226.445 591.686 228.922 591.686 Q232.926 591.686 235.264 589.579 Q237.602 587.473 237.602 583.862 Q237.602 580.251 235.264 578.144 Q232.926 576.038 228.922 576.038 Q227.047 576.038 225.172 576.454 Q223.32 576.871 221.376 577.751 L221.376 560.39 Z" fill="#000000" fill-rule="evenodd" fill-opacity="1" /><path clip-path="url(#clip620)" d="M 0 0 M167.348 412.061 Q163.737 412.061 161.908 415.626 Q160.103 419.168 160.103 426.297 Q160.103 433.404 161.908 436.969 Q163.737 440.51 167.348 440.51 Q170.982 440.51 172.788 436.969 Q174.617 433.404 174.617 426.297 Q174.617 419.168 172.788 415.626 Q170.982 412.061 167.348 412.061 M167.348 408.358 Q173.158 408.358 176.214 412.964 Q179.292 417.547 179.292 426.297 Q179.292 435.024 176.214 439.631 Q173.158 444.214 167.348 444.214 Q161.538 444.214 158.459 439.631 Q155.404 435.024 155.404 426.297 Q155.404 417.547 158.459 412.964 Q161.538 408.358 167.348 408.358 Z" fill="#000000" fill-rule="evenodd" fill-opacity="1" /><path clip-path="url(#clip620)" d="M 0 0 M184.362 437.663 L189.246 437.663 L189.246 443.543 L184.362 443.543 L184.362 437.663 Z" fill="#000000" fill-rule="evenodd" fill-opacity="1" /><path clip-path="url(#clip620)" d="M 0 0 M194.362 408.983 L212.718 408.983 L212.718 412.918 L198.644 412.918 L198.644 421.39 Q199.663 421.043 200.681 420.881 Q201.7 420.696 202.718 420.696 Q208.505 420.696 211.885 423.867 Q215.264 427.038 215.264 432.455 Q215.264 438.033 211.792 441.135 Q208.32 444.214 202.001 444.214 Q199.825 444.214 197.556 443.844 Q195.311 443.473 192.903 442.733 L192.903 438.033 Q194.987 439.168 197.209 439.723 Q199.431 440.279 201.908 440.279 Q205.913 440.279 208.251 438.172 Q210.589 436.066 210.589 432.455 Q210.589 428.844 208.251 426.737 Q205.913 424.631 201.908 424.631 Q200.033 424.631 198.158 425.047 Q196.306 425.464 194.362 426.344 L194.362 408.983 Z" fill="#000000" fill-rule="evenodd" fill-opacity="1" /><path clip-path="url(#clip620)" d="M 0 0 M230.334 412.061 Q226.723 412.061 224.894 415.626 Q223.089 419.168 223.089 426.297 Q223.089 433.404 224.894 436.969 Q226.723 440.51 230.334 440.51 Q233.968 440.51 235.774 436.969 Q237.602 433.404 237.602 426.297 Q237.602 419.168 235.774 415.626 Q233.968 412.061 230.334 412.061 M230.334 408.358 Q236.144 408.358 239.2 412.964 Q242.278 417.547 242.278 426.297 Q242.278 435.024 239.2 439.631 Q236.144 444.214 230.334 444.214 Q224.524 444.214 221.445 439.631 Q218.389 435.024 218.389 426.297 Q218.389 417.547 221.445 412.964 Q224.524 408.358 230.334 408.358 Z" fill="#000000" fill-rule="evenodd" fill-opacity="1" /><path clip-path="url(#clip620)" d="M 0 0 M168.251 260.654 Q164.64 260.654 162.811 264.219 Q161.006 267.761 161.006 274.89 Q161.006 281.997 162.811 285.562 Q164.64 289.103 168.251 289.103 Q171.885 289.103 173.691 285.562 Q175.519 281.997 175.519 274.89 Q175.519 267.761 173.691 264.219 Q171.885 260.654 168.251 260.654 M168.251 256.951 Q174.061 256.951 177.117 261.557 Q180.195 266.141 180.195 274.89 Q180.195 283.617 177.117 288.224 Q174.061 292.807 168.251 292.807 Q162.441 292.807 159.362 288.224 Q156.306 283.617 156.306 274.89 Q156.306 266.141 159.362 261.557 Q162.441 256.951 168.251 256.951 Z" fill="#000000" fill-rule="evenodd" fill-opacity="1" /><path clip-path="url(#clip620)" d="M 0 0 M185.265 286.256 L190.149 286.256 L190.149 292.136 L185.265 292.136 L185.265 286.256 Z" fill="#000000" fill-rule="evenodd" fill-opacity="1" /><path clip-path="url(#clip620)" d="M 0 0 M194.038 257.576 L216.26 257.576 L216.26 259.567 L203.714 292.136 L198.829 292.136 L210.635 261.511 L194.038 261.511 L194.038 257.576 Z" fill="#000000" fill-rule="evenodd" fill-opacity="1" /><path clip-path="url(#clip620)" d="M 0 0 M221.376 257.576 L239.732 257.576 L239.732 261.511 L225.658 261.511 L225.658 269.983 Q226.676 269.636 227.695 269.474 Q228.713 269.289 229.732 269.289 Q235.519 269.289 238.899 272.46 Q242.278 275.631 242.278 281.048 Q242.278 286.627 238.806 289.728 Q235.334 292.807 229.014 292.807 Q226.838 292.807 224.57 292.437 Q222.325 292.066 219.917 291.326 L219.917 286.627 Q222.001 287.761 224.223 288.316 Q226.445 288.872 228.922 288.872 Q232.926 288.872 235.264 286.765 Q237.602 284.659 237.602 281.048 Q237.602 277.437 235.264 275.33 Q232.926 273.224 228.922 273.224 Q227.047 273.224 225.172 273.641 Q223.32 274.057 221.376 274.937 L221.376 257.576 Z" fill="#000000" fill-rule="evenodd" fill-opacity="1" /><path clip-path="url(#clip620)" d="M 0 0 M44.758 686.234 L68.4066 694.955 L68.4066 677.481 L44.758 686.234 M38.4242 689.863 L38.4242 682.574 L85.9442 664.463 L85.9442 671.147 L73.7538 675.476 L73.7538 696.897 L85.9442 701.225 L85.9442 708.005 L38.4242 689.863 Z" fill="#000000" fill-rule="evenodd" fill-opacity="1" /><path clip-path="url(#clip620)" d="M 0 0 M51.6648 633.813 L57.1393 633.813 Q55.7707 636.295 55.1023 638.81 Q54.4021 641.292 54.4021 643.839 Q54.4021 649.536 58.0305 652.687 Q61.6272 655.838 68.152 655.838 Q74.6769 655.838 78.3053 652.687 Q81.9019 649.536 81.9019 643.839 Q81.9019 641.292 81.2335 638.81 Q80.5333 636.295 79.1647 633.813 L84.5755 633.813 Q85.7214 636.263 86.2943 638.905 Q86.8672 641.515 86.8672 644.475 Q86.8672 652.528 81.8064 657.27 Q76.7457 662.013 68.152 662.013 Q59.431 662.013 54.4339 657.238 Q49.4368 652.432 49.4368 644.093 Q49.4368 641.388 50.0097 638.81 Q50.5508 636.232 51.6648 633.813 Z" fill="#000000" fill-rule="evenodd" fill-opacity="1" /><path clip-path="url(#clip620)" d="M 0 0 M40.1747 621.877 L50.2962 621.877 L50.2962 609.814 L54.8477 609.814 L54.8477 621.877 L74.1994 621.877 Q78.5599 621.877 79.8013 620.699 Q81.0426 619.49 81.0426 615.829 L81.0426 609.814 L85.9442 609.814 L85.9442 615.829 Q85.9442 622.609 83.4297 625.187 Q80.8834 627.765 74.1994 627.765 L54.8477 627.765 L54.8477 632.062 L50.2962 632.062 L50.2962 627.765 L40.1747 627.765 L40.1747 621.877 Z" fill="#000000" fill-rule="evenodd" fill-opacity="1" /><path clip-path="url(#clip620)" d="M 0 0 M50.2962 603.671 L50.2962 597.814 L85.9442 597.814 L85.9442 603.671 L50.2962 603.671 M36.419 603.671 L36.419 597.814 L43.835 597.814 L43.835 603.671 L36.419 603.671 Z" fill="#000000" fill-rule="evenodd" fill-opacity="1" /><path clip-path="url(#clip620)" d="M 0 0 M50.2962 595.873 L50.2962 589.666 L80.215 578.526 L50.2962 567.386 L50.2962 561.18 L85.9442 574.548 L85.9442 582.505 L50.2962 595.873 Z" fill="#000000" fill-rule="evenodd" fill-opacity="1" /><path clip-path="url(#clip620)" d="M 0 0 M50.2962 555.037 L50.2962 549.18 L85.9442 549.18 L85.9442 555.037 L50.2962 555.037 M36.419 555.037 L36.419 549.18 L43.835 549.18 L43.835 555.037 L36.419 555.037 Z" fill="#000000" fill-rule="evenodd" fill-opacity="1" /><path clip-path="url(#clip620)" d="M 0 0 M40.1747 537.245 L50.2962 537.245 L50.2962 525.182 L54.8477 525.182 L54.8477 537.245 L74.1994 537.245 Q78.5599 537.245 79.8013 536.067 Q81.0426 534.858 81.0426 531.197 L81.0426 525.182 L85.9442 525.182 L85.9442 531.197 Q85.9442 537.977 83.4297 540.555 Q80.8834 543.133 74.1994 543.133 L54.8477 543.133 L54.8477 547.43 L50.2962 547.43 L50.2962 543.133 L40.1747 543.133 L40.1747 537.245 Z" fill="#000000" fill-rule="evenodd" fill-opacity="1" /><path clip-path="url(#clip620)" d="M 0 0 M89.2543 504.207 Q95.62 506.689 97.5616 509.045 Q99.5031 511.4 99.5031 515.347 L99.5031 520.026 L94.6015 520.026 L94.6015 516.588 Q94.6015 514.169 93.4557 512.832 Q92.3099 511.495 88.0448 509.872 L85.3712 508.822 L50.2962 523.24 L50.2962 517.034 L78.178 505.894 L50.2962 494.754 L50.2962 488.547 L89.2543 504.207 Z" fill="#000000" fill-rule="evenodd" fill-opacity="1" /><path clip-path="url(#clip620)" d="M 0 0 M619.71 10.368 L626.723 10.368 L626.723 62.208 L619.71 62.208 L619.71 10.368 Z" fill="#000000" fill-rule="evenodd" fill-opacity="1" /><path clip-path="url(#clip620)" d="M 0 0 M664.779 12.0694 L664.779 18.9096 Q660.786 16.9999 657.244 16.0624 Q653.702 15.1249 650.404 15.1249 Q644.675 15.1249 641.55 17.3471 Q638.459 19.5693 638.459 23.6665 Q638.459 27.104 640.508 28.8748 Q642.591 30.6109 648.355 31.6873 L652.591 32.5554 Q660.439 34.0484 664.154 37.8331 Q667.904 41.5831 667.904 47.9025 Q667.904 55.4372 662.834 59.3261 Q657.8 63.2149 648.043 63.2149 Q644.362 63.2149 640.196 62.3816 Q636.064 61.5483 631.619 59.9163 L631.619 52.6942 Q635.89 55.09 639.987 56.3053 Q644.084 57.5205 648.043 57.5205 Q654.05 57.5205 657.314 55.1594 Q660.577 52.7983 660.577 48.4234 Q660.577 44.6039 658.216 42.4512 Q655.89 40.2984 650.543 39.222 L646.272 38.3887 Q638.425 36.8262 634.918 33.4929 Q631.411 30.1596 631.411 24.2221 Q631.411 17.3471 636.237 13.3888 Q641.098 9.43051 649.605 9.43051 Q653.251 9.43051 657.036 10.0902 Q660.82 10.7499 664.779 12.0694 Z" fill="#000000" fill-rule="evenodd" fill-opacity="1" /><path clip-path="url(#clip620)" d="M 0 0 M674.883 10.368 L684.327 10.368 L707.313 53.7358 L707.313 10.368 L714.119 10.368 L714.119 62.208 L704.674 62.208 L681.688 18.8402 L681.688 62.208 L674.883 62.208 L674.883 10.368 Z" fill="#000000" fill-rule="evenodd" fill-opacity="1" /><path clip-path="url(#clip620)" d="M 0 0 M774.778 12.0694 L774.778 18.9096 Q770.785 16.9999 767.244 16.0624 Q763.702 15.1249 760.403 15.1249 Q754.674 15.1249 751.549 17.3471 Q748.459 19.5693 748.459 23.6665 Q748.459 27.104 750.508 28.8748 Q752.591 30.6109 758.355 31.6873 L762.591 32.5554 Q770.438 34.0484 774.153 37.8331 Q777.903 41.5831 777.903 47.9025 Q777.903 55.4372 772.834 59.3261 Q767.799 63.2149 758.042 63.2149 Q754.362 63.2149 750.195 62.3816 Q746.063 61.5483 741.619 59.9163 L741.619 52.6942 Q745.889 55.09 749.987 56.3053 Q754.084 57.5205 758.042 57.5205 Q764.049 57.5205 767.313 55.1594 Q770.577 52.7983 770.577 48.4234 Q770.577 44.6039 768.216 42.4512 Q765.889 40.2984 760.542 39.222 L756.271 38.3887 Q748.424 36.8262 744.917 33.4929 Q741.41 30.1596 741.41 24.2221 Q741.41 17.3471 746.237 13.3888 Q751.098 9.43051 759.605 9.43051 Q763.25 9.43051 767.035 10.0902 Q770.82 10.7499 774.778 12.0694 Z" fill="#000000" fill-rule="evenodd" fill-opacity="1" /><path clip-path="url(#clip620)" d="M 0 0 M784.605 23.3193 L790.993 23.3193 L790.993 62.208 L784.605 62.208 L784.605 23.3193 M784.605 8.18051 L790.993 8.18051 L790.993 16.2707 L784.605 16.2707 L784.605 8.18051 Z" fill="#000000" fill-rule="evenodd" fill-opacity="1" /><path clip-path="url(#clip620)" d="M 0 0 M827.972 30.7846 Q830.368 26.479 833.702 24.4304 Q837.035 22.3818 841.549 22.3818 Q847.625 22.3818 850.924 26.6526 Q854.222 30.8887 854.222 38.7359 L854.222 62.208 L847.799 62.208 L847.799 38.9442 Q847.799 33.354 845.819 30.6457 Q843.84 27.9374 839.778 27.9374 Q834.813 27.9374 831.931 31.2359 Q829.049 34.5345 829.049 40.229 L829.049 62.208 L822.625 62.208 L822.625 38.9442 Q822.625 33.3193 820.646 30.6457 Q818.667 27.9374 814.535 27.9374 Q809.639 27.9374 806.757 31.2707 Q803.875 34.5693 803.875 40.229 L803.875 62.208 L797.452 62.208 L797.452 23.3193 L803.875 23.3193 L803.875 29.361 Q806.063 25.7846 809.118 24.0832 Q812.174 22.3818 816.375 22.3818 Q820.611 22.3818 823.563 24.5346 Q826.549 26.6874 827.972 30.7846 Z" fill="#000000" fill-rule="evenodd" fill-opacity="1" /><path clip-path="url(#clip620)" d="M 0 0 M860.264 46.8609 L860.264 23.3193 L866.653 23.3193 L866.653 46.6178 Q866.653 52.1386 868.805 54.9164 Q870.958 57.6594 875.264 57.6594 Q880.437 57.6594 883.423 54.3608 Q886.444 51.0622 886.444 45.3678 L886.444 23.3193 L892.833 23.3193 L892.833 62.208 L886.444 62.208 L886.444 56.2358 Q884.118 59.7775 881.028 61.5136 Q877.972 63.2149 873.91 63.2149 Q867.208 63.2149 863.736 59.0483 Q860.264 54.8817 860.264 46.8609 M876.34 22.3818 L876.34 22.3818 Z" fill="#000000" fill-rule="evenodd" fill-opacity="1" /><path clip-path="url(#clip620)" d="M 0 0 M899.534 8.18051 L905.923 8.18051 L905.923 62.208 L899.534 62.208 L899.534 8.18051 Z" fill="#000000" fill-rule="evenodd" fill-opacity="1" /><path clip-path="url(#clip620)" d="M 0 0 M930.298 42.6595 Q922.555 42.6595 919.569 44.4303 Q916.583 46.2011 916.583 50.472 Q916.583 53.8747 918.805 55.8886 Q921.062 57.8677 924.916 57.8677 Q930.229 57.8677 933.423 54.1178 Q936.652 50.3331 936.652 44.0831 L936.652 42.6595 L930.298 42.6595 M943.041 40.0206 L943.041 62.208 L936.652 62.208 L936.652 56.3053 Q934.465 59.8469 931.201 61.5483 Q927.937 63.2149 923.215 63.2149 Q917.243 63.2149 913.701 59.8816 Q910.194 56.5136 910.194 50.8886 Q910.194 44.3262 914.569 40.9928 Q918.979 37.6595 927.694 37.6595 L936.652 37.6595 L936.652 37.0345 Q936.652 32.6248 933.736 30.229 Q930.854 27.7985 925.611 27.7985 Q922.277 27.7985 919.118 28.5971 Q915.958 29.3957 913.041 30.9929 L913.041 25.0901 Q916.548 23.736 919.847 23.0763 Q923.145 22.3818 926.27 22.3818 Q934.708 22.3818 938.875 26.7568 Q943.041 31.1318 943.041 40.0206 Z" fill="#000000" fill-rule="evenodd" fill-opacity="1" /><path clip-path="url(#clip620)" d="M 0 0 M956.062 12.2777 L956.062 23.3193 L969.222 23.3193 L969.222 28.2846 L956.062 28.2846 L956.062 49.3956 Q956.062 54.1525 957.347 55.5066 Q958.666 56.8608 962.659 56.8608 L969.222 56.8608 L969.222 62.208 L962.659 62.208 Q955.263 62.208 952.451 59.465 Q949.638 56.6872 949.638 49.3956 L949.638 28.2846 L944.951 28.2846 L944.951 23.3193 L949.638 23.3193 L949.638 12.2777 L956.062 12.2777 Z" fill="#000000" fill-rule="evenodd" fill-opacity="1" /><path clip-path="url(#clip620)" d="M 0 0 M975.923 23.3193 L982.312 23.3193 L982.312 62.208 L975.923 62.208 L975.923 23.3193 M975.923 8.18051 L982.312 8.18051 L982.312 16.2707 L975.923 16.2707 L975.923 8.18051 Z" fill="#000000" fill-rule="evenodd" fill-opacity="1" /><path clip-path="url(#clip620)" d="M 0 0 M1004.08 27.7985 Q998.944 27.7985 995.958 31.8262 Q992.971 35.8193 992.971 42.7984 Q992.971 49.7775 995.923 53.8053 Q998.909 57.7983 1004.08 57.7983 Q1009.19 57.7983 1012.17 53.7705 Q1015.16 49.7428 1015.16 42.7984 Q1015.16 35.8887 1012.17 31.8609 Q1009.19 27.7985 1004.08 27.7985 M1004.08 22.3818 Q1012.42 22.3818 1017.17 27.7985 Q1021.93 33.2151 1021.93 42.7984 Q1021.93 52.3469 1017.17 57.7983 Q1012.42 63.2149 1004.08 63.2149 Q995.715 63.2149 990.958 57.7983 Q986.235 52.3469 986.235 42.7984 Q986.235 33.2151 990.958 27.7985 Q995.715 22.3818 1004.08 22.3818 Z" fill="#000000" fill-rule="evenodd" fill-opacity="1" /><path clip-path="url(#clip620)" d="M 0 0 M1060.96 38.7359 L1060.96 62.208 L1054.57 62.208 L1054.57 38.9442 Q1054.57 33.4234 1052.42 30.6804 Q1050.26 27.9374 1045.96 27.9374 Q1040.78 27.9374 1037.8 31.2359 Q1034.81 34.5345 1034.81 40.229 L1034.81 62.208 L1028.39 62.208 L1028.39 23.3193 L1034.81 23.3193 L1034.81 29.361 Q1037.1 25.854 1040.19 24.1179 Q1043.32 22.3818 1047.38 22.3818 Q1054.08 22.3818 1057.52 26.5485 Q1060.96 30.6804 1060.96 38.7359 Z" fill="#000000" fill-rule="evenodd" fill-opacity="1" /><path clip-path="url(#clip620)" d="M 0 0 M1092.38 56.3053 L1103.84 56.3053 L1103.84 16.7569 L1091.37 19.2568 L1091.37 12.868 L1103.77 10.368 L1110.78 10.368 L1110.78 56.3053 L1122.24 56.3053 L1122.24 62.208 L1092.38 62.208 L1092.38 56.3053 Z" fill="#000000" fill-rule="evenodd" fill-opacity="1" /><path clip-path="url(#clip620)" d="M 0 0 M1129.85 53.3886 L1137.17 53.3886 L1137.17 62.208 L1129.85 62.208 L1129.85 53.3886 Z" fill="#000000" fill-rule="evenodd" fill-opacity="1" /><path clip-path="url(#clip620)" d="M 0 0 M1166.03 34.2568 Q1171.06 35.3331 1173.87 38.7359 Q1176.72 42.1387 1176.72 47.1386 Q1176.72 54.8122 1171.44 59.0136 Q1166.16 63.2149 1156.44 63.2149 Q1153.18 63.2149 1149.71 62.5552 Q1146.27 61.9302 1142.59 60.6455 L1142.59 53.8747 Q1145.51 55.5761 1148.98 56.4441 Q1152.45 57.3122 1156.23 57.3122 Q1162.83 57.3122 1166.27 54.708 Q1169.74 52.1039 1169.74 47.1386 Q1169.74 42.5553 1166.51 39.9859 Q1163.32 37.3817 1157.59 37.3817 L1151.55 37.3817 L1151.55 31.6179 L1157.87 31.6179 Q1163.04 31.6179 1165.78 29.5693 Q1168.53 27.486 1168.53 23.5971 Q1168.53 19.6041 1165.68 17.486 Q1162.87 15.3333 1157.59 15.3333 Q1154.71 15.3333 1151.41 15.9582 Q1148.11 16.5832 1144.15 17.9027 L1144.15 11.6527 Q1148.14 10.5416 1151.62 9.98606 Q1155.12 9.43051 1158.21 9.43051 Q1166.2 9.43051 1170.85 13.0763 Q1175.51 16.6874 1175.51 22.8679 Q1175.51 27.1735 1173.04 30.1596 Q1170.57 33.1109 1166.03 34.2568 Z" fill="#000000" fill-rule="evenodd" fill-opacity="1" /><path clip-path="url(#clip620)" d="M 0 0 M608.599 86.01 Q603.946 93.996 601.689 101.808 Q599.432 109.621 599.432 117.642 Q599.432 125.663 601.689 133.544 Q603.981 141.392 608.599 149.343 L603.043 149.343 Q597.835 141.183 595.231 133.301 Q592.661 125.419 592.661 117.642 Q592.661 109.899 595.231 102.052 Q597.8 94.2044 603.043 86.01 L608.599 86.01 Z" fill="#000000" fill-rule="evenodd" fill-opacity="1" /><path clip-path="url(#clip620)" d="M 0 0 M647.626 116.496 L647.626 139.968 L641.237 139.968 L641.237 116.704 Q641.237 111.183 639.084 108.44 Q636.932 105.697 632.626 105.697 Q627.453 105.697 624.467 108.996 Q621.48 112.295 621.48 117.989 L621.48 139.968 L615.057 139.968 L615.057 101.079 L621.48 101.079 L621.48 107.121 Q623.772 103.614 626.862 101.878 Q629.987 100.142 634.05 100.142 Q640.751 100.142 644.189 104.308 Q647.626 108.44 647.626 116.496 Z" fill="#000000" fill-rule="evenodd" fill-opacity="1" /><path clip-path="url(#clip620)" d="M 0 0 M687.591 118.926 L687.591 122.051 L658.216 122.051 Q658.633 128.649 662.175 132.121 Q665.751 135.558 672.105 135.558 Q675.786 135.558 679.223 134.656 Q682.695 133.753 686.098 131.947 L686.098 137.989 Q682.661 139.447 679.05 140.211 Q675.438 140.975 671.723 140.975 Q662.418 140.975 656.966 135.558 Q651.55 130.142 651.55 120.906 Q651.55 111.357 656.689 105.767 Q661.862 100.142 670.612 100.142 Q678.459 100.142 683.008 105.211 Q687.591 110.246 687.591 118.926 M681.202 117.051 Q681.133 111.808 678.251 108.683 Q675.404 105.558 670.682 105.558 Q665.334 105.558 662.105 108.579 Q658.911 111.6 658.425 117.086 L681.202 117.051 Z" fill="#000000" fill-rule="evenodd" fill-opacity="1" /><path clip-path="url(#clip620)" d="M 0 0 M700.612 90.0377 L700.612 101.079 L713.772 101.079 L713.772 106.045 L700.612 106.045 L700.612 127.156 Q700.612 131.912 701.897 133.267 Q703.216 134.621 707.209 134.621 L713.772 134.621 L713.772 139.968 L707.209 139.968 Q699.813 139.968 697.001 137.225 Q694.188 134.447 694.188 127.156 L694.188 106.045 L689.501 106.045 L689.501 101.079 L694.188 101.079 L694.188 90.0377 L700.612 90.0377 Z" fill="#000000" fill-rule="evenodd" fill-opacity="1" /><path clip-path="url(#clip620)" d="M 0 0 M722.591 134.065 L734.049 134.065 L734.049 94.5169 L721.584 97.0168 L721.584 90.628 L733.98 88.128 L740.994 88.128 L740.994 134.065 L752.452 134.065 L752.452 139.968 L722.591 139.968 L722.591 134.065 Z" fill="#000000" fill-rule="evenodd" fill-opacity="1" /><path clip-path="url(#clip620)" d="M 0 0 M760.785 131.149 L768.112 131.149 L768.112 137.121 L762.417 148.232 L757.938 148.232 L760.785 137.121 L760.785 131.149 Z" fill="#000000" fill-rule="evenodd" fill-opacity="1" /><path clip-path="url(#clip620)" d="M 0 0 M796.757 124.621 L796.757 101.079 L803.146 101.079 L803.146 124.378 Q803.146 129.899 805.299 132.676 Q807.452 135.419 811.757 135.419 Q816.931 135.419 819.917 132.121 Q822.938 128.822 822.938 123.128 L822.938 101.079 L829.327 101.079 L829.327 139.968 L822.938 139.968 L822.938 133.996 Q820.611 137.537 817.521 139.274 Q814.465 140.975 810.403 140.975 Q803.702 140.975 800.229 136.808 Q796.757 132.642 796.757 124.621 M812.834 100.142 L812.834 100.142 Z" fill="#000000" fill-rule="evenodd" fill-opacity="1" /><path clip-path="url(#clip620)" d="M 0 0 M854.5 128.197 L854.5 129.933 L835.993 129.933 Q836.271 133.614 838.493 135.558 Q840.75 137.503 844.743 137.503 Q847.069 137.503 849.257 136.982 Q851.41 136.496 853.563 135.489 L853.563 138.857 Q851.41 139.69 849.118 140.107 Q846.861 140.524 844.5 140.524 Q838.632 140.524 835.229 137.503 Q831.792 134.482 831.792 129.308 Q831.792 123.961 835.056 120.801 Q838.285 117.676 843.806 117.676 Q848.736 117.676 851.618 120.489 Q854.5 123.336 854.5 128.197 M850.472 127.121 Q850.438 124.204 848.632 122.433 Q846.826 120.697 843.84 120.697 Q840.472 120.697 838.458 122.399 Q836.445 124.065 836.132 127.121 L850.472 127.121 Z" fill="#000000" fill-rule="evenodd" fill-opacity="1" /><path clip-path="url(#clip620)" d="M 0 0 M862.035 107.677 L906.548 107.677 L906.548 113.51 L862.035 113.51 L862.035 107.677 M862.035 121.843 L906.548 121.843 L906.548 127.746 L862.035 127.746 L862.035 121.843 Z" fill="#000000" fill-rule="evenodd" fill-opacity="1" /><path clip-path="url(#clip620)" d="M 0 0 M915.368 134.065 L926.826 134.065 L926.826 94.5169 L914.361 97.0168 L914.361 90.628 L926.757 88.128 L933.77 88.128 L933.77 134.065 L945.229 134.065 L945.229 139.968 L915.368 139.968 L915.368 134.065 Z" fill="#000000" fill-rule="evenodd" fill-opacity="1" /><path clip-path="url(#clip620)" d="M 0 0 M953.562 131.149 L960.888 131.149 L960.888 137.121 L955.194 148.232 L950.715 148.232 L953.562 137.121 L953.562 131.149 Z" fill="#000000" fill-rule="evenodd" fill-opacity="1" /><path clip-path="url(#clip620)" d="M 0 0 M989.534 124.621 L989.534 101.079 L995.923 101.079 L995.923 124.378 Q995.923 129.899 998.076 132.676 Q1000.23 135.419 1004.53 135.419 Q1009.71 135.419 1012.69 132.121 Q1015.71 128.822 1015.71 123.128 L1015.71 101.079 L1022.1 101.079 L1022.1 139.968 L1015.71 139.968 L1015.71 133.996 Q1013.39 137.537 1010.3 139.274 Q1007.24 140.975 1003.18 140.975 Q996.478 140.975 993.006 136.808 Q989.534 132.642 989.534 124.621 M1005.61 100.142 L1005.61 100.142 Z" fill="#000000" fill-rule="evenodd" fill-opacity="1" /><path clip-path="url(#clip620)" d="M 0 0 M1026.34 118.197 L1030.37 118.197 L1030.37 139.968 L1026.34 139.968 L1026.34 118.197 M1026.34 109.725 L1030.37 109.725 L1030.37 114.239 L1026.34 114.239 L1026.34 109.725 Z" fill="#000000" fill-rule="evenodd" fill-opacity="1" /><path clip-path="url(#clip620)" d="M 0 0 M1037.9 107.677 L1082.42 107.677 L1082.42 113.51 L1037.9 113.51 L1037.9 107.677 M1037.9 121.843 L1082.42 121.843 L1082.42 127.746 L1037.9 127.746 L1037.9 121.843 Z" fill="#000000" fill-rule="evenodd" fill-opacity="1" /><path clip-path="url(#clip620)" d="M 0 0 M1091.23 134.065 L1102.69 134.065 L1102.69 94.5169 L1090.23 97.0168 L1090.23 90.628 L1102.62 88.128 L1109.64 88.128 L1109.64 134.065 L1121.1 134.065 L1121.1 139.968 L1091.23 139.968 L1091.23 134.065 Z" fill="#000000" fill-rule="evenodd" fill-opacity="1" /><path clip-path="url(#clip620)" d="M 0 0 M1124.57 117.642 L1143.28 117.642 L1143.28 123.336 L1124.57 123.336 L1124.57 117.642 Z" fill="#000000" fill-rule="evenodd" fill-opacity="1" /><path clip-path="url(#clip620)" d="M 0 0 M1150.82 104.968 L1150.82 98.6488 L1195.33 114.795 L1195.33 120.558 L1150.82 136.704 L1150.82 130.385 L1186.58 117.711 L1150.82 104.968 Z" fill="#000000" fill-rule="evenodd" fill-opacity="1" /><path clip-path="url(#clip620)" d="M 0 0 M1208.98 134.065 L1233.46 134.065 L1233.46 139.968 L1200.54 139.968 L1200.54 134.065 Q1204.53 129.933 1211.41 122.989 Q1218.32 116.01 1220.09 113.996 Q1223.46 110.211 1224.78 107.607 Q1226.13 104.968 1226.13 102.433 Q1226.13 98.3016 1223.21 95.6974 Q1220.33 93.0933 1215.68 93.0933 Q1212.38 93.0933 1208.7 94.2391 Q1205.05 95.3849 1200.89 97.7113 L1200.89 90.628 Q1205.12 88.9266 1208.8 88.0586 Q1212.48 87.1905 1215.54 87.1905 Q1223.6 87.1905 1228.39 91.2183 Q1233.18 95.246 1233.18 101.982 Q1233.18 105.177 1231.96 108.058 Q1230.78 110.906 1227.62 114.795 Q1226.75 115.801 1222.1 120.628 Q1217.45 125.419 1208.98 134.065 Z" fill="#000000" fill-rule="evenodd" fill-opacity="1" /><path clip-path="url(#clip620)" d="M 0 0 M1239.15 86.01 L1244.71 86.01 Q1249.91 94.2044 1252.48 102.052 Q1255.09 109.899 1255.09 117.642 Q1255.09 125.419 1252.48 133.301 Q1249.91 141.183 1244.71 149.343 L1239.15 149.343 Q1243.77 141.392 1246.03 133.544 Q1248.32 125.663 1248.32 117.642 Q1248.32 109.621 1246.03 101.808 Q1243.77 93.996 1239.15 86.01 Z" fill="#000000" fill-rule="evenodd" fill-opacity="1" /><polyline clip-path="url(#clip622)" style="stroke:#009af9; stroke-width:4; stroke-opacity:1; fill:none" points="
  302.688,729.077 303.902,668.514 305.115,621.88 306.329,588.262 307.543,566.382 308.756,554.731 309.97,551.68 311.184,555.573 312.397,564.803 313.611,577.871 
  314.825,593.425 316.038,610.291 317.252,627.481 318.466,644.199 319.679,659.833 320.893,673.947 322.107,686.257 323.32,696.615 324.534,704.988 325.747,711.433 
  326.961,716.077 328.175,719.097 329.388,720.702 330.602,721.117 331.816,720.573 333.029,719.29 334.243,717.478 335.457,715.322 336.67,712.986 337.884,710.606 
  339.098,708.292 340.311,706.128 341.525,704.175 342.739,702.472 343.952,701.04 345.166,699.882 346.38,698.992 347.593,698.35 348.807,697.933 350.021,697.712 
  351.234,697.656 352.448,697.732 353.662,697.91 354.875,698.161 356.089,698.46 357.303,698.784 358.516,699.113 359.73,699.434 360.944,699.733 362.157,700.003 
  363.371,700.239 364.585,700.437 365.798,700.597 367.012,700.72 368.226,700.809 369.439,700.866 370.653,700.897 371.866,700.904 373.08,700.894 374.294,700.869 
  375.507,700.834 376.721,700.793 377.935,700.748 379.148,700.702 380.362,700.658 381.576,700.616 382.789,700.579 384.003,700.546 385.217,700.519 386.43,700.497 
  387.644,700.48 388.858,700.468 390.071,700.46 391.285,700.456 392.499,700.455 393.712,700.456 394.926,700.459 396.14,700.464 397.353,700.47 398.567,700.476 
  399.781,700.483 400.994,700.489 402.208,700.494 403.422,700.5 404.635,700.504 405.849,700.508 407.063,700.511 408.276,700.513 409.49,700.515 410.704,700.516 
  411.917,700.517 413.131,700.517 414.345,700.517 415.558,700.516 416.772,700.515 417.986,700.515 419.199,700.514 420.413,700.513 421.626,700.512 422.84,700.511 
  424.054,700.511 425.267,700.51 426.481,700.509 427.695,700.509 428.908,700.509 430.122,700.508 431.336,700.508 432.549,700.508 433.763,700.508 434.977,700.508 
  436.19,700.508 437.404,700.508 438.618,700.508 439.831,700.509 441.045,700.509 442.259,700.509 443.472,700.509 444.686,700.509 445.9,700.509 447.113,700.509 
  448.327,700.509 449.541,700.509 450.754,700.509 451.968,700.509 453.182,700.509 454.395,700.509 455.609,700.509 456.823,700.509 458.036,700.509 459.25,700.509 
  460.464,700.509 461.677,700.509 462.891,700.509 464.105,700.509 465.318,700.509 466.532,700.509 467.745,700.509 468.959,700.509 470.173,700.509 471.386,700.509 
  472.6,700.509 473.814,700.509 475.027,700.509 476.241,700.509 477.455,700.509 478.668,700.509 479.882,700.509 481.096,700.509 482.309,700.509 483.523,700.509 
  484.737,700.509 485.95,700.509 487.164,700.509 488.378,700.509 489.591,700.509 490.805,700.509 492.019,700.509 493.232,700.509 494.446,700.509 495.66,700.509 
  496.873,700.509 498.087,700.509 499.301,700.509 500.514,700.509 501.728,700.509 502.942,700.509 504.155,700.509 505.369,700.509 506.583,700.509 507.796,700.509 
  509.01,700.509 510.224,700.509 511.437,700.509 512.651,700.509 513.864,700.509 515.078,700.509 516.292,700.509 517.505,700.509 518.719,700.509 519.933,700.509 
  521.146,700.509 522.36,700.509 523.574,700.509 524.787,700.509 526.001,700.509 527.215,700.509 528.428,700.509 529.642,700.509 530.856,700.509 532.069,700.509 
  533.283,700.509 534.497,700.509 535.71,700.509 536.924,700.509 538.138,700.509 539.351,700.509 540.565,700.509 541.779,700.509 542.992,700.509 544.206,700.509 
  545.42,700.509 546.633,700.509 547.847,700.509 549.061,700.509 550.274,700.509 551.488,700.509 552.702,700.509 553.915,700.509 555.129,700.509 556.343,700.509 
  557.556,700.509 558.77,700.509 559.984,700.509 561.197,700.509 562.411,700.509 563.624,700.509 564.838,700.509 566.052,700.509 567.265,700.509 568.479,700.509 
  569.693,700.509 570.906,700.509 572.12,700.509 573.334,700.509 574.547,700.509 575.761,700.509 576.975,700.509 578.188,700.509 579.402,700.509 580.616,700.509 
  581.829,700.509 583.043,700.509 584.257,700.509 585.47,700.509 586.684,700.509 587.898,700.509 589.111,700.509 590.325,700.509 591.539,700.509 592.752,700.509 
  593.966,700.509 595.18,700.509 596.393,700.509 597.607,700.509 598.821,700.509 600.034,700.509 601.248,700.509 602.462,700.509 603.675,700.509 604.889,700.509 
  606.103,700.509 607.316,700.509 608.53,700.509 609.743,700.509 610.957,700.509 612.171,700.509 613.384,700.509 614.598,700.509 615.812,700.509 617.025,700.509 
  618.239,700.509 619.453,700.509 620.666,700.509 621.88,700.509 623.094,700.509 624.307,700.509 625.521,700.509 626.735,700.509 627.948,700.509 629.162,700.509 
  630.376,700.509 631.589,700.509 632.803,700.509 634.017,700.509 635.23,700.509 636.444,700.509 637.658,700.509 638.871,700.509 640.085,700.509 641.299,700.509 
  642.512,700.509 643.726,700.509 644.94,700.509 646.153,700.509 647.367,700.509 648.581,700.509 649.794,700.509 651.008,700.509 652.222,700.509 653.435,700.509 
  654.649,700.509 655.863,700.509 657.076,700.509 658.29,700.509 659.503,700.509 660.717,700.509 661.931,700.509 663.144,700.509 664.358,700.509 665.572,700.509 
  666.785,700.509 667.999,700.509 669.213,700.509 670.426,700.509 671.64,700.509 672.854,700.509 674.067,700.509 675.281,700.509 676.495,700.509 677.708,700.509 
  678.922,700.509 680.136,700.509 681.349,700.509 682.563,700.509 683.777,700.509 684.99,700.509 686.204,700.509 687.418,700.509 688.631,700.509 689.845,700.509 
  691.059,700.509 692.272,700.509 693.486,700.509 694.7,700.509 695.913,700.509 697.127,700.509 698.341,700.509 699.554,700.509 700.768,700.509 701.982,700.509 
  703.195,700.509 704.409,700.509 705.622,700.509 706.836,700.509 708.05,700.509 709.263,700.509 710.477,700.509 711.691,700.509 712.904,700.509 714.118,700.509 
  715.332,700.509 716.545,700.509 717.759,700.509 718.973,700.509 720.186,700.509 721.4,700.509 722.614,700.509 723.827,700.509 725.041,700.509 726.255,700.509 
  727.468,700.509 728.682,700.509 729.896,700.509 731.109,700.509 732.323,700.509 733.537,700.509 734.75,700.509 735.964,700.509 737.178,700.509 738.391,700.509 
  739.605,700.509 740.819,700.509 742.032,700.509 743.246,700.509 744.46,700.509 745.673,700.509 746.887,700.509 748.101,700.509 749.314,700.509 750.528,700.509 
  751.742,700.509 752.955,700.509 754.169,700.509 755.382,700.509 756.596,700.509 757.81,700.509 759.023,700.509 760.237,700.509 761.451,700.509 762.664,700.509 
  763.878,700.509 765.092,700.509 766.305,700.509 767.519,700.509 768.733,700.509 769.946,700.509 771.16,700.509 772.374,700.509 773.587,700.509 774.801,700.509 
  776.015,700.509 777.228,700.509 778.442,700.509 779.656,700.509 780.869,700.509 782.083,700.509 783.297,700.509 784.51,700.509 785.724,700.509 786.938,700.509 
  788.151,700.509 789.365,700.509 790.579,700.509 791.792,700.509 793.006,700.509 794.22,700.509 795.433,700.509 796.647,700.509 797.861,700.509 799.074,700.509 
  800.288,700.509 801.501,700.509 802.715,700.509 803.929,700.509 805.142,700.509 806.356,700.509 807.57,700.509 808.783,700.509 809.997,700.509 811.211,700.509 
  812.424,700.509 813.638,700.509 814.852,700.509 816.065,700.509 817.279,700.509 818.493,700.509 819.706,700.509 820.92,700.509 822.134,700.509 823.347,700.509 
  824.561,700.509 825.775,700.509 826.988,700.509 828.202,700.509 829.416,700.509 830.629,700.509 831.843,700.509 833.057,700.509 834.27,700.509 835.484,700.509 
  836.698,700.509 837.911,700.509 839.125,700.509 840.339,700.509 841.552,700.509 842.766,700.509 843.98,700.509 845.193,700.509 846.407,700.509 847.62,700.509 
  848.834,700.509 850.048,700.509 851.261,700.509 852.475,700.509 853.689,700.509 854.902,700.509 856.116,700.509 857.33,700.509 858.543,700.509 859.757,700.509 
  860.971,700.509 862.184,700.509 863.398,700.509 864.612,700.509 865.825,700.509 867.039,700.509 868.253,700.509 869.466,700.509 870.68,700.509 871.894,700.509 
  873.107,700.509 874.321,700.509 875.535,700.509 876.748,700.509 877.962,700.509 879.176,700.509 880.389,700.509 881.603,700.509 882.817,700.509 884.03,700.509 
  885.244,700.509 886.458,700.509 887.671,700.509 888.885,700.509 890.099,700.509 891.312,700.509 892.526,700.509 893.74,700.509 894.953,700.509 896.167,700.509 
  897.38,700.509 898.594,700.509 899.808,700.509 901.021,700.509 902.235,700.509 903.449,700.509 904.662,700.509 905.876,700.509 907.09,700.509 908.303,700.509 
  909.517,700.509 910.731,700.509 911.944,711.411 913.158,730.488 914.372,755.235 915.585,783.425 916.799,813.149 918.013,842.828 919.226,871.212 920.44,897.367 
  921.654,920.647 922.867,940.661 924.081,957.24 925.295,970.392 926.508,980.273 927.722,987.141 928.936,991.332 930.149,993.223 931.363,993.212 932.577,991.694 
  933.79,989.046 935.004,985.615 936.218,981.709 937.431,977.593 938.645,973.484 939.859,969.555 941.072,965.935 942.286,962.715 943.499,959.946 944.713,957.654 
  945.927,955.836 947.14,954.47 948.354,953.522 949.568,952.944 950.781,952.684 951.995,952.687 953.209,952.898 954.422,953.266 955.636,953.742 956.85,954.283 
  958.063,954.853 959.277,955.422 960.491,955.966 961.704,956.466 962.918,956.912 964.132,957.295 965.345,957.612 966.559,957.863 967.773,958.052 968.986,958.183 
  970.2,958.263 971.414,958.298 972.627,958.298 973.841,958.268 975.055,958.217 976.268,958.151 977.482,958.076 978.696,957.997 979.909,957.919 981.123,957.843 
  982.337,957.774 983.55,957.712 984.764,957.659 985.978,957.616 987.191,957.581 988.405,957.555 989.619,957.537 990.832,957.526 992.046,957.521 993.259,957.521 
  994.473,957.525 995.687,957.532 996.9,957.541 998.114,957.552 999.328,957.563 1000.54,957.573 1001.76,957.584 1002.97,957.593 1004.18,957.602 1005.4,957.609 
  1006.61,957.615 1007.82,957.62 1009.04,957.624 1010.25,957.626 1011.46,957.628 1012.68,957.628 1013.89,957.628 1015.11,957.628 1016.32,957.627 1017.53,957.626 
  1018.75,957.624 1019.96,957.623 1021.17,957.621 1022.39,957.62 1023.6,957.618 1024.81,957.617 1026.03,957.616 1027.24,957.615 1028.46,957.615 1029.67,957.614 
  1030.88,957.614 1032.1,957.614 1033.31,957.614 1034.52,957.614 1035.74,957.614 1036.95,957.614 1038.16,957.614 1039.38,957.614 1040.59,957.614 1041.81,957.615 
  1043.02,957.615 1044.23,957.615 1045.45,957.615 1046.66,957.615 1047.87,957.615 1049.09,957.615 1050.3,957.616 1051.52,957.616 1052.73,957.616 1053.94,957.616 
  1055.16,957.616 1056.37,957.616 1057.58,957.616 1058.8,957.616 1060.01,957.616 1061.22,957.615 1062.44,957.615 1063.65,957.615 1064.87,957.615 1066.08,957.615 
  1067.29,957.615 1068.51,957.615 1069.72,957.615 1070.93,957.615 1072.15,957.615 1073.36,957.615 1074.57,957.615 1075.79,957.615 1077,957.615 1078.22,957.615 
  1079.43,957.615 1080.64,957.615 1081.86,957.615 1083.07,957.615 1084.28,957.615 1085.5,957.615 1086.71,957.615 1087.92,957.615 1089.14,957.615 1090.35,957.615 
  1091.57,957.615 1092.78,957.615 1093.99,957.615 1095.21,957.615 1096.42,957.615 1097.63,957.615 1098.85,957.615 1100.06,957.615 1101.28,957.615 1102.49,957.615 
  1103.7,957.615 1104.92,957.615 1106.13,957.615 1107.34,957.615 1108.56,957.615 1109.77,957.615 1110.98,957.615 1112.2,957.615 1113.41,957.615 1114.63,957.615 
  1115.84,957.615 1117.05,957.615 1118.27,957.615 1119.48,957.615 1120.69,957.615 1121.91,957.615 1123.12,957.615 1124.33,957.615 1125.55,957.615 1126.76,957.615 
  1127.98,957.615 1129.19,957.615 1130.4,957.615 1131.62,957.615 1132.83,957.615 1134.04,957.615 1135.26,957.615 1136.47,957.615 1137.68,957.615 1138.9,957.615 
  1140.11,957.615 1141.33,957.615 1142.54,957.615 1143.75,957.615 1144.97,957.615 1146.18,957.615 1147.39,957.615 1148.61,957.615 1149.82,957.615 1151.04,957.615 
  1152.25,957.615 1153.46,957.615 1154.68,957.615 1155.89,957.615 1157.1,957.615 1158.32,957.615 1159.53,957.615 1160.74,957.615 1161.96,957.615 1163.17,957.615 
  1164.39,957.615 1165.6,957.615 1166.81,957.615 1168.03,957.615 1169.24,957.615 1170.45,957.615 1171.67,957.615 1172.88,957.615 1174.09,957.615 1175.31,957.615 
  1176.52,957.615 1177.74,957.615 1178.95,957.615 1180.16,957.615 1181.38,957.615 1182.59,957.615 1183.8,957.615 1185.02,957.615 1186.23,957.615 1187.44,957.615 
  1188.66,957.615 1189.87,957.615 1191.09,957.615 1192.3,957.615 1193.51,957.615 1194.73,957.615 1195.94,957.615 1197.15,957.615 1198.37,957.615 1199.58,957.615 
  1200.8,957.615 1202.01,957.615 1203.22,957.615 1204.44,957.615 1205.65,957.615 1206.86,957.615 1208.08,957.615 1209.29,957.615 1210.5,957.615 1211.72,957.615 
  1212.93,957.615 1214.15,957.615 1215.36,957.615 1216.57,957.615 1217.79,957.615 1219,957.615 1220.21,957.615 1221.43,957.615 1222.64,957.615 1223.85,957.615 
  1225.07,957.615 1226.28,957.615 1227.5,957.615 1228.71,957.615 1229.92,957.615 1231.14,957.615 1232.35,957.615 1233.56,957.615 1234.78,957.615 1235.99,957.615 
  1237.2,957.615 1238.42,957.615 1239.63,957.615 1240.85,957.615 1242.06,957.615 1243.27,957.615 1244.49,957.615 1245.7,957.615 1246.91,957.615 1248.13,957.615 
  1249.34,957.615 1250.56,957.615 1251.77,957.615 1252.98,957.615 1254.2,957.615 1255.41,957.615 1256.62,957.615 1257.84,957.615 1259.05,957.615 1260.26,957.615 
  1261.48,957.615 1262.69,957.615 1263.91,957.615 1265.12,957.615 1266.33,957.615 1267.55,957.615 1268.76,957.615 1269.97,957.615 1271.19,957.615 1272.4,957.615 
  1273.61,957.615 1274.83,957.615 1276.04,957.615 1277.26,957.615 1278.47,957.615 1279.68,957.615 1280.9,957.615 1282.11,957.615 1283.32,957.615 1284.54,957.615 
  1285.75,957.615 1286.96,957.615 1288.18,957.615 1289.39,957.615 1290.61,957.615 1291.82,957.615 1293.03,957.615 1294.25,957.615 1295.46,957.615 1296.67,957.615 
  1297.89,957.615 1299.1,957.615 1300.32,957.615 1301.53,957.615 1302.74,957.615 1303.96,957.615 1305.17,957.615 1306.38,957.615 1307.6,957.615 1308.81,957.615 
  1310.02,957.615 1311.24,957.615 1312.45,957.615 1313.67,957.615 1314.88,957.615 1316.09,957.615 1317.31,957.615 1318.52,957.615 1319.73,957.615 1320.95,957.615 
  1322.16,957.615 1323.37,957.615 1324.59,957.615 1325.8,957.615 1327.02,957.615 1328.23,957.615 1329.44,957.615 1330.66,957.615 1331.87,957.615 1333.08,957.615 
  1334.3,957.615 1335.51,957.615 1336.72,957.615 1337.94,957.615 1339.15,957.615 1340.37,957.615 1341.58,957.615 1342.79,957.615 1344.01,957.615 1345.22,957.615 
  1346.43,957.615 1347.65,957.615 1348.86,957.615 1350.07,957.615 1351.29,957.615 1352.5,957.615 1353.72,957.615 1354.93,957.615 1356.14,957.615 1357.36,957.615 
  1358.57,957.615 1359.78,957.615 1361,957.615 1362.21,957.615 1363.43,957.615 1364.64,957.615 1365.85,957.615 1367.07,957.615 1368.28,957.615 1369.49,957.615 
  1370.71,957.615 1371.92,957.615 1373.13,957.615 1374.35,957.615 1375.56,957.615 1376.78,957.615 1377.99,957.615 1379.2,957.615 1380.42,957.615 1381.63,957.615 
  1382.84,957.615 1384.06,957.615 1385.27,957.615 1386.48,957.615 1387.7,957.615 1388.91,957.615 1390.13,957.615 1391.34,957.615 1392.55,957.615 1393.77,957.615 
  1394.98,957.615 1396.19,957.615 1397.41,957.615 1398.62,957.615 1399.83,957.615 1401.05,957.615 1402.26,957.615 1403.48,957.615 1404.69,957.615 1405.9,957.615 
  1407.12,957.615 1408.33,957.615 1409.54,957.615 1410.76,957.615 1411.97,957.615 1413.19,957.615 1414.4,957.615 1415.61,957.615 1416.83,957.615 1418.04,957.615 
  1419.25,957.615 1420.47,957.615 1421.68,957.615 1422.89,957.615 1424.11,957.615 1425.32,957.615 1426.54,957.615 1427.75,957.615 1428.96,957.615 1430.18,957.615 
  1431.39,957.615 1432.6,957.615 1433.82,957.615 1435.03,957.615 1436.24,957.615 1437.46,957.615 1438.67,957.615 1439.89,957.615 1441.1,957.615 1442.31,957.615 
  1443.53,957.615 1444.74,957.615 1445.95,957.615 1447.17,957.615 1448.38,957.615 1449.59,957.615 1450.81,957.615 1452.02,957.615 1453.24,957.615 1454.45,957.615 
  1455.66,957.615 1456.88,957.615 1458.09,957.615 1459.3,957.615 1460.52,957.615 1461.73,957.615 1462.95,957.615 1464.16,957.615 1465.37,957.615 1466.59,957.615 
  1467.8,957.615 1469.01,957.615 1470.23,957.615 1471.44,957.615 1472.65,957.615 1473.87,957.615 1475.08,957.615 1476.3,957.615 1477.51,957.615 1478.72,957.615 
  1479.94,957.615 1481.15,957.615 1482.36,957.615 1483.58,957.615 1484.79,957.615 1486,957.615 1487.22,957.615 1488.43,957.615 1489.65,957.615 1490.86,957.615 
  1492.07,957.615 1493.29,957.615 1494.5,957.615 1495.71,957.615 1496.93,957.615 1498.14,957.615 1499.35,957.615 1500.57,957.615 1501.78,957.615 1503,957.615 
  1504.21,957.615 1505.42,957.615 1506.64,957.615 1507.85,957.615 1509.06,957.615 1510.28,957.615 1511.49,957.615 1512.71,957.615 1513.92,957.615 1515.13,957.615 
  1516.35,957.615 
  "/>
<polyline clip-path="url(#clip622)" style="stroke:#e26f46; stroke-width:4; stroke-opacity:1; fill:none" points="
  302.688,729.077 303.902,668.514 305.115,609.162 306.329,553.287 307.543,502.536 308.756,457.996 309.97,420.267 311.184,389.535 312.397,365.65 313.611,348.203 
  314.825,336.598 316.038,330.114 317.252,327.962 318.466,329.335 319.679,333.443 320.893,339.543 322.107,346.963 323.32,355.116 324.534,363.502 325.747,371.718 
  326.961,379.451 328.175,386.474 329.388,392.635 330.602,397.853 331.816,402.102 333.029,405.404 334.243,407.814 335.457,409.416 336.67,410.31 337.884,410.604 
  339.098,410.411 340.311,409.84 341.525,408.994 342.739,407.965 343.952,406.836 345.166,405.675 346.38,404.537 347.593,403.467 348.807,402.496 350.021,401.643 
  351.234,400.921 352.448,400.334 353.662,399.878 354.875,399.545 356.089,399.324 357.303,399.2 358.516,399.16 359.73,399.187 360.944,399.267 362.157,399.384 
  363.371,399.527 364.585,399.683 365.798,399.844 367.012,400.001 368.226,400.149 369.439,400.284 370.653,400.402 371.866,400.502 373.08,400.583 374.294,400.646 
  375.507,400.692 376.721,400.722 377.935,400.739 379.148,400.745 380.362,400.741 381.576,400.73 382.789,400.714 384.003,400.694 385.217,400.672 386.43,400.65 
  387.644,400.628 388.858,400.608 390.071,400.589 391.285,400.573 392.499,400.559 393.712,400.548 394.926,400.539 396.14,400.533 397.353,400.528 398.567,400.526 
  399.781,400.525 400.994,400.526 402.208,400.527 403.422,400.53 404.635,400.532 405.849,400.535 407.063,400.539 408.276,400.542 409.49,400.544 410.704,400.547 
  411.917,400.549 413.131,400.551 414.345,400.553 415.558,400.554 416.772,400.555 417.986,400.555 419.199,400.556 420.413,400.556 421.626,400.556 422.84,400.556 
  424.054,400.555 425.267,400.555 426.481,400.554 427.695,400.554 428.908,400.554 430.122,400.553 431.336,400.553 432.549,400.552 433.763,400.552 434.977,400.552 
  436.19,400.552 437.404,400.552 438.618,400.552 439.831,400.552 441.045,400.552 442.259,400.552 443.472,400.552 444.686,400.552 445.9,400.552 447.113,400.552 
  448.327,400.552 449.541,400.552 450.754,400.552 451.968,400.552 453.182,400.552 454.395,400.552 455.609,400.552 456.823,400.552 458.036,400.552 459.25,400.552 
  460.464,400.552 461.677,400.552 462.891,400.552 464.105,400.552 465.318,400.552 466.532,400.552 467.745,400.552 468.959,400.552 470.173,400.552 471.386,400.552 
  472.6,400.552 473.814,400.552 475.027,400.552 476.241,400.552 477.455,400.552 478.668,400.552 479.882,400.552 481.096,400.552 482.309,400.552 483.523,400.552 
  484.737,400.552 485.95,400.552 487.164,400.552 488.378,400.552 489.591,400.552 490.805,400.552 492.019,400.552 493.232,400.552 494.446,400.552 495.66,400.552 
  496.873,400.552 498.087,400.552 499.301,400.552 500.514,400.552 501.728,400.552 502.942,400.552 504.155,400.552 505.369,400.552 506.583,400.552 507.796,400.552 
  509.01,400.552 510.224,400.552 511.437,400.552 512.651,400.552 513.864,400.552 515.078,400.552 516.292,400.552 517.505,400.552 518.719,400.552 519.933,400.552 
  521.146,400.552 522.36,400.552 523.574,400.552 524.787,400.552 526.001,400.552 527.215,400.552 528.428,400.552 529.642,400.552 530.856,400.552 532.069,400.552 
  533.283,400.552 534.497,400.552 535.71,400.552 536.924,400.552 538.138,400.552 539.351,400.552 540.565,400.552 541.779,400.552 542.992,400.552 544.206,400.552 
  545.42,400.552 546.633,400.552 547.847,400.552 549.061,400.552 550.274,400.552 551.488,400.552 552.702,400.552 553.915,400.552 555.129,400.552 556.343,400.552 
  557.556,400.552 558.77,400.552 559.984,400.552 561.197,400.552 562.411,400.552 563.624,400.552 564.838,400.552 566.052,400.552 567.265,400.552 568.479,400.552 
  569.693,400.552 570.906,400.552 572.12,400.552 573.334,400.552 574.547,400.552 575.761,400.552 576.975,400.552 578.188,400.552 579.402,400.552 580.616,400.552 
  581.829,400.552 583.043,400.552 584.257,400.552 585.47,400.552 586.684,400.552 587.898,400.552 589.111,400.552 590.325,400.552 591.539,400.552 592.752,400.552 
  593.966,400.552 595.18,400.552 596.393,400.552 597.607,400.552 598.821,400.552 600.034,400.552 601.248,400.552 602.462,400.552 603.675,400.552 604.889,400.552 
  606.103,400.552 607.316,400.552 608.53,400.552 609.743,400.552 610.957,400.552 612.171,400.552 613.384,400.552 614.598,400.552 615.812,400.552 617.025,400.552 
  618.239,400.552 619.453,400.552 620.666,400.552 621.88,400.552 623.094,400.552 624.307,400.552 625.521,400.552 626.735,400.552 627.948,400.552 629.162,400.552 
  630.376,400.552 631.589,400.552 632.803,400.552 634.017,400.552 635.23,400.552 636.444,400.552 637.658,400.552 638.871,400.552 640.085,400.552 641.299,400.552 
  642.512,400.552 643.726,400.552 644.94,400.552 646.153,400.552 647.367,400.552 648.581,400.552 649.794,400.552 651.008,400.552 652.222,400.552 653.435,400.552 
  654.649,400.552 655.863,400.552 657.076,400.552 658.29,400.552 659.503,400.552 660.717,400.552 661.931,400.552 663.144,400.552 664.358,400.552 665.572,400.552 
  666.785,400.552 667.999,400.552 669.213,400.552 670.426,400.552 671.64,400.552 672.854,400.552 674.067,400.552 675.281,400.552 676.495,400.552 677.708,400.552 
  678.922,400.552 680.136,400.552 681.349,400.552 682.563,400.552 683.777,400.552 684.99,400.552 686.204,400.552 687.418,400.552 688.631,400.552 689.845,400.552 
  691.059,400.552 692.272,400.552 693.486,400.552 694.7,400.552 695.913,400.552 697.127,400.552 698.341,400.552 699.554,400.552 700.768,400.552 701.982,400.552 
  703.195,400.552 704.409,400.552 705.622,400.552 706.836,400.552 708.05,400.552 709.263,400.552 710.477,400.552 711.691,400.552 712.904,400.552 714.118,400.552 
  715.332,400.552 716.545,400.552 717.759,400.552 718.973,400.552 720.186,400.552 721.4,400.552 722.614,400.552 723.827,400.552 725.041,400.552 726.255,400.552 
  727.468,400.552 728.682,400.552 729.896,400.552 731.109,400.552 732.323,400.552 733.537,400.552 734.75,400.552 735.964,400.552 737.178,400.552 738.391,400.552 
  739.605,400.552 740.819,400.552 742.032,400.552 743.246,400.552 744.46,400.552 745.673,400.552 746.887,400.552 748.101,400.552 749.314,400.552 750.528,400.552 
  751.742,400.552 752.955,400.552 754.169,400.552 755.382,400.552 756.596,400.552 757.81,400.552 759.023,400.552 760.237,400.552 761.451,400.552 762.664,400.552 
  763.878,400.552 765.092,400.552 766.305,400.552 767.519,400.552 768.733,400.552 769.946,400.552 771.16,400.552 772.374,400.552 773.587,400.552 774.801,400.552 
  776.015,400.552 777.228,400.552 778.442,400.552 779.656,400.552 780.869,400.552 782.083,400.552 783.297,400.552 784.51,400.552 785.724,400.552 786.938,400.552 
  788.151,400.552 789.365,400.552 790.579,400.552 791.792,400.552 793.006,400.552 794.22,400.552 795.433,400.552 796.647,400.552 797.861,400.552 799.074,400.552 
  800.288,400.552 801.501,400.552 802.715,400.552 803.929,400.552 805.142,400.552 806.356,400.552 807.57,400.552 808.783,400.552 809.997,400.552 811.211,400.552 
  812.424,400.552 813.638,400.552 814.852,400.552 816.065,400.552 817.279,400.552 818.493,400.552 819.706,400.552 820.92,400.552 822.134,400.552 823.347,400.552 
  824.561,400.552 825.775,400.552 826.988,400.552 828.202,400.552 829.416,400.552 830.629,400.552 831.843,400.552 833.057,400.552 834.27,400.552 835.484,400.552 
  836.698,400.552 837.911,400.552 839.125,400.552 840.339,400.552 841.552,400.552 842.766,400.552 843.98,400.552 845.193,400.552 846.407,400.552 847.62,400.552 
  848.834,400.552 850.048,400.552 851.261,400.552 852.475,400.552 853.689,400.552 854.902,400.552 856.116,400.552 857.33,400.552 858.543,400.552 859.757,400.552 
  860.971,400.552 862.184,400.552 863.398,400.552 864.612,400.552 865.825,400.552 867.039,400.552 868.253,400.552 869.466,400.552 870.68,400.552 871.894,400.552 
  873.107,400.552 874.321,400.552 875.535,400.552 876.748,400.552 877.962,400.552 879.176,400.552 880.389,400.552 881.603,400.552 882.817,400.552 884.03,400.552 
  885.244,400.552 886.458,400.552 887.671,400.552 888.885,400.552 890.099,400.552 891.312,400.552 892.526,400.552 893.74,400.552 894.953,400.552 896.167,400.552 
  897.38,400.552 898.594,400.552 899.808,400.552 901.021,400.552 902.235,400.552 903.449,400.552 904.662,400.552 905.876,400.552 907.09,400.552 908.303,400.552 
  909.517,400.552 910.731,339.989 911.944,291.539 913.158,254.741 914.372,228.737 915.585,212.388 916.799,204.383 918.013,203.329 919.226,207.828 920.44,216.537 
  921.654,228.211 922.867,241.742 924.081,256.168 925.295,270.694 926.508,284.682 927.722,297.65 928.936,309.262 930.149,319.305 931.363,327.68 932.577,334.378 
  933.79,339.463 935.004,343.055 936.218,345.311 937.431,346.412 938.645,346.552 939.859,345.925 941.072,344.716 942.286,343.097 943.499,341.222 944.713,339.224 
  945.927,337.213 947.14,335.277 948.354,333.482 949.568,331.876 950.781,330.486 951.995,329.328 953.209,328.402 954.422,327.699 955.636,327.203 956.85,326.892 
  958.063,326.741 959.277,326.722 960.491,326.81 961.704,326.977 962.918,327.202 964.132,327.462 965.345,327.738 966.559,328.017 967.773,328.285 968.986,328.533 
  970.2,328.755 971.414,328.948 972.627,329.108 973.841,329.236 975.055,329.333 976.268,329.401 977.482,329.444 978.696,329.465 979.909,329.468 981.123,329.455 
  982.337,329.432 983.55,329.401 984.764,329.365 985.978,329.327 987.191,329.288 988.405,329.251 989.619,329.217 990.832,329.186 992.046,329.159 993.259,329.137 
  994.473,329.12 995.687,329.106 996.9,329.097 998.114,329.091 999.328,329.088 1000.54,329.087 1001.76,329.089 1002.97,329.092 1004.18,329.097 1005.4,329.102 
  1006.61,329.107 1007.82,329.112 1009.04,329.118 1010.25,329.122 1011.46,329.127 1012.68,329.13 1013.89,329.133 1015.11,329.136 1016.32,329.138 1017.53,329.139 
  1018.75,329.14 1019.96,329.14 1021.17,329.14 1022.39,329.14 1023.6,329.139 1024.81,329.139 1026.03,329.138 1027.24,329.137 1028.46,329.137 1029.67,329.136 
  1030.88,329.135 1032.1,329.135 1033.31,329.134 1034.52,329.134 1035.74,329.133 1036.95,329.133 1038.16,329.133 1039.38,329.133 1040.59,329.133 1041.81,329.133 
  1043.02,329.133 1044.23,329.133 1045.45,329.133 1046.66,329.133 1047.87,329.133 1049.09,329.133 1050.3,329.133 1051.52,329.134 1052.73,329.134 1053.94,329.134 
  1055.16,329.134 1056.37,329.134 1057.58,329.134 1058.8,329.134 1060.01,329.134 1061.22,329.134 1062.44,329.134 1063.65,329.134 1064.87,329.134 1066.08,329.134 
  1067.29,329.134 1068.51,329.134 1069.72,329.134 1070.93,329.134 1072.15,329.134 1073.36,329.134 1074.57,329.134 1075.79,329.134 1077,329.134 1078.22,329.134 
  1079.43,329.134 1080.64,329.134 1081.86,329.134 1083.07,329.134 1084.28,329.134 1085.5,329.134 1086.71,329.134 1087.92,329.134 1089.14,329.134 1090.35,329.134 
  1091.57,329.134 1092.78,329.134 1093.99,329.134 1095.21,329.134 1096.42,329.134 1097.63,329.134 1098.85,329.134 1100.06,329.134 1101.28,329.134 1102.49,329.134 
  1103.7,329.134 1104.92,329.134 1106.13,329.134 1107.34,329.134 1108.56,329.134 1109.77,329.134 1110.98,329.134 1112.2,329.134 1113.41,329.134 1114.63,329.134 
  1115.84,329.134 1117.05,329.134 1118.27,329.134 1119.48,329.134 1120.69,329.134 1121.91,329.134 1123.12,329.134 1124.33,329.134 1125.55,329.134 1126.76,329.134 
  1127.98,329.134 1129.19,329.134 1130.4,329.134 1131.62,329.134 1132.83,329.134 1134.04,329.134 1135.26,329.134 1136.47,329.134 1137.68,329.134 1138.9,329.134 
  1140.11,329.134 1141.33,329.134 1142.54,329.134 1143.75,329.134 1144.97,329.134 1146.18,329.134 1147.39,329.134 1148.61,329.134 1149.82,329.134 1151.04,329.134 
  1152.25,329.134 1153.46,329.134 1154.68,329.134 1155.89,329.134 1157.1,329.134 1158.32,329.134 1159.53,329.134 1160.74,329.134 1161.96,329.134 1163.17,329.134 
  1164.39,329.134 1165.6,329.134 1166.81,329.134 1168.03,329.134 1169.24,329.134 1170.45,329.134 1171.67,329.134 1172.88,329.134 1174.09,329.134 1175.31,329.134 
  1176.52,329.134 1177.74,329.134 1178.95,329.134 1180.16,329.134 1181.38,329.134 1182.59,329.134 1183.8,329.134 1185.02,329.134 1186.23,329.134 1187.44,329.134 
  1188.66,329.134 1189.87,329.134 1191.09,329.134 1192.3,329.134 1193.51,329.134 1194.73,329.134 1195.94,329.134 1197.15,329.134 1198.37,329.134 1199.58,329.134 
  1200.8,329.134 1202.01,329.134 1203.22,329.134 1204.44,329.134 1205.65,329.134 1206.86,329.134 1208.08,329.134 1209.29,329.134 1210.5,329.134 1211.72,329.134 
  1212.93,329.134 1214.15,329.134 1215.36,329.134 1216.57,329.134 1217.79,329.134 1219,329.134 1220.21,329.134 1221.43,329.134 1222.64,329.134 1223.85,329.134 
  1225.07,329.134 1226.28,329.134 1227.5,329.134 1228.71,329.134 1229.92,329.134 1231.14,329.134 1232.35,329.134 1233.56,329.134 1234.78,329.134 1235.99,329.134 
  1237.2,329.134 1238.42,329.134 1239.63,329.134 1240.85,329.134 1242.06,329.134 1243.27,329.134 1244.49,329.134 1245.7,329.134 1246.91,329.134 1248.13,329.134 
  1249.34,329.134 1250.56,329.134 1251.77,329.134 1252.98,329.134 1254.2,329.134 1255.41,329.134 1256.62,329.134 1257.84,329.134 1259.05,329.134 1260.26,329.134 
  1261.48,329.134 1262.69,329.134 1263.91,329.134 1265.12,329.134 1266.33,329.134 1267.55,329.134 1268.76,329.134 1269.97,329.134 1271.19,329.134 1272.4,329.134 
  1273.61,329.134 1274.83,329.134 1276.04,329.134 1277.26,329.134 1278.47,329.134 1279.68,329.134 1280.9,329.134 1282.11,329.134 1283.32,329.134 1284.54,329.134 
  1285.75,329.134 1286.96,329.134 1288.18,329.134 1289.39,329.134 1290.61,329.134 1291.82,329.134 1293.03,329.134 1294.25,329.134 1295.46,329.134 1296.67,329.134 
  1297.89,329.134 1299.1,329.134 1300.32,329.134 1301.53,329.134 1302.74,329.134 1303.96,329.134 1305.17,329.134 1306.38,329.134 1307.6,329.134 1308.81,329.134 
  1310.02,329.134 1311.24,329.134 1312.45,329.134 1313.67,329.134 1314.88,329.134 1316.09,329.134 1317.31,329.134 1318.52,329.134 1319.73,329.134 1320.95,329.134 
  1322.16,329.134 1323.37,329.134 1324.59,329.134 1325.8,329.134 1327.02,329.134 1328.23,329.134 1329.44,329.134 1330.66,329.134 1331.87,329.134 1333.08,329.134 
  1334.3,329.134 1335.51,329.134 1336.72,329.134 1337.94,329.134 1339.15,329.134 1340.37,329.134 1341.58,329.134 1342.79,329.134 1344.01,329.134 1345.22,329.134 
  1346.43,329.134 1347.65,329.134 1348.86,329.134 1350.07,329.134 1351.29,329.134 1352.5,329.134 1353.72,329.134 1354.93,329.134 1356.14,329.134 1357.36,329.134 
  1358.57,329.134 1359.78,329.134 1361,329.134 1362.21,329.134 1363.43,329.134 1364.64,329.134 1365.85,329.134 1367.07,329.134 1368.28,329.134 1369.49,329.134 
  1370.71,329.134 1371.92,329.134 1373.13,329.134 1374.35,329.134 1375.56,329.134 1376.78,329.134 1377.99,329.134 1379.2,329.134 1380.42,329.134 1381.63,329.134 
  1382.84,329.134 1384.06,329.134 1385.27,329.134 1386.48,329.134 1387.7,329.134 1388.91,329.134 1390.13,329.134 1391.34,329.134 1392.55,329.134 1393.77,329.134 
  1394.98,329.134 1396.19,329.134 1397.41,329.134 1398.62,329.134 1399.83,329.134 1401.05,329.134 1402.26,329.134 1403.48,329.134 1404.69,329.134 1405.9,329.134 
  1407.12,329.134 1408.33,329.134 1409.54,329.134 1410.76,329.134 1411.97,329.134 1413.19,329.134 1414.4,329.134 1415.61,329.134 1416.83,329.134 1418.04,329.134 
  1419.25,329.134 1420.47,329.134 1421.68,329.134 1422.89,329.134 1424.11,329.134 1425.32,329.134 1426.54,329.134 1427.75,329.134 1428.96,329.134 1430.18,329.134 
  1431.39,329.134 1432.6,329.134 1433.82,329.134 1435.03,329.134 1436.24,329.134 1437.46,329.134 1438.67,329.134 1439.89,329.134 1441.1,329.134 1442.31,329.134 
  1443.53,329.134 1444.74,329.134 1445.95,329.134 1447.17,329.134 1448.38,329.134 1449.59,329.134 1450.81,329.134 1452.02,329.134 1453.24,329.134 1454.45,329.134 
  1455.66,329.134 1456.88,329.134 1458.09,329.134 1459.3,329.134 1460.52,329.134 1461.73,329.134 1462.95,329.134 1464.16,329.134 1465.37,329.134 1466.59,329.134 
  1467.8,329.134 1469.01,329.134 1470.23,329.134 1471.44,329.134 1472.65,329.134 1473.87,329.134 1475.08,329.134 1476.3,329.134 1477.51,329.134 1478.72,329.134 
  1479.94,329.134 1481.15,329.134 1482.36,329.134 1483.58,329.134 1484.79,329.134 1486,329.134 1487.22,329.134 1488.43,329.134 1489.65,329.134 1490.86,329.134 
  1492.07,329.134 1493.29,329.134 1494.5,329.134 1495.71,329.134 1496.93,329.134 1498.14,329.134 1499.35,329.134 1500.57,329.134 1501.78,329.134 1503,329.134 
  1504.21,329.134 1505.42,329.134 1506.64,329.134 1507.85,329.134 1509.06,329.134 1510.28,329.134 1511.49,329.134 1512.71,329.134 1513.92,329.134 1515.13,329.134 
  1516.35,329.134 
  "/>
<path clip-path="url(#clip620)" d="
M1334.96 388.982 L1509.87 388.982 L1509.87 207.542 L1334.96 207.542  Z
  " fill="#ffffff" fill-rule="evenodd" fill-opacity="1"/>
<polyline clip-path="url(#clip620)" style="stroke:#000000; stroke-width:4; stroke-opacity:1; fill:none" points="
  1334.96,388.982 1509.87,388.982 1509.87,207.542 1334.96,207.542 1334.96,388.982 
  "/>
<polyline clip-path="url(#clip620)" style="stroke:#009af9; stroke-width:4; stroke-opacity:1; fill:none" points="
  1349.26,268.022 1435.02,268.022 
  "/>
<path clip-path="url(#clip620)" d="M 0 0 M1464.5 263.357 Q1463.79 262.941 1462.93 262.756 Q1462.1 262.547 1461.08 262.547 Q1457.47 262.547 1455.52 264.908 Q1453.6 267.246 1453.6 271.644 L1453.6 285.302 L1449.32 285.302 L1449.32 259.376 L1453.6 259.376 L1453.6 263.404 Q1454.94 261.043 1457.1 259.908 Q1459.25 258.751 1462.33 258.751 Q1462.77 258.751 1463.3 258.82 Q1463.83 258.867 1464.48 258.982 L1464.5 263.357 Z" fill="#000000" fill-rule="evenodd" fill-opacity="1" /><path clip-path="url(#clip620)" d="M 0 0 M1481.28 277.455 L1481.28 278.612 L1468.95 278.612 Q1469.13 281.066 1470.61 282.362 Q1472.12 283.658 1474.78 283.658 Q1476.33 283.658 1477.79 283.311 Q1479.22 282.987 1480.66 282.316 L1480.66 284.561 Q1479.22 285.117 1477.7 285.394 Q1476.19 285.672 1474.62 285.672 Q1470.71 285.672 1468.44 283.658 Q1466.15 281.644 1466.15 278.195 Q1466.15 274.63 1468.32 272.524 Q1470.47 270.441 1474.16 270.441 Q1477.44 270.441 1479.36 272.316 Q1481.28 274.214 1481.28 277.455 M1478.6 276.737 Q1478.58 274.793 1477.37 273.612 Q1476.17 272.455 1474.18 272.455 Q1471.93 272.455 1470.59 273.589 Q1469.25 274.7 1469.04 276.737 L1478.6 276.737 Z" fill="#000000" fill-rule="evenodd" fill-opacity="1" /><polyline clip-path="url(#clip620)" style="stroke:#e26f46; stroke-width:4; stroke-opacity:1; fill:none" points="
  1349.26,328.502 1435.02,328.502 
  "/>
<path clip-path="url(#clip620)" d="M 0 0 M1464.5 323.837 Q1463.79 323.421 1462.93 323.236 Q1462.1 323.027 1461.08 323.027 Q1457.47 323.027 1455.52 325.388 Q1453.6 327.726 1453.6 332.124 L1453.6 345.782 L1449.32 345.782 L1449.32 319.856 L1453.6 319.856 L1453.6 323.884 Q1454.94 321.523 1457.1 320.388 Q1459.25 319.231 1462.33 319.231 Q1462.77 319.231 1463.3 319.3 Q1463.83 319.347 1464.48 319.462 L1464.5 323.837 Z" fill="#000000" fill-rule="evenodd" fill-opacity="1" /><path clip-path="url(#clip620)" d="M 0 0 M1467.33 331.268 L1470.01 331.268 L1470.01 345.782 L1467.33 345.782 L1467.33 331.268 M1467.33 325.62 L1470.01 325.62 L1470.01 328.629 L1467.33 328.629 L1467.33 325.62 Z" fill="#000000" fill-rule="evenodd" fill-opacity="1" /></svg>
