<?xml version="1.0" encoding="utf-8"?>
<svg xmlns="http://www.w3.org/2000/svg" xmlns:xlink="http://www.w3.org/1999/xlink" width="400" height="300" viewBox="0 0 1600 1200">
<defs>
  <clipPath id="clip580">
    <rect x="0" y="0" width="1600" height="1200"/>
  </clipPath>
</defs>
<path clip-path="url(#clip580)" d="
M0 1200 L1600 1200 L1600 0 L0 0  Z
  " fill="#ffffff" fill-rule="evenodd" fill-opacity="1"/>
<defs>
  <clipPath id="clip581">
    <rect x="320" y="0" width="1121" height="1121"/>
  </clipPath>
</defs>
<path clip-path="url(#clip580)" d="
M209.542 1016.92 L1552.76 1016.92 L1552.76 179.632 L209.542 179.632  Z
  " fill="#ffffff" fill-rule="evenodd" fill-opacity="1"/>
<defs>
  <clipPath id="clip582">
    <rect x="209" y="179" width="1344" height="838"/>
  </clipPath>
</defs>
<polyline clip-path="url(#clip582)" style="stroke:#000000; stroke-width:2; stroke-opacity:0.1; fill:none" points="
  245.024,1016.92 245.024,179.632 
  "/>
<polyline clip-path="url(#clip582)" style="stroke:#000000; stroke-width:2; stroke-opacity:0.1; fill:none" points="
  498.46,1016.92 498.46,179.632 
  "/>
<polyline clip-path="url(#clip582)" style="stroke:#000000; stroke-width:2; stroke-opacity:0.1; fill:none" points="
  751.897,1016.92 751.897,179.632 
  "/>
<polyline clip-path="url(#clip582)" style="stroke:#000000; stroke-width:2; stroke-opacity:0.1; fill:none" points="
  1005.33,1016.92 1005.33,179.632 
  "/>
<polyline clip-path="url(#clip582)" style="stroke:#000000; stroke-width:2; stroke-opacity:0.1; fill:none" points="
  1258.77,1016.92 1258.77,179.632 
  "/>
<polyline clip-path="url(#clip582)" style="stroke:#000000; stroke-width:2; stroke-opacity:0.1; fill:none" points="
  1512.21,1016.92 1512.21,179.632 
  "/>
<polyline clip-path="url(#clip580)" style="stroke:#000000; stroke-width:4; stroke-opacity:1; fill:none" points="
  209.542,1016.92 1552.76,1016.92 
  "/>
<polyline clip-path="url(#clip580)" style="stroke:#000000; stroke-width:4; stroke-opacity:1; fill:none" points="
  245.024,1016.92 245.024,1006.87 
  "/>
<polyline clip-path="url(#clip580)" style="stroke:#000000; stroke-width:4; stroke-opacity:1; fill:none" points="
  498.46,1016.92 498.46,1006.87 
  "/>
<polyline clip-path="url(#clip580)" style="stroke:#000000; stroke-width:4; stroke-opacity:1; fill:none" points="
  751.897,1016.92 751.897,1006.87 
  "/>
<polyline clip-path="url(#clip580)" style="stroke:#000000; stroke-width:4; stroke-opacity:1; fill:none" points="
  1005.33,1016.92 1005.33,1006.87 
  "/>
<polyline clip-path="url(#clip580)" style="stroke:#000000; stroke-width:4; stroke-opacity:1; fill:none" points="
  1258.77,1016.92 1258.77,1006.87 
  "/>
<polyline clip-path="url(#clip580)" style="stroke:#000000; stroke-width:4; stroke-opacity:1; fill:none" points="
  1512.21,1016.92 1512.21,1006.87 
  "/>
<path clip-path="url(#clip580)" d="M 0 0 M245.024 1039.71 Q241.412 1039.71 239.584 1043.28 Q237.778 1046.82 237.778 1053.95 Q237.778 1061.05 239.584 1064.62 Q241.412 1068.16 245.024 1068.16 Q248.658 1068.16 250.463 1064.62 Q252.292 1061.05 252.292 1053.95 Q252.292 1046.82 250.463 1043.28 Q248.658 1039.71 245.024 1039.71 M245.024 1036.01 Q250.834 1036.01 253.889 1040.61 Q256.968 1045.2 256.968 1053.95 Q256.968 1062.67 253.889 1067.28 Q250.834 1071.86 245.024 1071.86 Q239.213 1071.86 236.135 1067.28 Q233.079 1062.67 233.079 1053.95 Q233.079 1045.2 236.135 1040.61 Q239.213 1036.01 245.024 1036.01 Z" fill="#000000" fill-rule="evenodd" fill-opacity="1" /><path clip-path="url(#clip580)" d="M 0 0 M461.828 1067.26 L469.467 1067.26 L469.467 1040.89 L461.157 1042.56 L461.157 1038.3 L469.421 1036.63 L474.097 1036.63 L474.097 1067.26 L481.736 1067.26 L481.736 1071.19 L461.828 1071.19 L461.828 1067.26 Z" fill="#000000" fill-rule="evenodd" fill-opacity="1" /><path clip-path="url(#clip580)" d="M 0 0 M496.805 1039.71 Q493.194 1039.71 491.365 1043.28 Q489.56 1046.82 489.56 1053.95 Q489.56 1061.05 491.365 1064.62 Q493.194 1068.16 496.805 1068.16 Q500.439 1068.16 502.245 1064.62 Q504.073 1061.05 504.073 1053.95 Q504.073 1046.82 502.245 1043.28 Q500.439 1039.71 496.805 1039.71 M496.805 1036.01 Q502.615 1036.01 505.671 1040.61 Q508.749 1045.2 508.749 1053.95 Q508.749 1062.67 505.671 1067.28 Q502.615 1071.86 496.805 1071.86 Q490.995 1071.86 487.916 1067.28 Q484.861 1062.67 484.861 1053.95 Q484.861 1045.2 487.916 1040.61 Q490.995 1036.01 496.805 1036.01 Z" fill="#000000" fill-rule="evenodd" fill-opacity="1" /><path clip-path="url(#clip580)" d="M 0 0 M523.819 1039.71 Q520.208 1039.71 518.379 1043.28 Q516.573 1046.82 516.573 1053.95 Q516.573 1061.05 518.379 1064.62 Q520.208 1068.16 523.819 1068.16 Q527.453 1068.16 529.258 1064.62 Q531.087 1061.05 531.087 1053.95 Q531.087 1046.82 529.258 1043.28 Q527.453 1039.71 523.819 1039.71 M523.819 1036.01 Q529.629 1036.01 532.684 1040.61 Q535.763 1045.2 535.763 1053.95 Q535.763 1062.67 532.684 1067.28 Q529.629 1071.86 523.819 1071.86 Q518.009 1071.86 514.93 1067.28 Q511.874 1062.67 511.874 1053.95 Q511.874 1045.2 514.93 1040.61 Q518.009 1036.01 523.819 1036.01 Z" fill="#000000" fill-rule="evenodd" fill-opacity="1" /><path clip-path="url(#clip580)" d="M 0 0 M719.536 1067.26 L735.855 1067.26 L735.855 1071.19 L713.911 1071.19 L713.911 1067.26 Q716.573 1064.5 721.156 1059.87 Q725.762 1055.22 726.943 1053.88 Q729.188 1051.35 730.068 1049.62 Q730.971 1047.86 730.971 1046.17 Q730.971 1043.41 729.026 1041.68 Q727.105 1039.94 724.003 1039.94 Q721.804 1039.94 719.35 1040.71 Q716.92 1041.47 714.142 1043.02 L714.142 1038.3 Q716.966 1037.16 719.42 1036.59 Q721.874 1036.01 723.911 1036.01 Q729.281 1036.01 732.475 1038.69 Q735.67 1041.38 735.67 1045.87 Q735.67 1048 734.86 1049.92 Q734.073 1051.82 731.966 1054.41 Q731.387 1055.08 728.286 1058.3 Q725.184 1061.49 719.536 1067.26 Z" fill="#000000" fill-rule="evenodd" fill-opacity="1" /><path clip-path="url(#clip580)" d="M 0 0 M750.924 1039.71 Q747.313 1039.71 745.485 1043.28 Q743.679 1046.82 743.679 1053.95 Q743.679 1061.05 745.485 1064.62 Q747.313 1068.16 750.924 1068.16 Q754.559 1068.16 756.364 1064.62 Q758.193 1061.05 758.193 1053.95 Q758.193 1046.82 756.364 1043.28 Q754.559 1039.71 750.924 1039.71 M750.924 1036.01 Q756.734 1036.01 759.79 1040.61 Q762.869 1045.2 762.869 1053.95 Q762.869 1062.67 759.79 1067.28 Q756.734 1071.86 750.924 1071.86 Q745.114 1071.86 742.035 1067.28 Q738.98 1062.67 738.98 1053.95 Q738.98 1045.2 742.035 1040.61 Q745.114 1036.01 750.924 1036.01 Z" fill="#000000" fill-rule="evenodd" fill-opacity="1" /><path clip-path="url(#clip580)" d="M 0 0 M777.938 1039.71 Q774.327 1039.71 772.498 1043.28 Q770.693 1046.82 770.693 1053.95 Q770.693 1061.05 772.498 1064.62 Q774.327 1068.16 777.938 1068.16 Q781.572 1068.16 783.378 1064.62 Q785.207 1061.05 785.207 1053.95 Q785.207 1046.82 783.378 1043.28 Q781.572 1039.71 777.938 1039.71 M777.938 1036.01 Q783.748 1036.01 786.804 1040.61 Q789.882 1045.2 789.882 1053.95 Q789.882 1062.67 786.804 1067.28 Q783.748 1071.86 777.938 1071.86 Q772.128 1071.86 769.049 1067.28 Q765.994 1062.67 765.994 1053.95 Q765.994 1045.2 769.049 1040.61 Q772.128 1036.01 777.938 1036.01 Z" fill="#000000" fill-rule="evenodd" fill-opacity="1" /><path clip-path="url(#clip580)" d="M 0 0 M982.567 1052.56 Q985.923 1053.28 987.798 1055.54 Q989.697 1057.81 989.697 1061.15 Q989.697 1066.26 986.178 1069.06 Q982.66 1071.86 976.178 1071.86 Q974.002 1071.86 971.687 1071.42 Q969.396 1071.01 966.942 1070.15 L966.942 1065.64 Q968.886 1066.77 971.201 1067.35 Q973.516 1067.93 976.039 1067.93 Q980.437 1067.93 982.729 1066.19 Q985.044 1064.46 985.044 1061.15 Q985.044 1058.09 982.891 1056.38 Q980.761 1054.64 976.942 1054.64 L972.914 1054.64 L972.914 1050.8 L977.127 1050.8 Q980.576 1050.8 982.405 1049.43 Q984.234 1048.04 984.234 1045.45 Q984.234 1042.79 982.335 1041.38 Q980.46 1039.94 976.942 1039.94 Q975.021 1039.94 972.822 1040.36 Q970.623 1040.78 967.984 1041.65 L967.984 1037.49 Q970.646 1036.75 972.961 1036.38 Q975.298 1036.01 977.359 1036.01 Q982.683 1036.01 985.785 1038.44 Q988.886 1040.84 988.886 1044.97 Q988.886 1047.84 987.243 1049.83 Q985.599 1051.79 982.567 1052.56 Z" fill="#000000" fill-rule="evenodd" fill-opacity="1" /><path clip-path="url(#clip580)" d="M 0 0 M1004.77 1039.71 Q1001.15 1039.71 999.326 1043.28 Q997.521 1046.82 997.521 1053.95 Q997.521 1061.05 999.326 1064.62 Q1001.15 1068.16 1004.77 1068.16 Q1008.4 1068.16 1010.21 1064.62 Q1012.03 1061.05 1012.03 1053.95 Q1012.03 1046.82 1010.21 1043.28 Q1008.4 1039.71 1004.77 1039.71 M1004.77 1036.01 Q1010.58 1036.01 1013.63 1040.61 Q1016.71 1045.2 1016.71 1053.95 Q1016.71 1062.67 1013.63 1067.28 Q1010.58 1071.86 1004.77 1071.86 Q998.956 1071.86 995.877 1067.28 Q992.822 1062.67 992.822 1053.95 Q992.822 1045.2 995.877 1040.61 Q998.956 1036.01 1004.77 1036.01 Z" fill="#000000" fill-rule="evenodd" fill-opacity="1" /><path clip-path="url(#clip580)" d="M 0 0 M1031.78 1039.71 Q1028.17 1039.71 1026.34 1043.28 Q1024.53 1046.82 1024.53 1053.95 Q1024.53 1061.05 1026.34 1064.62 Q1028.17 1068.16 1031.78 1068.16 Q1035.41 1068.16 1037.22 1064.62 Q1039.05 1061.05 1039.05 1053.95 Q1039.05 1046.82 1037.22 1043.28 Q1035.41 1039.71 1031.78 1039.71 M1031.78 1036.01 Q1037.59 1036.01 1040.65 1040.61 Q1043.72 1045.2 1043.72 1053.95 Q1043.72 1062.67 1040.65 1067.28 Q1037.59 1071.86 1031.78 1071.86 Q1025.97 1071.86 1022.89 1067.28 Q1019.84 1062.67 1019.84 1053.95 Q1019.84 1045.2 1022.89 1040.61 Q1025.97 1036.01 1031.78 1036.01 Z" fill="#000000" fill-rule="evenodd" fill-opacity="1" /><path clip-path="url(#clip580)" d="M 0 0 M1234.77 1040.71 L1222.96 1059.15 L1234.77 1059.15 L1234.77 1040.71 M1233.54 1036.63 L1239.42 1036.63 L1239.42 1059.15 L1244.35 1059.15 L1244.35 1063.04 L1239.42 1063.04 L1239.42 1071.19 L1234.77 1071.19 L1234.77 1063.04 L1219.16 1063.04 L1219.16 1058.53 L1233.54 1036.63 Z" fill="#000000" fill-rule="evenodd" fill-opacity="1" /><path clip-path="url(#clip580)" d="M 0 0 M1259.42 1039.71 Q1255.81 1039.71 1253.98 1043.28 Q1252.17 1046.82 1252.17 1053.95 Q1252.17 1061.05 1253.98 1064.62 Q1255.81 1068.16 1259.42 1068.16 Q1263.05 1068.16 1264.86 1064.62 Q1266.69 1061.05 1266.69 1053.95 Q1266.69 1046.82 1264.86 1043.28 Q1263.05 1039.71 1259.42 1039.71 M1259.42 1036.01 Q1265.23 1036.01 1268.28 1040.61 Q1271.36 1045.2 1271.36 1053.95 Q1271.36 1062.67 1268.28 1067.28 Q1265.23 1071.86 1259.42 1071.86 Q1253.61 1071.86 1250.53 1067.28 Q1247.47 1062.67 1247.47 1053.95 Q1247.47 1045.2 1250.53 1040.61 Q1253.61 1036.01 1259.42 1036.01 Z" fill="#000000" fill-rule="evenodd" fill-opacity="1" /><path clip-path="url(#clip580)" d="M 0 0 M1286.43 1039.71 Q1282.82 1039.71 1280.99 1043.28 Q1279.19 1046.82 1279.19 1053.95 Q1279.19 1061.05 1280.99 1064.62 Q1282.82 1068.16 1286.43 1068.16 Q1290.07 1068.16 1291.87 1064.62 Q1293.7 1061.05 1293.7 1053.95 Q1293.7 1046.82 1291.87 1043.28 Q1290.07 1039.71 1286.43 1039.71 M1286.43 1036.01 Q1292.24 1036.01 1295.3 1040.61 Q1298.38 1045.2 1298.38 1053.95 Q1298.38 1062.67 1295.3 1067.28 Q1292.24 1071.86 1286.43 1071.86 Q1280.62 1071.86 1277.54 1067.28 Q1274.49 1062.67 1274.49 1053.95 Q1274.49 1045.2 1277.54 1040.61 Q1280.62 1036.01 1286.43 1036.01 Z" fill="#000000" fill-rule="evenodd" fill-opacity="1" /><path clip-path="url(#clip580)" d="M 0 0 M1475.47 1036.63 L1493.83 1036.63 L1493.83 1040.57 L1479.75 1040.57 L1479.75 1049.04 Q1480.77 1048.69 1481.79 1048.53 Q1482.81 1048.34 1483.83 1048.34 Q1489.61 1048.34 1492.99 1051.52 Q1496.37 1054.69 1496.37 1060.1 Q1496.37 1065.68 1492.9 1068.78 Q1489.43 1071.86 1483.11 1071.86 Q1480.93 1071.86 1478.66 1071.49 Q1476.42 1071.12 1474.01 1070.38 L1474.01 1065.68 Q1476.1 1066.82 1478.32 1067.37 Q1480.54 1067.93 1483.02 1067.93 Q1487.02 1067.93 1489.36 1065.82 Q1491.7 1063.72 1491.7 1060.1 Q1491.7 1056.49 1489.36 1054.39 Q1487.02 1052.28 1483.02 1052.28 Q1481.14 1052.28 1479.27 1052.7 Q1477.41 1053.11 1475.47 1053.99 L1475.47 1036.63 Z" fill="#000000" fill-rule="evenodd" fill-opacity="1" /><path clip-path="url(#clip580)" d="M 0 0 M1511.44 1039.71 Q1507.83 1039.71 1506 1043.28 Q1504.2 1046.82 1504.2 1053.95 Q1504.2 1061.05 1506 1064.62 Q1507.83 1068.16 1511.44 1068.16 Q1515.08 1068.16 1516.88 1064.62 Q1518.71 1061.05 1518.71 1053.95 Q1518.71 1046.82 1516.88 1043.28 Q1515.08 1039.71 1511.44 1039.71 M1511.44 1036.01 Q1517.25 1036.01 1520.31 1040.61 Q1523.39 1045.2 1523.39 1053.95 Q1523.39 1062.67 1520.31 1067.28 Q1517.25 1071.86 1511.44 1071.86 Q1505.63 1071.86 1502.55 1067.28 Q1499.5 1062.67 1499.5 1053.95 Q1499.5 1045.2 1502.55 1040.61 Q1505.63 1036.01 1511.44 1036.01 Z" fill="#000000" fill-rule="evenodd" fill-opacity="1" /><path clip-path="url(#clip580)" d="M 0 0 M1538.46 1039.71 Q1534.84 1039.71 1533.02 1043.28 Q1531.21 1046.82 1531.21 1053.95 Q1531.21 1061.05 1533.02 1064.62 Q1534.84 1068.16 1538.46 1068.16 Q1542.09 1068.16 1543.9 1064.62 Q1545.72 1061.05 1545.72 1053.95 Q1545.72 1046.82 1543.9 1043.28 Q1542.09 1039.71 1538.46 1039.71 M1538.46 1036.01 Q1544.27 1036.01 1547.32 1040.61 Q1550.4 1045.2 1550.4 1053.95 Q1550.4 1062.67 1547.32 1067.28 Q1544.27 1071.86 1538.46 1071.86 Q1532.65 1071.86 1529.57 1067.28 Q1526.51 1062.67 1526.51 1053.95 Q1526.51 1045.2 1529.57 1040.61 Q1532.65 1036.01 1538.46 1036.01 Z" fill="#000000" fill-rule="evenodd" fill-opacity="1" /><path clip-path="url(#clip580)" d="M 0 0 M752.164 1104.01 L752.164 1114.14 L764.227 1114.14 L764.227 1118.69 L752.164 1118.69 L752.164 1138.04 Q752.164 1142.4 753.342 1143.64 Q754.551 1144.88 758.211 1144.88 L764.227 1144.88 L764.227 1149.78 L758.211 1149.78 Q751.432 1149.78 748.854 1147.27 Q746.276 1144.72 746.276 1138.04 L746.276 1118.69 L741.979 1118.69 L741.979 1114.14 L746.276 1114.14 L746.276 1104.01 L752.164 1104.01 Z" fill="#000000" fill-rule="evenodd" fill-opacity="1" /><path clip-path="url(#clip580)" d="M 0 0 M770.37 1114.14 L776.226 1114.14 L776.226 1149.78 L770.37 1149.78 L770.37 1114.14 M770.37 1100.26 L776.226 1100.26 L776.226 1107.67 L770.37 1107.67 L770.37 1100.26 Z" fill="#000000" fill-rule="evenodd" fill-opacity="1" /><path clip-path="url(#clip580)" d="M 0 0 M810.124 1120.98 Q812.32 1117.03 815.375 1115.15 Q818.431 1113.28 822.569 1113.28 Q828.139 1113.28 831.162 1117.19 Q834.186 1121.07 834.186 1128.27 L834.186 1149.78 L828.298 1149.78 L828.298 1128.46 Q828.298 1123.33 826.484 1120.85 Q824.669 1118.37 820.945 1118.37 Q816.394 1118.37 813.752 1121.39 Q811.11 1124.42 811.11 1129.64 L811.11 1149.78 L805.222 1149.78 L805.222 1128.46 Q805.222 1123.3 803.408 1120.85 Q801.594 1118.37 797.806 1118.37 Q793.318 1118.37 790.677 1121.42 Q788.035 1124.45 788.035 1129.64 L788.035 1149.78 L782.147 1149.78 L782.147 1114.14 L788.035 1114.14 L788.035 1119.67 Q790.04 1116.4 792.841 1114.84 Q795.642 1113.28 799.493 1113.28 Q803.376 1113.28 806.082 1115.25 Q808.819 1117.22 810.124 1120.98 Z" fill="#000000" fill-rule="evenodd" fill-opacity="1" /><path clip-path="url(#clip580)" d="M 0 0 M870.821 1130.5 L870.821 1133.36 L843.894 1133.36 Q844.276 1139.41 847.522 1142.59 Q850.801 1145.74 856.625 1145.74 Q859.999 1145.74 863.15 1144.91 Q866.333 1144.09 869.452 1142.43 L869.452 1147.97 Q866.301 1149.31 862.991 1150.01 Q859.681 1150.71 856.275 1150.71 Q847.745 1150.71 842.748 1145.74 Q837.783 1140.78 837.783 1132.31 Q837.783 1123.56 842.493 1118.43 Q847.236 1113.28 855.257 1113.28 Q862.45 1113.28 866.619 1117.92 Q870.821 1122.54 870.821 1130.5 M864.964 1128.78 Q864.901 1123.97 862.259 1121.11 Q859.649 1118.24 855.32 1118.24 Q850.419 1118.24 847.459 1121.01 Q844.53 1123.78 844.085 1128.81 L864.964 1128.78 Z" fill="#000000" fill-rule="evenodd" fill-opacity="1" /><path clip-path="url(#clip580)" d="M 0 0 M911.752 1100.32 Q907.487 1107.64 905.418 1114.8 Q903.35 1121.97 903.35 1129.32 Q903.35 1136.67 905.418 1143.9 Q907.519 1151.09 911.752 1158.38 L906.66 1158.38 Q901.885 1150.9 899.498 1143.67 Q897.143 1136.45 897.143 1129.32 Q897.143 1122.22 899.498 1115.03 Q901.854 1107.83 906.66 1100.32 L911.752 1100.32 Z" fill="#000000" fill-rule="evenodd" fill-opacity="1" /><path clip-path="url(#clip580)" d="M 0 0 M945.65 1120.98 Q947.846 1117.03 950.901 1115.15 Q953.957 1113.28 958.095 1113.28 Q963.665 1113.28 966.688 1117.19 Q969.712 1121.07 969.712 1128.27 L969.712 1149.78 L963.824 1149.78 L963.824 1128.46 Q963.824 1123.33 962.01 1120.85 Q960.195 1118.37 956.471 1118.37 Q951.92 1118.37 949.278 1121.39 Q946.636 1124.42 946.636 1129.64 L946.636 1149.78 L940.748 1149.78 L940.748 1128.46 Q940.748 1123.3 938.934 1120.85 Q937.12 1118.37 933.332 1118.37 Q928.844 1118.37 926.202 1121.42 Q923.561 1124.45 923.561 1129.64 L923.561 1149.78 L917.672 1149.78 L917.672 1114.14 L923.561 1114.14 L923.561 1119.67 Q925.566 1116.4 928.367 1114.84 Q931.168 1113.28 935.019 1113.28 Q938.902 1113.28 941.607 1115.25 Q944.345 1117.22 945.65 1120.98 Z" fill="#000000" fill-rule="evenodd" fill-opacity="1" /><path clip-path="url(#clip580)" d="M 0 0 M998.581 1115.19 L998.581 1120.72 Q996.098 1119.45 993.424 1118.81 Q990.751 1118.18 987.886 1118.18 Q983.526 1118.18 981.329 1119.51 Q979.165 1120.85 979.165 1123.53 Q979.165 1125.56 980.725 1126.74 Q982.284 1127.89 986.995 1128.94 L989 1129.38 Q995.239 1130.72 997.848 1133.17 Q1000.49 1135.59 1000.49 1139.95 Q1000.49 1144.91 996.544 1147.81 Q992.629 1150.71 985.754 1150.71 Q982.889 1150.71 979.77 1150.13 Q976.683 1149.59 973.245 1148.48 L973.245 1142.43 Q976.492 1144.12 979.643 1144.98 Q982.794 1145.81 985.881 1145.81 Q990.019 1145.81 992.247 1144.4 Q994.475 1142.97 994.475 1140.39 Q994.475 1138.01 992.851 1136.73 Q991.26 1135.46 985.817 1134.28 L983.78 1133.81 Q978.338 1132.66 975.919 1130.3 Q973.5 1127.92 973.5 1123.78 Q973.5 1118.75 977.064 1116.01 Q980.629 1113.28 987.186 1113.28 Q990.432 1113.28 993.297 1113.75 Q996.162 1114.23 998.581 1115.19 Z" fill="#000000" fill-rule="evenodd" fill-opacity="1" /><path clip-path="url(#clip580)" d="M 0 0 M1005.71 1100.32 L1010.8 1100.32 Q1015.58 1107.83 1017.93 1115.03 Q1020.32 1122.22 1020.32 1129.32 Q1020.32 1136.45 1017.93 1143.67 Q1015.58 1150.9 1010.8 1158.38 L1005.71 1158.38 Q1009.94 1151.09 1012.01 1143.9 Q1014.11 1136.67 1014.11 1129.32 Q1014.11 1121.97 1012.01 1114.8 Q1009.94 1107.64 1005.71 1100.32 Z" fill="#000000" fill-rule="evenodd" fill-opacity="1" /><polyline clip-path="url(#clip582)" style="stroke:#000000; stroke-width:2; stroke-opacity:0.1; fill:none" points="
  209.542,993.223 1552.76,993.223 
  "/>
<polyline clip-path="url(#clip582)" style="stroke:#000000; stroke-width:2; stroke-opacity:0.1; fill:none" points="
  209.542,873.96 1552.76,873.96 
  "/>
<polyline clip-path="url(#clip582)" style="stroke:#000000; stroke-width:2; stroke-opacity:0.1; fill:none" points="
  209.542,754.697 1552.76,754.697 
  "/>
<polyline clip-path="url(#clip582)" style="stroke:#000000; stroke-width:2; stroke-opacity:0.1; fill:none" points="
  209.542,635.433 1552.76,635.433 
  "/>
<polyline clip-path="url(#clip582)" style="stroke:#000000; stroke-width:2; stroke-opacity:0.1; fill:none" points="
  209.542,516.17 1552.76,516.17 
  "/>
<polyline clip-path="url(#clip582)" style="stroke:#000000; stroke-width:2; stroke-opacity:0.1; fill:none" points="
  209.542,396.907 1552.76,396.907 
  "/>
<polyline clip-path="url(#clip582)" style="stroke:#000000; stroke-width:2; stroke-opacity:0.1; fill:none" points="
  209.542,277.644 1552.76,277.644 
  "/>
<polyline clip-path="url(#clip580)" style="stroke:#000000; stroke-width:4; stroke-opacity:1; fill:none" points="
  209.542,1016.92 209.542,179.632 
  "/>
<polyline clip-path="url(#clip580)" style="stroke:#000000; stroke-width:4; stroke-opacity:1; fill:none" points="
  209.542,993.223 225.661,993.223 
  "/>
<polyline clip-path="url(#clip580)" style="stroke:#000000; stroke-width:4; stroke-opacity:1; fill:none" points="
  209.542,873.96 225.661,873.96 
  "/>
<polyline clip-path="url(#clip580)" style="stroke:#000000; stroke-width:4; stroke-opacity:1; fill:none" points="
  209.542,754.697 225.661,754.697 
  "/>
<polyline clip-path="url(#clip580)" style="stroke:#000000; stroke-width:4; stroke-opacity:1; fill:none" points="
  209.542,635.433 225.661,635.433 
  "/>
<polyline clip-path="url(#clip580)" style="stroke:#000000; stroke-width:4; stroke-opacity:1; fill:none" points="
  209.542,516.17 225.661,516.17 
  "/>
<polyline clip-path="url(#clip580)" style="stroke:#000000; stroke-width:4; stroke-opacity:1; fill:none" points="
  209.542,396.907 225.661,396.907 
  "/>
<polyline clip-path="url(#clip580)" style="stroke:#000000; stroke-width:4; stroke-opacity:1; fill:none" points="
  209.542,277.644 225.661,277.644 
  "/>
<path clip-path="url(#clip580)" d="M 0 0 M136.631 979.022 Q133.02 979.022 131.191 982.587 Q129.385 986.128 129.385 993.258 Q129.385 1000.36 131.191 1003.93 Q133.02 1007.47 136.631 1007.47 Q140.265 1007.47 142.07 1003.93 Q143.899 1000.36 143.899 993.258 Q143.899 986.128 142.07 982.587 Q140.265 979.022 136.631 979.022 M136.631 975.318 Q142.441 975.318 145.496 979.924 Q148.575 984.508 148.575 993.258 Q148.575 1001.98 145.496 1006.59 Q142.441 1011.17 136.631 1011.17 Q130.82 1011.17 127.742 1006.59 Q124.686 1001.98 124.686 993.258 Q124.686 984.508 127.742 979.924 Q130.82 975.318 136.631 975.318 Z" fill="#000000" fill-rule="evenodd" fill-opacity="1" /><path clip-path="url(#clip580)" d="M 0 0 M153.644 1004.62 L158.529 1004.62 L158.529 1010.5 L153.644 1010.5 L153.644 1004.62 Z" fill="#000000" fill-rule="evenodd" fill-opacity="1" /><path clip-path="url(#clip580)" d="M 0 0 M173.598 979.022 Q169.987 979.022 168.158 982.587 Q166.353 986.128 166.353 993.258 Q166.353 1000.36 168.158 1003.93 Q169.987 1007.47 173.598 1007.47 Q177.232 1007.47 179.038 1003.93 Q180.867 1000.36 180.867 993.258 Q180.867 986.128 179.038 982.587 Q177.232 979.022 173.598 979.022 M173.598 975.318 Q179.408 975.318 182.464 979.924 Q185.542 984.508 185.542 993.258 Q185.542 1001.98 182.464 1006.59 Q179.408 1011.17 173.598 1011.17 Q167.788 1011.17 164.709 1006.59 Q161.654 1001.98 161.654 993.258 Q161.654 984.508 164.709 979.924 Q167.788 975.318 173.598 975.318 Z" fill="#000000" fill-rule="evenodd" fill-opacity="1" /><path clip-path="url(#clip580)" d="M 0 0 M137.857 859.759 Q134.246 859.759 132.418 863.323 Q130.612 866.865 130.612 873.995 Q130.612 881.101 132.418 884.666 Q134.246 888.207 137.857 888.207 Q141.492 888.207 143.297 884.666 Q145.126 881.101 145.126 873.995 Q145.126 866.865 143.297 863.323 Q141.492 859.759 137.857 859.759 M137.857 856.055 Q143.668 856.055 146.723 860.661 Q149.802 865.245 149.802 873.995 Q149.802 882.721 146.723 887.328 Q143.668 891.911 137.857 891.911 Q132.047 891.911 128.969 887.328 Q125.913 882.721 125.913 873.995 Q125.913 865.245 128.969 860.661 Q132.047 856.055 137.857 856.055 Z" fill="#000000" fill-rule="evenodd" fill-opacity="1" /><path clip-path="url(#clip580)" d="M 0 0 M154.871 885.36 L159.756 885.36 L159.756 891.24 L154.871 891.24 L154.871 885.36 Z" fill="#000000" fill-rule="evenodd" fill-opacity="1" /><path clip-path="url(#clip580)" d="M 0 0 M165.635 887.305 L173.274 887.305 L173.274 860.939 L164.964 862.606 L164.964 858.346 L173.228 856.68 L177.904 856.68 L177.904 887.305 L185.542 887.305 L185.542 891.24 L165.635 891.24 L165.635 887.305 Z" fill="#000000" fill-rule="evenodd" fill-opacity="1" /><path clip-path="url(#clip580)" d="M 0 0 M138.228 740.495 Q134.617 740.495 132.788 744.06 Q130.983 747.602 130.983 754.731 Q130.983 761.838 132.788 765.403 Q134.617 768.944 138.228 768.944 Q141.862 768.944 143.668 765.403 Q145.496 761.838 145.496 754.731 Q145.496 747.602 143.668 744.06 Q141.862 740.495 138.228 740.495 M138.228 736.792 Q144.038 736.792 147.094 741.398 Q150.172 745.981 150.172 754.731 Q150.172 763.458 147.094 768.065 Q144.038 772.648 138.228 772.648 Q132.418 772.648 129.339 768.065 Q126.283 763.458 126.283 754.731 Q126.283 745.981 129.339 741.398 Q132.418 736.792 138.228 736.792 Z" fill="#000000" fill-rule="evenodd" fill-opacity="1" /><path clip-path="url(#clip580)" d="M 0 0 M155.242 766.097 L160.126 766.097 L160.126 771.977 L155.242 771.977 L155.242 766.097 Z" fill="#000000" fill-rule="evenodd" fill-opacity="1" /><path clip-path="url(#clip580)" d="M 0 0 M169.223 768.041 L185.542 768.041 L185.542 771.977 L163.598 771.977 L163.598 768.041 Q166.26 765.287 170.843 760.657 Q175.45 756.004 176.63 754.662 Q178.876 752.139 179.755 750.403 Q180.658 748.643 180.658 746.954 Q180.658 744.199 178.714 742.463 Q176.792 740.727 173.691 740.727 Q171.492 740.727 169.038 741.491 Q166.607 742.255 163.83 743.805 L163.83 739.083 Q166.654 737.949 169.107 737.37 Q171.561 736.792 173.598 736.792 Q178.968 736.792 182.163 739.477 Q185.357 742.162 185.357 746.653 Q185.357 748.782 184.547 750.704 Q183.76 752.602 181.654 755.194 Q181.075 755.866 177.973 759.083 Q174.871 762.278 169.223 768.041 Z" fill="#000000" fill-rule="evenodd" fill-opacity="1" /><path clip-path="url(#clip580)" d="M 0 0 M137.279 621.232 Q133.668 621.232 131.839 624.797 Q130.033 628.339 130.033 635.468 Q130.033 642.575 131.839 646.139 Q133.668 649.681 137.279 649.681 Q140.913 649.681 142.719 646.139 Q144.547 642.575 144.547 635.468 Q144.547 628.339 142.719 624.797 Q140.913 621.232 137.279 621.232 M137.279 617.528 Q143.089 617.528 146.144 622.135 Q149.223 626.718 149.223 635.468 Q149.223 644.195 146.144 648.801 Q143.089 653.385 137.279 653.385 Q131.469 653.385 128.39 648.801 Q125.334 644.195 125.334 635.468 Q125.334 626.718 128.39 622.135 Q131.469 617.528 137.279 617.528 Z" fill="#000000" fill-rule="evenodd" fill-opacity="1" /><path clip-path="url(#clip580)" d="M 0 0 M154.293 646.834 L159.177 646.834 L159.177 652.713 L154.293 652.713 L154.293 646.834 Z" fill="#000000" fill-rule="evenodd" fill-opacity="1" /><path clip-path="url(#clip580)" d="M 0 0 M178.413 634.079 Q181.769 634.797 183.644 637.065 Q185.542 639.334 185.542 642.667 Q185.542 647.783 182.024 650.584 Q178.505 653.385 172.024 653.385 Q169.848 653.385 167.533 652.945 Q165.242 652.528 162.788 651.672 L162.788 647.158 Q164.732 648.292 167.047 648.871 Q169.362 649.45 171.885 649.45 Q176.283 649.45 178.575 647.713 Q180.89 645.977 180.89 642.667 Q180.89 639.612 178.737 637.899 Q176.607 636.163 172.788 636.163 L168.76 636.163 L168.76 632.32 L172.973 632.32 Q176.422 632.32 178.251 630.954 Q180.079 629.565 180.079 626.973 Q180.079 624.311 178.181 622.899 Q176.306 621.464 172.788 621.464 Q170.867 621.464 168.668 621.88 Q166.468 622.297 163.83 623.177 L163.83 619.01 Q166.492 618.269 168.806 617.899 Q171.144 617.528 173.205 617.528 Q178.529 617.528 181.63 619.959 Q184.732 622.366 184.732 626.487 Q184.732 629.357 183.089 631.348 Q181.445 633.315 178.413 634.079 Z" fill="#000000" fill-rule="evenodd" fill-opacity="1" /><path clip-path="url(#clip580)" d="M 0 0 M136.145 501.969 Q132.533 501.969 130.705 505.534 Q128.899 509.075 128.899 516.205 Q128.899 523.311 130.705 526.876 Q132.533 530.418 136.145 530.418 Q139.779 530.418 141.584 526.876 Q143.413 523.311 143.413 516.205 Q143.413 509.075 141.584 505.534 Q139.779 501.969 136.145 501.969 M136.145 498.265 Q141.955 498.265 145.01 502.872 Q148.089 507.455 148.089 516.205 Q148.089 524.932 145.01 529.538 Q141.955 534.122 136.145 534.122 Q130.334 534.122 127.256 529.538 Q124.2 524.932 124.2 516.205 Q124.2 507.455 127.256 502.872 Q130.334 498.265 136.145 498.265 Z" fill="#000000" fill-rule="evenodd" fill-opacity="1" /><path clip-path="url(#clip580)" d="M 0 0 M153.158 527.571 L158.043 527.571 L158.043 533.45 L153.158 533.45 L153.158 527.571 Z" fill="#000000" fill-rule="evenodd" fill-opacity="1" /><path clip-path="url(#clip580)" d="M 0 0 M175.959 502.964 L164.154 521.413 L175.959 521.413 L175.959 502.964 M174.732 498.89 L180.612 498.89 L180.612 521.413 L185.542 521.413 L185.542 525.302 L180.612 525.302 L180.612 533.45 L175.959 533.45 L175.959 525.302 L160.357 525.302 L160.357 520.788 L174.732 498.89 Z" fill="#000000" fill-rule="evenodd" fill-opacity="1" /><path clip-path="url(#clip580)" d="M 0 0 M137.626 382.706 Q134.015 382.706 132.186 386.271 Q130.381 389.812 130.381 396.942 Q130.381 404.048 132.186 407.613 Q134.015 411.155 137.626 411.155 Q141.26 411.155 143.066 407.613 Q144.894 404.048 144.894 396.942 Q144.894 389.812 143.066 386.271 Q141.26 382.706 137.626 382.706 M137.626 379.002 Q143.436 379.002 146.492 383.608 Q149.57 388.192 149.57 396.942 Q149.57 405.669 146.492 410.275 Q143.436 414.858 137.626 414.858 Q131.816 414.858 128.737 410.275 Q125.682 405.669 125.682 396.942 Q125.682 388.192 128.737 383.608 Q131.816 379.002 137.626 379.002 Z" fill="#000000" fill-rule="evenodd" fill-opacity="1" /><path clip-path="url(#clip580)" d="M 0 0 M154.64 408.307 L159.524 408.307 L159.524 414.187 L154.64 414.187 L154.64 408.307 Z" fill="#000000" fill-rule="evenodd" fill-opacity="1" /><path clip-path="url(#clip580)" d="M 0 0 M164.64 379.627 L182.996 379.627 L182.996 383.562 L168.922 383.562 L168.922 392.034 Q169.941 391.687 170.959 391.525 Q171.978 391.34 172.996 391.34 Q178.783 391.34 182.163 394.511 Q185.542 397.682 185.542 403.099 Q185.542 408.678 182.07 411.78 Q178.598 414.858 172.279 414.858 Q170.103 414.858 167.834 414.488 Q165.589 414.118 163.181 413.377 L163.181 408.678 Q165.265 409.812 167.487 410.368 Q169.709 410.923 172.186 410.923 Q176.191 410.923 178.529 408.817 Q180.867 406.71 180.867 403.099 Q180.867 399.488 178.529 397.382 Q176.191 395.275 172.186 395.275 Q170.311 395.275 168.436 395.692 Q166.584 396.108 164.64 396.988 L164.64 379.627 Z" fill="#000000" fill-rule="evenodd" fill-opacity="1" /><path clip-path="url(#clip580)" d="M 0 0 M136.469 263.443 Q132.858 263.443 131.029 267.007 Q129.223 270.549 129.223 277.679 Q129.223 284.785 131.029 288.35 Q132.858 291.891 136.469 291.891 Q140.103 291.891 141.908 288.35 Q143.737 284.785 143.737 277.679 Q143.737 270.549 141.908 267.007 Q140.103 263.443 136.469 263.443 M136.469 259.739 Q142.279 259.739 145.334 264.345 Q148.413 268.929 148.413 277.679 Q148.413 286.405 145.334 291.012 Q142.279 295.595 136.469 295.595 Q130.658 295.595 127.58 291.012 Q124.524 286.405 124.524 277.679 Q124.524 268.929 127.58 264.345 Q130.658 259.739 136.469 259.739 Z" fill="#000000" fill-rule="evenodd" fill-opacity="1" /><path clip-path="url(#clip580)" d="M 0 0 M153.482 289.044 L158.367 289.044 L158.367 294.924 L153.482 294.924 L153.482 289.044 Z" fill="#000000" fill-rule="evenodd" fill-opacity="1" /><path clip-path="url(#clip580)" d="M 0 0 M174.015 275.78 Q170.867 275.78 169.015 277.933 Q167.186 280.086 167.186 283.836 Q167.186 287.563 169.015 289.739 Q170.867 291.891 174.015 291.891 Q177.163 291.891 178.992 289.739 Q180.843 287.563 180.843 283.836 Q180.843 280.086 178.992 277.933 Q177.163 275.78 174.015 275.78 M183.297 261.128 L183.297 265.387 Q181.538 264.554 179.732 264.114 Q177.95 263.674 176.191 263.674 Q171.561 263.674 169.107 266.799 Q166.677 269.924 166.33 276.243 Q167.695 274.23 169.755 273.165 Q171.816 272.077 174.292 272.077 Q179.501 272.077 182.51 275.248 Q185.542 278.396 185.542 283.836 Q185.542 289.16 182.394 292.378 Q179.246 295.595 174.015 295.595 Q168.019 295.595 164.848 291.012 Q161.677 286.405 161.677 277.679 Q161.677 269.484 165.566 264.623 Q169.455 259.739 176.005 259.739 Q177.765 259.739 179.547 260.086 Q181.353 260.433 183.297 261.128 Z" fill="#000000" fill-rule="evenodd" fill-opacity="1" /><path clip-path="url(#clip580)" d="M 0 0 M44.758 686.234 L68.4066 694.955 L68.4066 677.481 L44.758 686.234 M38.4242 689.863 L38.4242 682.574 L85.9442 664.463 L85.9442 671.147 L73.7538 675.476 L73.7538 696.897 L85.9442 701.225 L85.9442 708.005 L38.4242 689.863 Z" fill="#000000" fill-rule="evenodd" fill-opacity="1" /><path clip-path="url(#clip580)" d="M 0 0 M51.6648 633.813 L57.1393 633.813 Q55.7707 636.295 55.1023 638.81 Q54.4021 641.292 54.4021 643.839 Q54.4021 649.536 58.0305 652.687 Q61.6272 655.838 68.152 655.838 Q74.6769 655.838 78.3053 652.687 Q81.9019 649.536 81.9019 643.839 Q81.9019 641.292 81.2335 638.81 Q80.5333 636.295 79.1647 633.813 L84.5755 633.813 Q85.7214 636.263 86.2943 638.905 Q86.8672 641.515 86.8672 644.475 Q86.8672 652.528 81.8064 657.27 Q76.7457 662.013 68.152 662.013 Q59.431 662.013 54.4339 657.238 Q49.4368 652.432 49.4368 644.093 Q49.4368 641.388 50.0097 638.81 Q50.5508 636.232 51.6648 633.813 Z" fill="#000000" fill-rule="evenodd" fill-opacity="1" /><path clip-path="url(#clip580)" d="M 0 0 M40.1747 621.877 L50.2962 621.877 L50.2962 609.814 L54.8477 609.814 L54.8477 621.877 L74.1994 621.877 Q78.5599 621.877 79.8013 620.699 Q81.0426 619.49 81.0426 615.829 L81.0426 609.814 L85.9442 609.814 L85.9442 615.829 Q85.9442 622.609 83.4297 625.187 Q80.8834 627.765 74.1994 627.765 L54.8477 627.765 L54.8477 632.062 L50.2962 632.062 L50.2962 627.765 L40.1747 627.765 L40.1747 621.877 Z" fill="#000000" fill-rule="evenodd" fill-opacity="1" /><path clip-path="url(#clip580)" d="M 0 0 M50.2962 603.671 L50.2962 597.814 L85.9442 597.814 L85.9442 603.671 L50.2962 603.671 M36.419 603.671 L36.419 597.814 L43.835 597.814 L43.835 603.671 L36.419 603.671 Z" fill="#000000" fill-rule="evenodd" fill-opacity="1" /><path clip-path="url(#clip580)" d="M 0 0 M50.2962 595.873 L50.2962 589.666 L80.215 578.526 L50.2962 567.386 L50.2962 561.18 L85.9442 574.548 L85.9442 582.505 L50.2962 595.873 Z" fill="#000000" fill-rule="evenodd" fill-opacity="1" /><path clip-path="url(#clip580)" d="M 0 0 M50.2962 555.037 L50.2962 549.18 L85.9442 549.18 L85.9442 555.037 L50.2962 555.037 M36.419 555.037 L36.419 549.18 L43.835 549.18 L43.835 555.037 L36.419 555.037 Z" fill="#000000" fill-rule="evenodd" fill-opacity="1" /><path clip-path="url(#clip580)" d="M 0 0 M40.1747 537.245 L50.2962 537.245 L50.2962 525.182 L54.8477 525.182 L54.8477 537.245 L74.1994 537.245 Q78.5599 537.245 79.8013 536.067 Q81.0426 534.858 81.0426 531.197 L81.0426 525.182 L85.9442 525.182 L85.9442 531.197 Q85.9442 537.977 83.4297 540.555 Q80.8834 543.133 74.1994 543.133 L54.8477 543.133 L54.8477 547.43 L50.2962 547.43 L50.2962 543.133 L40.1747 543.133 L40.1747 537.245 Z" fill="#000000" fill-rule="evenodd" fill-opacity="1" /><path clip-path="url(#clip580)" d="M 0 0 M89.2543 504.207 Q95.62 506.689 97.5616 509.045 Q99.5031 511.4 99.5031 515.347 L99.5031 520.026 L94.6015 520.026 L94.6015 516.588 Q94.6015 514.169 93.4557 512.832 Q92.3099 511.495 88.0448 509.872 L85.3712 508.822 L50.2962 523.24 L50.2962 517.034 L78.178 505.894 L50.2962 494.754 L50.2962 488.547 L89.2543 504.207 Z" fill="#000000" fill-rule="evenodd" fill-opacity="1" /><path clip-path="url(#clip580)" d="M 0 0 M592.053 10.368 L599.067 10.368 L599.067 62.208 L592.053 62.208 L592.053 10.368 Z" fill="#000000" fill-rule="evenodd" fill-opacity="1" /><path clip-path="url(#clip580)" d="M 0 0 M637.123 12.0694 L637.123 18.9096 Q633.13 16.9999 629.588 16.0624 Q626.046 15.1249 622.748 15.1249 Q617.019 15.1249 613.894 17.3471 Q610.803 19.5693 610.803 23.6665 Q610.803 27.104 612.852 28.8748 Q614.935 30.6109 620.699 31.6873 L624.935 32.5554 Q632.782 34.0484 636.498 37.8331 Q640.248 41.5831 640.248 47.9025 Q640.248 55.4372 635.178 59.3261 Q630.144 63.2149 620.387 63.2149 Q616.706 63.2149 612.539 62.3816 Q608.408 61.5483 603.963 59.9163 L603.963 52.6942 Q608.234 55.09 612.331 56.3053 Q616.428 57.5205 620.387 57.5205 Q626.394 57.5205 629.657 55.1594 Q632.921 52.7983 632.921 48.4234 Q632.921 44.6039 630.56 42.4512 Q628.234 40.2984 622.887 39.222 L618.616 38.3887 Q610.769 36.8262 607.262 33.4929 Q603.755 30.1596 603.755 24.2221 Q603.755 17.3471 608.581 13.3888 Q613.442 9.43051 621.949 9.43051 Q625.595 9.43051 629.38 10.0902 Q633.164 10.7499 637.123 12.0694 Z" fill="#000000" fill-rule="evenodd" fill-opacity="1" /><path clip-path="url(#clip580)" d="M 0 0 M647.227 10.368 L656.671 10.368 L679.657 53.7358 L679.657 10.368 L686.463 10.368 L686.463 62.208 L677.018 62.208 L654.032 18.8402 L654.032 62.208 L647.227 62.208 L647.227 10.368 Z" fill="#000000" fill-rule="evenodd" fill-opacity="1" /><path clip-path="url(#clip580)" d="M 0 0 M747.122 12.0694 L747.122 18.9096 Q743.129 16.9999 739.587 16.0624 Q736.046 15.1249 732.747 15.1249 Q727.018 15.1249 723.893 17.3471 Q720.803 19.5693 720.803 23.6665 Q720.803 27.104 722.851 28.8748 Q724.935 30.6109 730.699 31.6873 L734.935 32.5554 Q742.782 34.0484 746.497 37.8331 Q750.247 41.5831 750.247 47.9025 Q750.247 55.4372 745.178 59.3261 Q740.143 63.2149 730.386 63.2149 Q726.706 63.2149 722.539 62.3816 Q718.407 61.5483 713.963 59.9163 L713.963 52.6942 Q718.233 55.09 722.331 56.3053 Q726.428 57.5205 730.386 57.5205 Q736.393 57.5205 739.657 55.1594 Q742.921 52.7983 742.921 48.4234 Q742.921 44.6039 740.56 42.4512 Q738.233 40.2984 732.886 39.222 L728.615 38.3887 Q720.768 36.8262 717.261 33.4929 Q713.754 30.1596 713.754 24.2221 Q713.754 17.3471 718.581 13.3888 Q723.442 9.43051 731.949 9.43051 Q735.594 9.43051 739.379 10.0902 Q743.164 10.7499 747.122 12.0694 Z" fill="#000000" fill-rule="evenodd" fill-opacity="1" /><path clip-path="url(#clip580)" d="M 0 0 M756.948 23.3193 L763.337 23.3193 L763.337 62.208 L756.948 62.208 L756.948 23.3193 M756.948 8.18051 L763.337 8.18051 L763.337 16.2707 L756.948 16.2707 L756.948 8.18051 Z" fill="#000000" fill-rule="evenodd" fill-opacity="1" /><path clip-path="url(#clip580)" d="M 0 0 M800.316 30.7846 Q802.712 26.479 806.045 24.4304 Q809.379 22.3818 813.893 22.3818 Q819.969 22.3818 823.268 26.6526 Q826.566 30.8887 826.566 38.7359 L826.566 62.208 L820.143 62.208 L820.143 38.9442 Q820.143 33.354 818.163 30.6457 Q816.184 27.9374 812.122 27.9374 Q807.157 27.9374 804.275 31.2359 Q801.393 34.5345 801.393 40.229 L801.393 62.208 L794.969 62.208 L794.969 38.9442 Q794.969 33.3193 792.99 30.6457 Q791.011 27.9374 786.879 27.9374 Q781.983 27.9374 779.101 31.2707 Q776.219 34.5693 776.219 40.229 L776.219 62.208 L769.796 62.208 L769.796 23.3193 L776.219 23.3193 L776.219 29.361 Q778.407 25.7846 781.462 24.0832 Q784.518 22.3818 788.719 22.3818 Q792.955 22.3818 795.907 24.5346 Q798.893 26.6874 800.316 30.7846 Z" fill="#000000" fill-rule="evenodd" fill-opacity="1" /><path clip-path="url(#clip580)" d="M 0 0 M832.608 46.8609 L832.608 23.3193 L838.997 23.3193 L838.997 46.6178 Q838.997 52.1386 841.149 54.9164 Q843.302 57.6594 847.608 57.6594 Q852.781 57.6594 855.767 54.3608 Q858.788 51.0622 858.788 45.3678 L858.788 23.3193 L865.177 23.3193 L865.177 62.208 L858.788 62.208 L858.788 56.2358 Q856.462 59.7775 853.372 61.5136 Q850.316 63.2149 846.254 63.2149 Q839.552 63.2149 836.08 59.0483 Q832.608 54.8817 832.608 46.8609 M848.684 22.3818 L848.684 22.3818 Z" fill="#000000" fill-rule="evenodd" fill-opacity="1" /><path clip-path="url(#clip580)" d="M 0 0 M871.878 8.18051 L878.267 8.18051 L878.267 62.208 L871.878 62.208 L871.878 8.18051 Z" fill="#000000" fill-rule="evenodd" fill-opacity="1" /><path clip-path="url(#clip580)" d="M 0 0 M902.642 42.6595 Q894.899 42.6595 891.913 44.4303 Q888.927 46.2011 888.927 50.472 Q888.927 53.8747 891.149 55.8886 Q893.406 57.8677 897.26 57.8677 Q902.573 57.8677 905.767 54.1178 Q908.996 50.3331 908.996 44.0831 L908.996 42.6595 L902.642 42.6595 M915.385 40.0206 L915.385 62.208 L908.996 62.208 L908.996 56.3053 Q906.809 59.8469 903.545 61.5483 Q900.281 63.2149 895.559 63.2149 Q889.587 63.2149 886.045 59.8816 Q882.538 56.5136 882.538 50.8886 Q882.538 44.3262 886.913 40.9928 Q891.323 37.6595 900.038 37.6595 L908.996 37.6595 L908.996 37.0345 Q908.996 32.6248 906.08 30.229 Q903.198 27.7985 897.955 27.7985 Q894.621 27.7985 891.462 28.5971 Q888.302 29.3957 885.385 30.9929 L885.385 25.0901 Q888.892 23.736 892.191 23.0763 Q895.489 22.3818 898.614 22.3818 Q907.052 22.3818 911.218 26.7568 Q915.385 31.1318 915.385 40.0206 Z" fill="#000000" fill-rule="evenodd" fill-opacity="1" /><path clip-path="url(#clip580)" d="M 0 0 M928.406 12.2777 L928.406 23.3193 L941.566 23.3193 L941.566 28.2846 L928.406 28.2846 L928.406 49.3956 Q928.406 54.1525 929.691 55.5066 Q931.01 56.8608 935.003 56.8608 L941.566 56.8608 L941.566 62.208 L935.003 62.208 Q927.607 62.208 924.795 59.465 Q921.982 56.6872 921.982 49.3956 L921.982 28.2846 L917.295 28.2846 L917.295 23.3193 L921.982 23.3193 L921.982 12.2777 L928.406 12.2777 Z" fill="#000000" fill-rule="evenodd" fill-opacity="1" /><path clip-path="url(#clip580)" d="M 0 0 M948.267 23.3193 L954.656 23.3193 L954.656 62.208 L948.267 62.208 L948.267 23.3193 M948.267 8.18051 L954.656 8.18051 L954.656 16.2707 L948.267 16.2707 L948.267 8.18051 Z" fill="#000000" fill-rule="evenodd" fill-opacity="1" /><path clip-path="url(#clip580)" d="M 0 0 M976.426 27.7985 Q971.288 27.7985 968.301 31.8262 Q965.315 35.8193 965.315 42.7984 Q965.315 49.7775 968.267 53.8053 Q971.253 57.7983 976.426 57.7983 Q981.531 57.7983 984.517 53.7705 Q987.503 49.7428 987.503 42.7984 Q987.503 35.8887 984.517 31.8609 Q981.531 27.7985 976.426 27.7985 M976.426 22.3818 Q984.76 22.3818 989.517 27.7985 Q994.274 33.2151 994.274 42.7984 Q994.274 52.3469 989.517 57.7983 Q984.76 63.2149 976.426 63.2149 Q968.058 63.2149 963.302 57.7983 Q958.579 52.3469 958.579 42.7984 Q958.579 33.2151 963.302 27.7985 Q968.058 22.3818 976.426 22.3818 Z" fill="#000000" fill-rule="evenodd" fill-opacity="1" /><path clip-path="url(#clip580)" d="M 0 0 M1033.3 38.7359 L1033.3 62.208 L1026.91 62.208 L1026.91 38.9442 Q1026.91 33.4234 1024.76 30.6804 Q1022.61 27.9374 1018.3 27.9374 Q1013.13 27.9374 1010.14 31.2359 Q1007.16 34.5345 1007.16 40.229 L1007.16 62.208 L1000.73 62.208 L1000.73 23.3193 L1007.16 23.3193 L1007.16 29.361 Q1009.45 25.854 1012.54 24.1179 Q1015.66 22.3818 1019.72 22.3818 Q1026.43 22.3818 1029.86 26.5485 Q1033.3 30.6804 1033.3 38.7359 Z" fill="#000000" fill-rule="evenodd" fill-opacity="1" /><path clip-path="url(#clip580)" d="M 0 0 M1064.72 56.3053 L1076.18 56.3053 L1076.18 16.7569 L1063.72 19.2568 L1063.72 12.868 L1076.11 10.368 L1083.13 10.368 L1083.13 56.3053 L1094.59 56.3053 L1094.59 62.208 L1064.72 62.208 L1064.72 56.3053 Z" fill="#000000" fill-rule="evenodd" fill-opacity="1" /><path clip-path="url(#clip580)" d="M 0 0 M1102.19 53.3886 L1109.52 53.3886 L1109.52 62.208 L1102.19 62.208 L1102.19 53.3886 Z" fill="#000000" fill-rule="evenodd" fill-opacity="1" /><path clip-path="url(#clip580)" d="M 0 0 M1123.16 56.3053 L1147.64 56.3053 L1147.64 62.208 L1114.72 62.208 L1114.72 56.3053 Q1118.72 52.1733 1125.59 45.2289 Q1132.5 38.2498 1134.27 36.2359 Q1137.64 32.4512 1138.96 29.8471 Q1140.31 27.2082 1140.31 24.6735 Q1140.31 20.5416 1137.4 17.9374 Q1134.52 15.3333 1129.86 15.3333 Q1126.56 15.3333 1122.88 16.4791 Q1119.24 17.6249 1115.07 19.9513 L1115.07 12.868 Q1119.31 11.1666 1122.99 10.2986 Q1126.67 9.43051 1129.72 9.43051 Q1137.78 9.43051 1142.57 13.4583 Q1147.36 17.486 1147.36 24.2221 Q1147.36 27.4165 1146.15 30.2984 Q1144.97 33.1457 1141.81 37.0345 Q1140.94 38.0415 1136.29 42.8678 Q1131.63 47.6595 1123.16 56.3053 Z" fill="#000000" fill-rule="evenodd" fill-opacity="1" /><path clip-path="url(#clip580)" d="M 0 0 M580.022 86.01 Q575.37 93.996 573.113 101.808 Q570.856 109.621 570.856 117.642 Q570.856 125.663 573.113 133.544 Q575.404 141.392 580.022 149.343 L574.467 149.343 Q569.258 141.183 566.654 133.301 Q564.085 125.419 564.085 117.642 Q564.085 109.899 566.654 102.052 Q569.224 94.2044 574.467 86.01 L580.022 86.01 Z" fill="#000000" fill-rule="evenodd" fill-opacity="1" /><path clip-path="url(#clip580)" d="M 0 0 M619.05 116.496 L619.05 139.968 L612.661 139.968 L612.661 116.704 Q612.661 111.183 610.508 108.44 Q608.355 105.697 604.05 105.697 Q598.876 105.697 595.89 108.996 Q592.904 112.295 592.904 117.989 L592.904 139.968 L586.481 139.968 L586.481 101.079 L592.904 101.079 L592.904 107.121 Q595.196 103.614 598.286 101.878 Q601.411 100.142 605.474 100.142 Q612.175 100.142 615.612 104.308 Q619.05 108.44 619.05 116.496 Z" fill="#000000" fill-rule="evenodd" fill-opacity="1" /><path clip-path="url(#clip580)" d="M 0 0 M626.029 88.128 L658.807 88.128 L658.807 94.0307 L633.043 94.0307 L633.043 109.378 L657.73 109.378 L657.73 115.281 L633.043 115.281 L633.043 134.065 L659.432 134.065 L659.432 139.968 L626.029 139.968 L626.029 88.128 Z" fill="#000000" fill-rule="evenodd" fill-opacity="1" /><path clip-path="url(#clip580)" d="M 0 0 M672.452 90.0377 L672.452 101.079 L685.612 101.079 L685.612 106.045 L672.452 106.045 L672.452 127.156 Q672.452 131.912 673.737 133.267 Q675.057 134.621 679.05 134.621 L685.612 134.621 L685.612 139.968 L679.05 139.968 Q671.654 139.968 668.841 137.225 Q666.029 134.447 666.029 127.156 L666.029 106.045 L661.341 106.045 L661.341 101.079 L666.029 101.079 L666.029 90.0377 L672.452 90.0377 Z" fill="#000000" fill-rule="evenodd" fill-opacity="1" /><path clip-path="url(#clip580)" d="M 0 0 M694.431 134.065 L705.89 134.065 L705.89 94.5169 L693.424 97.0168 L693.424 90.628 L705.82 88.128 L712.834 88.128 L712.834 134.065 L724.292 134.065 L724.292 139.968 L694.431 139.968 L694.431 134.065 Z" fill="#000000" fill-rule="evenodd" fill-opacity="1" /><path clip-path="url(#clip580)" d="M 0 0 M732.626 131.149 L739.952 131.149 L739.952 137.121 L734.258 148.232 L729.778 148.232 L732.626 137.121 L732.626 131.149 Z" fill="#000000" fill-rule="evenodd" fill-opacity="1" /><path clip-path="url(#clip580)" d="M 0 0 M768.598 124.621 L768.598 101.079 L774.987 101.079 L774.987 124.378 Q774.987 129.899 777.139 132.676 Q779.292 135.419 783.598 135.419 Q788.771 135.419 791.757 132.121 Q794.778 128.822 794.778 123.128 L794.778 101.079 L801.167 101.079 L801.167 139.968 L794.778 139.968 L794.778 133.996 Q792.452 137.537 789.361 139.274 Q786.306 140.975 782.243 140.975 Q775.542 140.975 772.07 136.808 Q768.598 132.642 768.598 124.621 M784.674 100.142 L784.674 100.142 Z" fill="#000000" fill-rule="evenodd" fill-opacity="1" /><path clip-path="url(#clip580)" d="M 0 0 M826.34 128.197 L826.34 129.933 L807.834 129.933 Q808.111 133.614 810.334 135.558 Q812.591 137.503 816.584 137.503 Q818.91 137.503 821.097 136.982 Q823.25 136.496 825.403 135.489 L825.403 138.857 Q823.25 139.69 820.959 140.107 Q818.702 140.524 816.34 140.524 Q810.472 140.524 807.07 137.503 Q803.632 134.482 803.632 129.308 Q803.632 123.961 806.896 120.801 Q810.125 117.676 815.646 117.676 Q820.577 117.676 823.459 120.489 Q826.34 123.336 826.34 128.197 M822.313 127.121 Q822.278 124.204 820.472 122.433 Q818.667 120.697 815.681 120.697 Q812.313 120.697 810.299 122.399 Q808.285 124.065 807.972 127.121 L822.313 127.121 Z" fill="#000000" fill-rule="evenodd" fill-opacity="1" /><path clip-path="url(#clip580)" d="M 0 0 M833.875 107.677 L878.389 107.677 L878.389 113.51 L833.875 113.51 L833.875 107.677 M833.875 121.843 L878.389 121.843 L878.389 127.746 L833.875 127.746 L833.875 121.843 Z" fill="#000000" fill-rule="evenodd" fill-opacity="1" /><path clip-path="url(#clip580)" d="M 0 0 M887.208 134.065 L898.666 134.065 L898.666 94.5169 L886.201 97.0168 L886.201 90.628 L898.597 88.128 L905.611 88.128 L905.611 134.065 L917.069 134.065 L917.069 139.968 L887.208 139.968 L887.208 134.065 Z" fill="#000000" fill-rule="evenodd" fill-opacity="1" /><path clip-path="url(#clip580)" d="M 0 0 M925.402 131.149 L932.729 131.149 L932.729 137.121 L927.034 148.232 L922.555 148.232 L925.402 137.121 L925.402 131.149 Z" fill="#000000" fill-rule="evenodd" fill-opacity="1" /><path clip-path="url(#clip580)" d="M 0 0 M961.374 124.621 L961.374 101.079 L967.763 101.079 L967.763 124.378 Q967.763 129.899 969.916 132.676 Q972.069 135.419 976.374 135.419 Q981.548 135.419 984.534 132.121 Q987.555 128.822 987.555 123.128 L987.555 101.079 L993.944 101.079 L993.944 139.968 L987.555 139.968 L987.555 133.996 Q985.228 137.537 982.138 139.274 Q979.083 140.975 975.02 140.975 Q968.319 140.975 964.847 136.808 Q961.374 132.642 961.374 124.621 M977.451 100.142 L977.451 100.142 Z" fill="#000000" fill-rule="evenodd" fill-opacity="1" /><path clip-path="url(#clip580)" d="M 0 0 M998.18 118.197 L1002.21 118.197 L1002.21 139.968 L998.18 139.968 L998.18 118.197 M998.18 109.725 L1002.21 109.725 L1002.21 114.239 L998.18 114.239 L998.18 109.725 Z" fill="#000000" fill-rule="evenodd" fill-opacity="1" /><path clip-path="url(#clip580)" d="M 0 0 M1009.74 107.677 L1054.26 107.677 L1054.26 113.51 L1009.74 113.51 L1009.74 107.677 M1009.74 121.843 L1054.26 121.843 L1054.26 127.746 L1009.74 127.746 L1009.74 121.843 Z" fill="#000000" fill-rule="evenodd" fill-opacity="1" /><path clip-path="url(#clip580)" d="M 0 0 M1063.08 134.065 L1074.53 134.065 L1074.53 94.5169 L1062.07 97.0168 L1062.07 90.628 L1074.46 88.128 L1081.48 88.128 L1081.48 134.065 L1092.94 134.065 L1092.94 139.968 L1063.08 139.968 L1063.08 134.065 Z" fill="#000000" fill-rule="evenodd" fill-opacity="1" /><path clip-path="url(#clip580)" d="M 0 0 M1096.41 117.642 L1115.12 117.642 L1115.12 123.336 L1096.41 123.336 L1096.41 117.642 Z" fill="#000000" fill-rule="evenodd" fill-opacity="1" /><path clip-path="url(#clip580)" d="M 0 0 M1122.66 104.968 L1122.66 98.6488 L1167.17 114.795 L1167.17 120.558 L1122.66 136.704 L1122.66 130.385 L1158.42 117.711 L1122.66 104.968 Z" fill="#000000" fill-rule="evenodd" fill-opacity="1" /><path clip-path="url(#clip580)" d="M 0 0 M1180.82 134.065 L1205.3 134.065 L1205.3 139.968 L1172.38 139.968 L1172.38 134.065 Q1176.37 129.933 1183.25 122.989 Q1190.16 116.01 1191.93 113.996 Q1195.3 110.211 1196.62 107.607 Q1197.97 104.968 1197.97 102.433 Q1197.97 98.3016 1195.05 95.6974 Q1192.17 93.0933 1187.52 93.0933 Q1184.22 93.0933 1180.54 94.2391 Q1176.89 95.3849 1172.73 97.7113 L1172.73 90.628 Q1176.96 88.9266 1180.64 88.0586 Q1184.32 87.1905 1187.38 87.1905 Q1195.44 87.1905 1200.23 91.2183 Q1205.02 95.246 1205.02 101.982 Q1205.02 105.177 1203.8 108.058 Q1202.62 110.906 1199.46 114.795 Q1198.6 115.801 1193.94 120.628 Q1189.29 125.419 1180.82 134.065 Z" fill="#000000" fill-rule="evenodd" fill-opacity="1" /><path clip-path="url(#clip580)" d="M 0 0 M1210.99 86.01 L1216.55 86.01 Q1221.75 94.2044 1224.32 102.052 Q1226.93 109.899 1226.93 117.642 Q1226.93 125.419 1224.32 133.301 Q1221.75 141.183 1216.55 149.343 L1210.99 149.343 Q1215.61 141.392 1217.87 133.544 Q1220.16 125.663 1220.16 117.642 Q1220.16 109.621 1217.87 101.808 Q1215.61 93.996 1210.99 86.01 Z" fill="#000000" fill-rule="evenodd" fill-opacity="1" /><polyline clip-path="url(#clip582)" style="stroke:#009af9; stroke-width:4; stroke-opacity:1; fill:none" points="
  247.558,993.223 250.092,873.96 252.627,782.127 255.161,715.924 257.695,672.837 260.23,649.894 262.764,643.886 265.298,651.552 267.833,669.727 270.367,695.461 
  272.902,726.092 275.436,759.305 277.97,793.156 280.505,826.077 283.039,856.866 285.573,884.659 288.108,908.9 290.642,929.298 293.176,945.787 295.711,958.479 
  298.245,967.624 300.78,973.571 303.314,976.731 305.848,977.549 308.383,976.476 310.917,973.951 313.451,970.382 315.986,966.138 318.52,961.537 321.054,956.85 
  323.589,952.293 326.123,948.032 328.658,944.186 331.192,940.833 333.726,938.012 336.261,935.732 338.795,933.978 341.329,932.715 343.864,931.894 346.398,931.459 
  348.932,931.348 351.467,931.498 354.001,931.848 356.536,932.343 359.07,932.932 361.604,933.569 364.139,934.218 366.673,934.849 369.207,935.438 371.742,935.97 
  374.276,936.434 376.811,936.824 379.345,937.14 381.879,937.382 384.414,937.557 386.948,937.67 389.482,937.73 392.017,937.745 394.551,937.724 397.085,937.675 
  399.62,937.607 402.154,937.525 404.689,937.437 407.223,937.347 409.757,937.26 412.292,937.178 414.826,937.104 417.36,937.04 419.895,936.986 422.429,936.943 
  424.963,936.909 427.498,936.885 430.032,936.869 432.567,936.861 435.101,936.859 437.635,936.862 440.17,936.869 442.704,936.878 445.238,936.89 447.773,936.902 
  450.307,936.914 452.841,936.926 455.376,936.938 457.91,936.948 460.445,936.957 462.979,936.964 465.513,936.97 468.048,936.975 470.582,936.978 473.116,936.98 
  475.651,936.981 478.185,936.982 480.719,936.981 483.254,936.98 485.788,936.979 488.323,936.977 490.857,936.976 493.391,936.974 495.926,936.972 498.46,936.971 
  500.994,936.969 503.529,936.968 506.063,936.967 508.597,936.966 511.132,936.966 513.666,936.965 516.201,936.965 518.735,936.965 521.269,936.965 523.804,936.965 
  526.338,936.965 528.872,936.965 531.407,936.965 533.941,936.966 536.476,936.966 539.01,936.966 541.544,936.966 544.079,936.966 546.613,936.967 549.147,936.967 
  551.682,936.967 554.216,936.967 556.75,936.967 559.285,936.967 561.819,936.967 564.354,936.967 566.888,936.967 569.422,936.967 571.957,936.967 574.491,936.967 
  577.025,936.967 579.56,936.967 582.094,936.967 584.628,936.967 587.163,936.967 589.697,936.967 592.232,936.967 594.766,936.967 597.3,936.967 599.835,936.967 
  602.369,936.967 604.903,936.967 607.438,936.967 609.972,936.967 612.506,936.967 615.041,936.967 617.575,936.967 620.11,936.967 622.644,936.967 625.178,936.967 
  627.713,936.967 630.247,936.967 632.781,936.967 635.316,936.967 637.85,936.967 640.384,936.967 642.919,936.967 645.453,936.967 647.988,936.967 650.522,936.967 
  653.056,936.967 655.591,936.967 658.125,936.967 660.659,936.967 663.194,936.967 665.728,936.967 668.262,936.967 670.797,936.967 673.331,936.967 675.866,936.967 
  678.4,936.967 680.934,936.967 683.469,936.967 686.003,936.967 688.537,936.967 691.072,936.967 693.606,936.967 696.141,936.967 698.675,936.967 701.209,936.967 
  703.744,936.967 706.278,936.967 708.812,936.967 711.347,936.967 713.881,936.967 716.415,936.967 718.95,936.967 721.484,936.967 724.019,936.967 726.553,936.967 
  729.087,936.967 731.622,936.967 734.156,936.967 736.69,936.967 739.225,936.967 741.759,936.967 744.293,936.967 746.828,936.967 749.362,936.967 751.897,936.967 
  754.431,936.967 756.965,936.967 759.5,936.967 762.034,936.967 764.568,936.967 767.103,936.967 769.637,936.967 772.171,936.967 774.706,936.967 777.24,936.967 
  779.775,936.967 782.309,936.967 784.843,936.967 787.378,936.967 789.912,936.967 792.446,936.967 794.981,936.967 797.515,936.967 800.049,936.967 802.584,936.967 
  805.118,936.967 807.653,936.967 810.187,936.967 812.721,936.967 815.256,936.967 817.79,936.967 820.324,936.967 822.859,936.967 825.393,936.967 827.927,936.967 
  830.462,936.967 832.996,936.967 835.531,936.967 838.065,936.967 840.599,936.967 843.134,936.967 845.668,936.967 848.202,936.967 850.737,936.967 853.271,936.967 
  855.806,936.967 858.34,936.967 860.874,936.967 863.409,936.967 865.943,936.967 868.477,936.967 871.012,936.967 873.546,936.967 876.08,936.967 878.615,936.967 
  881.149,936.967 883.684,936.967 886.218,936.967 888.752,936.967 891.287,936.967 893.821,936.967 896.355,936.967 898.89,936.967 901.424,936.967 903.958,936.967 
  906.493,936.967 909.027,936.967 911.562,936.967 914.096,936.967 916.63,936.967 919.165,936.967 921.699,936.967 924.233,936.967 926.768,936.967 929.302,936.967 
  931.836,936.967 934.371,936.967 936.905,936.967 939.44,936.967 941.974,936.967 944.508,936.967 947.043,936.967 949.577,936.967 952.111,936.967 954.646,936.967 
  957.18,936.967 959.714,936.967 962.249,936.967 964.783,936.967 967.318,936.967 969.852,936.967 972.386,936.967 974.921,936.967 977.455,936.967 979.989,936.967 
  982.524,936.967 985.058,936.967 987.592,936.967 990.127,936.967 992.661,936.967 995.196,936.967 997.73,936.967 1000.26,936.967 1002.8,936.967 1005.33,936.967 
  1007.87,936.967 1010.4,936.967 1012.94,936.967 1015.47,936.967 1018,936.967 1020.54,936.967 1023.07,936.967 1025.61,936.967 1028.14,936.967 1030.68,936.967 
  1033.21,936.967 1035.75,936.967 1038.28,936.967 1040.81,936.967 1043.35,936.967 1045.88,936.967 1048.42,936.967 1050.95,936.967 1053.49,936.967 1056.02,936.967 
  1058.55,936.967 1061.09,936.967 1063.62,936.967 1066.16,936.967 1068.69,936.967 1071.23,936.967 1073.76,936.967 1076.3,936.967 1078.83,936.967 1081.36,936.967 
  1083.9,936.967 1086.43,936.967 1088.97,936.967 1091.5,936.967 1094.04,936.967 1096.57,936.967 1099.1,936.967 1101.64,936.967 1104.17,936.967 1106.71,936.967 
  1109.24,936.967 1111.78,936.967 1114.31,936.967 1116.85,936.967 1119.38,936.967 1121.91,936.967 1124.45,936.967 1126.98,936.967 1129.52,936.967 1132.05,936.967 
  1134.59,936.967 1137.12,936.967 1139.65,936.967 1142.19,936.967 1144.72,936.967 1147.26,936.967 1149.79,936.967 1152.33,936.967 1154.86,936.967 1157.39,936.967 
  1159.93,936.967 1162.46,936.967 1165,936.967 1167.53,936.967 1170.07,936.967 1172.6,936.967 1175.14,936.967 1177.67,936.967 1180.2,936.967 1182.74,936.967 
  1185.27,936.967 1187.81,936.967 1190.34,936.967 1192.88,936.967 1195.41,936.967 1197.94,936.967 1200.48,936.967 1203.01,936.967 1205.55,936.967 1208.08,936.967 
  1210.62,936.967 1213.15,936.967 1215.69,936.967 1218.22,936.967 1220.75,936.967 1223.29,936.967 1225.82,936.967 1228.36,936.967 1230.89,936.967 1233.43,936.967 
  1235.96,936.967 1238.49,936.967 1241.03,936.967 1243.56,936.967 1246.1,936.967 1248.63,936.967 1251.17,936.967 1253.7,936.967 1256.24,936.967 1258.77,936.967 
  1261.3,936.967 1263.84,936.967 1266.37,936.967 1268.91,936.967 1271.44,936.967 1273.98,936.967 1276.51,936.967 1279.04,936.967 1281.58,936.967 1284.11,936.967 
  1286.65,936.967 1289.18,936.967 1291.72,936.967 1294.25,936.967 1296.79,936.967 1299.32,936.967 1301.85,936.967 1304.39,936.967 1306.92,936.967 1309.46,936.967 
  1311.99,936.967 1314.53,936.967 1317.06,936.967 1319.59,936.967 1322.13,936.967 1324.66,936.967 1327.2,936.967 1329.73,936.967 1332.27,936.967 1334.8,936.967 
  1337.33,936.967 1339.87,936.967 1342.4,936.967 1344.94,936.967 1347.47,936.967 1350.01,936.967 1352.54,936.967 1355.08,936.967 1357.61,936.967 1360.14,936.967 
  1362.68,936.967 1365.21,936.967 1367.75,936.967 1370.28,936.967 1372.82,936.967 1375.35,936.967 1377.88,936.967 1380.42,936.967 1382.95,936.967 1385.49,936.967 
  1388.02,936.967 1390.56,936.967 1393.09,936.967 1395.63,936.967 1398.16,936.967 1400.69,936.967 1403.23,936.967 1405.76,936.967 1408.3,936.967 1410.83,936.967 
  1413.37,936.967 1415.9,936.967 1418.43,936.967 1420.97,936.967 1423.5,936.967 1426.04,936.967 1428.57,936.967 1431.11,936.967 1433.64,936.967 1436.18,936.967 
  1438.71,936.967 1441.24,936.967 1443.78,936.967 1446.31,936.967 1448.85,936.967 1451.38,936.967 1453.92,936.967 1456.45,936.967 1458.98,936.967 1461.52,936.967 
  1464.05,936.967 1466.59,936.967 1469.12,936.967 1471.66,936.967 1474.19,936.967 1476.72,936.967 1479.26,936.967 1481.79,936.967 1484.33,936.967 1486.86,936.967 
  1489.4,936.967 1491.93,936.967 1494.47,936.967 1497,936.967 1499.53,936.967 1502.07,936.967 1504.6,936.967 1507.14,936.967 1509.67,936.967 1512.21,936.967 
  1514.74,936.967 
  "/>
<polyline clip-path="url(#clip582)" style="stroke:#e26f46; stroke-width:4; stroke-opacity:1; fill:none" points="
  247.558,993.223 250.092,873.96 252.627,757.082 255.161,647.05 257.695,547.107 260.23,459.398 262.764,385.1 265.298,324.581 267.833,277.545 270.367,243.189 
  272.902,220.335 275.436,207.566 277.97,203.329 280.505,206.033 283.039,214.121 285.573,226.134 288.108,240.747 290.642,256.801 293.176,273.316 295.711,289.496 
  298.245,304.724 300.78,318.553 303.314,330.686 305.848,340.962 308.383,349.33 310.917,355.831 313.451,360.577 315.986,363.732 318.52,365.491 321.054,366.071 
  323.589,365.691 326.123,364.567 328.658,362.9 331.192,360.875 333.726,358.651 336.261,356.364 338.795,354.125 341.329,352.017 343.864,350.104 346.398,348.425 
  348.932,347.004 351.467,345.847 354.001,344.948 356.536,344.293 359.07,343.857 361.604,343.615 364.139,343.535 366.673,343.589 369.207,343.745 371.742,343.976 
  374.276,344.257 376.811,344.565 379.345,344.882 381.879,345.192 384.414,345.483 386.948,345.748 389.482,345.98 392.017,346.177 394.551,346.337 397.085,346.461 
  399.62,346.552 402.154,346.612 404.689,346.645 407.223,346.656 409.757,346.649 412.292,346.627 414.826,346.595 417.36,346.556 419.895,346.513 422.429,346.469 
  424.963,346.426 427.498,346.386 430.032,346.349 432.567,346.317 435.101,346.29 437.635,346.268 440.17,346.251 442.704,346.238 445.238,346.23 447.773,346.225 
  450.307,346.224 452.841,346.225 455.376,346.228 457.91,346.232 460.445,346.238 462.979,346.244 465.513,346.25 468.048,346.256 470.582,346.261 473.116,346.266 
  475.651,346.271 478.185,346.275 480.719,346.278 483.254,346.28 485.788,346.282 488.323,346.283 490.857,346.284 493.391,346.284 495.926,346.284 498.46,346.283 
  500.994,346.283 503.529,346.282 506.063,346.281 508.597,346.28 511.132,346.279 513.666,346.279 516.201,346.278 518.735,346.277 521.269,346.277 523.804,346.276 
  526.338,346.276 528.872,346.276 531.407,346.276 533.941,346.275 536.476,346.275 539.01,346.275 541.544,346.276 544.079,346.276 546.613,346.276 549.147,346.276 
  551.682,346.276 554.216,346.276 556.75,346.276 559.285,346.276 561.819,346.276 564.354,346.276 566.888,346.276 569.422,346.277 571.957,346.277 574.491,346.277 
  577.025,346.277 579.56,346.277 582.094,346.277 584.628,346.277 587.163,346.277 589.697,346.277 592.232,346.277 594.766,346.277 597.3,346.276 599.835,346.276 
  602.369,346.276 604.903,346.276 607.438,346.276 609.972,346.276 612.506,346.276 615.041,346.276 617.575,346.276 620.11,346.276 622.644,346.276 625.178,346.276 
  627.713,346.276 630.247,346.276 632.781,346.276 635.316,346.276 637.85,346.276 640.384,346.276 642.919,346.276 645.453,346.276 647.988,346.276 650.522,346.276 
  653.056,346.276 655.591,346.276 658.125,346.276 660.659,346.276 663.194,346.276 665.728,346.276 668.262,346.276 670.797,346.276 673.331,346.276 675.866,346.276 
  678.4,346.276 680.934,346.276 683.469,346.276 686.003,346.276 688.537,346.276 691.072,346.276 693.606,346.276 696.141,346.276 698.675,346.276 701.209,346.276 
  703.744,346.276 706.278,346.276 708.812,346.276 711.347,346.276 713.881,346.276 716.415,346.276 718.95,346.276 721.484,346.276 724.019,346.276 726.553,346.276 
  729.087,346.276 731.622,346.276 734.156,346.276 736.69,346.276 739.225,346.276 741.759,346.276 744.293,346.276 746.828,346.276 749.362,346.276 751.897,346.276 
  754.431,346.276 756.965,346.276 759.5,346.276 762.034,346.276 764.568,346.276 767.103,346.276 769.637,346.276 772.171,346.276 774.706,346.276 777.24,346.276 
  779.775,346.276 782.309,346.276 784.843,346.276 787.378,346.276 789.912,346.276 792.446,346.276 794.981,346.276 797.515,346.276 800.049,346.276 802.584,346.276 
  805.118,346.276 807.653,346.276 810.187,346.276 812.721,346.276 815.256,346.276 817.79,346.276 820.324,346.276 822.859,346.276 825.393,346.276 827.927,346.276 
  830.462,346.276 832.996,346.276 835.531,346.276 838.065,346.276 840.599,346.276 843.134,346.276 845.668,346.276 848.202,346.276 850.737,346.276 853.271,346.276 
  855.806,346.276 858.34,346.276 860.874,346.276 863.409,346.276 865.943,346.276 868.477,346.276 871.012,346.276 873.546,346.276 876.08,346.276 878.615,346.276 
  881.149,346.276 883.684,346.276 886.218,346.276 888.752,346.276 891.287,346.276 893.821,346.276 896.355,346.276 898.89,346.276 901.424,346.276 903.958,346.276 
  906.493,346.276 909.027,346.276 911.562,346.276 914.096,346.276 916.63,346.276 919.165,346.276 921.699,346.276 924.233,346.276 926.768,346.276 929.302,346.276 
  931.836,346.276 934.371,346.276 936.905,346.276 939.44,346.276 941.974,346.276 944.508,346.276 947.043,346.276 949.577,346.276 952.111,346.276 954.646,346.276 
  957.18,346.276 959.714,346.276 962.249,346.276 964.783,346.276 967.318,346.276 969.852,346.276 972.386,346.276 974.921,346.276 977.455,346.276 979.989,346.276 
  982.524,346.276 985.058,346.276 987.592,346.276 990.127,346.276 992.661,346.276 995.196,346.276 997.73,346.276 1000.26,346.276 1002.8,346.276 1005.33,346.276 
  1007.87,346.276 1010.4,346.276 1012.94,346.276 1015.47,346.276 1018,346.276 1020.54,346.276 1023.07,346.276 1025.61,346.276 1028.14,346.276 1030.68,346.276 
  1033.21,346.276 1035.75,346.276 1038.28,346.276 1040.81,346.276 1043.35,346.276 1045.88,346.276 1048.42,346.276 1050.95,346.276 1053.49,346.276 1056.02,346.276 
  1058.55,346.276 1061.09,346.276 1063.62,346.276 1066.16,346.276 1068.69,346.276 1071.23,346.276 1073.76,346.276 1076.3,346.276 1078.83,346.276 1081.36,346.276 
  1083.9,346.276 1086.43,346.276 1088.97,346.276 1091.5,346.276 1094.04,346.276 1096.57,346.276 1099.1,346.276 1101.64,346.276 1104.17,346.276 1106.71,346.276 
  1109.24,346.276 1111.78,346.276 1114.31,346.276 1116.85,346.276 1119.38,346.276 1121.91,346.276 1124.45,346.276 1126.98,346.276 1129.52,346.276 1132.05,346.276 
  1134.59,346.276 1137.12,346.276 1139.65,346.276 1142.19,346.276 1144.72,346.276 1147.26,346.276 1149.79,346.276 1152.33,346.276 1154.86,346.276 1157.39,346.276 
  1159.93,346.276 1162.46,346.276 1165,346.276 1167.53,346.276 1170.07,346.276 1172.6,346.276 1175.14,346.276 1177.67,346.276 1180.2,346.276 1182.74,346.276 
  1185.27,346.276 1187.81,346.276 1190.34,346.276 1192.88,346.276 1195.41,346.276 1197.94,346.276 1200.48,346.276 1203.01,346.276 1205.55,346.276 1208.08,346.276 
  1210.62,346.276 1213.15,346.276 1215.69,346.276 1218.22,346.276 1220.75,346.276 1223.29,346.276 1225.82,346.276 1228.36,346.276 1230.89,346.276 1233.43,346.276 
  1235.96,346.276 1238.49,346.276 1241.03,346.276 1243.56,346.276 1246.1,346.276 1248.63,346.276 1251.17,346.276 1253.7,346.276 1256.24,346.276 1258.77,346.276 
  1261.3,346.276 1263.84,346.276 1266.37,346.276 1268.91,346.276 1271.44,346.276 1273.98,346.276 1276.51,346.276 1279.04,346.276 1281.58,346.276 1284.11,346.276 
  1286.65,346.276 1289.18,346.276 1291.72,346.276 1294.25,346.276 1296.79,346.276 1299.32,346.276 1301.85,346.276 1304.39,346.276 1306.92,346.276 1309.46,346.276 
  1311.99,346.276 1314.53,346.276 1317.06,346.276 1319.59,346.276 1322.13,346.276 1324.66,346.276 1327.2,346.276 1329.73,346.276 1332.27,346.276 1334.8,346.276 
  1337.33,346.276 1339.87,346.276 1342.4,346.276 1344.94,346.276 1347.47,346.276 1350.01,346.276 1352.54,346.276 1355.08,346.276 1357.61,346.276 1360.14,346.276 
  1362.68,346.276 1365.21,346.276 1367.75,346.276 1370.28,346.276 1372.82,346.276 1375.35,346.276 1377.88,346.276 1380.42,346.276 1382.95,346.276 1385.49,346.276 
  1388.02,346.276 1390.56,346.276 1393.09,346.276 1395.63,346.276 1398.16,346.276 1400.69,346.276 1403.23,346.276 1405.76,346.276 1408.3,346.276 1410.83,346.276 
  1413.37,346.276 1415.9,346.276 1418.43,346.276 1420.97,346.276 1423.5,346.276 1426.04,346.276 1428.57,346.276 1431.11,346.276 1433.64,346.276 1436.18,346.276 
  1438.71,346.276 1441.24,346.276 1443.78,346.276 1446.31,346.276 1448.85,346.276 1451.38,346.276 1453.92,346.276 1456.45,346.276 1458.98,346.276 1461.52,346.276 
  1464.05,346.276 1466.59,346.276 1469.12,346.276 1471.66,346.276 1474.19,346.276 1476.72,346.276 1479.26,346.276 1481.79,346.276 1484.33,346.276 1486.86,346.276 
  1489.4,346.276 1491.93,346.276 1494.47,346.276 1497,346.276 1499.53,346.276 1502.07,346.276 1504.6,346.276 1507.14,346.276 1509.67,346.276 1512.21,346.276 
  1514.74,346.276 
  "/>
<path clip-path="url(#clip580)" d="
M1326.77 388.982 L1507.98 388.982 L1507.98 207.542 L1326.77 207.542  Z
  " fill="#ffffff" fill-rule="evenodd" fill-opacity="1"/>
<polyline clip-path="url(#clip580)" style="stroke:#000000; stroke-width:4; stroke-opacity:1; fill:none" points="
  1326.77,388.982 1507.98,388.982 1507.98,207.542 1326.77,207.542 1326.77,388.982 
  "/>
<polyline clip-path="url(#clip580)" style="stroke:#009af9; stroke-width:4; stroke-opacity:1; fill:none" points="
  1341.69,268.022 1431.24,268.022 
  "/>
<path clip-path="url(#clip580)" d="M 0 0 M1461.35 263.357 Q1460.63 262.941 1459.78 262.756 Q1458.94 262.547 1457.92 262.547 Q1454.31 262.547 1452.37 264.908 Q1450.45 267.246 1450.45 271.644 L1450.45 285.302 L1446.17 285.302 L1446.17 259.376 L1450.45 259.376 L1450.45 263.404 Q1451.79 261.043 1453.94 259.908 Q1456.1 258.751 1459.17 258.751 Q1459.61 258.751 1460.15 258.82 Q1460.68 258.867 1461.33 258.982 L1461.35 263.357 Z" fill="#000000" fill-rule="evenodd" fill-opacity="1" /><path clip-path="url(#clip580)" d="M 0 0 M1478.13 277.455 L1478.13 278.612 L1465.8 278.612 Q1465.98 281.066 1467.46 282.362 Q1468.97 283.658 1471.63 283.658 Q1473.18 283.658 1474.64 283.311 Q1476.07 282.987 1477.51 282.316 L1477.51 284.561 Q1476.07 285.117 1474.54 285.394 Q1473.04 285.672 1471.47 285.672 Q1467.55 285.672 1465.29 283.658 Q1462.99 281.644 1462.99 278.195 Q1462.99 274.63 1465.17 272.524 Q1467.32 270.441 1471 270.441 Q1474.29 270.441 1476.21 272.316 Q1478.13 274.214 1478.13 277.455 M1475.45 276.737 Q1475.42 274.793 1474.22 273.612 Q1473.02 272.455 1471.03 272.455 Q1468.78 272.455 1467.44 273.589 Q1466.1 274.7 1465.89 276.737 L1475.45 276.737 Z" fill="#000000" fill-rule="evenodd" fill-opacity="1" /><polyline clip-path="url(#clip580)" style="stroke:#e26f46; stroke-width:4; stroke-opacity:1; fill:none" points="
  1341.69,328.502 1431.24,328.502 
  "/>
<path clip-path="url(#clip580)" d="M 0 0 M1461.35 323.837 Q1460.63 323.421 1459.78 323.236 Q1458.94 323.027 1457.92 323.027 Q1454.31 323.027 1452.37 325.388 Q1450.45 327.726 1450.45 332.124 L1450.45 345.782 L1446.17 345.782 L1446.17 319.856 L1450.45 319.856 L1450.45 323.884 Q1451.79 321.523 1453.94 320.388 Q1456.1 319.231 1459.17 319.231 Q1459.61 319.231 1460.15 319.3 Q1460.68 319.347 1461.33 319.462 L1461.35 323.837 Z" fill="#000000" fill-rule="evenodd" fill-opacity="1" /><path clip-path="url(#clip580)" d="M 0 0 M1464.17 331.268 L1466.86 331.268 L1466.86 345.782 L1464.17 345.782 L1464.17 331.268 M1464.17 325.62 L1466.86 325.62 L1466.86 328.629 L1464.17 328.629 L1464.17 325.62 Z" fill="#000000" fill-rule="evenodd" fill-opacity="1" /></svg>
