<?xml version="1.0" encoding="utf-8"?>
<svg xmlns="http://www.w3.org/2000/svg" xmlns:xlink="http://www.w3.org/1999/xlink" width="400" height="300" viewBox="0 0 1600 1200">
<defs>
  <clipPath id="clip660">
    <rect x="0" y="0" width="1600" height="1200"/>
  </clipPath>
</defs>
<path clip-path="url(#clip660)" d="
M0 1200 L1600 1200 L1600 0 L0 0  Z
  " fill="#ffffff" fill-rule="evenodd" fill-opacity="1"/>
<defs>
  <clipPath id="clip661">
    <rect x="320" y="0" width="1121" height="1121"/>
  </clipPath>
</defs>
<path clip-path="url(#clip660)" d="
M267.875 1016.92 L1552.76 1016.92 L1552.76 179.632 L267.875 179.632  Z
  " fill="#ffffff" fill-rule="evenodd" fill-opacity="1"/>
<defs>
  <clipPath id="clip662">
    <rect x="267" y="179" width="1286" height="838"/>
  </clipPath>
</defs>
<polyline clip-path="url(#clip662)" style="stroke:#000000; stroke-width:2; stroke-opacity:0.1; fill:none" points="
  303.028,1016.92 303.028,179.632 
  "/>
<polyline clip-path="url(#clip662)" style="stroke:#000000; stroke-width:2; stroke-opacity:0.1; fill:none" points="
  606.066,1016.92 606.066,179.632 
  "/>
<polyline clip-path="url(#clip662)" style="stroke:#000000; stroke-width:2; stroke-opacity:0.1; fill:none" points="
  909.104,1016.92 909.104,179.632 
  "/>
<polyline clip-path="url(#clip662)" style="stroke:#000000; stroke-width:2; stroke-opacity:0.1; fill:none" points="
  1212.14,1016.92 1212.14,179.632 
  "/>
<polyline clip-path="url(#clip662)" style="stroke:#000000; stroke-width:2; stroke-opacity:0.1; fill:none" points="
  1515.18,1016.92 1515.18,179.632 
  "/>
<polyline clip-path="url(#clip660)" style="stroke:#000000; stroke-width:4; stroke-opacity:1; fill:none" points="
  267.875,1016.92 1552.76,1016.92 
  "/>
<polyline clip-path="url(#clip660)" style="stroke:#000000; stroke-width:4; stroke-opacity:1; fill:none" points="
  303.028,1016.92 303.028,1006.87 
  "/>
<polyline clip-path="url(#clip660)" style="stroke:#000000; stroke-width:4; stroke-opacity:1; fill:none" points="
  606.066,1016.92 606.066,1006.87 
  "/>
<polyline clip-path="url(#clip660)" style="stroke:#000000; stroke-width:4; stroke-opacity:1; fill:none" points="
  909.104,1016.92 909.104,1006.87 
  "/>
<polyline clip-path="url(#clip660)" style="stroke:#000000; stroke-width:4; stroke-opacity:1; fill:none" points="
  1212.14,1016.92 1212.14,1006.87 
  "/>
<polyline clip-path="url(#clip660)" style="stroke:#000000; stroke-width:4; stroke-opacity:1; fill:none" points="
  1515.18,1016.92 1515.18,1006.87 
  "/>
<path clip-path="url(#clip660)" d="M 0 0 M303.028 1039.71 Q299.417 1039.71 297.588 1043.28 Q295.783 1046.82 295.783 1053.95 Q295.783 1061.05 297.588 1064.62 Q299.417 1068.16 303.028 1068.16 Q306.662 1068.16 308.468 1064.62 Q310.296 1061.05 310.296 1053.95 Q310.296 1046.82 308.468 1043.28 Q306.662 1039.71 303.028 1039.71 M303.028 1036.01 Q308.838 1036.01 311.894 1040.61 Q314.972 1045.2 314.972 1053.95 Q314.972 1062.67 311.894 1067.28 Q308.838 1071.86 303.028 1071.86 Q297.218 1071.86 294.139 1067.28 Q291.083 1062.67 291.083 1053.95 Q291.083 1045.2 294.139 1040.61 Q297.218 1036.01 303.028 1036.01 Z" fill="#000000" fill-rule="evenodd" fill-opacity="1" /><path clip-path="url(#clip660)" d="M 0 0 M574.202 1067.26 L590.522 1067.26 L590.522 1071.19 L568.577 1071.19 L568.577 1067.26 Q571.239 1064.5 575.823 1059.87 Q580.429 1055.22 581.61 1053.88 Q583.855 1051.35 584.735 1049.62 Q585.638 1047.86 585.638 1046.17 Q585.638 1043.41 583.693 1041.68 Q581.772 1039.94 578.67 1039.94 Q576.471 1039.94 574.017 1040.71 Q571.587 1041.47 568.809 1043.02 L568.809 1038.3 Q571.633 1037.16 574.087 1036.59 Q576.54 1036.01 578.577 1036.01 Q583.948 1036.01 587.142 1038.69 Q590.337 1041.38 590.337 1045.87 Q590.337 1048 589.526 1049.92 Q588.739 1051.82 586.633 1054.41 Q586.054 1055.08 582.952 1058.3 Q579.851 1061.49 574.202 1067.26 Z" fill="#000000" fill-rule="evenodd" fill-opacity="1" /><path clip-path="url(#clip660)" d="M 0 0 M595.637 1036.63 L613.994 1036.63 L613.994 1040.57 L599.92 1040.57 L599.92 1049.04 Q600.938 1048.69 601.957 1048.53 Q602.975 1048.34 603.994 1048.34 Q609.781 1048.34 613.161 1051.52 Q616.54 1054.69 616.54 1060.1 Q616.54 1065.68 613.068 1068.78 Q609.596 1071.86 603.276 1071.86 Q601.1 1071.86 598.832 1071.49 Q596.587 1071.12 594.179 1070.38 L594.179 1065.68 Q596.262 1066.82 598.485 1067.37 Q600.707 1067.93 603.184 1067.93 Q607.188 1067.93 609.526 1065.82 Q611.864 1063.72 611.864 1060.1 Q611.864 1056.49 609.526 1054.39 Q607.188 1052.28 603.184 1052.28 Q601.309 1052.28 599.434 1052.7 Q597.582 1053.11 595.637 1053.99 L595.637 1036.63 Z" fill="#000000" fill-rule="evenodd" fill-opacity="1" /><path clip-path="url(#clip660)" d="M 0 0 M631.61 1039.71 Q627.998 1039.71 626.17 1043.28 Q624.364 1046.82 624.364 1053.95 Q624.364 1061.05 626.17 1064.62 Q627.998 1068.16 631.61 1068.16 Q635.244 1068.16 637.049 1064.62 Q638.878 1061.05 638.878 1053.95 Q638.878 1046.82 637.049 1043.28 Q635.244 1039.71 631.61 1039.71 M631.61 1036.01 Q637.42 1036.01 640.475 1040.61 Q643.554 1045.2 643.554 1053.95 Q643.554 1062.67 640.475 1067.28 Q637.42 1071.86 631.61 1071.86 Q625.799 1071.86 622.721 1067.28 Q619.665 1062.67 619.665 1053.95 Q619.665 1045.2 622.721 1040.61 Q625.799 1036.01 631.61 1036.01 Z" fill="#000000" fill-rule="evenodd" fill-opacity="1" /><path clip-path="url(#clip660)" d="M 0 0 M872.368 1036.63 L890.724 1036.63 L890.724 1040.57 L876.65 1040.57 L876.65 1049.04 Q877.669 1048.69 878.687 1048.53 Q879.706 1048.34 880.724 1048.34 Q886.511 1048.34 889.891 1051.52 Q893.27 1054.69 893.27 1060.1 Q893.27 1065.68 889.798 1068.78 Q886.326 1071.86 880.006 1071.86 Q877.831 1071.86 875.562 1071.49 Q873.317 1071.12 870.909 1070.38 L870.909 1065.68 Q872.993 1066.82 875.215 1067.37 Q877.437 1067.93 879.914 1067.93 Q883.918 1067.93 886.256 1065.82 Q888.594 1063.72 888.594 1060.1 Q888.594 1056.49 886.256 1054.39 Q883.918 1052.28 879.914 1052.28 Q878.039 1052.28 876.164 1052.7 Q874.312 1053.11 872.368 1053.99 L872.368 1036.63 Z" fill="#000000" fill-rule="evenodd" fill-opacity="1" /><path clip-path="url(#clip660)" d="M 0 0 M908.34 1039.71 Q904.729 1039.71 902.9 1043.28 Q901.094 1046.82 901.094 1053.95 Q901.094 1061.05 902.9 1064.62 Q904.729 1068.16 908.34 1068.16 Q911.974 1068.16 913.779 1064.62 Q915.608 1061.05 915.608 1053.95 Q915.608 1046.82 913.779 1043.28 Q911.974 1039.71 908.34 1039.71 M908.34 1036.01 Q914.15 1036.01 917.205 1040.61 Q920.284 1045.2 920.284 1053.95 Q920.284 1062.67 917.205 1067.28 Q914.15 1071.86 908.34 1071.86 Q902.529 1071.86 899.451 1067.28 Q896.395 1062.67 896.395 1053.95 Q896.395 1045.2 899.451 1040.61 Q902.529 1036.01 908.34 1036.01 Z" fill="#000000" fill-rule="evenodd" fill-opacity="1" /><path clip-path="url(#clip660)" d="M 0 0 M935.353 1039.71 Q931.742 1039.71 929.914 1043.28 Q928.108 1046.82 928.108 1053.95 Q928.108 1061.05 929.914 1064.62 Q931.742 1068.16 935.353 1068.16 Q938.988 1068.16 940.793 1064.62 Q942.622 1061.05 942.622 1053.95 Q942.622 1046.82 940.793 1043.28 Q938.988 1039.71 935.353 1039.71 M935.353 1036.01 Q941.164 1036.01 944.219 1040.61 Q947.298 1045.2 947.298 1053.95 Q947.298 1062.67 944.219 1067.28 Q941.164 1071.86 935.353 1071.86 Q929.543 1071.86 926.465 1067.28 Q923.409 1062.67 923.409 1053.95 Q923.409 1045.2 926.465 1040.61 Q929.543 1036.01 935.353 1036.01 Z" fill="#000000" fill-rule="evenodd" fill-opacity="1" /><path clip-path="url(#clip660)" d="M 0 0 M1174.51 1036.63 L1196.74 1036.63 L1196.74 1038.62 L1184.19 1071.19 L1179.31 1071.19 L1191.11 1040.57 L1174.51 1040.57 L1174.51 1036.63 Z" fill="#000000" fill-rule="evenodd" fill-opacity="1" /><path clip-path="url(#clip660)" d="M 0 0 M1201.85 1036.63 L1220.21 1036.63 L1220.21 1040.57 L1206.13 1040.57 L1206.13 1049.04 Q1207.15 1048.69 1208.17 1048.53 Q1209.19 1048.34 1210.21 1048.34 Q1216 1048.34 1219.38 1051.52 Q1222.75 1054.69 1222.75 1060.1 Q1222.75 1065.68 1219.28 1068.78 Q1215.81 1071.86 1209.49 1071.86 Q1207.32 1071.86 1205.05 1071.49 Q1202.8 1071.12 1200.39 1070.38 L1200.39 1065.68 Q1202.48 1066.82 1204.7 1067.37 Q1206.92 1067.93 1209.4 1067.93 Q1213.4 1067.93 1215.74 1065.82 Q1218.08 1063.72 1218.08 1060.1 Q1218.08 1056.49 1215.74 1054.39 Q1213.4 1052.28 1209.4 1052.28 Q1207.52 1052.28 1205.65 1052.7 Q1203.8 1053.11 1201.85 1053.99 L1201.85 1036.63 Z" fill="#000000" fill-rule="evenodd" fill-opacity="1" /><path clip-path="url(#clip660)" d="M 0 0 M1237.82 1039.71 Q1234.21 1039.71 1232.38 1043.28 Q1230.58 1046.82 1230.58 1053.95 Q1230.58 1061.05 1232.38 1064.62 Q1234.21 1068.16 1237.82 1068.16 Q1241.46 1068.16 1243.26 1064.62 Q1245.09 1061.05 1245.09 1053.95 Q1245.09 1046.82 1243.26 1043.28 Q1241.46 1039.71 1237.82 1039.71 M1237.82 1036.01 Q1243.63 1036.01 1246.69 1040.61 Q1249.77 1045.2 1249.77 1053.95 Q1249.77 1062.67 1246.69 1067.28 Q1243.63 1071.86 1237.82 1071.86 Q1232.01 1071.86 1228.94 1067.28 Q1225.88 1062.67 1225.88 1053.95 Q1225.88 1045.2 1228.94 1040.61 Q1232.01 1036.01 1237.82 1036.01 Z" fill="#000000" fill-rule="evenodd" fill-opacity="1" /><path clip-path="url(#clip660)" d="M 0 0 M1465.04 1067.26 L1472.68 1067.26 L1472.68 1040.89 L1464.37 1042.56 L1464.37 1038.3 L1472.63 1036.63 L1477.31 1036.63 L1477.31 1067.26 L1484.95 1067.26 L1484.95 1071.19 L1465.04 1071.19 L1465.04 1067.26 Z" fill="#000000" fill-rule="evenodd" fill-opacity="1" /><path clip-path="url(#clip660)" d="M 0 0 M1500.02 1039.71 Q1496.41 1039.71 1494.58 1043.28 Q1492.77 1046.82 1492.77 1053.95 Q1492.77 1061.05 1494.58 1064.62 Q1496.41 1068.16 1500.02 1068.16 Q1503.65 1068.16 1505.46 1064.62 Q1507.29 1061.05 1507.29 1053.95 Q1507.29 1046.82 1505.46 1043.28 Q1503.65 1039.71 1500.02 1039.71 M1500.02 1036.01 Q1505.83 1036.01 1508.88 1040.61 Q1511.96 1045.2 1511.96 1053.95 Q1511.96 1062.67 1508.88 1067.28 Q1505.83 1071.86 1500.02 1071.86 Q1494.21 1071.86 1491.13 1067.28 Q1488.07 1062.67 1488.07 1053.95 Q1488.07 1045.2 1491.13 1040.61 Q1494.21 1036.01 1500.02 1036.01 Z" fill="#000000" fill-rule="evenodd" fill-opacity="1" /><path clip-path="url(#clip660)" d="M 0 0 M1527.03 1039.71 Q1523.42 1039.71 1521.59 1043.28 Q1519.79 1046.82 1519.79 1053.95 Q1519.79 1061.05 1521.59 1064.62 Q1523.42 1068.16 1527.03 1068.16 Q1530.67 1068.16 1532.47 1064.62 Q1534.3 1061.05 1534.3 1053.95 Q1534.3 1046.82 1532.47 1043.28 Q1530.67 1039.71 1527.03 1039.71 M1527.03 1036.01 Q1532.84 1036.01 1535.9 1040.61 Q1538.98 1045.2 1538.98 1053.95 Q1538.98 1062.67 1535.9 1067.28 Q1532.84 1071.86 1527.03 1071.86 Q1521.22 1071.86 1518.14 1067.28 Q1515.09 1062.67 1515.09 1053.95 Q1515.09 1045.2 1518.14 1040.61 Q1521.22 1036.01 1527.03 1036.01 Z" fill="#000000" fill-rule="evenodd" fill-opacity="1" /><path clip-path="url(#clip660)" d="M 0 0 M1554.04 1039.71 Q1550.43 1039.71 1548.6 1043.28 Q1546.8 1046.82 1546.8 1053.95 Q1546.8 1061.05 1548.6 1064.62 Q1550.43 1068.16 1554.04 1068.16 Q1557.68 1068.16 1559.48 1064.62 Q1561.31 1061.05 1561.31 1053.95 Q1561.31 1046.82 1559.48 1043.28 Q1557.68 1039.71 1554.04 1039.71 M1554.04 1036.01 Q1559.85 1036.01 1562.91 1040.61 Q1565.99 1045.2 1565.99 1053.95 Q1565.99 1062.67 1562.91 1067.28 Q1559.85 1071.86 1554.04 1071.86 Q1548.23 1071.86 1545.16 1067.28 Q1542.1 1062.67 1542.1 1053.95 Q1542.1 1045.2 1545.16 1040.61 Q1548.23 1036.01 1554.04 1036.01 Z" fill="#000000" fill-rule="evenodd" fill-opacity="1" /><path clip-path="url(#clip660)" d="M 0 0 M781.331 1104.01 L781.331 1114.14 L793.394 1114.14 L793.394 1118.69 L781.331 1118.69 L781.331 1138.04 Q781.331 1142.4 782.508 1143.64 Q783.718 1144.88 787.378 1144.88 L793.394 1144.88 L793.394 1149.78 L787.378 1149.78 Q780.598 1149.78 778.02 1147.27 Q775.442 1144.72 775.442 1138.04 L775.442 1118.69 L771.145 1118.69 L771.145 1114.14 L775.442 1114.14 L775.442 1104.01 L781.331 1104.01 Z" fill="#000000" fill-rule="evenodd" fill-opacity="1" /><path clip-path="url(#clip660)" d="M 0 0 M799.536 1114.14 L805.393 1114.14 L805.393 1149.78 L799.536 1149.78 L799.536 1114.14 M799.536 1100.26 L805.393 1100.26 L805.393 1107.67 L799.536 1107.67 L799.536 1100.26 Z" fill="#000000" fill-rule="evenodd" fill-opacity="1" /><path clip-path="url(#clip660)" d="M 0 0 M839.29 1120.98 Q841.486 1117.03 844.542 1115.15 Q847.598 1113.28 851.735 1113.28 Q857.305 1113.28 860.329 1117.19 Q863.353 1121.07 863.353 1128.27 L863.353 1149.78 L857.464 1149.78 L857.464 1128.46 Q857.464 1123.33 855.65 1120.85 Q853.836 1118.37 850.112 1118.37 Q845.561 1118.37 842.919 1121.39 Q840.277 1124.42 840.277 1129.64 L840.277 1149.78 L834.389 1149.78 L834.389 1128.46 Q834.389 1123.3 832.574 1120.85 Q830.76 1118.37 826.973 1118.37 Q822.485 1118.37 819.843 1121.42 Q817.201 1124.45 817.201 1129.64 L817.201 1149.78 L811.313 1149.78 L811.313 1114.14 L817.201 1114.14 L817.201 1119.67 Q819.206 1116.4 822.007 1114.84 Q824.808 1113.28 828.66 1113.28 Q832.543 1113.28 835.248 1115.25 Q837.985 1117.22 839.29 1120.98 Z" fill="#000000" fill-rule="evenodd" fill-opacity="1" /><path clip-path="url(#clip660)" d="M 0 0 M899.987 1130.5 L899.987 1133.36 L873.06 1133.36 Q873.442 1139.41 876.689 1142.59 Q879.967 1145.74 885.792 1145.74 Q889.166 1145.74 892.317 1144.91 Q895.499 1144.09 898.619 1142.43 L898.619 1147.97 Q895.468 1149.31 892.157 1150.01 Q888.847 1150.71 885.442 1150.71 Q876.912 1150.71 871.915 1145.74 Q866.949 1140.78 866.949 1132.31 Q866.949 1123.56 871.66 1118.43 Q876.402 1113.28 884.423 1113.28 Q891.616 1113.28 895.786 1117.92 Q899.987 1122.54 899.987 1130.5 M894.131 1128.78 Q894.067 1123.97 891.425 1121.11 Q888.815 1118.24 884.487 1118.24 Q879.585 1118.24 876.625 1121.01 Q873.697 1123.78 873.251 1128.81 L894.131 1128.78 Z" fill="#000000" fill-rule="evenodd" fill-opacity="1" /><path clip-path="url(#clip660)" d="M 0 0 M940.919 1100.32 Q936.654 1107.64 934.585 1114.8 Q932.516 1121.97 932.516 1129.32 Q932.516 1136.67 934.585 1143.9 Q936.686 1151.09 940.919 1158.38 L935.826 1158.38 Q931.052 1150.9 928.665 1143.67 Q926.31 1136.45 926.31 1129.32 Q926.31 1122.22 928.665 1115.03 Q931.02 1107.83 935.826 1100.32 L940.919 1100.32 Z" fill="#000000" fill-rule="evenodd" fill-opacity="1" /><path clip-path="url(#clip660)" d="M 0 0 M974.816 1120.98 Q977.012 1117.03 980.068 1115.15 Q983.123 1113.28 987.261 1113.28 Q992.831 1113.28 995.855 1117.19 Q998.879 1121.07 998.879 1128.27 L998.879 1149.78 L992.99 1149.78 L992.99 1128.46 Q992.99 1123.33 991.176 1120.85 Q989.362 1118.37 985.638 1118.37 Q981.086 1118.37 978.445 1121.39 Q975.803 1124.42 975.803 1129.64 L975.803 1149.78 L969.915 1149.78 L969.915 1128.46 Q969.915 1123.3 968.1 1120.85 Q966.286 1118.37 962.499 1118.37 Q958.011 1118.37 955.369 1121.42 Q952.727 1124.45 952.727 1129.64 L952.727 1149.78 L946.839 1149.78 L946.839 1114.14 L952.727 1114.14 L952.727 1119.67 Q954.732 1116.4 957.533 1114.84 Q960.334 1113.28 964.185 1113.28 Q968.069 1113.28 970.774 1115.25 Q973.511 1117.22 974.816 1120.98 Z" fill="#000000" fill-rule="evenodd" fill-opacity="1" /><path clip-path="url(#clip660)" d="M 0 0 M1027.75 1115.19 L1027.75 1120.72 Q1025.26 1119.45 1022.59 1118.81 Q1019.92 1118.18 1017.05 1118.18 Q1012.69 1118.18 1010.5 1119.51 Q1008.33 1120.85 1008.33 1123.53 Q1008.33 1125.56 1009.89 1126.74 Q1011.45 1127.89 1016.16 1128.94 L1018.17 1129.38 Q1024.41 1130.72 1027.01 1133.17 Q1029.66 1135.59 1029.66 1139.95 Q1029.66 1144.91 1025.71 1147.81 Q1021.8 1150.71 1014.92 1150.71 Q1012.06 1150.71 1008.94 1150.13 Q1005.85 1149.59 1002.41 1148.48 L1002.41 1142.43 Q1005.66 1144.12 1008.81 1144.98 Q1011.96 1145.81 1015.05 1145.81 Q1019.19 1145.81 1021.41 1144.4 Q1023.64 1142.97 1023.64 1140.39 Q1023.64 1138.01 1022.02 1136.73 Q1020.43 1135.46 1014.98 1134.28 L1012.95 1133.81 Q1007.5 1132.66 1005.09 1130.3 Q1002.67 1127.92 1002.67 1123.78 Q1002.67 1118.75 1006.23 1116.01 Q1009.8 1113.28 1016.35 1113.28 Q1019.6 1113.28 1022.46 1113.75 Q1025.33 1114.23 1027.75 1115.19 Z" fill="#000000" fill-rule="evenodd" fill-opacity="1" /><path clip-path="url(#clip660)" d="M 0 0 M1034.88 1100.32 L1039.97 1100.32 Q1044.74 1107.83 1047.1 1115.03 Q1049.49 1122.22 1049.49 1129.32 Q1049.49 1136.45 1047.1 1143.67 Q1044.74 1150.9 1039.97 1158.38 L1034.88 1158.38 Q1039.11 1151.09 1041.18 1143.9 Q1043.28 1136.67 1043.28 1129.32 Q1043.28 1121.97 1041.18 1114.8 Q1039.11 1107.64 1034.88 1100.32 Z" fill="#000000" fill-rule="evenodd" fill-opacity="1" /><polyline clip-path="url(#clip662)" style="stroke:#000000; stroke-width:2; stroke-opacity:0.1; fill:none" points="
  267.875,932.741 1552.76,932.741 
  "/>
<polyline clip-path="url(#clip662)" style="stroke:#000000; stroke-width:2; stroke-opacity:0.1; fill:none" points="
  267.875,822.235 1552.76,822.235 
  "/>
<polyline clip-path="url(#clip662)" style="stroke:#000000; stroke-width:2; stroke-opacity:0.1; fill:none" points="
  267.875,711.73 1552.76,711.73 
  "/>
<polyline clip-path="url(#clip662)" style="stroke:#000000; stroke-width:2; stroke-opacity:0.1; fill:none" points="
  267.875,601.224 1552.76,601.224 
  "/>
<polyline clip-path="url(#clip662)" style="stroke:#000000; stroke-width:2; stroke-opacity:0.1; fill:none" points="
  267.875,490.718 1552.76,490.718 
  "/>
<polyline clip-path="url(#clip662)" style="stroke:#000000; stroke-width:2; stroke-opacity:0.1; fill:none" points="
  267.875,380.212 1552.76,380.212 
  "/>
<polyline clip-path="url(#clip662)" style="stroke:#000000; stroke-width:2; stroke-opacity:0.1; fill:none" points="
  267.875,269.706 1552.76,269.706 
  "/>
<polyline clip-path="url(#clip660)" style="stroke:#000000; stroke-width:4; stroke-opacity:1; fill:none" points="
  267.875,1016.92 267.875,179.632 
  "/>
<polyline clip-path="url(#clip660)" style="stroke:#000000; stroke-width:4; stroke-opacity:1; fill:none" points="
  267.875,932.741 283.294,932.741 
  "/>
<polyline clip-path="url(#clip660)" style="stroke:#000000; stroke-width:4; stroke-opacity:1; fill:none" points="
  267.875,822.235 283.294,822.235 
  "/>
<polyline clip-path="url(#clip660)" style="stroke:#000000; stroke-width:4; stroke-opacity:1; fill:none" points="
  267.875,711.73 283.294,711.73 
  "/>
<polyline clip-path="url(#clip660)" style="stroke:#000000; stroke-width:4; stroke-opacity:1; fill:none" points="
  267.875,601.224 283.294,601.224 
  "/>
<polyline clip-path="url(#clip660)" style="stroke:#000000; stroke-width:4; stroke-opacity:1; fill:none" points="
  267.875,490.718 283.294,490.718 
  "/>
<polyline clip-path="url(#clip660)" style="stroke:#000000; stroke-width:4; stroke-opacity:1; fill:none" points="
  267.875,380.212 283.294,380.212 
  "/>
<polyline clip-path="url(#clip660)" style="stroke:#000000; stroke-width:4; stroke-opacity:1; fill:none" points="
  267.875,269.706 283.294,269.706 
  "/>
<path clip-path="url(#clip660)" d="M 0 0 M125.103 933.193 L154.779 933.193 L154.779 937.128 L125.103 937.128 L125.103 933.193 Z" fill="#000000" fill-rule="evenodd" fill-opacity="1" /><path clip-path="url(#clip660)" d="M 0 0 M169.848 918.54 Q166.237 918.54 164.408 922.105 Q162.603 925.646 162.603 932.776 Q162.603 939.882 164.408 943.447 Q166.237 946.989 169.848 946.989 Q173.482 946.989 175.288 943.447 Q177.117 939.882 177.117 932.776 Q177.117 925.646 175.288 922.105 Q173.482 918.54 169.848 918.54 M169.848 914.836 Q175.658 914.836 178.714 919.443 Q181.792 924.026 181.792 932.776 Q181.792 941.503 178.714 946.109 Q175.658 950.692 169.848 950.692 Q164.038 950.692 160.959 946.109 Q157.904 941.503 157.904 932.776 Q157.904 924.026 160.959 919.443 Q164.038 914.836 169.848 914.836 Z" fill="#000000" fill-rule="evenodd" fill-opacity="1" /><path clip-path="url(#clip660)" d="M 0 0 M186.862 944.142 L191.746 944.142 L191.746 950.021 L186.862 950.021 L186.862 944.142 Z" fill="#000000" fill-rule="evenodd" fill-opacity="1" /><path clip-path="url(#clip660)" d="M 0 0 M195.635 915.461 L217.857 915.461 L217.857 917.452 L205.311 950.021 L200.427 950.021 L212.232 919.396 L195.635 919.396 L195.635 915.461 Z" fill="#000000" fill-rule="evenodd" fill-opacity="1" /><path clip-path="url(#clip660)" d="M 0 0 M222.973 915.461 L241.329 915.461 L241.329 919.396 L227.255 919.396 L227.255 927.869 Q228.274 927.521 229.292 927.359 Q230.311 927.174 231.329 927.174 Q237.116 927.174 240.496 930.345 Q243.875 933.517 243.875 938.933 Q243.875 944.512 240.403 947.614 Q236.931 950.692 230.612 950.692 Q228.436 950.692 226.167 950.322 Q223.922 949.952 221.514 949.211 L221.514 944.512 Q223.598 945.646 225.82 946.202 Q228.042 946.757 230.519 946.757 Q234.524 946.757 236.862 944.651 Q239.2 942.544 239.2 938.933 Q239.2 935.322 236.862 933.216 Q234.524 931.109 230.519 931.109 Q228.644 931.109 226.769 931.526 Q224.917 931.943 222.973 932.822 L222.973 915.461 Z" fill="#000000" fill-rule="evenodd" fill-opacity="1" /><path clip-path="url(#clip660)" d="M 0 0 M124.2 822.687 L153.876 822.687 L153.876 826.622 L124.2 826.622 L124.2 822.687 Z" fill="#000000" fill-rule="evenodd" fill-opacity="1" /><path clip-path="url(#clip660)" d="M 0 0 M168.945 808.034 Q165.334 808.034 163.506 811.599 Q161.7 815.14 161.7 822.27 Q161.7 829.377 163.506 832.941 Q165.334 836.483 168.945 836.483 Q172.58 836.483 174.385 832.941 Q176.214 829.377 176.214 822.27 Q176.214 815.14 174.385 811.599 Q172.58 808.034 168.945 808.034 M168.945 804.33 Q174.755 804.33 177.811 808.937 Q180.89 813.52 180.89 822.27 Q180.89 830.997 177.811 835.603 Q174.755 840.187 168.945 840.187 Q163.135 840.187 160.056 835.603 Q157.001 830.997 157.001 822.27 Q157.001 813.52 160.056 808.937 Q163.135 804.33 168.945 804.33 Z" fill="#000000" fill-rule="evenodd" fill-opacity="1" /><path clip-path="url(#clip660)" d="M 0 0 M185.959 833.636 L190.843 833.636 L190.843 839.515 L185.959 839.515 L185.959 833.636 Z" fill="#000000" fill-rule="evenodd" fill-opacity="1" /><path clip-path="url(#clip660)" d="M 0 0 M195.959 804.955 L214.315 804.955 L214.315 808.891 L200.241 808.891 L200.241 817.363 Q201.26 817.015 202.278 816.853 Q203.297 816.668 204.315 816.668 Q210.102 816.668 213.482 819.84 Q216.862 823.011 216.862 828.427 Q216.862 834.006 213.389 837.108 Q209.917 840.187 203.598 840.187 Q201.422 840.187 199.153 839.816 Q196.908 839.446 194.501 838.705 L194.501 834.006 Q196.584 835.14 198.806 835.696 Q201.028 836.251 203.505 836.251 Q207.51 836.251 209.848 834.145 Q212.186 832.039 212.186 828.427 Q212.186 824.816 209.848 822.71 Q207.51 820.603 203.505 820.603 Q201.63 820.603 199.755 821.02 Q197.903 821.437 195.959 822.316 L195.959 804.955 Z" fill="#000000" fill-rule="evenodd" fill-opacity="1" /><path clip-path="url(#clip660)" d="M 0 0 M231.931 808.034 Q228.32 808.034 226.491 811.599 Q224.686 815.14 224.686 822.27 Q224.686 829.377 226.491 832.941 Q228.32 836.483 231.931 836.483 Q235.565 836.483 237.371 832.941 Q239.2 829.377 239.2 822.27 Q239.2 815.14 237.371 811.599 Q235.565 808.034 231.931 808.034 M231.931 804.33 Q237.741 804.33 240.797 808.937 Q243.875 813.52 243.875 822.27 Q243.875 830.997 240.797 835.603 Q237.741 840.187 231.931 840.187 Q226.121 840.187 223.042 835.603 Q219.987 830.997 219.987 822.27 Q219.987 813.52 223.042 808.937 Q226.121 804.33 231.931 804.33 Z" fill="#000000" fill-rule="evenodd" fill-opacity="1" /><path clip-path="url(#clip660)" d="M 0 0 M125.797 712.181 L155.473 712.181 L155.473 716.116 L125.797 716.116 L125.797 712.181 Z" fill="#000000" fill-rule="evenodd" fill-opacity="1" /><path clip-path="url(#clip660)" d="M 0 0 M170.543 697.528 Q166.931 697.528 165.103 701.093 Q163.297 704.635 163.297 711.764 Q163.297 718.871 165.103 722.435 Q166.931 725.977 170.543 725.977 Q174.177 725.977 175.982 722.435 Q177.811 718.871 177.811 711.764 Q177.811 704.635 175.982 701.093 Q174.177 697.528 170.543 697.528 M170.543 693.825 Q176.353 693.825 179.408 698.431 Q182.487 703.014 182.487 711.764 Q182.487 720.491 179.408 725.098 Q176.353 729.681 170.543 729.681 Q164.732 729.681 161.654 725.098 Q158.598 720.491 158.598 711.764 Q158.598 703.014 161.654 698.431 Q164.732 693.825 170.543 693.825 Z" fill="#000000" fill-rule="evenodd" fill-opacity="1" /><path clip-path="url(#clip660)" d="M 0 0 M187.556 723.13 L192.441 723.13 L192.441 729.01 L187.556 729.01 L187.556 723.13 Z" fill="#000000" fill-rule="evenodd" fill-opacity="1" /><path clip-path="url(#clip660)" d="M 0 0 M201.538 725.074 L217.857 725.074 L217.857 729.01 L195.913 729.01 L195.913 725.074 Q198.575 722.32 203.158 717.69 Q207.765 713.037 208.945 711.695 Q211.19 709.172 212.07 707.436 Q212.973 705.676 212.973 703.987 Q212.973 701.232 211.028 699.496 Q209.107 697.76 206.005 697.76 Q203.806 697.76 201.353 698.524 Q198.922 699.287 196.144 700.838 L196.144 696.116 Q198.968 694.982 201.422 694.403 Q203.876 693.825 205.913 693.825 Q211.283 693.825 214.477 696.51 Q217.672 699.195 217.672 703.686 Q217.672 705.815 216.862 707.736 Q216.075 709.635 213.968 712.227 Q213.389 712.899 210.288 716.116 Q207.186 719.311 201.538 725.074 Z" fill="#000000" fill-rule="evenodd" fill-opacity="1" /><path clip-path="url(#clip660)" d="M 0 0 M222.973 694.45 L241.329 694.45 L241.329 698.385 L227.255 698.385 L227.255 706.857 Q228.274 706.51 229.292 706.348 Q230.311 706.162 231.329 706.162 Q237.116 706.162 240.496 709.334 Q243.875 712.505 243.875 717.922 Q243.875 723.5 240.403 726.602 Q236.931 729.681 230.612 729.681 Q228.436 729.681 226.167 729.31 Q223.922 728.94 221.514 728.199 L221.514 723.5 Q223.598 724.635 225.82 725.19 Q228.042 725.746 230.519 725.746 Q234.524 725.746 236.862 723.639 Q239.2 721.533 239.2 717.922 Q239.2 714.311 236.862 712.204 Q234.524 710.098 230.519 710.098 Q228.644 710.098 226.769 710.514 Q224.917 710.931 222.973 711.811 L222.973 694.45 Z" fill="#000000" fill-rule="evenodd" fill-opacity="1" /><path clip-path="url(#clip660)" d="M 0 0 M167.95 587.022 Q164.339 587.022 162.51 590.587 Q160.705 594.129 160.705 601.258 Q160.705 608.365 162.51 611.93 Q164.339 615.471 167.95 615.471 Q171.584 615.471 173.39 611.93 Q175.218 608.365 175.218 601.258 Q175.218 594.129 173.39 590.587 Q171.584 587.022 167.95 587.022 M167.95 583.319 Q173.76 583.319 176.816 587.925 Q179.894 592.508 179.894 601.258 Q179.894 609.985 176.816 614.592 Q173.76 619.175 167.95 619.175 Q162.14 619.175 159.061 614.592 Q156.006 609.985 156.006 601.258 Q156.006 592.508 159.061 587.925 Q162.14 583.319 167.95 583.319 Z" fill="#000000" fill-rule="evenodd" fill-opacity="1" /><path clip-path="url(#clip660)" d="M 0 0 M184.964 612.624 L189.848 612.624 L189.848 618.504 L184.964 618.504 L184.964 612.624 Z" fill="#000000" fill-rule="evenodd" fill-opacity="1" /><path clip-path="url(#clip660)" d="M 0 0 M204.917 587.022 Q201.306 587.022 199.478 590.587 Q197.672 594.129 197.672 601.258 Q197.672 608.365 199.478 611.93 Q201.306 615.471 204.917 615.471 Q208.552 615.471 210.357 611.93 Q212.186 608.365 212.186 601.258 Q212.186 594.129 210.357 590.587 Q208.552 587.022 204.917 587.022 M204.917 583.319 Q210.727 583.319 213.783 587.925 Q216.862 592.508 216.862 601.258 Q216.862 609.985 213.783 614.592 Q210.727 619.175 204.917 619.175 Q199.107 619.175 196.028 614.592 Q192.973 609.985 192.973 601.258 Q192.973 592.508 196.028 587.925 Q199.107 583.319 204.917 583.319 Z" fill="#000000" fill-rule="evenodd" fill-opacity="1" /><path clip-path="url(#clip660)" d="M 0 0 M231.931 587.022 Q228.32 587.022 226.491 590.587 Q224.686 594.129 224.686 601.258 Q224.686 608.365 226.491 611.93 Q228.32 615.471 231.931 615.471 Q235.565 615.471 237.371 611.93 Q239.2 608.365 239.2 601.258 Q239.2 594.129 237.371 590.587 Q235.565 587.022 231.931 587.022 M231.931 583.319 Q237.741 583.319 240.797 587.925 Q243.875 592.508 243.875 601.258 Q243.875 609.985 240.797 614.592 Q237.741 619.175 231.931 619.175 Q226.121 619.175 223.042 614.592 Q219.987 609.985 219.987 601.258 Q219.987 592.508 223.042 587.925 Q226.121 583.319 231.931 583.319 Z" fill="#000000" fill-rule="evenodd" fill-opacity="1" /><path clip-path="url(#clip660)" d="M 0 0 M170.543 476.517 Q166.931 476.517 165.103 480.081 Q163.297 483.623 163.297 490.753 Q163.297 497.859 165.103 501.424 Q166.931 504.965 170.543 504.965 Q174.177 504.965 175.982 501.424 Q177.811 497.859 177.811 490.753 Q177.811 483.623 175.982 480.081 Q174.177 476.517 170.543 476.517 M170.543 472.813 Q176.353 472.813 179.408 477.419 Q182.487 482.003 182.487 490.753 Q182.487 499.479 179.408 504.086 Q176.353 508.669 170.543 508.669 Q164.732 508.669 161.654 504.086 Q158.598 499.479 158.598 490.753 Q158.598 482.003 161.654 477.419 Q164.732 472.813 170.543 472.813 Z" fill="#000000" fill-rule="evenodd" fill-opacity="1" /><path clip-path="url(#clip660)" d="M 0 0 M187.556 502.118 L192.441 502.118 L192.441 507.998 L187.556 507.998 L187.556 502.118 Z" fill="#000000" fill-rule="evenodd" fill-opacity="1" /><path clip-path="url(#clip660)" d="M 0 0 M201.538 504.063 L217.857 504.063 L217.857 507.998 L195.913 507.998 L195.913 504.063 Q198.575 501.308 203.158 496.679 Q207.765 492.026 208.945 490.683 Q211.19 488.16 212.07 486.424 Q212.973 484.665 212.973 482.975 Q212.973 480.22 211.028 478.484 Q209.107 476.748 206.005 476.748 Q203.806 476.748 201.353 477.512 Q198.922 478.276 196.144 479.827 L196.144 475.105 Q198.968 473.97 201.422 473.392 Q203.876 472.813 205.913 472.813 Q211.283 472.813 214.477 475.498 Q217.672 478.183 217.672 482.674 Q217.672 484.804 216.862 486.725 Q216.075 488.623 213.968 491.216 Q213.389 491.887 210.288 495.104 Q207.186 498.299 201.538 504.063 Z" fill="#000000" fill-rule="evenodd" fill-opacity="1" /><path clip-path="url(#clip660)" d="M 0 0 M222.973 473.438 L241.329 473.438 L241.329 477.373 L227.255 477.373 L227.255 485.845 Q228.274 485.498 229.292 485.336 Q230.311 485.151 231.329 485.151 Q237.116 485.151 240.496 488.322 Q243.875 491.493 243.875 496.91 Q243.875 502.489 240.403 505.59 Q236.931 508.669 230.612 508.669 Q228.436 508.669 226.167 508.299 Q223.922 507.928 221.514 507.188 L221.514 502.489 Q223.598 503.623 225.82 504.178 Q228.042 504.734 230.519 504.734 Q234.524 504.734 236.862 502.628 Q239.2 500.521 239.2 496.91 Q239.2 493.299 236.862 491.192 Q234.524 489.086 230.519 489.086 Q228.644 489.086 226.769 489.503 Q224.917 489.919 222.973 490.799 L222.973 473.438 Z" fill="#000000" fill-rule="evenodd" fill-opacity="1" /><path clip-path="url(#clip660)" d="M 0 0 M168.945 366.011 Q165.334 366.011 163.506 369.576 Q161.7 373.117 161.7 380.247 Q161.7 387.353 163.506 390.918 Q165.334 394.46 168.945 394.46 Q172.58 394.46 174.385 390.918 Q176.214 387.353 176.214 380.247 Q176.214 373.117 174.385 369.576 Q172.58 366.011 168.945 366.011 M168.945 362.307 Q174.755 362.307 177.811 366.914 Q180.89 371.497 180.89 380.247 Q180.89 388.974 177.811 393.58 Q174.755 398.163 168.945 398.163 Q163.135 398.163 160.056 393.58 Q157.001 388.974 157.001 380.247 Q157.001 371.497 160.056 366.914 Q163.135 362.307 168.945 362.307 Z" fill="#000000" fill-rule="evenodd" fill-opacity="1" /><path clip-path="url(#clip660)" d="M 0 0 M185.959 391.612 L190.843 391.612 L190.843 397.492 L185.959 397.492 L185.959 391.612 Z" fill="#000000" fill-rule="evenodd" fill-opacity="1" /><path clip-path="url(#clip660)" d="M 0 0 M195.959 362.932 L214.315 362.932 L214.315 366.867 L200.241 366.867 L200.241 375.339 Q201.26 374.992 202.278 374.83 Q203.297 374.645 204.315 374.645 Q210.102 374.645 213.482 377.816 Q216.862 380.988 216.862 386.404 Q216.862 391.983 213.389 395.085 Q209.917 398.163 203.598 398.163 Q201.422 398.163 199.153 397.793 Q196.908 397.423 194.501 396.682 L194.501 391.983 Q196.584 393.117 198.806 393.673 Q201.028 394.228 203.505 394.228 Q207.51 394.228 209.848 392.122 Q212.186 390.015 212.186 386.404 Q212.186 382.793 209.848 380.687 Q207.51 378.58 203.505 378.58 Q201.63 378.58 199.755 378.997 Q197.903 379.413 195.959 380.293 L195.959 362.932 Z" fill="#000000" fill-rule="evenodd" fill-opacity="1" /><path clip-path="url(#clip660)" d="M 0 0 M231.931 366.011 Q228.32 366.011 226.491 369.576 Q224.686 373.117 224.686 380.247 Q224.686 387.353 226.491 390.918 Q228.32 394.46 231.931 394.46 Q235.565 394.46 237.371 390.918 Q239.2 387.353 239.2 380.247 Q239.2 373.117 237.371 369.576 Q235.565 366.011 231.931 366.011 M231.931 362.307 Q237.741 362.307 240.797 366.914 Q243.875 371.497 243.875 380.247 Q243.875 388.974 240.797 393.58 Q237.741 398.163 231.931 398.163 Q226.121 398.163 223.042 393.58 Q219.987 388.974 219.987 380.247 Q219.987 371.497 223.042 366.914 Q226.121 362.307 231.931 362.307 Z" fill="#000000" fill-rule="evenodd" fill-opacity="1" /><path clip-path="url(#clip660)" d="M 0 0 M169.848 255.505 Q166.237 255.505 164.408 259.07 Q162.603 262.611 162.603 269.741 Q162.603 276.847 164.408 280.412 Q166.237 283.954 169.848 283.954 Q173.482 283.954 175.288 280.412 Q177.117 276.847 177.117 269.741 Q177.117 262.611 175.288 259.07 Q173.482 255.505 169.848 255.505 M169.848 251.801 Q175.658 251.801 178.714 256.408 Q181.792 260.991 181.792 269.741 Q181.792 278.468 178.714 283.074 Q175.658 287.658 169.848 287.658 Q164.038 287.658 160.959 283.074 Q157.904 278.468 157.904 269.741 Q157.904 260.991 160.959 256.408 Q164.038 251.801 169.848 251.801 Z" fill="#000000" fill-rule="evenodd" fill-opacity="1" /><path clip-path="url(#clip660)" d="M 0 0 M186.862 281.107 L191.746 281.107 L191.746 286.986 L186.862 286.986 L186.862 281.107 Z" fill="#000000" fill-rule="evenodd" fill-opacity="1" /><path clip-path="url(#clip660)" d="M 0 0 M195.635 252.426 L217.857 252.426 L217.857 254.417 L205.311 286.986 L200.427 286.986 L212.232 256.361 L195.635 256.361 L195.635 252.426 Z" fill="#000000" fill-rule="evenodd" fill-opacity="1" /><path clip-path="url(#clip660)" d="M 0 0 M222.973 252.426 L241.329 252.426 L241.329 256.361 L227.255 256.361 L227.255 264.834 Q228.274 264.486 229.292 264.324 Q230.311 264.139 231.329 264.139 Q237.116 264.139 240.496 267.31 Q243.875 270.482 243.875 275.898 Q243.875 281.477 240.403 284.579 Q236.931 287.658 230.612 287.658 Q228.436 287.658 226.167 287.287 Q223.922 286.917 221.514 286.176 L221.514 281.477 Q223.598 282.611 225.82 283.167 Q228.042 283.722 230.519 283.722 Q234.524 283.722 236.862 281.616 Q239.2 279.509 239.2 275.898 Q239.2 272.287 236.862 270.181 Q234.524 268.074 230.519 268.074 Q228.644 268.074 226.769 268.491 Q224.917 268.908 222.973 269.787 L222.973 252.426 Z" fill="#000000" fill-rule="evenodd" fill-opacity="1" /><path clip-path="url(#clip660)" d="M 0 0 M44.758 686.234 L68.4066 694.955 L68.4066 677.481 L44.758 686.234 M38.4242 689.863 L38.4242 682.574 L85.9442 664.463 L85.9442 671.147 L73.7538 675.476 L73.7538 696.897 L85.9442 701.225 L85.9442 708.005 L38.4242 689.863 Z" fill="#000000" fill-rule="evenodd" fill-opacity="1" /><path clip-path="url(#clip660)" d="M 0 0 M51.6648 633.813 L57.1393 633.813 Q55.7707 636.295 55.1023 638.81 Q54.4021 641.292 54.4021 643.839 Q54.4021 649.536 58.0305 652.687 Q61.6272 655.838 68.152 655.838 Q74.6769 655.838 78.3053 652.687 Q81.9019 649.536 81.9019 643.839 Q81.9019 641.292 81.2335 638.81 Q80.5333 636.295 79.1647 633.813 L84.5755 633.813 Q85.7214 636.263 86.2943 638.905 Q86.8672 641.515 86.8672 644.475 Q86.8672 652.528 81.8064 657.27 Q76.7457 662.013 68.152 662.013 Q59.431 662.013 54.4339 657.238 Q49.4368 652.432 49.4368 644.093 Q49.4368 641.388 50.0097 638.81 Q50.5508 636.232 51.6648 633.813 Z" fill="#000000" fill-rule="evenodd" fill-opacity="1" /><path clip-path="url(#clip660)" d="M 0 0 M40.1747 621.877 L50.2962 621.877 L50.2962 609.814 L54.8477 609.814 L54.8477 621.877 L74.1994 621.877 Q78.5599 621.877 79.8013 620.699 Q81.0426 619.49 81.0426 615.829 L81.0426 609.814 L85.9442 609.814 L85.9442 615.829 Q85.9442 622.609 83.4297 625.187 Q80.8834 627.765 74.1994 627.765 L54.8477 627.765 L54.8477 632.062 L50.2962 632.062 L50.2962 627.765 L40.1747 627.765 L40.1747 621.877 Z" fill="#000000" fill-rule="evenodd" fill-opacity="1" /><path clip-path="url(#clip660)" d="M 0 0 M50.2962 603.671 L50.2962 597.814 L85.9442 597.814 L85.9442 603.671 L50.2962 603.671 M36.419 603.671 L36.419 597.814 L43.835 597.814 L43.835 603.671 L36.419 603.671 Z" fill="#000000" fill-rule="evenodd" fill-opacity="1" /><path clip-path="url(#clip660)" d="M 0 0 M50.2962 595.873 L50.2962 589.666 L80.215 578.526 L50.2962 567.386 L50.2962 561.18 L85.9442 574.548 L85.9442 582.505 L50.2962 595.873 Z" fill="#000000" fill-rule="evenodd" fill-opacity="1" /><path clip-path="url(#clip660)" d="M 0 0 M50.2962 555.037 L50.2962 549.18 L85.9442 549.18 L85.9442 555.037 L50.2962 555.037 M36.419 555.037 L36.419 549.18 L43.835 549.18 L43.835 555.037 L36.419 555.037 Z" fill="#000000" fill-rule="evenodd" fill-opacity="1" /><path clip-path="url(#clip660)" d="M 0 0 M40.1747 537.245 L50.2962 537.245 L50.2962 525.182 L54.8477 525.182 L54.8477 537.245 L74.1994 537.245 Q78.5599 537.245 79.8013 536.067 Q81.0426 534.858 81.0426 531.197 L81.0426 525.182 L85.9442 525.182 L85.9442 531.197 Q85.9442 537.977 83.4297 540.555 Q80.8834 543.133 74.1994 543.133 L54.8477 543.133 L54.8477 547.43 L50.2962 547.43 L50.2962 543.133 L40.1747 543.133 L40.1747 537.245 Z" fill="#000000" fill-rule="evenodd" fill-opacity="1" /><path clip-path="url(#clip660)" d="M 0 0 M89.2543 504.207 Q95.62 506.689 97.5616 509.045 Q99.5031 511.4 99.5031 515.347 L99.5031 520.026 L94.6015 520.026 L94.6015 516.588 Q94.6015 514.169 93.4557 512.832 Q92.3099 511.495 88.0448 509.872 L85.3712 508.822 L50.2962 523.24 L50.2962 517.034 L78.178 505.894 L50.2962 494.754 L50.2962 488.547 L89.2543 504.207 Z" fill="#000000" fill-rule="evenodd" fill-opacity="1" /><path clip-path="url(#clip660)" d="M 0 0 M619.658 10.368 L626.671 10.368 L626.671 62.208 L619.658 62.208 L619.658 10.368 Z" fill="#000000" fill-rule="evenodd" fill-opacity="1" /><path clip-path="url(#clip660)" d="M 0 0 M664.727 12.0694 L664.727 18.9096 Q660.734 16.9999 657.192 16.0624 Q653.65 15.1249 650.352 15.1249 Q644.623 15.1249 641.498 17.3471 Q638.407 19.5693 638.407 23.6665 Q638.407 27.104 640.456 28.8748 Q642.539 30.6109 648.303 31.6873 L652.539 32.5554 Q660.386 34.0484 664.102 37.8331 Q667.852 41.5831 667.852 47.9025 Q667.852 55.4372 662.782 59.3261 Q657.748 63.2149 647.991 63.2149 Q644.31 63.2149 640.144 62.3816 Q636.012 61.5483 631.567 59.9163 L631.567 52.6942 Q635.838 55.09 639.935 56.3053 Q644.032 57.5205 647.991 57.5205 Q653.998 57.5205 657.261 55.1594 Q660.525 52.7983 660.525 48.4234 Q660.525 44.6039 658.164 42.4512 Q655.838 40.2984 650.491 39.222 L646.22 38.3887 Q638.373 36.8262 634.866 33.4929 Q631.359 30.1596 631.359 24.2221 Q631.359 17.3471 636.185 13.3888 Q641.046 9.43051 649.553 9.43051 Q653.199 9.43051 656.984 10.0902 Q660.768 10.7499 664.727 12.0694 Z" fill="#000000" fill-rule="evenodd" fill-opacity="1" /><path clip-path="url(#clip660)" d="M 0 0 M674.831 10.368 L684.275 10.368 L707.261 53.7358 L707.261 10.368 L714.067 10.368 L714.067 62.208 L704.622 62.208 L681.636 18.8402 L681.636 62.208 L674.831 62.208 L674.831 10.368 Z" fill="#000000" fill-rule="evenodd" fill-opacity="1" /><path clip-path="url(#clip660)" d="M 0 0 M774.726 12.0694 L774.726 18.9096 Q770.733 16.9999 767.191 16.0624 Q763.65 15.1249 760.351 15.1249 Q754.622 15.1249 751.497 17.3471 Q748.407 19.5693 748.407 23.6665 Q748.407 27.104 750.455 28.8748 Q752.539 30.6109 758.303 31.6873 L762.539 32.5554 Q770.386 34.0484 774.101 37.8331 Q777.851 41.5831 777.851 47.9025 Q777.851 55.4372 772.782 59.3261 Q767.747 63.2149 757.99 63.2149 Q754.31 63.2149 750.143 62.3816 Q746.011 61.5483 741.567 59.9163 L741.567 52.6942 Q745.837 55.09 749.935 56.3053 Q754.032 57.5205 757.99 57.5205 Q763.997 57.5205 767.261 55.1594 Q770.525 52.7983 770.525 48.4234 Q770.525 44.6039 768.164 42.4512 Q765.837 40.2984 760.49 39.222 L756.219 38.3887 Q748.372 36.8262 744.865 33.4929 Q741.358 30.1596 741.358 24.2221 Q741.358 17.3471 746.185 13.3888 Q751.046 9.43051 759.553 9.43051 Q763.198 9.43051 766.983 10.0902 Q770.768 10.7499 774.726 12.0694 Z" fill="#000000" fill-rule="evenodd" fill-opacity="1" /><path clip-path="url(#clip660)" d="M 0 0 M784.552 23.3193 L790.941 23.3193 L790.941 62.208 L784.552 62.208 L784.552 23.3193 M784.552 8.18051 L790.941 8.18051 L790.941 16.2707 L784.552 16.2707 L784.552 8.18051 Z" fill="#000000" fill-rule="evenodd" fill-opacity="1" /><path clip-path="url(#clip660)" d="M 0 0 M827.92 30.7846 Q830.316 26.479 833.649 24.4304 Q836.983 22.3818 841.497 22.3818 Q847.573 22.3818 850.872 26.6526 Q854.17 30.8887 854.17 38.7359 L854.17 62.208 L847.747 62.208 L847.747 38.9442 Q847.747 33.354 845.767 30.6457 Q843.788 27.9374 839.726 27.9374 Q834.761 27.9374 831.879 31.2359 Q828.997 34.5345 828.997 40.229 L828.997 62.208 L822.573 62.208 L822.573 38.9442 Q822.573 33.3193 820.594 30.6457 Q818.615 27.9374 814.483 27.9374 Q809.587 27.9374 806.705 31.2707 Q803.823 34.5693 803.823 40.229 L803.823 62.208 L797.4 62.208 L797.4 23.3193 L803.823 23.3193 L803.823 29.361 Q806.011 25.7846 809.066 24.0832 Q812.122 22.3818 816.323 22.3818 Q820.559 22.3818 823.511 24.5346 Q826.497 26.6874 827.92 30.7846 Z" fill="#000000" fill-rule="evenodd" fill-opacity="1" /><path clip-path="url(#clip660)" d="M 0 0 M860.212 46.8609 L860.212 23.3193 L866.601 23.3193 L866.601 46.6178 Q866.601 52.1386 868.753 54.9164 Q870.906 57.6594 875.212 57.6594 Q880.385 57.6594 883.371 54.3608 Q886.392 51.0622 886.392 45.3678 L886.392 23.3193 L892.781 23.3193 L892.781 62.208 L886.392 62.208 L886.392 56.2358 Q884.066 59.7775 880.976 61.5136 Q877.92 63.2149 873.858 63.2149 Q867.156 63.2149 863.684 59.0483 Q860.212 54.8817 860.212 46.8609 M876.288 22.3818 L876.288 22.3818 Z" fill="#000000" fill-rule="evenodd" fill-opacity="1" /><path clip-path="url(#clip660)" d="M 0 0 M899.482 8.18051 L905.871 8.18051 L905.871 62.208 L899.482 62.208 L899.482 8.18051 Z" fill="#000000" fill-rule="evenodd" fill-opacity="1" /><path clip-path="url(#clip660)" d="M 0 0 M930.246 42.6595 Q922.503 42.6595 919.517 44.4303 Q916.531 46.2011 916.531 50.472 Q916.531 53.8747 918.753 55.8886 Q921.01 57.8677 924.864 57.8677 Q930.177 57.8677 933.371 54.1178 Q936.6 50.3331 936.6 44.0831 L936.6 42.6595 L930.246 42.6595 M942.989 40.0206 L942.989 62.208 L936.6 62.208 L936.6 56.3053 Q934.413 59.8469 931.149 61.5483 Q927.885 63.2149 923.163 63.2149 Q917.191 63.2149 913.649 59.8816 Q910.142 56.5136 910.142 50.8886 Q910.142 44.3262 914.517 40.9928 Q918.927 37.6595 927.642 37.6595 L936.6 37.6595 L936.6 37.0345 Q936.6 32.6248 933.684 30.229 Q930.802 27.7985 925.559 27.7985 Q922.225 27.7985 919.066 28.5971 Q915.906 29.3957 912.989 30.9929 L912.989 25.0901 Q916.496 23.736 919.795 23.0763 Q923.093 22.3818 926.218 22.3818 Q934.656 22.3818 938.822 26.7568 Q942.989 31.1318 942.989 40.0206 Z" fill="#000000" fill-rule="evenodd" fill-opacity="1" /><path clip-path="url(#clip660)" d="M 0 0 M956.01 12.2777 L956.01 23.3193 L969.17 23.3193 L969.17 28.2846 L956.01 28.2846 L956.01 49.3956 Q956.01 54.1525 957.295 55.5066 Q958.614 56.8608 962.607 56.8608 L969.17 56.8608 L969.17 62.208 L962.607 62.208 Q955.211 62.208 952.399 59.465 Q949.586 56.6872 949.586 49.3956 L949.586 28.2846 L944.899 28.2846 L944.899 23.3193 L949.586 23.3193 L949.586 12.2777 L956.01 12.2777 Z" fill="#000000" fill-rule="evenodd" fill-opacity="1" /><path clip-path="url(#clip660)" d="M 0 0 M975.871 23.3193 L982.26 23.3193 L982.26 62.208 L975.871 62.208 L975.871 23.3193 M975.871 8.18051 L982.26 8.18051 L982.26 16.2707 L975.871 16.2707 L975.871 8.18051 Z" fill="#000000" fill-rule="evenodd" fill-opacity="1" /><path clip-path="url(#clip660)" d="M 0 0 M1004.03 27.7985 Q998.892 27.7985 995.905 31.8262 Q992.919 35.8193 992.919 42.7984 Q992.919 49.7775 995.871 53.8053 Q998.857 57.7983 1004.03 57.7983 Q1009.13 57.7983 1012.12 53.7705 Q1015.11 49.7428 1015.11 42.7984 Q1015.11 35.8887 1012.12 31.8609 Q1009.13 27.7985 1004.03 27.7985 M1004.03 22.3818 Q1012.36 22.3818 1017.12 27.7985 Q1021.88 33.2151 1021.88 42.7984 Q1021.88 52.3469 1017.12 57.7983 Q1012.36 63.2149 1004.03 63.2149 Q995.662 63.2149 990.906 57.7983 Q986.183 52.3469 986.183 42.7984 Q986.183 33.2151 990.906 27.7985 Q995.662 22.3818 1004.03 22.3818 Z" fill="#000000" fill-rule="evenodd" fill-opacity="1" /><path clip-path="url(#clip660)" d="M 0 0 M1060.91 38.7359 L1060.91 62.208 L1054.52 62.208 L1054.52 38.9442 Q1054.52 33.4234 1052.36 30.6804 Q1050.21 27.9374 1045.91 27.9374 Q1040.73 27.9374 1037.75 31.2359 Q1034.76 34.5345 1034.76 40.229 L1034.76 62.208 L1028.34 62.208 L1028.34 23.3193 L1034.76 23.3193 L1034.76 29.361 Q1037.05 25.854 1040.14 24.1179 Q1043.27 22.3818 1047.33 22.3818 Q1054.03 22.3818 1057.47 26.5485 Q1060.91 30.6804 1060.91 38.7359 Z" fill="#000000" fill-rule="evenodd" fill-opacity="1" /><path clip-path="url(#clip660)" d="M 0 0 M1092.33 56.3053 L1103.79 56.3053 L1103.79 16.7569 L1091.32 19.2568 L1091.32 12.868 L1103.72 10.368 L1110.73 10.368 L1110.73 56.3053 L1122.19 56.3053 L1122.19 62.208 L1092.33 62.208 L1092.33 56.3053 Z" fill="#000000" fill-rule="evenodd" fill-opacity="1" /><path clip-path="url(#clip660)" d="M 0 0 M1129.79 53.3886 L1137.12 53.3886 L1137.12 62.208 L1129.79 62.208 L1129.79 53.3886 Z" fill="#000000" fill-rule="evenodd" fill-opacity="1" /><path clip-path="url(#clip660)" d="M 0 0 M1163.99 16.4791 L1146.29 44.1525 L1163.99 44.1525 L1163.99 16.4791 M1162.15 10.368 L1170.97 10.368 L1170.97 44.1525 L1178.37 44.1525 L1178.37 49.9858 L1170.97 49.9858 L1170.97 62.208 L1163.99 62.208 L1163.99 49.9858 L1140.59 49.9858 L1140.59 43.215 L1162.15 10.368 Z" fill="#000000" fill-rule="evenodd" fill-opacity="1" /><path clip-path="url(#clip660)" d="M 0 0 M609.675 86.01 Q605.022 93.996 602.765 101.808 Q600.508 109.621 600.508 117.642 Q600.508 125.663 602.765 133.544 Q605.057 141.392 609.675 149.343 L604.119 149.343 Q598.911 141.183 596.307 133.301 Q593.738 125.419 593.738 117.642 Q593.738 109.899 596.307 102.052 Q598.876 94.2044 604.119 86.01 L609.675 86.01 Z" fill="#000000" fill-rule="evenodd" fill-opacity="1" /><path clip-path="url(#clip660)" d="M 0 0 M648.702 116.496 L648.702 139.968 L642.314 139.968 L642.314 116.704 Q642.314 111.183 640.161 108.44 Q638.008 105.697 633.703 105.697 Q628.529 105.697 625.543 108.996 Q622.557 112.295 622.557 117.989 L622.557 139.968 L616.133 139.968 L616.133 101.079 L622.557 101.079 L622.557 107.121 Q624.848 103.614 627.939 101.878 Q631.064 100.142 635.126 100.142 Q641.828 100.142 645.265 104.308 Q648.702 108.44 648.702 116.496 Z" fill="#000000" fill-rule="evenodd" fill-opacity="1" /><path clip-path="url(#clip660)" d="M 0 0 M688.668 118.926 L688.668 122.051 L659.293 122.051 Q659.709 128.649 663.251 132.121 Q666.827 135.558 673.182 135.558 Q676.862 135.558 680.3 134.656 Q683.772 133.753 687.175 131.947 L687.175 137.989 Q683.737 139.447 680.126 140.211 Q676.515 140.975 672.8 140.975 Q663.494 140.975 658.043 135.558 Q652.626 130.142 652.626 120.906 Q652.626 111.357 657.765 105.767 Q662.939 100.142 671.688 100.142 Q679.536 100.142 684.084 105.211 Q688.668 110.246 688.668 118.926 M682.279 117.051 Q682.209 111.808 679.327 108.683 Q676.48 105.558 671.758 105.558 Q666.411 105.558 663.182 108.579 Q659.987 111.6 659.501 117.086 L682.279 117.051 Z" fill="#000000" fill-rule="evenodd" fill-opacity="1" /><path clip-path="url(#clip660)" d="M 0 0 M701.688 90.0377 L701.688 101.079 L714.848 101.079 L714.848 106.045 L701.688 106.045 L701.688 127.156 Q701.688 131.912 702.973 133.267 Q704.292 134.621 708.286 134.621 L714.848 134.621 L714.848 139.968 L708.286 139.968 Q700.89 139.968 698.077 137.225 Q695.265 134.447 695.265 127.156 L695.265 106.045 L690.577 106.045 L690.577 101.079 L695.265 101.079 L695.265 90.0377 L701.688 90.0377 Z" fill="#000000" fill-rule="evenodd" fill-opacity="1" /><path clip-path="url(#clip660)" d="M 0 0 M728.494 134.065 L752.973 134.065 L752.973 139.968 L720.056 139.968 L720.056 134.065 Q724.049 129.933 730.924 122.989 Q737.834 116.01 739.605 113.996 Q742.973 110.211 744.292 107.607 Q745.646 104.968 745.646 102.433 Q745.646 98.3016 742.73 95.6974 Q739.848 93.0933 735.195 93.0933 Q731.896 93.0933 728.216 94.2391 Q724.57 95.3849 720.403 97.7113 L720.403 90.628 Q724.64 88.9266 728.32 88.0586 Q732.001 87.1905 735.056 87.1905 Q743.112 87.1905 747.903 91.2183 Q752.695 95.246 752.695 101.982 Q752.695 105.177 751.48 108.058 Q750.299 110.906 747.139 114.795 Q746.271 115.801 741.619 120.628 Q736.966 125.419 728.494 134.065 Z" fill="#000000" fill-rule="evenodd" fill-opacity="1" /><path clip-path="url(#clip660)" d="M 0 0 M761.306 131.149 L768.632 131.149 L768.632 137.121 L762.938 148.232 L758.459 148.232 L761.306 137.121 L761.306 131.149 Z" fill="#000000" fill-rule="evenodd" fill-opacity="1" /><path clip-path="url(#clip660)" d="M 0 0 M797.278 124.621 L797.278 101.079 L803.667 101.079 L803.667 124.378 Q803.667 129.899 805.82 132.676 Q807.972 135.419 812.278 135.419 Q817.452 135.419 820.438 132.121 Q823.459 128.822 823.459 123.128 L823.459 101.079 L829.847 101.079 L829.847 139.968 L823.459 139.968 L823.459 133.996 Q821.132 137.537 818.042 139.274 Q814.986 140.975 810.924 140.975 Q804.222 140.975 800.75 136.808 Q797.278 132.642 797.278 124.621 M813.354 100.142 L813.354 100.142 Z" fill="#000000" fill-rule="evenodd" fill-opacity="1" /><path clip-path="url(#clip660)" d="M 0 0 M855.021 128.197 L855.021 129.933 L836.514 129.933 Q836.792 133.614 839.014 135.558 Q841.271 137.503 845.264 137.503 Q847.59 137.503 849.778 136.982 Q851.931 136.496 854.083 135.489 L854.083 138.857 Q851.931 139.69 849.639 140.107 Q847.382 140.524 845.021 140.524 Q839.153 140.524 835.75 137.503 Q832.313 134.482 832.313 129.308 Q832.313 123.961 835.576 120.801 Q838.806 117.676 844.326 117.676 Q849.257 117.676 852.139 120.489 Q855.021 123.336 855.021 128.197 M850.993 127.121 Q850.958 124.204 849.153 122.433 Q847.347 120.697 844.361 120.697 Q840.993 120.697 838.979 122.399 Q836.965 124.065 836.653 127.121 L850.993 127.121 Z" fill="#000000" fill-rule="evenodd" fill-opacity="1" /><path clip-path="url(#clip660)" d="M 0 0 M862.556 107.677 L907.069 107.677 L907.069 113.51 L862.556 113.51 L862.556 107.677 M862.556 121.843 L907.069 121.843 L907.069 127.746 L862.556 127.746 L862.556 121.843 Z" fill="#000000" fill-rule="evenodd" fill-opacity="1" /><path clip-path="url(#clip660)" d="M 0 0 M915.889 134.065 L927.347 134.065 L927.347 94.5169 L914.882 97.0168 L914.882 90.628 L927.277 88.128 L934.291 88.128 L934.291 134.065 L945.75 134.065 L945.75 139.968 L915.889 139.968 L915.889 134.065 Z" fill="#000000" fill-rule="evenodd" fill-opacity="1" /><path clip-path="url(#clip660)" d="M 0 0 M949.222 117.642 L967.937 117.642 L967.937 123.336 L949.222 123.336 L949.222 117.642 Z" fill="#000000" fill-rule="evenodd" fill-opacity="1" /><path clip-path="url(#clip660)" d="M 0 0 M975.472 104.968 L975.472 98.6488 L1019.99 114.795 L1019.99 120.558 L975.472 136.704 L975.472 130.385 L1011.24 117.711 L975.472 104.968 Z" fill="#000000" fill-rule="evenodd" fill-opacity="1" /><path clip-path="url(#clip660)" d="M 0 0 M1033.63 134.065 L1058.11 134.065 L1058.11 139.968 L1025.19 139.968 L1025.19 134.065 Q1029.19 129.933 1036.06 122.989 Q1042.97 116.01 1044.74 113.996 Q1048.11 110.211 1049.43 107.607 Q1050.78 104.968 1050.78 102.433 Q1050.78 98.3016 1047.87 95.6974 Q1044.99 93.0933 1040.33 93.0933 Q1037.03 93.0933 1033.35 94.2391 Q1029.71 95.3849 1025.54 97.7113 L1025.54 90.628 Q1029.78 88.9266 1033.46 88.0586 Q1037.14 87.1905 1040.19 87.1905 Q1048.25 87.1905 1053.04 91.2183 Q1057.83 95.246 1057.83 101.982 Q1057.83 105.177 1056.62 108.058 Q1055.44 110.906 1052.28 114.795 Q1051.41 115.801 1046.76 120.628 Q1042.1 125.419 1033.63 134.065 Z" fill="#000000" fill-rule="evenodd" fill-opacity="1" /><path clip-path="url(#clip660)" d="M 0 0 M1066.44 131.149 L1073.77 131.149 L1073.77 137.121 L1068.08 148.232 L1063.6 148.232 L1066.44 137.121 L1066.44 131.149 Z" fill="#000000" fill-rule="evenodd" fill-opacity="1" /><path clip-path="url(#clip660)" d="M 0 0 M1102.42 124.621 L1102.42 101.079 L1108.8 101.079 L1108.8 124.378 Q1108.8 129.899 1110.96 132.676 Q1113.11 135.419 1117.42 135.419 Q1122.59 135.419 1125.57 132.121 Q1128.6 128.822 1128.6 123.128 L1128.6 101.079 L1134.98 101.079 L1134.98 139.968 L1128.6 139.968 L1128.6 133.996 Q1126.27 137.537 1123.18 139.274 Q1120.12 140.975 1116.06 140.975 Q1109.36 140.975 1105.89 136.808 Q1102.42 132.642 1102.42 124.621 M1118.49 100.142 L1118.49 100.142 Z" fill="#000000" fill-rule="evenodd" fill-opacity="1" /><path clip-path="url(#clip660)" d="M 0 0 M1139.22 118.197 L1143.25 118.197 L1143.25 139.968 L1139.22 139.968 L1139.22 118.197 M1139.22 109.725 L1143.25 109.725 L1143.25 114.239 L1139.22 114.239 L1139.22 109.725 Z" fill="#000000" fill-rule="evenodd" fill-opacity="1" /><path clip-path="url(#clip660)" d="M 0 0 M1150.78 107.677 L1195.3 107.677 L1195.3 113.51 L1150.78 113.51 L1150.78 107.677 M1150.78 121.843 L1195.3 121.843 L1195.3 127.746 L1150.78 127.746 L1150.78 121.843 Z" fill="#000000" fill-rule="evenodd" fill-opacity="1" /><path clip-path="url(#clip660)" d="M 0 0 M1204.12 134.065 L1215.57 134.065 L1215.57 94.5169 L1203.11 97.0168 L1203.11 90.628 L1215.51 88.128 L1222.52 88.128 L1222.52 134.065 L1233.98 134.065 L1233.98 139.968 L1204.12 139.968 L1204.12 134.065 Z" fill="#000000" fill-rule="evenodd" fill-opacity="1" /><path clip-path="url(#clip660)" d="M 0 0 M1239.67 86.01 L1245.23 86.01 Q1250.44 94.2044 1253 102.052 Q1255.61 109.899 1255.61 117.642 Q1255.61 125.419 1253 133.301 Q1250.44 141.183 1245.23 149.343 L1239.67 149.343 Q1244.29 141.392 1246.55 133.544 Q1248.84 125.663 1248.84 117.642 Q1248.84 109.621 1246.55 101.808 Q1244.29 93.996 1239.67 86.01 Z" fill="#000000" fill-rule="evenodd" fill-opacity="1" /><polyline clip-path="url(#clip662)" style="stroke:#009af9; stroke-width:4; stroke-opacity:1; fill:none" points="
  304.24,601.224 305.452,557.021 306.664,518.565 307.876,485.984 309.089,459.257 310.301,438.237 311.513,422.665 312.725,412.196 313.937,406.414 315.149,404.848 
  316.361,406.998 317.574,412.339 318.786,420.346 319.998,430.499 321.21,442.297 322.422,455.265 323.634,468.964 324.847,482.993 326.059,496.997 327.271,510.664 
  328.483,523.732 329.695,535.984 330.907,547.25 332.119,557.404 333.332,566.359 334.544,574.069 335.756,580.519 336.968,585.726 338.18,589.732 339.392,592.599 
  340.605,594.41 341.817,595.259 343.029,595.249 344.241,594.49 345.453,593.094 346.665,591.175 347.877,588.841 349.09,586.199 350.302,583.346 351.514,580.374 
  352.726,577.364 353.938,574.389 355.15,571.51 356.362,568.78 357.575,566.241 358.787,563.926 359.999,561.857 361.211,560.05 362.423,558.512 363.635,557.243 
  364.848,556.237 366.06,555.483 367.272,554.966 368.484,554.667 369.696,554.565 370.908,554.637 372.12,554.859 373.333,555.208 374.545,555.658 375.757,556.188 
  376.969,556.775 378.181,557.399 379.393,558.041 380.606,558.684 381.818,559.314 383.03,559.918 384.242,560.486 385.454,561.01 386.666,561.485 387.878,561.904 
  389.091,562.267 390.303,562.572 391.515,562.82 392.727,563.013 393.939,563.153 395.151,563.243 396.363,563.289 397.576,563.295 398.788,563.266 400,563.206 
  401.212,563.122 402.424,563.018 403.636,562.898 404.849,562.769 406.061,562.633 407.273,562.495 408.485,562.359 409.697,562.226 410.909,562.099 412.121,561.981 
  413.334,561.874 414.546,561.777 415.758,561.692 416.97,561.619 418.182,561.559 419.394,561.511 420.607,561.475 421.819,561.449 423.031,561.434 424.243,561.428 
  425.455,561.43 426.667,561.439 427.879,561.454 429.092,561.474 430.304,561.498 431.516,561.524 432.728,561.553 433.94,561.582 435.152,561.612 436.364,561.641 
  437.577,561.669 438.789,561.695 440.001,561.719 441.213,561.741 442.425,561.761 443.637,561.778 444.85,561.793 446.062,561.804 447.274,561.814 448.486,561.82 
  449.698,561.825 450.91,561.827 452.122,561.828 453.335,561.827 454.547,561.824 455.759,561.821 456.971,561.816 458.183,561.811 459.395,561.805 460.608,561.799 
  461.82,561.792 463.032,561.786 464.244,561.78 465.456,561.774 466.668,561.768 467.88,561.763 469.093,561.759 470.305,561.755 471.517,561.752 472.729,561.749 
  473.941,561.746 475.153,561.745 476.365,561.743 477.578,561.743 478.79,561.742 480.002,561.742 481.214,561.743 482.426,561.743 483.638,561.744 484.851,561.745 
  486.063,561.746 487.275,561.748 488.487,561.749 489.699,561.75 490.911,561.752 492.123,561.753 493.336,561.754 494.548,561.755 495.76,561.756 496.972,561.757 
  498.184,561.758 499.396,561.759 500.609,561.759 501.821,561.76 503.033,561.76 504.245,561.76 505.457,561.761 506.669,561.761 507.881,561.761 509.094,561.76 
  510.306,561.76 511.518,561.76 512.73,561.76 513.942,561.76 515.154,561.759 516.366,561.759 517.579,561.759 518.791,561.758 520.003,561.758 521.215,561.758 
  522.427,561.758 523.639,561.757 524.852,561.757 526.064,561.757 527.276,561.757 528.488,561.757 529.7,561.757 530.912,561.757 532.124,561.757 533.337,561.757 
  534.549,561.757 535.761,561.757 536.973,561.757 538.185,561.757 539.397,561.757 540.61,561.757 541.822,561.757 543.034,561.757 544.246,561.757 545.458,561.757 
  546.67,561.757 547.882,561.757 549.095,561.757 550.307,561.757 551.519,561.757 552.731,561.757 553.943,561.757 555.155,561.757 556.367,561.757 557.58,561.757 
  558.792,561.757 560.004,561.757 561.216,561.757 562.428,561.757 563.64,561.757 564.853,561.757 566.065,561.757 567.277,561.757 568.489,561.757 569.701,561.757 
  570.913,561.757 572.125,561.757 573.338,561.757 574.55,561.757 575.762,561.757 576.974,561.757 578.186,561.757 579.398,561.757 580.61,561.757 581.823,561.757 
  583.035,561.757 584.247,561.757 585.459,561.757 586.671,561.757 587.883,561.757 589.096,561.757 590.308,561.757 591.52,561.757 592.732,561.757 593.944,561.757 
  595.156,561.757 596.368,561.757 597.581,561.757 598.793,561.757 600.005,561.757 601.217,561.757 602.429,561.757 603.641,561.757 604.854,561.757 606.066,561.757 
  607.278,561.757 608.49,561.757 609.702,561.757 610.914,561.757 612.126,561.757 613.339,561.757 614.551,561.757 615.763,561.757 616.975,561.757 618.187,561.757 
  619.399,561.757 620.611,561.757 621.824,561.757 623.036,561.757 624.248,561.757 625.46,561.757 626.672,561.757 627.884,561.757 629.097,561.757 630.309,561.757 
  631.521,561.757 632.733,561.757 633.945,561.757 635.157,561.757 636.369,561.757 637.582,561.757 638.794,561.757 640.006,561.757 641.218,561.757 642.43,561.757 
  643.642,561.757 644.855,561.757 646.067,561.757 647.279,561.757 648.491,561.757 649.703,561.757 650.915,561.757 652.127,561.757 653.34,561.757 654.552,561.757 
  655.764,561.757 656.976,561.757 658.188,561.757 659.4,561.757 660.612,561.757 661.825,561.757 663.037,561.757 664.249,561.757 665.461,561.757 666.673,561.757 
  667.885,561.757 669.098,561.757 670.31,561.757 671.522,561.757 672.734,561.757 673.946,561.757 675.158,561.757 676.37,561.757 677.583,561.757 678.795,561.757 
  680.007,561.757 681.219,561.757 682.431,561.757 683.643,561.757 684.856,561.757 686.068,561.757 687.28,561.757 688.492,561.757 689.704,561.757 690.916,561.757 
  692.128,561.757 693.341,561.757 694.553,561.757 695.765,561.757 696.977,561.757 698.189,561.757 699.401,561.757 700.613,561.757 701.826,561.757 703.038,561.757 
  704.25,561.757 705.462,561.757 706.674,561.757 707.886,561.757 709.099,561.757 710.311,561.757 711.523,561.757 712.735,561.757 713.947,561.757 715.159,561.757 
  716.371,561.757 717.584,561.757 718.796,561.757 720.008,561.757 721.22,561.757 722.432,561.757 723.644,561.757 724.857,561.757 726.069,561.757 727.281,561.757 
  728.493,561.757 729.705,561.757 730.917,561.757 732.129,561.757 733.342,561.757 734.554,561.757 735.766,561.757 736.978,561.757 738.19,561.757 739.402,561.757 
  740.614,561.757 741.827,561.757 743.039,561.757 744.251,561.757 745.463,561.757 746.675,561.757 747.887,561.757 749.1,561.757 750.312,561.757 751.524,561.757 
  752.736,561.757 753.948,561.757 755.16,561.757 756.372,561.757 757.585,561.757 758.797,561.757 760.009,561.757 761.221,561.757 762.433,561.757 763.645,561.757 
  764.858,561.757 766.07,561.757 767.282,561.757 768.494,561.757 769.706,561.757 770.918,561.757 772.13,561.757 773.343,561.757 774.555,561.757 775.767,561.757 
  776.979,561.757 778.191,561.757 779.403,561.757 780.615,561.757 781.828,561.757 783.04,561.757 784.252,561.757 785.464,561.757 786.676,561.757 787.888,561.757 
  789.101,561.757 790.313,561.757 791.525,561.757 792.737,561.757 793.949,561.757 795.161,561.757 796.373,561.757 797.586,561.757 798.798,561.757 800.01,561.757 
  801.222,561.757 802.434,561.757 803.646,561.757 804.859,561.757 806.071,561.757 807.283,561.757 808.495,561.757 809.707,561.757 810.919,561.757 812.131,561.757 
  813.344,561.757 814.556,561.757 815.768,561.757 816.98,561.757 818.192,561.757 819.404,561.757 820.616,561.757 821.829,561.757 823.041,561.757 824.253,561.757 
  825.465,561.757 826.677,561.757 827.889,561.757 829.102,561.757 830.314,561.757 831.526,561.757 832.738,561.757 833.95,561.757 835.162,561.757 836.374,561.757 
  837.587,561.757 838.799,561.757 840.011,561.757 841.223,561.757 842.435,561.757 843.647,561.757 844.859,561.757 846.072,561.757 847.284,561.757 848.496,561.757 
  849.708,561.757 850.92,561.757 852.132,561.757 853.345,561.757 854.557,561.757 855.769,561.757 856.981,561.757 858.193,561.757 859.405,561.757 860.617,561.757 
  861.83,561.757 863.042,561.757 864.254,561.757 865.466,561.757 866.678,561.757 867.89,561.757 869.103,561.757 870.315,561.757 871.527,561.757 872.739,561.757 
  873.951,561.757 875.163,561.757 876.375,561.757 877.588,561.757 878.8,561.757 880.012,561.757 881.224,561.757 882.436,561.757 883.648,561.757 884.86,561.757 
  886.073,561.757 887.285,561.757 888.497,561.757 889.709,561.757 890.921,561.757 892.133,561.757 893.346,561.757 894.558,561.757 895.77,561.757 896.982,561.757 
  898.194,561.757 899.406,561.757 900.618,561.757 901.831,561.757 903.043,561.757 904.255,561.757 905.467,561.757 906.679,561.757 907.891,561.757 909.104,561.757 
  910.316,561.757 911.528,561.757 912.74,569.714 913.952,584.433 915.164,604.723 916.376,629.417 917.589,657.402 918.801,687.63 920.013,719.137 921.225,751.055 
  922.437,782.617 923.649,813.16 924.861,842.132 926.074,869.082 927.286,893.666 928.498,915.635 929.71,934.83 930.922,951.175 932.134,964.668 933.347,975.371 
  934.559,983.399 935.771,988.915 936.983,992.115 938.195,993.223 939.407,992.481 940.619,990.142 941.832,986.463 943.044,981.695 944.256,976.086 945.468,969.868 
  946.68,963.258 947.892,956.455 949.105,949.634 950.317,942.952 951.529,936.541 952.741,930.508 953.953,924.942 955.165,919.907 956.377,915.449 957.59,911.593 
  958.802,908.349 960.014,905.712 961.226,903.663 962.438,902.173 963.65,901.205 964.862,900.713 966.075,900.647 967.287,900.955 968.499,901.583 969.711,902.474 
  970.923,903.576 972.135,904.838 973.348,906.209 974.56,907.647 975.772,909.109 976.984,910.561 978.196,911.97 979.408,913.311 980.62,914.563 981.833,915.709 
  983.045,916.736 984.257,917.637 985.469,918.408 986.681,919.048 987.893,919.56 989.106,919.947 990.318,920.219 991.53,920.382 992.742,920.448 993.954,920.427 
  995.166,920.331 996.378,920.172 997.591,919.961 998.803,919.71 1000.01,919.429 1001.23,919.128 1002.44,918.817 1003.65,918.504 1004.86,918.196 1006.08,917.9 
  1007.29,917.62 1008.5,917.361 1009.71,917.126 1010.92,916.917 1012.14,916.736 1013.35,916.583 1014.56,916.457 1015.77,916.359 1016.98,916.287 1018.2,916.238 
  1019.41,916.212 1020.62,916.206 1021.83,916.218 1023.05,916.244 1024.26,916.283 1025.47,916.333 1026.68,916.389 1027.89,916.451 1029.11,916.517 1030.32,916.584 
  1031.53,916.651 1032.74,916.716 1033.96,916.778 1035.17,916.836 1036.38,916.889 1037.59,916.937 1038.8,916.98 1040.02,917.016 1041.23,917.046 1042.44,917.071 
  1043.65,917.089 1044.86,917.103 1046.08,917.111 1047.29,917.115 1048.5,917.114 1049.71,917.11 1050.93,917.103 1052.14,917.094 1053.35,917.083 1054.56,917.07 
  1055.77,917.057 1056.99,917.042 1058.2,917.028 1059.41,917.014 1060.62,917 1061.83,916.987 1063.05,916.975 1064.26,916.964 1065.47,916.954 1066.68,916.946 
  1067.9,916.939 1069.11,916.933 1070.32,916.928 1071.53,916.924 1072.74,916.922 1073.96,916.921 1075.17,916.92 1076.38,916.921 1077.59,916.922 1078.8,916.924 
  1080.02,916.926 1081.23,916.928 1082.44,916.931 1083.65,916.934 1084.87,916.937 1086.08,916.94 1087.29,916.943 1088.5,916.946 1089.71,916.949 1090.93,916.951 
  1092.14,916.953 1093.35,916.955 1094.56,916.957 1095.77,916.959 1096.99,916.96 1098.2,916.961 1099.41,916.961 1100.62,916.962 1101.84,916.962 1103.05,916.962 
  1104.26,916.962 1105.47,916.962 1106.68,916.961 1107.9,916.961 1109.11,916.96 1110.32,916.959 1111.53,916.959 1112.74,916.958 1113.96,916.957 1115.17,916.957 
  1116.38,916.956 1117.59,916.956 1118.81,916.955 1120.02,916.955 1121.23,916.954 1122.44,916.954 1123.65,916.954 1124.87,916.953 1126.08,916.953 1127.29,916.953 
  1128.5,916.953 1129.72,916.953 1130.93,916.953 1132.14,916.953 1133.35,916.953 1134.56,916.953 1135.78,916.953 1136.99,916.954 1138.2,916.954 1139.41,916.954 
  1140.62,916.954 1141.84,916.954 1143.05,916.954 1144.26,916.954 1145.47,916.954 1146.69,916.955 1147.9,916.955 1149.11,916.955 1150.32,916.955 1151.53,916.955 
  1152.75,916.955 1153.96,916.955 1155.17,916.955 1156.38,916.955 1157.59,916.955 1158.81,916.955 1160.02,916.955 1161.23,916.955 1162.44,916.955 1163.66,916.955 
  1164.87,916.955 1166.08,916.955 1167.29,916.955 1168.5,916.955 1169.72,916.955 1170.93,916.955 1172.14,916.955 1173.35,916.955 1174.56,916.955 1175.78,916.955 
  1176.99,916.955 1178.2,916.955 1179.41,916.955 1180.63,916.955 1181.84,916.955 1183.05,916.955 1184.26,916.955 1185.47,916.955 1186.69,916.955 1187.9,916.955 
  1189.11,916.955 1190.32,916.955 1191.53,916.955 1192.75,916.955 1193.96,916.955 1195.17,916.955 1196.38,916.955 1197.6,916.955 1198.81,916.955 1200.02,916.955 
  1201.23,916.955 1202.44,916.955 1203.66,916.955 1204.87,916.955 1206.08,916.955 1207.29,916.955 1208.5,916.955 1209.72,916.955 1210.93,916.955 1212.14,916.955 
  1213.35,916.955 1214.57,916.955 1215.78,916.955 1216.99,916.955 1218.2,916.955 1219.41,916.955 1220.63,916.955 1221.84,916.955 1223.05,916.955 1224.26,916.955 
  1225.48,916.955 1226.69,916.955 1227.9,916.955 1229.11,916.955 1230.32,916.955 1231.54,916.955 1232.75,916.955 1233.96,916.955 1235.17,916.955 1236.38,916.955 
  1237.6,916.955 1238.81,916.955 1240.02,916.955 1241.23,916.955 1242.45,916.955 1243.66,916.955 1244.87,916.955 1246.08,916.955 1247.29,916.955 1248.51,916.955 
  1249.72,916.955 1250.93,916.955 1252.14,916.955 1253.35,916.955 1254.57,916.955 1255.78,916.955 1256.99,916.955 1258.2,916.955 1259.42,916.955 1260.63,916.955 
  1261.84,916.955 1263.05,916.955 1264.26,916.955 1265.48,916.955 1266.69,916.955 1267.9,916.955 1269.11,916.955 1270.32,916.955 1271.54,916.955 1272.75,916.955 
  1273.96,916.955 1275.17,916.955 1276.39,916.955 1277.6,916.955 1278.81,916.955 1280.02,916.955 1281.23,916.955 1282.45,916.955 1283.66,916.955 1284.87,916.955 
  1286.08,916.955 1287.29,916.955 1288.51,916.955 1289.72,916.955 1290.93,916.955 1292.14,916.955 1293.36,916.955 1294.57,916.955 1295.78,916.955 1296.99,916.955 
  1298.2,916.955 1299.42,916.955 1300.63,916.955 1301.84,916.955 1303.05,916.955 1304.26,916.955 1305.48,916.955 1306.69,916.955 1307.9,916.955 1309.11,916.955 
  1310.33,916.955 1311.54,916.955 1312.75,916.955 1313.96,916.955 1315.17,916.955 1316.39,916.955 1317.6,916.955 1318.81,916.955 1320.02,916.955 1321.23,916.955 
  1322.45,916.955 1323.66,916.955 1324.87,916.955 1326.08,916.955 1327.3,916.955 1328.51,916.955 1329.72,916.955 1330.93,916.955 1332.14,916.955 1333.36,916.955 
  1334.57,916.955 1335.78,916.955 1336.99,916.955 1338.21,916.955 1339.42,916.955 1340.63,916.955 1341.84,916.955 1343.05,916.955 1344.27,916.955 1345.48,916.955 
  1346.69,916.955 1347.9,916.955 1349.11,916.955 1350.33,916.955 1351.54,916.955 1352.75,916.955 1353.96,916.955 1355.18,916.955 1356.39,916.955 1357.6,916.955 
  1358.81,916.955 1360.02,916.955 1361.24,916.955 1362.45,916.955 1363.66,916.955 1364.87,916.955 1366.08,916.955 1367.3,916.955 1368.51,916.955 1369.72,916.955 
  1370.93,916.955 1372.15,916.955 1373.36,916.955 1374.57,916.955 1375.78,916.955 1376.99,916.955 1378.21,916.955 1379.42,916.955 1380.63,916.955 1381.84,916.955 
  1383.05,916.955 1384.27,916.955 1385.48,916.955 1386.69,916.955 1387.9,916.955 1389.12,916.955 1390.33,916.955 1391.54,916.955 1392.75,916.955 1393.96,916.955 
  1395.18,916.955 1396.39,916.955 1397.6,916.955 1398.81,916.955 1400.02,916.955 1401.24,916.955 1402.45,916.955 1403.66,916.955 1404.87,916.955 1406.09,916.955 
  1407.3,916.955 1408.51,916.955 1409.72,916.955 1410.93,916.955 1412.15,916.955 1413.36,916.955 1414.57,916.955 1415.78,916.955 1416.99,916.955 1418.21,916.955 
  1419.42,916.955 1420.63,916.955 1421.84,916.955 1423.06,916.955 1424.27,916.955 1425.48,916.955 1426.69,916.955 1427.9,916.955 1429.12,916.955 1430.33,916.955 
  1431.54,916.955 1432.75,916.955 1433.97,916.955 1435.18,916.955 1436.39,916.955 1437.6,916.955 1438.81,916.955 1440.03,916.955 1441.24,916.955 1442.45,916.955 
  1443.66,916.955 1444.87,916.955 1446.09,916.955 1447.3,916.955 1448.51,916.955 1449.72,916.955 1450.94,916.955 1452.15,916.955 1453.36,916.955 1454.57,916.955 
  1455.78,916.955 1457,916.955 1458.21,916.955 1459.42,916.955 1460.63,916.955 1461.84,916.955 1463.06,916.955 1464.27,916.955 1465.48,916.955 1466.69,916.955 
  1467.91,916.955 1469.12,916.955 1470.33,916.955 1471.54,916.955 1472.75,916.955 1473.97,916.955 1475.18,916.955 1476.39,916.955 1477.6,916.955 1478.81,916.955 
  1480.03,916.955 1481.24,916.955 1482.45,916.955 1483.66,916.955 1484.88,916.955 1486.09,916.955 1487.3,916.955 1488.51,916.955 1489.72,916.955 1490.94,916.955 
  1492.15,916.955 1493.36,916.955 1494.57,916.955 1495.78,916.955 1497,916.955 1498.21,916.955 1499.42,916.955 1500.63,916.955 1501.85,916.955 1503.06,916.955 
  1504.27,916.955 1505.48,916.955 1506.69,916.955 1507.91,916.955 1509.12,916.955 1510.33,916.955 1511.54,916.955 1512.75,916.955 1513.97,916.955 1515.18,916.955 
  1516.39,916.955 
  "/>
<polyline clip-path="url(#clip662)" style="stroke:#e26f46; stroke-width:4; stroke-opacity:1; fill:none" points="
  304.24,601.224 305.452,557.021 306.664,513.703 307.876,472.126 309.089,433 310.301,396.889 311.513,364.216 312.725,335.274 313.937,310.237 315.149,289.166 
  316.361,272.028 317.574,258.704 318.786,249.006 319.998,242.69 321.21,239.464 322.422,239.006 323.634,240.975 324.847,245.016 326.059,250.773 327.271,257.9 
  328.483,266.062 329.695,274.943 330.907,284.254 332.119,293.73 333.332,303.139 334.544,312.278 335.756,320.977 336.968,329.097 338.18,336.531 339.392,343.198 
  340.605,349.049 341.817,354.055 343.029,358.213 344.241,361.537 345.453,364.06 346.665,365.827 347.877,366.895 349.09,367.33 350.302,367.202 351.514,366.586 
  352.726,365.558 353.938,364.194 355.15,362.568 356.362,360.748 357.575,358.801 358.787,356.786 359.999,354.758 361.211,352.763 362.423,350.841 363.635,349.027 
  364.848,347.348 366.06,345.823 367.272,344.468 368.484,343.29 369.696,342.294 370.908,341.479 372.12,340.84 373.333,340.369 374.545,340.055 375.757,339.884 
  376.969,339.844 378.181,339.916 379.393,340.087 380.606,340.339 381.818,340.657 383.03,341.024 384.242,341.426 385.454,341.851 386.666,342.285 387.878,342.717 
  389.091,343.139 390.303,343.541 391.515,343.918 392.727,344.264 393.939,344.576 395.151,344.85 396.363,345.086 397.576,345.283 398.788,345.442 400,345.563 
  401.212,345.65 402.424,345.704 403.636,345.729 404.849,345.727 406.061,345.702 407.273,345.658 408.485,345.597 409.697,345.525 410.909,345.443 412.121,345.354 
  413.334,345.262 414.546,345.169 415.758,345.077 416.97,344.988 418.182,344.904 419.394,344.826 420.607,344.755 421.819,344.692 423.031,344.636 424.243,344.589 
  425.455,344.551 426.667,344.52 427.879,344.497 429.092,344.482 430.304,344.473 431.516,344.47 432.728,344.473 433.94,344.48 435.152,344.491 436.364,344.505 
  437.577,344.521 438.789,344.54 440.001,344.559 441.213,344.579 442.425,344.599 443.637,344.618 444.85,344.637 446.062,344.654 447.274,344.67 448.486,344.685 
  449.698,344.698 450.91,344.709 452.122,344.718 453.335,344.726 454.547,344.731 455.759,344.736 456.971,344.738 458.183,344.74 459.395,344.74 460.608,344.739 
  461.82,344.737 463.032,344.734 464.244,344.731 465.456,344.727 466.668,344.723 467.88,344.719 469.093,344.715 470.305,344.711 471.517,344.707 472.729,344.703 
  473.941,344.699 475.153,344.696 476.365,344.693 477.578,344.69 478.79,344.688 480.002,344.686 481.214,344.685 482.426,344.684 483.638,344.683 484.851,344.682 
  486.063,344.682 487.275,344.682 488.487,344.683 489.699,344.683 490.911,344.684 492.123,344.684 493.336,344.685 494.548,344.686 495.76,344.687 496.972,344.688 
  498.184,344.689 499.396,344.69 500.609,344.69 501.821,344.691 503.033,344.692 504.245,344.692 505.457,344.693 506.669,344.693 507.881,344.694 509.094,344.694 
  510.306,344.694 511.518,344.694 512.73,344.695 513.942,344.695 515.154,344.694 516.366,344.694 517.579,344.694 518.791,344.694 520.003,344.694 521.215,344.694 
  522.427,344.694 523.639,344.693 524.852,344.693 526.064,344.693 527.276,344.693 528.488,344.693 529.7,344.693 530.912,344.692 532.124,344.692 533.337,344.692 
  534.549,344.692 535.761,344.692 536.973,344.692 538.185,344.692 539.397,344.692 540.61,344.692 541.822,344.692 543.034,344.692 544.246,344.692 545.458,344.692 
  546.67,344.692 547.882,344.692 549.095,344.692 550.307,344.692 551.519,344.692 552.731,344.692 553.943,344.692 555.155,344.692 556.367,344.692 557.58,344.692 
  558.792,344.692 560.004,344.692 561.216,344.692 562.428,344.692 563.64,344.692 564.853,344.692 566.065,344.692 567.277,344.692 568.489,344.692 569.701,344.692 
  570.913,344.692 572.125,344.692 573.338,344.692 574.55,344.692 575.762,344.692 576.974,344.692 578.186,344.692 579.398,344.692 580.61,344.692 581.823,344.692 
  583.035,344.692 584.247,344.692 585.459,344.692 586.671,344.692 587.883,344.692 589.096,344.692 590.308,344.692 591.52,344.692 592.732,344.692 593.944,344.692 
  595.156,344.692 596.368,344.692 597.581,344.692 598.793,344.692 600.005,344.692 601.217,344.692 602.429,344.692 603.641,344.692 604.854,344.692 606.066,344.692 
  607.278,344.692 608.49,344.692 609.702,344.692 610.914,344.692 612.126,344.692 613.339,344.692 614.551,344.692 615.763,344.692 616.975,344.692 618.187,344.692 
  619.399,344.692 620.611,344.692 621.824,344.692 623.036,344.692 624.248,344.692 625.46,344.692 626.672,344.692 627.884,344.692 629.097,344.692 630.309,344.692 
  631.521,344.692 632.733,344.692 633.945,344.692 635.157,344.692 636.369,344.692 637.582,344.692 638.794,344.692 640.006,344.692 641.218,344.692 642.43,344.692 
  643.642,344.692 644.855,344.692 646.067,344.692 647.279,344.692 648.491,344.692 649.703,344.692 650.915,344.692 652.127,344.692 653.34,344.692 654.552,344.692 
  655.764,344.692 656.976,344.692 658.188,344.692 659.4,344.692 660.612,344.692 661.825,344.692 663.037,344.692 664.249,344.692 665.461,344.692 666.673,344.692 
  667.885,344.692 669.098,344.692 670.31,344.692 671.522,344.692 672.734,344.692 673.946,344.692 675.158,344.692 676.37,344.692 677.583,344.692 678.795,344.692 
  680.007,344.692 681.219,344.692 682.431,344.692 683.643,344.692 684.856,344.692 686.068,344.692 687.28,344.692 688.492,344.692 689.704,344.692 690.916,344.692 
  692.128,344.692 693.341,344.692 694.553,344.692 695.765,344.692 696.977,344.692 698.189,344.692 699.401,344.692 700.613,344.692 701.826,344.692 703.038,344.692 
  704.25,344.692 705.462,344.692 706.674,344.692 707.886,344.692 709.099,344.692 710.311,344.692 711.523,344.692 712.735,344.692 713.947,344.692 715.159,344.692 
  716.371,344.692 717.584,344.692 718.796,344.692 720.008,344.692 721.22,344.692 722.432,344.692 723.644,344.692 724.857,344.692 726.069,344.692 727.281,344.692 
  728.493,344.692 729.705,344.692 730.917,344.692 732.129,344.692 733.342,344.692 734.554,344.692 735.766,344.692 736.978,344.692 738.19,344.692 739.402,344.692 
  740.614,344.692 741.827,344.692 743.039,344.692 744.251,344.692 745.463,344.692 746.675,344.692 747.887,344.692 749.1,344.692 750.312,344.692 751.524,344.692 
  752.736,344.692 753.948,344.692 755.16,344.692 756.372,344.692 757.585,344.692 758.797,344.692 760.009,344.692 761.221,344.692 762.433,344.692 763.645,344.692 
  764.858,344.692 766.07,344.692 767.282,344.692 768.494,344.692 769.706,344.692 770.918,344.692 772.13,344.692 773.343,344.692 774.555,344.692 775.767,344.692 
  776.979,344.692 778.191,344.692 779.403,344.692 780.615,344.692 781.828,344.692 783.04,344.692 784.252,344.692 785.464,344.692 786.676,344.692 787.888,344.692 
  789.101,344.692 790.313,344.692 791.525,344.692 792.737,344.692 793.949,344.692 795.161,344.692 796.373,344.692 797.586,344.692 798.798,344.692 800.01,344.692 
  801.222,344.692 802.434,344.692 803.646,344.692 804.859,344.692 806.071,344.692 807.283,344.692 808.495,344.692 809.707,344.692 810.919,344.692 812.131,344.692 
  813.344,344.692 814.556,344.692 815.768,344.692 816.98,344.692 818.192,344.692 819.404,344.692 820.616,344.692 821.829,344.692 823.041,344.692 824.253,344.692 
  825.465,344.692 826.677,344.692 827.889,344.692 829.102,344.692 830.314,344.692 831.526,344.692 832.738,344.692 833.95,344.692 835.162,344.692 836.374,344.692 
  837.587,344.692 838.799,344.692 840.011,344.692 841.223,344.692 842.435,344.692 843.647,344.692 844.859,344.692 846.072,344.692 847.284,344.692 848.496,344.692 
  849.708,344.692 850.92,344.692 852.132,344.692 853.345,344.692 854.557,344.692 855.769,344.692 856.981,344.692 858.193,344.692 859.405,344.692 860.617,344.692 
  861.83,344.692 863.042,344.692 864.254,344.692 865.466,344.692 866.678,344.692 867.89,344.692 869.103,344.692 870.315,344.692 871.527,344.692 872.739,344.692 
  873.951,344.692 875.163,344.692 876.375,344.692 877.588,344.692 878.8,344.692 880.012,344.692 881.224,344.692 882.436,344.692 883.648,344.692 884.86,344.692 
  886.073,344.692 887.285,344.692 888.497,344.692 889.709,344.692 890.921,344.692 892.133,344.692 893.346,344.692 894.558,344.692 895.77,344.692 896.982,344.692 
  898.194,344.692 899.406,344.692 900.618,344.692 901.831,344.692 903.043,344.692 904.255,344.692 905.467,344.692 906.679,344.692 907.891,344.692 909.104,344.692 
  910.316,344.692 911.528,300.49 912.74,265.128 913.952,238.271 915.164,219.434 916.376,208.017 917.589,203.329 918.801,204.615 920.013,211.085 921.225,221.933 
  922.437,236.356 923.649,253.576 924.861,272.849 926.074,293.483 927.286,314.841 928.498,336.352 929.71,357.516 930.922,377.902 932.134,397.153 933.347,414.982 
  934.559,431.173 935.771,445.57 936.983,458.08 938.195,468.665 939.407,477.332 940.619,484.132 941.832,489.151 943.044,492.504 944.256,494.328 945.468,494.778 
  946.68,494.018 947.892,492.221 949.105,489.558 950.317,486.201 951.529,482.312 952.741,478.047 953.953,473.549 955.165,468.948 956.377,464.362 957.59,459.89 
  958.802,455.618 960.014,451.617 961.226,447.942 962.438,444.633 963.65,441.717 964.862,439.21 966.075,437.116 967.287,435.429 968.499,434.135 969.711,433.213 
  970.923,432.636 972.135,432.372 973.348,432.388 974.56,432.648 975.772,433.115 976.984,433.751 978.196,434.522 979.408,435.392 980.62,436.329 981.833,437.305 
  983.045,438.291 984.257,439.265 985.469,440.207 986.681,441.099 987.893,441.928 989.106,442.683 990.318,443.356 991.53,443.944 992.742,444.444 993.954,444.856 
  995.166,445.181 996.378,445.425 997.591,445.59 998.803,445.685 1000.01,445.716 1001.23,445.69 1002.44,445.614 1003.65,445.498 1004.86,445.349 1006.08,445.175 
  1007.29,444.981 1008.5,444.777 1009.71,444.566 1010.92,444.355 1012.14,444.149 1013.35,443.952 1014.56,443.766 1015.77,443.595 1016.98,443.441 1018.2,443.304 
  1019.41,443.186 1020.62,443.087 1021.83,443.006 1023.05,442.944 1024.26,442.899 1025.47,442.87 1026.68,442.856 1027.89,442.854 1029.11,442.865 1030.32,442.885 
  1031.53,442.913 1032.74,442.947 1033.96,442.986 1035.17,443.029 1036.38,443.073 1037.59,443.119 1038.8,443.163 1040.02,443.207 1041.23,443.248 1042.44,443.287 
  1043.65,443.322 1044.86,443.353 1046.08,443.381 1047.29,443.405 1048.5,443.424 1049.71,443.44 1050.93,443.451 1052.14,443.46 1053.35,443.464 1054.56,443.466 
  1055.77,443.465 1056.99,443.462 1058.2,443.457 1059.41,443.451 1060.62,443.443 1061.83,443.434 1063.05,443.425 1064.26,443.415 1065.47,443.406 1066.68,443.396 
  1067.9,443.387 1069.11,443.378 1070.32,443.37 1071.53,443.363 1072.74,443.357 1073.96,443.351 1075.17,443.346 1076.38,443.343 1077.59,443.34 1078.8,443.337 
  1080.02,443.336 1081.23,443.335 1082.44,443.335 1083.65,443.336 1084.87,443.336 1086.08,443.338 1087.29,443.339 1088.5,443.341 1089.71,443.343 1090.93,443.345 
  1092.14,443.347 1093.35,443.349 1094.56,443.351 1095.77,443.353 1096.99,443.355 1098.2,443.356 1099.41,443.358 1100.62,443.359 1101.84,443.36 1103.05,443.361 
  1104.26,443.362 1105.47,443.362 1106.68,443.363 1107.9,443.363 1109.11,443.363 1110.32,443.363 1111.53,443.363 1112.74,443.363 1113.96,443.363 1115.17,443.362 
  1116.38,443.362 1117.59,443.361 1118.81,443.361 1120.02,443.36 1121.23,443.36 1122.44,443.36 1123.65,443.359 1124.87,443.359 1126.08,443.359 1127.29,443.358 
  1128.5,443.358 1129.72,443.358 1130.93,443.358 1132.14,443.357 1133.35,443.357 1134.56,443.357 1135.78,443.357 1136.99,443.357 1138.2,443.357 1139.41,443.357 
  1140.62,443.357 1141.84,443.357 1143.05,443.357 1144.26,443.358 1145.47,443.358 1146.69,443.358 1147.9,443.358 1149.11,443.358 1150.32,443.358 1151.53,443.358 
  1152.75,443.358 1153.96,443.358 1155.17,443.358 1156.38,443.358 1157.59,443.358 1158.81,443.358 1160.02,443.358 1161.23,443.358 1162.44,443.358 1163.66,443.358 
  1164.87,443.358 1166.08,443.358 1167.29,443.358 1168.5,443.358 1169.72,443.358 1170.93,443.358 1172.14,443.358 1173.35,443.358 1174.56,443.358 1175.78,443.358 
  1176.99,443.358 1178.2,443.358 1179.41,443.358 1180.63,443.358 1181.84,443.358 1183.05,443.358 1184.26,443.358 1185.47,443.358 1186.69,443.358 1187.9,443.358 
  1189.11,443.358 1190.32,443.358 1191.53,443.358 1192.75,443.358 1193.96,443.358 1195.17,443.358 1196.38,443.358 1197.6,443.358 1198.81,443.358 1200.02,443.358 
  1201.23,443.358 1202.44,443.358 1203.66,443.358 1204.87,443.358 1206.08,443.358 1207.29,443.358 1208.5,443.358 1209.72,443.358 1210.93,443.358 1212.14,443.358 
  1213.35,443.358 1214.57,443.358 1215.78,443.358 1216.99,443.358 1218.2,443.358 1219.41,443.358 1220.63,443.358 1221.84,443.358 1223.05,443.358 1224.26,443.358 
  1225.48,443.358 1226.69,443.358 1227.9,443.358 1229.11,443.358 1230.32,443.358 1231.54,443.358 1232.75,443.358 1233.96,443.358 1235.17,443.358 1236.38,443.358 
  1237.6,443.358 1238.81,443.358 1240.02,443.358 1241.23,443.358 1242.45,443.358 1243.66,443.358 1244.87,443.358 1246.08,443.358 1247.29,443.358 1248.51,443.358 
  1249.72,443.358 1250.93,443.358 1252.14,443.358 1253.35,443.358 1254.57,443.358 1255.78,443.358 1256.99,443.358 1258.2,443.358 1259.42,443.358 1260.63,443.358 
  1261.84,443.358 1263.05,443.358 1264.26,443.358 1265.48,443.358 1266.69,443.358 1267.9,443.358 1269.11,443.358 1270.32,443.358 1271.54,443.358 1272.75,443.358 
  1273.96,443.358 1275.17,443.358 1276.39,443.358 1277.6,443.358 1278.81,443.358 1280.02,443.358 1281.23,443.358 1282.45,443.358 1283.66,443.358 1284.87,443.358 
  1286.08,443.358 1287.29,443.358 1288.51,443.358 1289.72,443.358 1290.93,443.358 1292.14,443.358 1293.36,443.358 1294.57,443.358 1295.78,443.358 1296.99,443.358 
  1298.2,443.358 1299.42,443.358 1300.63,443.358 1301.84,443.358 1303.05,443.358 1304.26,443.358 1305.48,443.358 1306.69,443.358 1307.9,443.358 1309.11,443.358 
  1310.33,443.358 1311.54,443.358 1312.75,443.358 1313.96,443.358 1315.17,443.358 1316.39,443.358 1317.6,443.358 1318.81,443.358 1320.02,443.358 1321.23,443.358 
  1322.45,443.358 1323.66,443.358 1324.87,443.358 1326.08,443.358 1327.3,443.358 1328.51,443.358 1329.72,443.358 1330.93,443.358 1332.14,443.358 1333.36,443.358 
  1334.57,443.358 1335.78,443.358 1336.99,443.358 1338.21,443.358 1339.42,443.358 1340.63,443.358 1341.84,443.358 1343.05,443.358 1344.27,443.358 1345.48,443.358 
  1346.69,443.358 1347.9,443.358 1349.11,443.358 1350.33,443.358 1351.54,443.358 1352.75,443.358 1353.96,443.358 1355.18,443.358 1356.39,443.358 1357.6,443.358 
  1358.81,443.358 1360.02,443.358 1361.24,443.358 1362.45,443.358 1363.66,443.358 1364.87,443.358 1366.08,443.358 1367.3,443.358 1368.51,443.358 1369.72,443.358 
  1370.93,443.358 1372.15,443.358 1373.36,443.358 1374.57,443.358 1375.78,443.358 1376.99,443.358 1378.21,443.358 1379.42,443.358 1380.63,443.358 1381.84,443.358 
  1383.05,443.358 1384.27,443.358 1385.48,443.358 1386.69,443.358 1387.9,443.358 1389.12,443.358 1390.33,443.358 1391.54,443.358 1392.75,443.358 1393.96,443.358 
  1395.18,443.358 1396.39,443.358 1397.6,443.358 1398.81,443.358 1400.02,443.358 1401.24,443.358 1402.45,443.358 1403.66,443.358 1404.87,443.358 1406.09,443.358 
  1407.3,443.358 1408.51,443.358 1409.72,443.358 1410.93,443.358 1412.15,443.358 1413.36,443.358 1414.57,443.358 1415.78,443.358 1416.99,443.358 1418.21,443.358 
  1419.42,443.358 1420.63,443.358 1421.84,443.358 1423.06,443.358 1424.27,443.358 1425.48,443.358 1426.69,443.358 1427.9,443.358 1429.12,443.358 1430.33,443.358 
  1431.54,443.358 1432.75,443.358 1433.97,443.358 1435.18,443.358 1436.39,443.358 1437.6,443.358 1438.81,443.358 1440.03,443.358 1441.24,443.358 1442.45,443.358 
  1443.66,443.358 1444.87,443.358 1446.09,443.358 1447.3,443.358 1448.51,443.358 1449.72,443.358 1450.94,443.358 1452.15,443.358 1453.36,443.358 1454.57,443.358 
  1455.78,443.358 1457,443.358 1458.21,443.358 1459.42,443.358 1460.63,443.358 1461.84,443.358 1463.06,443.358 1464.27,443.358 1465.48,443.358 1466.69,443.358 
  1467.91,443.358 1469.12,443.358 1470.33,443.358 1471.54,443.358 1472.75,443.358 1473.97,443.358 1475.18,443.358 1476.39,443.358 1477.6,443.358 1478.81,443.358 
  1480.03,443.358 1481.24,443.358 1482.45,443.358 1483.66,443.358 1484.88,443.358 1486.09,443.358 1487.3,443.358 1488.51,443.358 1489.72,443.358 1490.94,443.358 
  1492.15,443.358 1493.36,443.358 1494.57,443.358 1495.78,443.358 1497,443.358 1498.21,443.358 1499.42,443.358 1500.63,443.358 1501.85,443.358 1503.06,443.358 
  1504.27,443.358 1505.48,443.358 1506.69,443.358 1507.91,443.358 1509.12,443.358 1510.33,443.358 1511.54,443.358 1512.75,443.358 1513.97,443.358 1515.18,443.358 
  1516.39,443.358 
  "/>
<path clip-path="url(#clip660)" d="
M1335.19 388.982 L1509.93 388.982 L1509.93 207.542 L1335.19 207.542  Z
  " fill="#ffffff" fill-rule="evenodd" fill-opacity="1"/>
<polyline clip-path="url(#clip660)" style="stroke:#000000; stroke-width:4; stroke-opacity:1; fill:none" points="
  1335.19,388.982 1509.93,388.982 1509.93,207.542 1335.19,207.542 1335.19,388.982 
  "/>
<polyline clip-path="url(#clip660)" style="stroke:#009af9; stroke-width:4; stroke-opacity:1; fill:none" points="
  1349.47,268.022 1435.13,268.022 
  "/>
<path clip-path="url(#clip660)" d="M 0 0 M1464.59 263.357 Q1463.87 262.941 1463.02 262.756 Q1462.18 262.547 1461.17 262.547 Q1457.55 262.547 1455.61 264.908 Q1453.69 267.246 1453.69 271.644 L1453.69 285.302 L1449.41 285.302 L1449.41 259.376 L1453.69 259.376 L1453.69 263.404 Q1455.03 261.043 1457.18 259.908 Q1459.34 258.751 1462.42 258.751 Q1462.86 258.751 1463.39 258.82 Q1463.92 258.867 1464.57 258.982 L1464.59 263.357 Z" fill="#000000" fill-rule="evenodd" fill-opacity="1" /><path clip-path="url(#clip660)" d="M 0 0 M1481.37 277.455 L1481.37 278.612 L1469.04 278.612 Q1469.22 281.066 1470.7 282.362 Q1472.21 283.658 1474.87 283.658 Q1476.42 283.658 1477.88 283.311 Q1479.31 282.987 1480.75 282.316 L1480.75 284.561 Q1479.31 285.117 1477.79 285.394 Q1476.28 285.672 1474.71 285.672 Q1470.8 285.672 1468.53 283.658 Q1466.23 281.644 1466.23 278.195 Q1466.23 274.63 1468.41 272.524 Q1470.56 270.441 1474.24 270.441 Q1477.53 270.441 1479.45 272.316 Q1481.37 274.214 1481.37 277.455 M1478.69 276.737 Q1478.67 274.793 1477.46 273.612 Q1476.26 272.455 1474.27 272.455 Q1472.02 272.455 1470.68 273.589 Q1469.34 274.7 1469.13 276.737 L1478.69 276.737 Z" fill="#000000" fill-rule="evenodd" fill-opacity="1" /><polyline clip-path="url(#clip660)" style="stroke:#e26f46; stroke-width:4; stroke-opacity:1; fill:none" points="
  1349.47,328.502 1435.13,328.502 
  "/>
<path clip-path="url(#clip660)" d="M 0 0 M1464.59 323.837 Q1463.87 323.421 1463.02 323.236 Q1462.18 323.027 1461.17 323.027 Q1457.55 323.027 1455.61 325.388 Q1453.69 327.726 1453.69 332.124 L1453.69 345.782 L1449.41 345.782 L1449.41 319.856 L1453.69 319.856 L1453.69 323.884 Q1455.03 321.523 1457.18 320.388 Q1459.34 319.231 1462.42 319.231 Q1462.86 319.231 1463.39 319.3 Q1463.92 319.347 1464.57 319.462 L1464.59 323.837 Z" fill="#000000" fill-rule="evenodd" fill-opacity="1" /><path clip-path="url(#clip660)" d="M 0 0 M1467.42 331.268 L1470.1 331.268 L1470.1 345.782 L1467.42 345.782 L1467.42 331.268 M1467.42 325.62 L1470.1 325.62 L1470.1 328.629 L1467.42 328.629 L1467.42 325.62 Z" fill="#000000" fill-rule="evenodd" fill-opacity="1" /></svg>
