<?xml version="1.0" encoding="utf-8"?>
<svg xmlns="http://www.w3.org/2000/svg" xmlns:xlink="http://www.w3.org/1999/xlink" width="400" height="300" viewBox="0 0 1600 1200">
<defs>
  <clipPath id="clip860">
    <rect x="0" y="0" width="1600" height="1200"/>
  </clipPath>
</defs>
<path clip-path="url(#clip860)" d="
M0 1200 L1600 1200 L1600 0 L0 0  Z
  " fill="#ffffff" fill-rule="evenodd" fill-opacity="1"/>
<defs>
  <clipPath id="clip861">
    <rect x="320" y="0" width="1121" height="1121"/>
  </clipPath>
</defs>
<path clip-path="url(#clip860)" d="
M209.542 1016.92 L1552.76 1016.92 L1552.76 179.632 L209.542 179.632  Z
  " fill="#ffffff" fill-rule="evenodd" fill-opacity="1"/>
<defs>
  <clipPath id="clip862">
    <rect x="209" y="179" width="1344" height="838"/>
  </clipPath>
</defs>
<polyline clip-path="url(#clip862)" style="stroke:#000000; stroke-width:2; stroke-opacity:0.1; fill:none" points="
  246.291,1016.92 246.291,179.632 
  "/>
<polyline clip-path="url(#clip862)" style="stroke:#000000; stroke-width:2; stroke-opacity:0.1; fill:none" points="
  563.086,1016.92 563.086,179.632 
  "/>
<polyline clip-path="url(#clip862)" style="stroke:#000000; stroke-width:2; stroke-opacity:0.1; fill:none" points="
  879.882,1016.92 879.882,179.632 
  "/>
<polyline clip-path="url(#clip862)" style="stroke:#000000; stroke-width:2; stroke-opacity:0.1; fill:none" points="
  1196.68,1016.92 1196.68,179.632 
  "/>
<polyline clip-path="url(#clip862)" style="stroke:#000000; stroke-width:2; stroke-opacity:0.1; fill:none" points="
  1513.47,1016.92 1513.47,179.632 
  "/>
<polyline clip-path="url(#clip860)" style="stroke:#000000; stroke-width:4; stroke-opacity:1; fill:none" points="
  209.542,1016.92 1552.76,1016.92 
  "/>
<polyline clip-path="url(#clip860)" style="stroke:#000000; stroke-width:4; stroke-opacity:1; fill:none" points="
  246.291,1016.92 246.291,1006.87 
  "/>
<polyline clip-path="url(#clip860)" style="stroke:#000000; stroke-width:4; stroke-opacity:1; fill:none" points="
  563.086,1016.92 563.086,1006.87 
  "/>
<polyline clip-path="url(#clip860)" style="stroke:#000000; stroke-width:4; stroke-opacity:1; fill:none" points="
  879.882,1016.92 879.882,1006.87 
  "/>
<polyline clip-path="url(#clip860)" style="stroke:#000000; stroke-width:4; stroke-opacity:1; fill:none" points="
  1196.68,1016.92 1196.68,1006.87 
  "/>
<polyline clip-path="url(#clip860)" style="stroke:#000000; stroke-width:4; stroke-opacity:1; fill:none" points="
  1513.47,1016.92 1513.47,1006.87 
  "/>
<path clip-path="url(#clip860)" d="M 0 0 M246.291 1039.71 Q242.68 1039.71 240.851 1043.28 Q239.045 1046.82 239.045 1053.95 Q239.045 1061.05 240.851 1064.62 Q242.68 1068.16 246.291 1068.16 Q249.925 1068.16 251.731 1064.62 Q253.559 1061.05 253.559 1053.95 Q253.559 1046.82 251.731 1043.28 Q249.925 1039.71 246.291 1039.71 M246.291 1036.01 Q252.101 1036.01 255.156 1040.61 Q258.235 1045.2 258.235 1053.95 Q258.235 1062.67 255.156 1067.28 Q252.101 1071.86 246.291 1071.86 Q240.481 1071.86 237.402 1067.28 Q234.346 1062.67 234.346 1053.95 Q234.346 1045.2 237.402 1040.61 Q240.481 1036.01 246.291 1036.01 Z" fill="#000000" fill-rule="evenodd" fill-opacity="1" /><path clip-path="url(#clip860)" d="M 0 0 M531.223 1067.26 L547.542 1067.26 L547.542 1071.19 L525.598 1071.19 L525.598 1067.26 Q528.26 1064.5 532.843 1059.87 Q537.45 1055.22 538.63 1053.88 Q540.876 1051.35 541.755 1049.62 Q542.658 1047.86 542.658 1046.17 Q542.658 1043.41 540.714 1041.68 Q538.792 1039.94 535.691 1039.94 Q533.492 1039.94 531.038 1040.71 Q528.607 1041.47 525.83 1043.02 L525.83 1038.3 Q528.654 1037.16 531.107 1036.59 Q533.561 1036.01 535.598 1036.01 Q540.968 1036.01 544.163 1038.69 Q547.357 1041.38 547.357 1045.87 Q547.357 1048 546.547 1049.92 Q545.76 1051.82 543.654 1054.41 Q543.075 1055.08 539.973 1058.3 Q536.871 1061.49 531.223 1067.26 Z" fill="#000000" fill-rule="evenodd" fill-opacity="1" /><path clip-path="url(#clip860)" d="M 0 0 M552.658 1036.63 L571.015 1036.63 L571.015 1040.57 L556.941 1040.57 L556.941 1049.04 Q557.959 1048.69 558.978 1048.53 Q559.996 1048.34 561.015 1048.34 Q566.802 1048.34 570.181 1051.52 Q573.561 1054.69 573.561 1060.1 Q573.561 1065.68 570.089 1068.78 Q566.616 1071.86 560.297 1071.86 Q558.121 1071.86 555.853 1071.49 Q553.607 1071.12 551.2 1070.38 L551.2 1065.68 Q553.283 1066.82 555.505 1067.37 Q557.728 1067.93 560.204 1067.93 Q564.209 1067.93 566.547 1065.82 Q568.885 1063.72 568.885 1060.1 Q568.885 1056.49 566.547 1054.39 Q564.209 1052.28 560.204 1052.28 Q558.329 1052.28 556.454 1052.7 Q554.603 1053.11 552.658 1053.99 L552.658 1036.63 Z" fill="#000000" fill-rule="evenodd" fill-opacity="1" /><path clip-path="url(#clip860)" d="M 0 0 M588.63 1039.71 Q585.019 1039.71 583.19 1043.28 Q581.385 1046.82 581.385 1053.95 Q581.385 1061.05 583.19 1064.62 Q585.019 1068.16 588.63 1068.16 Q592.264 1068.16 594.07 1064.62 Q595.899 1061.05 595.899 1053.95 Q595.899 1046.82 594.07 1043.28 Q592.264 1039.71 588.63 1039.71 M588.63 1036.01 Q594.44 1036.01 597.496 1040.61 Q600.575 1045.2 600.575 1053.95 Q600.575 1062.67 597.496 1067.28 Q594.44 1071.86 588.63 1071.86 Q582.82 1071.86 579.741 1067.28 Q576.686 1062.67 576.686 1053.95 Q576.686 1045.2 579.741 1040.61 Q582.82 1036.01 588.63 1036.01 Z" fill="#000000" fill-rule="evenodd" fill-opacity="1" /><path clip-path="url(#clip860)" d="M 0 0 M843.146 1036.63 L861.502 1036.63 L861.502 1040.57 L847.428 1040.57 L847.428 1049.04 Q848.447 1048.69 849.465 1048.53 Q850.484 1048.34 851.503 1048.34 Q857.29 1048.34 860.669 1051.52 Q864.049 1054.69 864.049 1060.1 Q864.049 1065.68 860.577 1068.78 Q857.104 1071.86 850.785 1071.86 Q848.609 1071.86 846.34 1071.49 Q844.095 1071.12 841.688 1070.38 L841.688 1065.68 Q843.771 1066.82 845.993 1067.37 Q848.215 1067.93 850.692 1067.93 Q854.697 1067.93 857.035 1065.82 Q859.373 1063.72 859.373 1060.1 Q859.373 1056.49 857.035 1054.39 Q854.697 1052.28 850.692 1052.28 Q848.817 1052.28 846.942 1052.7 Q845.091 1053.11 843.146 1053.99 L843.146 1036.63 Z" fill="#000000" fill-rule="evenodd" fill-opacity="1" /><path clip-path="url(#clip860)" d="M 0 0 M879.118 1039.71 Q875.507 1039.71 873.678 1043.28 Q871.873 1046.82 871.873 1053.95 Q871.873 1061.05 873.678 1064.62 Q875.507 1068.16 879.118 1068.16 Q882.752 1068.16 884.558 1064.62 Q886.387 1061.05 886.387 1053.95 Q886.387 1046.82 884.558 1043.28 Q882.752 1039.71 879.118 1039.71 M879.118 1036.01 Q884.928 1036.01 887.984 1040.61 Q891.062 1045.2 891.062 1053.95 Q891.062 1062.67 887.984 1067.28 Q884.928 1071.86 879.118 1071.86 Q873.308 1071.86 870.229 1067.28 Q867.174 1062.67 867.174 1053.95 Q867.174 1045.2 870.229 1040.61 Q873.308 1036.01 879.118 1036.01 Z" fill="#000000" fill-rule="evenodd" fill-opacity="1" /><path clip-path="url(#clip860)" d="M 0 0 M906.132 1039.71 Q902.521 1039.71 900.692 1043.28 Q898.887 1046.82 898.887 1053.95 Q898.887 1061.05 900.692 1064.62 Q902.521 1068.16 906.132 1068.16 Q909.766 1068.16 911.572 1064.62 Q913.4 1061.05 913.4 1053.95 Q913.4 1046.82 911.572 1043.28 Q909.766 1039.71 906.132 1039.71 M906.132 1036.01 Q911.942 1036.01 914.998 1040.61 Q918.076 1045.2 918.076 1053.95 Q918.076 1062.67 914.998 1067.28 Q911.942 1071.86 906.132 1071.86 Q900.322 1071.86 897.243 1067.28 Q894.187 1062.67 894.187 1053.95 Q894.187 1045.2 897.243 1040.61 Q900.322 1036.01 906.132 1036.01 Z" fill="#000000" fill-rule="evenodd" fill-opacity="1" /><path clip-path="url(#clip860)" d="M 0 0 M1159.05 1036.63 L1181.27 1036.63 L1181.27 1038.62 L1168.73 1071.19 L1163.84 1071.19 L1175.65 1040.57 L1159.05 1040.57 L1159.05 1036.63 Z" fill="#000000" fill-rule="evenodd" fill-opacity="1" /><path clip-path="url(#clip860)" d="M 0 0 M1186.39 1036.63 L1204.74 1036.63 L1204.74 1040.57 L1190.67 1040.57 L1190.67 1049.04 Q1191.69 1048.69 1192.71 1048.53 Q1193.73 1048.34 1194.74 1048.34 Q1200.53 1048.34 1203.91 1051.52 Q1207.29 1054.69 1207.29 1060.1 Q1207.29 1065.68 1203.82 1068.78 Q1200.35 1071.86 1194.03 1071.86 Q1191.85 1071.86 1189.58 1071.49 Q1187.34 1071.12 1184.93 1070.38 L1184.93 1065.68 Q1187.01 1066.82 1189.24 1067.37 Q1191.46 1067.93 1193.93 1067.93 Q1197.94 1067.93 1200.28 1065.82 Q1202.62 1063.72 1202.62 1060.1 Q1202.62 1056.49 1200.28 1054.39 Q1197.94 1052.28 1193.93 1052.28 Q1192.06 1052.28 1190.18 1052.7 Q1188.33 1053.11 1186.39 1053.99 L1186.39 1036.63 Z" fill="#000000" fill-rule="evenodd" fill-opacity="1" /><path clip-path="url(#clip860)" d="M 0 0 M1222.36 1039.71 Q1218.75 1039.71 1216.92 1043.28 Q1215.12 1046.82 1215.12 1053.95 Q1215.12 1061.05 1216.92 1064.62 Q1218.75 1068.16 1222.36 1068.16 Q1225.99 1068.16 1227.8 1064.62 Q1229.63 1061.05 1229.63 1053.95 Q1229.63 1046.82 1227.8 1043.28 Q1225.99 1039.71 1222.36 1039.71 M1222.36 1036.01 Q1228.17 1036.01 1231.23 1040.61 Q1234.3 1045.2 1234.3 1053.95 Q1234.3 1062.67 1231.23 1067.28 Q1228.17 1071.86 1222.36 1071.86 Q1216.55 1071.86 1213.47 1067.28 Q1210.42 1062.67 1210.42 1053.95 Q1210.42 1045.2 1213.47 1040.61 Q1216.55 1036.01 1222.36 1036.01 Z" fill="#000000" fill-rule="evenodd" fill-opacity="1" /><path clip-path="url(#clip860)" d="M 0 0 M1463.33 1067.26 L1470.97 1067.26 L1470.97 1040.89 L1462.66 1042.56 L1462.66 1038.3 L1470.93 1036.63 L1475.6 1036.63 L1475.6 1067.26 L1483.24 1067.26 L1483.24 1071.19 L1463.33 1071.19 L1463.33 1067.26 Z" fill="#000000" fill-rule="evenodd" fill-opacity="1" /><path clip-path="url(#clip860)" d="M 0 0 M1498.31 1039.71 Q1494.7 1039.71 1492.87 1043.28 Q1491.07 1046.82 1491.07 1053.95 Q1491.07 1061.05 1492.87 1064.62 Q1494.7 1068.16 1498.31 1068.16 Q1501.95 1068.16 1503.75 1064.62 Q1505.58 1061.05 1505.58 1053.95 Q1505.58 1046.82 1503.75 1043.28 Q1501.95 1039.71 1498.31 1039.71 M1498.31 1036.01 Q1504.12 1036.01 1507.18 1040.61 Q1510.26 1045.2 1510.26 1053.95 Q1510.26 1062.67 1507.18 1067.28 Q1504.12 1071.86 1498.31 1071.86 Q1492.5 1071.86 1489.42 1067.28 Q1486.37 1062.67 1486.37 1053.95 Q1486.37 1045.2 1489.42 1040.61 Q1492.5 1036.01 1498.31 1036.01 Z" fill="#000000" fill-rule="evenodd" fill-opacity="1" /><path clip-path="url(#clip860)" d="M 0 0 M1525.33 1039.71 Q1521.71 1039.71 1519.89 1043.28 Q1518.08 1046.82 1518.08 1053.95 Q1518.08 1061.05 1519.89 1064.62 Q1521.71 1068.16 1525.33 1068.16 Q1528.96 1068.16 1530.76 1064.62 Q1532.59 1061.05 1532.59 1053.95 Q1532.59 1046.82 1530.76 1043.28 Q1528.96 1039.71 1525.33 1039.71 M1525.33 1036.01 Q1531.14 1036.01 1534.19 1040.61 Q1537.27 1045.2 1537.27 1053.95 Q1537.27 1062.67 1534.19 1067.28 Q1531.14 1071.86 1525.33 1071.86 Q1519.51 1071.86 1516.44 1067.28 Q1513.38 1062.67 1513.38 1053.95 Q1513.38 1045.2 1516.44 1040.61 Q1519.51 1036.01 1525.33 1036.01 Z" fill="#000000" fill-rule="evenodd" fill-opacity="1" /><path clip-path="url(#clip860)" d="M 0 0 M1552.34 1039.71 Q1548.73 1039.71 1546.9 1043.28 Q1545.09 1046.82 1545.09 1053.95 Q1545.09 1061.05 1546.9 1064.62 Q1548.73 1068.16 1552.34 1068.16 Q1555.97 1068.16 1557.78 1064.62 Q1559.61 1061.05 1559.61 1053.95 Q1559.61 1046.82 1557.78 1043.28 Q1555.97 1039.71 1552.34 1039.71 M1552.34 1036.01 Q1558.15 1036.01 1561.2 1040.61 Q1564.28 1045.2 1564.28 1053.95 Q1564.28 1062.67 1561.2 1067.28 Q1558.15 1071.86 1552.34 1071.86 Q1546.53 1071.86 1543.45 1067.28 Q1540.39 1062.67 1540.39 1053.95 Q1540.39 1045.2 1543.45 1040.61 Q1546.53 1036.01 1552.34 1036.01 Z" fill="#000000" fill-rule="evenodd" fill-opacity="1" /><path clip-path="url(#clip860)" d="M 0 0 M752.164 1104.01 L752.164 1114.14 L764.227 1114.14 L764.227 1118.69 L752.164 1118.69 L752.164 1138.04 Q752.164 1142.4 753.342 1143.64 Q754.551 1144.88 758.211 1144.88 L764.227 1144.88 L764.227 1149.78 L758.211 1149.78 Q751.432 1149.78 748.854 1147.27 Q746.276 1144.72 746.276 1138.04 L746.276 1118.69 L741.979 1118.69 L741.979 1114.14 L746.276 1114.14 L746.276 1104.01 L752.164 1104.01 Z" fill="#000000" fill-rule="evenodd" fill-opacity="1" /><path clip-path="url(#clip860)" d="M 0 0 M770.37 1114.14 L776.226 1114.14 L776.226 1149.78 L770.37 1149.78 L770.37 1114.14 M770.37 1100.26 L776.226 1100.26 L776.226 1107.67 L770.37 1107.67 L770.37 1100.26 Z" fill="#000000" fill-rule="evenodd" fill-opacity="1" /><path clip-path="url(#clip860)" d="M 0 0 M810.124 1120.98 Q812.32 1117.03 815.375 1115.15 Q818.431 1113.28 822.569 1113.28 Q828.139 1113.28 831.162 1117.19 Q834.186 1121.07 834.186 1128.27 L834.186 1149.78 L828.298 1149.78 L828.298 1128.46 Q828.298 1123.33 826.484 1120.85 Q824.669 1118.37 820.945 1118.37 Q816.394 1118.37 813.752 1121.39 Q811.11 1124.42 811.11 1129.64 L811.11 1149.78 L805.222 1149.78 L805.222 1128.46 Q805.222 1123.3 803.408 1120.85 Q801.594 1118.37 797.806 1118.37 Q793.318 1118.37 790.677 1121.42 Q788.035 1124.45 788.035 1129.64 L788.035 1149.78 L782.147 1149.78 L782.147 1114.14 L788.035 1114.14 L788.035 1119.67 Q790.04 1116.4 792.841 1114.84 Q795.642 1113.28 799.493 1113.28 Q803.376 1113.28 806.082 1115.25 Q808.819 1117.22 810.124 1120.98 Z" fill="#000000" fill-rule="evenodd" fill-opacity="1" /><path clip-path="url(#clip860)" d="M 0 0 M870.821 1130.5 L870.821 1133.36 L843.894 1133.36 Q844.276 1139.41 847.522 1142.59 Q850.801 1145.74 856.625 1145.74 Q859.999 1145.74 863.15 1144.91 Q866.333 1144.09 869.452 1142.43 L869.452 1147.97 Q866.301 1149.31 862.991 1150.01 Q859.681 1150.71 856.275 1150.71 Q847.745 1150.71 842.748 1145.74 Q837.783 1140.78 837.783 1132.31 Q837.783 1123.56 842.493 1118.43 Q847.236 1113.28 855.257 1113.28 Q862.45 1113.28 866.619 1117.92 Q870.821 1122.54 870.821 1130.5 M864.964 1128.78 Q864.901 1123.97 862.259 1121.11 Q859.649 1118.24 855.32 1118.24 Q850.419 1118.24 847.459 1121.01 Q844.53 1123.78 844.085 1128.81 L864.964 1128.78 Z" fill="#000000" fill-rule="evenodd" fill-opacity="1" /><path clip-path="url(#clip860)" d="M 0 0 M911.752 1100.32 Q907.487 1107.64 905.418 1114.8 Q903.35 1121.97 903.35 1129.32 Q903.35 1136.67 905.418 1143.9 Q907.519 1151.09 911.752 1158.38 L906.66 1158.38 Q901.885 1150.9 899.498 1143.67 Q897.143 1136.45 897.143 1129.32 Q897.143 1122.22 899.498 1115.03 Q901.854 1107.83 906.66 1100.32 L911.752 1100.32 Z" fill="#000000" fill-rule="evenodd" fill-opacity="1" /><path clip-path="url(#clip860)" d="M 0 0 M945.65 1120.98 Q947.846 1117.03 950.901 1115.15 Q953.957 1113.28 958.095 1113.28 Q963.665 1113.28 966.688 1117.19 Q969.712 1121.07 969.712 1128.27 L969.712 1149.78 L963.824 1149.78 L963.824 1128.46 Q963.824 1123.33 962.01 1120.85 Q960.195 1118.37 956.471 1118.37 Q951.92 1118.37 949.278 1121.39 Q946.636 1124.42 946.636 1129.64 L946.636 1149.78 L940.748 1149.78 L940.748 1128.46 Q940.748 1123.3 938.934 1120.85 Q937.12 1118.37 933.332 1118.37 Q928.844 1118.37 926.202 1121.42 Q923.561 1124.45 923.561 1129.64 L923.561 1149.78 L917.672 1149.78 L917.672 1114.14 L923.561 1114.14 L923.561 1119.67 Q925.566 1116.4 928.367 1114.84 Q931.168 1113.28 935.019 1113.28 Q938.902 1113.28 941.607 1115.25 Q944.345 1117.22 945.65 1120.98 Z" fill="#000000" fill-rule="evenodd" fill-opacity="1" /><path clip-path="url(#clip860)" d="M 0 0 M998.581 1115.19 L998.581 1120.72 Q996.098 1119.45 993.424 1118.81 Q990.751 1118.18 987.886 1118.18 Q983.526 1118.18 981.329 1119.51 Q979.165 1120.85 979.165 1123.53 Q979.165 1125.56 980.725 1126.74 Q982.284 1127.89 986.995 1128.94 L989 1129.38 Q995.239 1130.72 997.848 1133.17 Q1000.49 1135.59 1000.49 1139.95 Q1000.49 1144.91 996.544 1147.81 Q992.629 1150.71 985.754 1150.71 Q982.889 1150.71 979.77 1150.13 Q976.683 1149.59 973.245 1148.48 L973.245 1142.43 Q976.492 1144.12 979.643 1144.98 Q982.794 1145.81 985.881 1145.81 Q990.019 1145.81 992.247 1144.4 Q994.475 1142.97 994.475 1140.39 Q994.475 1138.01 992.851 1136.73 Q991.26 1135.46 985.817 1134.28 L983.78 1133.81 Q978.338 1132.66 975.919 1130.3 Q973.5 1127.92 973.5 1123.78 Q973.5 1118.75 977.064 1116.01 Q980.629 1113.28 987.186 1113.28 Q990.432 1113.28 993.297 1113.75 Q996.162 1114.23 998.581 1115.19 Z" fill="#000000" fill-rule="evenodd" fill-opacity="1" /><path clip-path="url(#clip860)" d="M 0 0 M1005.71 1100.32 L1010.8 1100.32 Q1015.58 1107.83 1017.93 1115.03 Q1020.32 1122.22 1020.32 1129.32 Q1020.32 1136.45 1017.93 1143.67 Q1015.58 1150.9 1010.8 1158.38 L1005.71 1158.38 Q1009.94 1151.09 1012.01 1143.9 Q1014.11 1136.67 1014.11 1129.32 Q1014.11 1121.97 1012.01 1114.8 Q1009.94 1107.64 1005.71 1100.32 Z" fill="#000000" fill-rule="evenodd" fill-opacity="1" /><polyline clip-path="url(#clip862)" style="stroke:#000000; stroke-width:2; stroke-opacity:0.1; fill:none" points="
  209.542,993.223 1552.76,993.223 
  "/>
<polyline clip-path="url(#clip862)" style="stroke:#000000; stroke-width:2; stroke-opacity:0.1; fill:none" points="
  209.542,860.999 1552.76,860.999 
  "/>
<polyline clip-path="url(#clip862)" style="stroke:#000000; stroke-width:2; stroke-opacity:0.1; fill:none" points="
  209.542,728.774 1552.76,728.774 
  "/>
<polyline clip-path="url(#clip862)" style="stroke:#000000; stroke-width:2; stroke-opacity:0.1; fill:none" points="
  209.542,596.55 1552.76,596.55 
  "/>
<polyline clip-path="url(#clip862)" style="stroke:#000000; stroke-width:2; stroke-opacity:0.1; fill:none" points="
  209.542,464.325 1552.76,464.325 
  "/>
<polyline clip-path="url(#clip862)" style="stroke:#000000; stroke-width:2; stroke-opacity:0.1; fill:none" points="
  209.542,332.101 1552.76,332.101 
  "/>
<polyline clip-path="url(#clip862)" style="stroke:#000000; stroke-width:2; stroke-opacity:0.1; fill:none" points="
  209.542,199.876 1552.76,199.876 
  "/>
<polyline clip-path="url(#clip860)" style="stroke:#000000; stroke-width:4; stroke-opacity:1; fill:none" points="
  209.542,1016.92 209.542,179.632 
  "/>
<polyline clip-path="url(#clip860)" style="stroke:#000000; stroke-width:4; stroke-opacity:1; fill:none" points="
  209.542,993.223 225.661,993.223 
  "/>
<polyline clip-path="url(#clip860)" style="stroke:#000000; stroke-width:4; stroke-opacity:1; fill:none" points="
  209.542,860.999 225.661,860.999 
  "/>
<polyline clip-path="url(#clip860)" style="stroke:#000000; stroke-width:4; stroke-opacity:1; fill:none" points="
  209.542,728.774 225.661,728.774 
  "/>
<polyline clip-path="url(#clip860)" style="stroke:#000000; stroke-width:4; stroke-opacity:1; fill:none" points="
  209.542,596.55 225.661,596.55 
  "/>
<polyline clip-path="url(#clip860)" style="stroke:#000000; stroke-width:4; stroke-opacity:1; fill:none" points="
  209.542,464.325 225.661,464.325 
  "/>
<polyline clip-path="url(#clip860)" style="stroke:#000000; stroke-width:4; stroke-opacity:1; fill:none" points="
  209.542,332.101 225.661,332.101 
  "/>
<polyline clip-path="url(#clip860)" style="stroke:#000000; stroke-width:4; stroke-opacity:1; fill:none" points="
  209.542,199.876 225.661,199.876 
  "/>
<path clip-path="url(#clip860)" d="M 0 0 M136.631 979.022 Q133.02 979.022 131.191 982.587 Q129.385 986.128 129.385 993.258 Q129.385 1000.36 131.191 1003.93 Q133.02 1007.47 136.631 1007.47 Q140.265 1007.47 142.07 1003.93 Q143.899 1000.36 143.899 993.258 Q143.899 986.128 142.07 982.587 Q140.265 979.022 136.631 979.022 M136.631 975.318 Q142.441 975.318 145.496 979.924 Q148.575 984.508 148.575 993.258 Q148.575 1001.98 145.496 1006.59 Q142.441 1011.17 136.631 1011.17 Q130.82 1011.17 127.742 1006.59 Q124.686 1001.98 124.686 993.258 Q124.686 984.508 127.742 979.924 Q130.82 975.318 136.631 975.318 Z" fill="#000000" fill-rule="evenodd" fill-opacity="1" /><path clip-path="url(#clip860)" d="M 0 0 M153.644 1004.62 L158.529 1004.62 L158.529 1010.5 L153.644 1010.5 L153.644 1004.62 Z" fill="#000000" fill-rule="evenodd" fill-opacity="1" /><path clip-path="url(#clip860)" d="M 0 0 M173.598 979.022 Q169.987 979.022 168.158 982.587 Q166.353 986.128 166.353 993.258 Q166.353 1000.36 168.158 1003.93 Q169.987 1007.47 173.598 1007.47 Q177.232 1007.47 179.038 1003.93 Q180.867 1000.36 180.867 993.258 Q180.867 986.128 179.038 982.587 Q177.232 979.022 173.598 979.022 M173.598 975.318 Q179.408 975.318 182.464 979.924 Q185.542 984.508 185.542 993.258 Q185.542 1001.98 182.464 1006.59 Q179.408 1011.17 173.598 1011.17 Q167.788 1011.17 164.709 1006.59 Q161.654 1001.98 161.654 993.258 Q161.654 984.508 164.709 979.924 Q167.788 975.318 173.598 975.318 Z" fill="#000000" fill-rule="evenodd" fill-opacity="1" /><path clip-path="url(#clip860)" d="M 0 0 M137.857 846.797 Q134.246 846.797 132.418 850.362 Q130.612 853.904 130.612 861.033 Q130.612 868.14 132.418 871.704 Q134.246 875.246 137.857 875.246 Q141.492 875.246 143.297 871.704 Q145.126 868.14 145.126 861.033 Q145.126 853.904 143.297 850.362 Q141.492 846.797 137.857 846.797 M137.857 843.094 Q143.668 843.094 146.723 847.7 Q149.802 852.283 149.802 861.033 Q149.802 869.76 146.723 874.367 Q143.668 878.95 137.857 878.95 Q132.047 878.95 128.969 874.367 Q125.913 869.76 125.913 861.033 Q125.913 852.283 128.969 847.7 Q132.047 843.094 137.857 843.094 Z" fill="#000000" fill-rule="evenodd" fill-opacity="1" /><path clip-path="url(#clip860)" d="M 0 0 M154.871 872.399 L159.756 872.399 L159.756 878.279 L154.871 878.279 L154.871 872.399 Z" fill="#000000" fill-rule="evenodd" fill-opacity="1" /><path clip-path="url(#clip860)" d="M 0 0 M165.635 874.343 L173.274 874.343 L173.274 847.978 L164.964 849.644 L164.964 845.385 L173.228 843.719 L177.904 843.719 L177.904 874.343 L185.542 874.343 L185.542 878.279 L165.635 878.279 L165.635 874.343 Z" fill="#000000" fill-rule="evenodd" fill-opacity="1" /><path clip-path="url(#clip860)" d="M 0 0 M138.228 714.573 Q134.617 714.573 132.788 718.138 Q130.983 721.679 130.983 728.809 Q130.983 735.915 132.788 739.48 Q134.617 743.022 138.228 743.022 Q141.862 743.022 143.668 739.48 Q145.496 735.915 145.496 728.809 Q145.496 721.679 143.668 718.138 Q141.862 714.573 138.228 714.573 M138.228 710.869 Q144.038 710.869 147.094 715.476 Q150.172 720.059 150.172 728.809 Q150.172 737.536 147.094 742.142 Q144.038 746.725 138.228 746.725 Q132.418 746.725 129.339 742.142 Q126.283 737.536 126.283 728.809 Q126.283 720.059 129.339 715.476 Q132.418 710.869 138.228 710.869 Z" fill="#000000" fill-rule="evenodd" fill-opacity="1" /><path clip-path="url(#clip860)" d="M 0 0 M155.242 740.174 L160.126 740.174 L160.126 746.054 L155.242 746.054 L155.242 740.174 Z" fill="#000000" fill-rule="evenodd" fill-opacity="1" /><path clip-path="url(#clip860)" d="M 0 0 M169.223 742.119 L185.542 742.119 L185.542 746.054 L163.598 746.054 L163.598 742.119 Q166.26 739.364 170.843 734.735 Q175.45 730.082 176.63 728.739 Q178.876 726.216 179.755 724.48 Q180.658 722.721 180.658 721.031 Q180.658 718.276 178.714 716.54 Q176.792 714.804 173.691 714.804 Q171.492 714.804 169.038 715.568 Q166.607 716.332 163.83 717.883 L163.83 713.161 Q166.654 712.026 169.107 711.448 Q171.561 710.869 173.598 710.869 Q178.968 710.869 182.163 713.554 Q185.357 716.239 185.357 720.73 Q185.357 722.86 184.547 724.781 Q183.76 726.679 181.654 729.272 Q181.075 729.943 177.973 733.161 Q174.871 736.355 169.223 742.119 Z" fill="#000000" fill-rule="evenodd" fill-opacity="1" /><path clip-path="url(#clip860)" d="M 0 0 M137.279 582.348 Q133.668 582.348 131.839 585.913 Q130.033 589.455 130.033 596.584 Q130.033 603.691 131.839 607.256 Q133.668 610.797 137.279 610.797 Q140.913 610.797 142.719 607.256 Q144.547 603.691 144.547 596.584 Q144.547 589.455 142.719 585.913 Q140.913 582.348 137.279 582.348 M137.279 578.645 Q143.089 578.645 146.144 583.251 Q149.223 587.834 149.223 596.584 Q149.223 605.311 146.144 609.918 Q143.089 614.501 137.279 614.501 Q131.469 614.501 128.39 609.918 Q125.334 605.311 125.334 596.584 Q125.334 587.834 128.39 583.251 Q131.469 578.645 137.279 578.645 Z" fill="#000000" fill-rule="evenodd" fill-opacity="1" /><path clip-path="url(#clip860)" d="M 0 0 M154.293 607.95 L159.177 607.95 L159.177 613.83 L154.293 613.83 L154.293 607.95 Z" fill="#000000" fill-rule="evenodd" fill-opacity="1" /><path clip-path="url(#clip860)" d="M 0 0 M178.413 595.195 Q181.769 595.913 183.644 598.182 Q185.542 600.45 185.542 603.783 Q185.542 608.899 182.024 611.7 Q178.505 614.501 172.024 614.501 Q169.848 614.501 167.533 614.061 Q165.242 613.644 162.788 612.788 L162.788 608.274 Q164.732 609.408 167.047 609.987 Q169.362 610.566 171.885 610.566 Q176.283 610.566 178.575 608.83 Q180.89 607.093 180.89 603.783 Q180.89 600.728 178.737 599.015 Q176.607 597.279 172.788 597.279 L168.76 597.279 L168.76 593.436 L172.973 593.436 Q176.422 593.436 178.251 592.07 Q180.079 590.682 180.079 588.089 Q180.079 585.427 178.181 584.015 Q176.306 582.58 172.788 582.58 Q170.867 582.58 168.668 582.996 Q166.468 583.413 163.83 584.293 L163.83 580.126 Q166.492 579.385 168.806 579.015 Q171.144 578.645 173.205 578.645 Q178.529 578.645 181.63 581.075 Q184.732 583.483 184.732 587.603 Q184.732 590.473 183.089 592.464 Q181.445 594.432 178.413 595.195 Z" fill="#000000" fill-rule="evenodd" fill-opacity="1" /><path clip-path="url(#clip860)" d="M 0 0 M136.145 450.124 Q132.533 450.124 130.705 453.689 Q128.899 457.23 128.899 464.36 Q128.899 471.466 130.705 475.031 Q132.533 478.573 136.145 478.573 Q139.779 478.573 141.584 475.031 Q143.413 471.466 143.413 464.36 Q143.413 457.23 141.584 453.689 Q139.779 450.124 136.145 450.124 M136.145 446.42 Q141.955 446.42 145.01 451.027 Q148.089 455.61 148.089 464.36 Q148.089 473.087 145.01 477.693 Q141.955 482.276 136.145 482.276 Q130.334 482.276 127.256 477.693 Q124.2 473.087 124.2 464.36 Q124.2 455.61 127.256 451.027 Q130.334 446.42 136.145 446.42 Z" fill="#000000" fill-rule="evenodd" fill-opacity="1" /><path clip-path="url(#clip860)" d="M 0 0 M153.158 475.725 L158.043 475.725 L158.043 481.605 L153.158 481.605 L153.158 475.725 Z" fill="#000000" fill-rule="evenodd" fill-opacity="1" /><path clip-path="url(#clip860)" d="M 0 0 M175.959 451.119 L164.154 469.568 L175.959 469.568 L175.959 451.119 M174.732 447.045 L180.612 447.045 L180.612 469.568 L185.542 469.568 L185.542 473.457 L180.612 473.457 L180.612 481.605 L175.959 481.605 L175.959 473.457 L160.357 473.457 L160.357 468.943 L174.732 447.045 Z" fill="#000000" fill-rule="evenodd" fill-opacity="1" /><path clip-path="url(#clip860)" d="M 0 0 M137.626 317.899 Q134.015 317.899 132.186 321.464 Q130.381 325.006 130.381 332.135 Q130.381 339.242 132.186 342.807 Q134.015 346.348 137.626 346.348 Q141.26 346.348 143.066 342.807 Q144.894 339.242 144.894 332.135 Q144.894 325.006 143.066 321.464 Q141.26 317.899 137.626 317.899 M137.626 314.196 Q143.436 314.196 146.492 318.802 Q149.57 323.385 149.57 332.135 Q149.57 340.862 146.492 345.469 Q143.436 350.052 137.626 350.052 Q131.816 350.052 128.737 345.469 Q125.682 340.862 125.682 332.135 Q125.682 323.385 128.737 318.802 Q131.816 314.196 137.626 314.196 Z" fill="#000000" fill-rule="evenodd" fill-opacity="1" /><path clip-path="url(#clip860)" d="M 0 0 M154.64 343.501 L159.524 343.501 L159.524 349.381 L154.64 349.381 L154.64 343.501 Z" fill="#000000" fill-rule="evenodd" fill-opacity="1" /><path clip-path="url(#clip860)" d="M 0 0 M164.64 314.821 L182.996 314.821 L182.996 318.756 L168.922 318.756 L168.922 327.228 Q169.941 326.881 170.959 326.719 Q171.978 326.534 172.996 326.534 Q178.783 326.534 182.163 329.705 Q185.542 332.876 185.542 338.293 Q185.542 343.871 182.07 346.973 Q178.598 350.052 172.279 350.052 Q170.103 350.052 167.834 349.682 Q165.589 349.311 163.181 348.57 L163.181 343.871 Q165.265 345.006 167.487 345.561 Q169.709 346.117 172.186 346.117 Q176.191 346.117 178.529 344.01 Q180.867 341.904 180.867 338.293 Q180.867 334.682 178.529 332.575 Q176.191 330.469 172.186 330.469 Q170.311 330.469 168.436 330.885 Q166.584 331.302 164.64 332.182 L164.64 314.821 Z" fill="#000000" fill-rule="evenodd" fill-opacity="1" /><path clip-path="url(#clip860)" d="M 0 0 M136.469 185.675 Q132.858 185.675 131.029 189.24 Q129.223 192.781 129.223 199.911 Q129.223 207.017 131.029 210.582 Q132.858 214.124 136.469 214.124 Q140.103 214.124 141.908 210.582 Q143.737 207.017 143.737 199.911 Q143.737 192.781 141.908 189.24 Q140.103 185.675 136.469 185.675 M136.469 181.971 Q142.279 181.971 145.334 186.578 Q148.413 191.161 148.413 199.911 Q148.413 208.638 145.334 213.244 Q142.279 217.827 136.469 217.827 Q130.658 217.827 127.58 213.244 Q124.524 208.638 124.524 199.911 Q124.524 191.161 127.58 186.578 Q130.658 181.971 136.469 181.971 Z" fill="#000000" fill-rule="evenodd" fill-opacity="1" /><path clip-path="url(#clip860)" d="M 0 0 M153.482 211.277 L158.367 211.277 L158.367 217.156 L153.482 217.156 L153.482 211.277 Z" fill="#000000" fill-rule="evenodd" fill-opacity="1" /><path clip-path="url(#clip860)" d="M 0 0 M174.015 198.013 Q170.867 198.013 169.015 200.165 Q167.186 202.318 167.186 206.068 Q167.186 209.795 169.015 211.971 Q170.867 214.124 174.015 214.124 Q177.163 214.124 178.992 211.971 Q180.843 209.795 180.843 206.068 Q180.843 202.318 178.992 200.165 Q177.163 198.013 174.015 198.013 M183.297 183.36 L183.297 187.619 Q181.538 186.786 179.732 186.346 Q177.95 185.906 176.191 185.906 Q171.561 185.906 169.107 189.031 Q166.677 192.156 166.33 198.476 Q167.695 196.462 169.755 195.397 Q171.816 194.309 174.292 194.309 Q179.501 194.309 182.51 197.48 Q185.542 200.628 185.542 206.068 Q185.542 211.392 182.394 214.61 Q179.246 217.827 174.015 217.827 Q168.019 217.827 164.848 213.244 Q161.677 208.638 161.677 199.911 Q161.677 191.716 165.566 186.855 Q169.455 181.971 176.005 181.971 Q177.765 181.971 179.547 182.318 Q181.353 182.666 183.297 183.36 Z" fill="#000000" fill-rule="evenodd" fill-opacity="1" /><path clip-path="url(#clip860)" d="M 0 0 M44.758 686.234 L68.4066 694.955 L68.4066 677.481 L44.758 686.234 M38.4242 689.863 L38.4242 682.574 L85.9442 664.463 L85.9442 671.147 L73.7538 675.476 L73.7538 696.897 L85.9442 701.225 L85.9442 708.005 L38.4242 689.863 Z" fill="#000000" fill-rule="evenodd" fill-opacity="1" /><path clip-path="url(#clip860)" d="M 0 0 M51.6648 633.813 L57.1393 633.813 Q55.7707 636.295 55.1023 638.81 Q54.4021 641.292 54.4021 643.839 Q54.4021 649.536 58.0305 652.687 Q61.6272 655.838 68.152 655.838 Q74.6769 655.838 78.3053 652.687 Q81.9019 649.536 81.9019 643.839 Q81.9019 641.292 81.2335 638.81 Q80.5333 636.295 79.1647 633.813 L84.5755 633.813 Q85.7214 636.263 86.2943 638.905 Q86.8672 641.515 86.8672 644.475 Q86.8672 652.528 81.8064 657.27 Q76.7457 662.013 68.152 662.013 Q59.431 662.013 54.4339 657.238 Q49.4368 652.432 49.4368 644.093 Q49.4368 641.388 50.0097 638.81 Q50.5508 636.232 51.6648 633.813 Z" fill="#000000" fill-rule="evenodd" fill-opacity="1" /><path clip-path="url(#clip860)" d="M 0 0 M40.1747 621.877 L50.2962 621.877 L50.2962 609.814 L54.8477 609.814 L54.8477 621.877 L74.1994 621.877 Q78.5599 621.877 79.8013 620.699 Q81.0426 619.49 81.0426 615.829 L81.0426 609.814 L85.9442 609.814 L85.9442 615.829 Q85.9442 622.609 83.4297 625.187 Q80.8834 627.765 74.1994 627.765 L54.8477 627.765 L54.8477 632.062 L50.2962 632.062 L50.2962 627.765 L40.1747 627.765 L40.1747 621.877 Z" fill="#000000" fill-rule="evenodd" fill-opacity="1" /><path clip-path="url(#clip860)" d="M 0 0 M50.2962 603.671 L50.2962 597.814 L85.9442 597.814 L85.9442 603.671 L50.2962 603.671 M36.419 603.671 L36.419 597.814 L43.835 597.814 L43.835 603.671 L36.419 603.671 Z" fill="#000000" fill-rule="evenodd" fill-opacity="1" /><path clip-path="url(#clip860)" d="M 0 0 M50.2962 595.873 L50.2962 589.666 L80.215 578.526 L50.2962 567.386 L50.2962 561.18 L85.9442 574.548 L85.9442 582.505 L50.2962 595.873 Z" fill="#000000" fill-rule="evenodd" fill-opacity="1" /><path clip-path="url(#clip860)" d="M 0 0 M50.2962 555.037 L50.2962 549.18 L85.9442 549.18 L85.9442 555.037 L50.2962 555.037 M36.419 555.037 L36.419 549.18 L43.835 549.18 L43.835 555.037 L36.419 555.037 Z" fill="#000000" fill-rule="evenodd" fill-opacity="1" /><path clip-path="url(#clip860)" d="M 0 0 M40.1747 537.245 L50.2962 537.245 L50.2962 525.182 L54.8477 525.182 L54.8477 537.245 L74.1994 537.245 Q78.5599 537.245 79.8013 536.067 Q81.0426 534.858 81.0426 531.197 L81.0426 525.182 L85.9442 525.182 L85.9442 531.197 Q85.9442 537.977 83.4297 540.555 Q80.8834 543.133 74.1994 543.133 L54.8477 543.133 L54.8477 547.43 L50.2962 547.43 L50.2962 543.133 L40.1747 543.133 L40.1747 537.245 Z" fill="#000000" fill-rule="evenodd" fill-opacity="1" /><path clip-path="url(#clip860)" d="M 0 0 M89.2543 504.207 Q95.62 506.689 97.5616 509.045 Q99.5031 511.4 99.5031 515.347 L99.5031 520.026 L94.6015 520.026 L94.6015 516.588 Q94.6015 514.169 93.4557 512.832 Q92.3099 511.495 88.0448 509.872 L85.3712 508.822 L50.2962 523.24 L50.2962 517.034 L78.178 505.894 L50.2962 494.754 L50.2962 488.547 L89.2543 504.207 Z" fill="#000000" fill-rule="evenodd" fill-opacity="1" /><path clip-path="url(#clip860)" d="M 0 0 M610.96 12.0694 L610.96 18.9096 Q606.967 16.9999 603.425 16.0624 Q599.883 15.1249 596.585 15.1249 Q590.856 15.1249 587.731 17.3471 Q584.64 19.5693 584.64 23.6665 Q584.64 27.104 586.689 28.8748 Q588.772 30.6109 594.536 31.6873 L598.772 32.5554 Q606.619 34.0484 610.335 37.8331 Q614.085 41.5831 614.085 47.9025 Q614.085 55.4372 609.015 59.3261 Q603.981 63.2149 594.224 63.2149 Q590.543 63.2149 586.376 62.3816 Q582.245 61.5483 577.8 59.9163 L577.8 52.6942 Q582.071 55.09 586.168 56.3053 Q590.265 57.5205 594.224 57.5205 Q600.231 57.5205 603.494 55.1594 Q606.758 52.7983 606.758 48.4234 Q606.758 44.6039 604.397 42.4512 Q602.071 40.2984 596.724 39.222 L592.453 38.3887 Q584.606 36.8262 581.099 33.4929 Q577.592 30.1596 577.592 24.2221 Q577.592 17.3471 582.418 13.3888 Q587.279 9.43051 595.786 9.43051 Q599.432 9.43051 603.217 10.0902 Q607.001 10.7499 610.96 12.0694 Z" fill="#000000" fill-rule="evenodd" fill-opacity="1" /><path clip-path="url(#clip860)" d="M 0 0 M652.14 12.0694 L652.14 18.9096 Q648.147 16.9999 644.605 16.0624 Q641.064 15.1249 637.765 15.1249 Q632.036 15.1249 628.911 17.3471 Q625.821 19.5693 625.821 23.6665 Q625.821 27.104 627.869 28.8748 Q629.953 30.6109 635.716 31.6873 L639.953 32.5554 Q647.8 34.0484 651.515 37.8331 Q655.265 41.5831 655.265 47.9025 Q655.265 55.4372 650.196 59.3261 Q645.161 63.2149 635.404 63.2149 Q631.723 63.2149 627.557 62.3816 Q623.425 61.5483 618.98 59.9163 L618.98 52.6942 Q623.251 55.09 627.348 56.3053 Q631.446 57.5205 635.404 57.5205 Q641.411 57.5205 644.675 55.1594 Q647.939 52.7983 647.939 48.4234 Q647.939 44.6039 645.578 42.4512 Q643.251 40.2984 637.904 39.222 L633.633 38.3887 Q625.786 36.8262 622.279 33.4929 Q618.772 30.1596 618.772 24.2221 Q618.772 17.3471 623.598 13.3888 Q628.46 9.43051 636.966 9.43051 Q640.612 9.43051 644.397 10.0902 Q648.182 10.7499 652.14 12.0694 Z" fill="#000000" fill-rule="evenodd" fill-opacity="1" /><path clip-path="url(#clip860)" d="M 0 0 M662.244 10.368 L671.688 10.368 L694.674 53.7358 L694.674 10.368 L701.48 10.368 L701.48 62.208 L692.036 62.208 L669.05 18.8402 L669.05 62.208 L662.244 62.208 L662.244 10.368 Z" fill="#000000" fill-rule="evenodd" fill-opacity="1" /><path clip-path="url(#clip860)" d="M 0 0 M762.139 12.0694 L762.139 18.9096 Q758.146 16.9999 754.605 16.0624 Q751.063 15.1249 747.764 15.1249 Q742.035 15.1249 738.91 17.3471 Q735.82 19.5693 735.82 23.6665 Q735.82 27.104 737.869 28.8748 Q739.952 30.6109 745.716 31.6873 L749.952 32.5554 Q757.799 34.0484 761.514 37.8331 Q765.264 41.5831 765.264 47.9025 Q765.264 55.4372 760.195 59.3261 Q755.16 63.2149 745.403 63.2149 Q741.723 63.2149 737.556 62.3816 Q733.424 61.5483 728.98 59.9163 L728.98 52.6942 Q733.251 55.09 737.348 56.3053 Q741.445 57.5205 745.403 57.5205 Q751.41 57.5205 754.674 55.1594 Q757.938 52.7983 757.938 48.4234 Q757.938 44.6039 755.577 42.4512 Q753.251 40.2984 747.903 39.222 L743.633 38.3887 Q735.785 36.8262 732.278 33.4929 Q728.772 30.1596 728.772 24.2221 Q728.772 17.3471 733.598 13.3888 Q738.459 9.43051 746.966 9.43051 Q750.612 9.43051 754.396 10.0902 Q758.181 10.7499 762.139 12.0694 Z" fill="#000000" fill-rule="evenodd" fill-opacity="1" /><path clip-path="url(#clip860)" d="M 0 0 M771.966 23.3193 L778.355 23.3193 L778.355 62.208 L771.966 62.208 L771.966 23.3193 M771.966 8.18051 L778.355 8.18051 L778.355 16.2707 L771.966 16.2707 L771.966 8.18051 Z" fill="#000000" fill-rule="evenodd" fill-opacity="1" /><path clip-path="url(#clip860)" d="M 0 0 M815.334 30.7846 Q817.729 26.479 821.063 24.4304 Q824.396 22.3818 828.91 22.3818 Q834.986 22.3818 838.285 26.6526 Q841.583 30.8887 841.583 38.7359 L841.583 62.208 L835.16 62.208 L835.16 38.9442 Q835.16 33.354 833.181 30.6457 Q831.202 27.9374 827.139 27.9374 Q822.174 27.9374 819.292 31.2359 Q816.41 34.5345 816.41 40.229 L816.41 62.208 L809.986 62.208 L809.986 38.9442 Q809.986 33.3193 808.007 30.6457 Q806.028 27.9374 801.896 27.9374 Q797 27.9374 794.118 31.2707 Q791.236 34.5693 791.236 40.229 L791.236 62.208 L784.813 62.208 L784.813 23.3193 L791.236 23.3193 L791.236 29.361 Q793.424 25.7846 796.479 24.0832 Q799.535 22.3818 803.736 22.3818 Q807.972 22.3818 810.924 24.5346 Q813.91 26.6874 815.334 30.7846 Z" fill="#000000" fill-rule="evenodd" fill-opacity="1" /><path clip-path="url(#clip860)" d="M 0 0 M847.625 46.8609 L847.625 23.3193 L854.014 23.3193 L854.014 46.6178 Q854.014 52.1386 856.167 54.9164 Q858.319 57.6594 862.625 57.6594 Q867.799 57.6594 870.785 54.3608 Q873.805 51.0622 873.805 45.3678 L873.805 23.3193 L880.194 23.3193 L880.194 62.208 L873.805 62.208 L873.805 56.2358 Q871.479 59.7775 868.389 61.5136 Q865.333 63.2149 861.271 63.2149 Q854.569 63.2149 851.097 59.0483 Q847.625 54.8817 847.625 46.8609 M863.701 22.3818 L863.701 22.3818 Z" fill="#000000" fill-rule="evenodd" fill-opacity="1" /><path clip-path="url(#clip860)" d="M 0 0 M886.896 8.18051 L893.285 8.18051 L893.285 62.208 L886.896 62.208 L886.896 8.18051 Z" fill="#000000" fill-rule="evenodd" fill-opacity="1" /><path clip-path="url(#clip860)" d="M 0 0 M917.659 42.6595 Q909.916 42.6595 906.93 44.4303 Q903.944 46.2011 903.944 50.472 Q903.944 53.8747 906.166 55.8886 Q908.423 57.8677 912.277 57.8677 Q917.59 57.8677 920.784 54.1178 Q924.014 50.3331 924.014 44.0831 L924.014 42.6595 L917.659 42.6595 M930.402 40.0206 L930.402 62.208 L924.014 62.208 L924.014 56.3053 Q921.826 59.8469 918.562 61.5483 Q915.298 63.2149 910.576 63.2149 Q904.604 63.2149 901.062 59.8816 Q897.555 56.5136 897.555 50.8886 Q897.555 44.3262 901.93 40.9928 Q906.34 37.6595 915.055 37.6595 L924.014 37.6595 L924.014 37.0345 Q924.014 32.6248 921.097 30.229 Q918.215 27.7985 912.972 27.7985 Q909.639 27.7985 906.479 28.5971 Q903.319 29.3957 900.403 30.9929 L900.403 25.0901 Q903.909 23.736 907.208 23.0763 Q910.507 22.3818 913.632 22.3818 Q922.069 22.3818 926.236 26.7568 Q930.402 31.1318 930.402 40.0206 Z" fill="#000000" fill-rule="evenodd" fill-opacity="1" /><path clip-path="url(#clip860)" d="M 0 0 M943.423 12.2777 L943.423 23.3193 L956.583 23.3193 L956.583 28.2846 L943.423 28.2846 L943.423 49.3956 Q943.423 54.1525 944.708 55.5066 Q946.027 56.8608 950.02 56.8608 L956.583 56.8608 L956.583 62.208 L950.02 62.208 Q942.625 62.208 939.812 59.465 Q937 56.6872 937 49.3956 L937 28.2846 L932.312 28.2846 L932.312 23.3193 L937 23.3193 L937 12.2777 L943.423 12.2777 Z" fill="#000000" fill-rule="evenodd" fill-opacity="1" /><path clip-path="url(#clip860)" d="M 0 0 M963.284 23.3193 L969.673 23.3193 L969.673 62.208 L963.284 62.208 L963.284 23.3193 M963.284 8.18051 L969.673 8.18051 L969.673 16.2707 L963.284 16.2707 L963.284 8.18051 Z" fill="#000000" fill-rule="evenodd" fill-opacity="1" /><path clip-path="url(#clip860)" d="M 0 0 M991.444 27.7985 Q986.305 27.7985 983.319 31.8262 Q980.333 35.8193 980.333 42.7984 Q980.333 49.7775 983.284 53.8053 Q986.27 57.7983 991.444 57.7983 Q996.548 57.7983 999.534 53.7705 Q1002.52 49.7428 1002.52 42.7984 Q1002.52 35.8887 999.534 31.8609 Q996.548 27.7985 991.444 27.7985 M991.444 22.3818 Q999.777 22.3818 1004.53 27.7985 Q1009.29 33.2151 1009.29 42.7984 Q1009.29 52.3469 1004.53 57.7983 Q999.777 63.2149 991.444 63.2149 Q983.076 63.2149 978.319 57.7983 Q973.597 52.3469 973.597 42.7984 Q973.597 33.2151 978.319 27.7985 Q983.076 22.3818 991.444 22.3818 Z" fill="#000000" fill-rule="evenodd" fill-opacity="1" /><path clip-path="url(#clip860)" d="M 0 0 M1048.32 38.7359 L1048.32 62.208 L1041.93 62.208 L1041.93 38.9442 Q1041.93 33.4234 1039.78 30.6804 Q1037.62 27.9374 1033.32 27.9374 Q1028.14 27.9374 1025.16 31.2359 Q1022.17 34.5345 1022.17 40.229 L1022.17 62.208 L1015.75 62.208 L1015.75 23.3193 L1022.17 23.3193 L1022.17 29.361 Q1024.46 25.854 1027.55 24.1179 Q1030.68 22.3818 1034.74 22.3818 Q1041.44 22.3818 1044.88 26.5485 Q1048.32 30.6804 1048.32 38.7359 Z" fill="#000000" fill-rule="evenodd" fill-opacity="1" /><path clip-path="url(#clip860)" d="M 0 0 M1084.57 56.3053 L1109.05 56.3053 L1109.05 62.208 L1076.13 62.208 L1076.13 56.3053 Q1080.12 52.1733 1087 45.2289 Q1093.91 38.2498 1095.68 36.2359 Q1099.05 32.4512 1100.37 29.8471 Q1101.72 27.2082 1101.72 24.6735 Q1101.72 20.5416 1098.8 17.9374 Q1095.92 15.3333 1091.27 15.3333 Q1087.97 15.3333 1084.29 16.4791 Q1080.64 17.6249 1076.48 19.9513 L1076.48 12.868 Q1080.71 11.1666 1084.39 10.2986 Q1088.08 9.43051 1091.13 9.43051 Q1099.19 9.43051 1103.98 13.4583 Q1108.77 17.486 1108.77 24.2221 Q1108.77 27.4165 1107.55 30.2984 Q1106.37 33.1457 1103.21 37.0345 Q1102.35 38.0415 1097.69 42.8678 Q1093.04 47.6595 1084.57 56.3053 Z" fill="#000000" fill-rule="evenodd" fill-opacity="1" /><path clip-path="url(#clip860)" d="M 0 0 M1116.65 53.3886 L1123.98 53.3886 L1123.98 62.208 L1116.65 62.208 L1116.65 53.3886 Z" fill="#000000" fill-rule="evenodd" fill-opacity="1" /><path clip-path="url(#clip860)" d="M 0 0 M1137.62 56.3053 L1162.1 56.3053 L1162.1 62.208 L1129.19 62.208 L1129.19 56.3053 Q1133.18 52.1733 1140.05 45.2289 Q1146.96 38.2498 1148.73 36.2359 Q1152.1 32.4512 1153.42 29.8471 Q1154.78 27.2082 1154.78 24.6735 Q1154.78 20.5416 1151.86 17.9374 Q1148.98 15.3333 1144.32 15.3333 Q1141.03 15.3333 1137.35 16.4791 Q1133.7 17.6249 1129.53 19.9513 L1129.53 12.868 Q1133.77 11.1666 1137.45 10.2986 Q1141.13 9.43051 1144.19 9.43051 Q1152.24 9.43051 1157.03 13.4583 Q1161.82 17.486 1161.82 24.2221 Q1161.82 27.4165 1160.61 30.2984 Q1159.43 33.1457 1156.27 37.0345 Q1155.4 38.0415 1150.75 42.8678 Q1146.1 47.6595 1137.62 56.3053 Z" fill="#000000" fill-rule="evenodd" fill-opacity="1" /><path clip-path="url(#clip860)" d="M 0 0 M765.941 86.01 Q761.289 93.996 759.032 101.808 Q756.775 109.621 756.775 117.642 Q756.775 125.663 759.032 133.544 Q761.323 141.392 765.941 149.343 L760.386 149.343 Q755.178 141.183 752.573 133.301 Q750.004 125.419 750.004 117.642 Q750.004 109.899 752.573 102.052 Q755.143 94.2044 760.386 86.01 L765.941 86.01 Z" fill="#000000" fill-rule="evenodd" fill-opacity="1" /><path clip-path="url(#clip860)" d="M 0 0 M771.983 124.621 L771.983 101.079 L778.372 101.079 L778.372 124.378 Q778.372 129.899 780.525 132.676 Q782.677 135.419 786.983 135.419 Q792.157 135.419 795.143 132.121 Q798.163 128.822 798.163 123.128 L798.163 101.079 L804.552 101.079 L804.552 139.968 L798.163 139.968 L798.163 133.996 Q795.837 137.537 792.747 139.274 Q789.691 140.975 785.629 140.975 Q778.927 140.975 775.455 136.808 Q771.983 132.642 771.983 124.621 M788.059 100.142 L788.059 100.142 Z" fill="#000000" fill-rule="evenodd" fill-opacity="1" /><path clip-path="url(#clip860)" d="M 0 0 M829.726 128.197 L829.726 129.933 L811.219 129.933 Q811.497 133.614 813.719 135.558 Q815.976 137.503 819.969 137.503 Q822.295 137.503 824.483 136.982 Q826.636 136.496 828.788 135.489 L828.788 138.857 Q826.636 139.69 824.344 140.107 Q822.087 140.524 819.726 140.524 Q813.858 140.524 810.455 137.503 Q807.018 134.482 807.018 129.308 Q807.018 123.961 810.281 120.801 Q813.511 117.676 819.031 117.676 Q823.962 117.676 826.844 120.489 Q829.726 123.336 829.726 128.197 M825.698 127.121 Q825.663 124.204 823.858 122.433 Q822.052 120.697 819.066 120.697 Q815.698 120.697 813.684 122.399 Q811.67 124.065 811.358 127.121 L825.698 127.121 Z" fill="#000000" fill-rule="evenodd" fill-opacity="1" /><path clip-path="url(#clip860)" d="M 0 0 M837.261 107.677 L881.774 107.677 L881.774 113.51 L837.261 113.51 L837.261 107.677 M837.261 121.843 L881.774 121.843 L881.774 127.746 L837.261 127.746 L837.261 121.843 Z" fill="#000000" fill-rule="evenodd" fill-opacity="1" /><path clip-path="url(#clip860)" d="M 0 0 M887.816 124.621 L887.816 101.079 L894.205 101.079 L894.205 124.378 Q894.205 129.899 896.357 132.676 Q898.51 135.419 902.816 135.419 Q907.989 135.419 910.975 132.121 Q913.996 128.822 913.996 123.128 L913.996 101.079 L920.385 101.079 L920.385 139.968 L913.996 139.968 L913.996 133.996 Q911.67 137.537 908.58 139.274 Q905.524 140.975 901.462 140.975 Q894.76 140.975 891.288 136.808 Q887.816 132.642 887.816 124.621 M903.892 100.142 L903.892 100.142 Z" fill="#000000" fill-rule="evenodd" fill-opacity="1" /><path clip-path="url(#clip860)" d="M 0 0 M924.621 118.197 L928.649 118.197 L928.649 139.968 L924.621 139.968 L924.621 118.197 M924.621 109.725 L928.649 109.725 L928.649 114.239 L924.621 114.239 L924.621 109.725 Z" fill="#000000" fill-rule="evenodd" fill-opacity="1" /><path clip-path="url(#clip860)" d="M 0 0 M936.184 107.677 L980.697 107.677 L980.697 113.51 L936.184 113.51 L936.184 107.677 M936.184 121.843 L980.697 121.843 L980.697 127.746 L936.184 127.746 L936.184 121.843 Z" fill="#000000" fill-rule="evenodd" fill-opacity="1" /><path clip-path="url(#clip860)" d="M 0 0 M989.517 134.065 L1000.97 134.065 L1000.97 94.5169 L988.51 97.0168 L988.51 90.628 L1000.91 88.128 L1007.92 88.128 L1007.92 134.065 L1019.38 134.065 L1019.38 139.968 L989.517 139.968 L989.517 134.065 Z" fill="#000000" fill-rule="evenodd" fill-opacity="1" /><path clip-path="url(#clip860)" d="M 0 0 M1025.07 86.01 L1030.63 86.01 Q1035.84 94.2044 1038.41 102.052 Q1041.01 109.899 1041.01 117.642 Q1041.01 125.419 1038.41 133.301 Q1035.84 141.183 1030.63 149.343 L1025.07 149.343 Q1029.69 141.392 1031.95 133.544 Q1034.24 125.663 1034.24 117.642 Q1034.24 109.621 1031.95 101.808 Q1029.69 93.996 1025.07 86.01 Z" fill="#000000" fill-rule="evenodd" fill-opacity="1" /><polyline clip-path="url(#clip862)" style="stroke:#009af9; stroke-width:4; stroke-opacity:1; fill:none" points="
  247.558,993.223 248.825,980.001 250.092,966.99 251.359,954.197 252.627,941.629 253.894,929.292 255.161,917.192 256.428,905.335 257.695,893.726 258.963,882.37 
  260.23,871.272 261.497,860.436 262.764,849.865 264.031,839.564 265.298,829.535 266.566,819.78 267.833,810.303 269.1,801.105 270.367,792.187 271.634,783.551 
  272.902,775.196 274.169,767.123 275.436,759.333 276.703,751.823 277.97,744.594 279.237,737.644 280.505,730.971 281.772,724.573 283.039,718.447 284.306,712.592 
  285.573,707.003 286.841,701.678 288.108,696.613 289.375,691.805 290.642,687.248 291.909,682.939 293.176,678.874 294.444,675.047 295.711,671.454 296.978,668.09 
  298.245,664.949 299.512,662.027 300.78,659.318 302.047,656.817 303.314,654.518 304.581,652.416 305.848,650.504 307.115,648.779 308.383,647.233 309.65,645.862 
  310.917,644.659 312.184,643.62 313.451,642.738 314.719,642.009 315.986,641.426 317.253,640.985 318.52,640.68 319.787,640.506 321.054,640.458 322.322,640.531 
  323.589,640.719 324.856,641.019 326.123,641.425 327.39,641.933 328.658,642.538 329.925,643.236 331.192,644.023 332.459,644.893 333.726,645.845 334.993,646.872 
  336.261,647.972 337.528,649.141 338.795,650.375 340.062,651.671 341.329,653.025 342.597,654.434 343.864,655.895 345.131,657.405 346.398,658.961 347.665,660.561 
  348.932,662.201 350.2,663.878 351.467,665.591 352.734,667.337 354.001,669.114 355.268,670.918 356.536,672.75 357.803,674.605 359.07,676.482 360.337,678.38 
  361.604,680.296 362.872,682.229 364.139,684.177 365.406,686.139 366.673,688.113 367.94,690.097 369.207,692.09 370.475,694.091 371.742,696.099 373.009,698.113 
  374.276,700.13 375.543,702.151 376.811,704.174 378.078,706.198 379.345,708.222 380.612,710.245 381.879,712.267 383.146,714.287 384.414,716.304 385.681,718.316 
  386.948,720.325 388.215,722.328 389.482,724.325 390.75,726.315 392.017,728.299 393.284,730.276 394.551,732.244 395.818,734.204 397.085,736.155 398.353,738.097 
  399.62,740.029 400.887,741.951 402.154,743.862 403.421,745.763 404.689,747.652 405.956,749.531 407.223,751.397 408.49,753.252 409.757,755.094 411.024,756.924 
  412.292,758.742 413.559,760.547 414.826,762.338 416.093,764.117 417.36,765.882 418.628,767.634 419.895,769.373 421.162,771.097 422.429,772.808 423.696,774.505 
  424.963,776.188 426.231,777.856 427.498,779.511 428.765,781.151 430.032,782.777 431.299,784.389 432.567,785.986 433.834,787.569 435.101,789.137 436.368,790.69 
  437.635,792.23 438.902,793.754 440.17,795.264 441.437,796.759 442.704,798.24 443.971,799.706 445.238,801.158 446.506,802.595 447.773,804.017 449.04,805.425 
  450.307,806.819 451.574,808.198 452.841,809.562 454.109,810.912 455.376,812.247 456.643,813.569 457.91,814.875 459.177,816.168 460.445,817.446 461.712,818.71 
  462.979,819.96 464.246,821.196 465.513,822.418 466.78,823.625 468.048,824.819 469.315,825.999 470.582,827.165 471.849,828.317 473.116,829.456 474.384,830.581 
  475.651,831.692 476.918,832.79 478.185,833.875 479.452,834.946 480.719,836.003 481.987,837.048 483.254,838.079 484.521,839.098 485.788,840.103 487.055,841.095 
  488.323,842.075 489.59,843.042 490.857,843.996 492.124,844.937 493.391,845.866 494.658,846.782 495.926,847.686 497.193,848.578 498.46,849.458 499.727,850.325 
  500.994,851.181 502.262,852.024 503.529,852.856 504.796,853.675 506.063,854.484 507.33,855.28 508.597,856.065 509.865,856.838 511.132,857.601 512.399,858.352 
  513.666,859.091 514.933,859.82 516.201,860.537 517.468,861.244 518.735,861.94 520.002,862.625 521.269,863.3 522.537,863.964 523.804,864.617 525.071,865.26 
  526.338,865.893 527.605,866.516 528.872,867.128 530.14,867.731 531.407,868.323 532.674,868.906 533.941,869.479 535.208,870.042 536.476,870.596 537.743,871.14 
  539.01,871.675 540.277,872.201 541.544,872.717 542.811,873.224 544.079,873.723 545.346,874.212 546.613,874.692 547.88,875.164 549.147,875.627 550.415,876.082 
  551.682,876.528 552.949,876.965 554.216,877.395 555.483,877.816 556.75,878.229 558.018,878.633 559.285,879.03 560.552,879.419 561.819,879.801 563.086,880.174 
  564.354,880.54 565.621,880.899 566.888,881.25 568.155,881.594 569.422,881.93 570.689,882.259 571.957,882.581 573.224,882.897 574.491,883.205 575.758,883.506 
  577.025,883.801 578.293,884.089 579.56,884.371 580.827,884.645 582.094,884.914 583.361,885.176 584.628,885.432 585.896,885.682 587.163,885.926 588.43,886.163 
  589.697,886.395 590.964,886.621 592.232,886.841 593.499,887.056 594.766,887.265 596.033,887.468 597.3,887.666 598.567,887.858 599.835,888.045 601.102,888.227 
  602.369,888.404 603.636,888.576 604.903,888.743 606.171,888.905 607.438,889.062 608.705,889.214 609.972,889.361 611.239,889.504 612.506,889.643 613.774,889.776 
  615.041,889.906 616.308,890.031 617.575,890.152 618.842,890.268 620.11,890.381 621.377,890.489 622.644,890.594 623.911,890.694 625.178,890.791 626.445,890.884 
  627.713,890.973 628.98,891.058 630.247,891.14 631.514,891.218 632.781,891.293 634.049,891.364 635.316,891.432 636.583,891.497 637.85,891.558 639.117,891.617 
  640.384,891.672 641.652,891.724 642.919,891.773 644.186,891.82 645.453,891.863 646.72,891.903 647.988,891.941 649.255,891.976 650.522,892.009 651.789,892.038 
  653.056,892.066 654.323,892.09 655.591,892.113 656.858,892.133 658.125,892.15 659.392,892.165 660.659,892.179 661.927,892.189 663.194,892.198 664.461,892.205 
  665.728,892.209 666.995,892.212 668.262,892.213 669.53,892.212 670.797,892.209 672.064,892.204 673.331,892.197 674.598,892.189 675.866,892.179 677.133,892.167 
  678.4,892.154 679.667,892.139 680.934,892.123 682.202,892.105 683.469,892.086 684.736,892.065 686.003,892.043 687.27,892.02 688.537,891.995 689.805,891.97 
  691.072,891.943 692.339,891.915 693.606,891.886 694.873,891.855 696.141,891.824 697.408,891.791 698.675,891.758 699.942,891.724 701.209,891.689 702.476,891.652 
  703.744,891.615 705.011,891.578 706.278,891.539 707.545,891.5 708.812,891.46 710.08,891.419 711.347,891.377 712.614,891.335 713.881,891.292 715.148,891.249 
  716.415,891.205 717.683,891.161 718.95,891.116 720.217,891.07 721.484,891.024 722.751,890.978 724.019,890.931 725.286,890.884 726.553,890.836 727.82,890.788 
  729.087,890.74 730.354,890.691 731.622,890.642 732.889,890.593 734.156,890.544 735.423,890.494 736.69,890.444 737.958,890.394 739.225,890.344 740.492,890.294 
  741.759,890.244 743.026,890.193 744.293,890.142 745.561,890.092 746.828,890.041 748.095,889.99 749.362,889.939 750.629,889.888 751.897,889.837 753.164,889.786 
  754.431,889.735 755.698,889.685 756.965,889.634 758.232,889.583 759.5,889.532 760.767,889.482 762.034,889.431 763.301,889.381 764.568,889.331 765.836,889.281 
  767.103,889.231 768.37,889.181 769.637,889.131 770.904,889.082 772.171,889.033 773.439,888.984 774.706,888.935 775.973,888.886 777.24,888.838 778.507,888.79 
  779.775,888.742 781.042,888.694 782.309,888.647 783.576,888.6 784.843,888.553 786.11,888.506 787.378,888.46 788.645,888.414 789.912,888.368 791.179,888.323 
  792.446,888.278 793.714,888.233 794.981,888.188 796.248,888.144 797.515,888.1 798.782,888.057 800.049,888.014 801.317,887.971 802.584,887.928 803.851,887.886 
  805.118,887.844 806.385,887.803 807.653,887.762 808.92,887.721 810.187,887.681 811.454,887.641 812.721,887.601 813.988,887.562 815.256,887.523 816.523,887.485 
  817.79,887.446 819.057,887.409 820.324,887.371 821.592,887.334 822.859,887.298 824.126,887.261 825.393,887.226 826.66,887.19 827.927,887.155 829.195,887.12 
  830.462,887.086 831.729,887.052 832.996,887.019 834.263,886.985 835.531,886.953 836.798,886.92 838.065,886.888 839.332,886.857 840.599,886.826 841.867,886.795 
  843.134,886.764 844.401,886.734 845.668,886.704 846.935,886.675 848.202,886.646 849.47,886.618 850.737,886.59 852.004,886.562 853.271,886.534 854.538,886.507 
  855.806,886.481 857.073,886.454 858.34,886.428 859.607,886.403 860.874,886.378 862.141,886.353 863.409,886.328 864.676,886.304 865.943,886.281 867.21,886.257 
  868.477,886.234 869.745,886.211 871.012,886.189 872.279,886.167 873.546,886.145 874.813,886.124 876.08,886.103 877.348,886.083 878.615,886.062 879.882,886.042 
  881.149,886.023 882.416,886.003 883.684,885.984 884.951,885.966 886.218,885.947 887.485,885.929 888.752,885.912 890.019,885.894 891.287,885.877 892.554,885.86 
  893.821,885.844 895.088,885.828 896.355,885.812 897.623,885.796 898.89,885.781 900.157,885.766 901.424,885.751 902.691,885.737 903.958,885.723 905.226,885.709 
  906.493,885.695 907.76,885.682 909.027,885.669 910.294,885.656 911.562,885.644 912.829,885.632 914.096,885.62 915.363,885.608 916.63,885.596 917.897,885.585 
  919.165,885.574 920.432,885.563 921.699,885.553 922.966,885.543 924.233,885.532 925.501,885.523 926.768,885.513 928.035,885.504 929.302,885.495 930.569,885.486 
  931.836,885.477 933.104,885.468 934.371,885.46 935.638,885.452 936.905,885.444 938.172,885.437 939.44,885.429 940.707,885.422 941.974,885.415 943.241,885.408 
  944.508,885.401 945.775,885.395 947.043,885.388 948.31,885.382 949.577,885.376 950.844,885.371 952.111,885.365 953.379,885.359 954.646,885.354 955.913,885.349 
  957.18,885.344 958.447,885.339 959.714,885.335 960.982,885.33 962.249,885.326 963.516,885.322 964.783,885.318 966.05,885.314 967.318,885.31 968.585,885.306 
  969.852,885.303 971.119,885.299 972.386,885.296 973.653,885.293 974.921,885.29 976.188,885.287 977.455,885.285 978.722,885.282 979.989,885.28 981.257,885.277 
  982.524,885.275 983.791,885.273 985.058,885.271 986.325,885.269 987.592,885.267 988.86,885.265 990.127,885.264 991.394,885.262 992.661,885.261 993.928,885.26 
  995.196,885.258 996.463,885.257 997.73,885.256 998.997,885.255 1000.26,885.254 1001.53,885.254 1002.8,885.253 1004.07,885.252 1005.33,885.252 1006.6,885.251 
  1007.87,885.251 1009.13,885.25 1010.4,885.25 1011.67,885.25 1012.94,885.25 1014.2,885.25 1015.47,885.25 1016.74,885.25 1018,885.25 1019.27,885.25 
  1020.54,885.25 1021.81,885.251 1023.07,885.251 1024.34,885.252 1025.61,885.252 1026.88,885.253 1028.14,885.253 1029.41,885.254 1030.68,885.254 1031.94,885.255 
  1033.21,885.256 1034.48,885.257 1035.75,885.257 1037.01,885.258 1038.28,885.259 1039.55,885.26 1040.81,885.261 1042.08,885.262 1043.35,885.263 1044.62,885.264 
  1045.88,885.265 1047.15,885.267 1048.42,885.268 1049.68,885.269 1050.95,885.27 1052.22,885.272 1053.49,885.273 1054.75,885.274 1056.02,885.275 1057.29,885.277 
  1058.55,885.278 1059.82,885.28 1061.09,885.281 1062.36,885.282 1063.62,885.284 1064.89,885.285 1066.16,885.287 1067.42,885.288 1068.69,885.29 1069.96,885.291 
  1071.23,885.293 1072.49,885.295 1073.76,885.296 1075.03,885.298 1076.3,885.299 1077.56,885.301 1078.83,885.302 1080.1,885.304 1081.36,885.306 1082.63,885.307 
  1083.9,885.309 1085.17,885.311 1086.43,885.312 1087.7,885.314 1088.97,885.316 1090.23,885.317 1091.5,885.319 1092.77,885.321 1094.04,885.322 1095.3,885.324 
  1096.57,885.326 1097.84,885.327 1099.1,885.329 1100.37,885.331 1101.64,885.332 1102.91,885.334 1104.17,885.336 1105.44,885.337 1106.71,885.339 1107.97,885.34 
  1109.24,885.342 1110.51,885.344 1111.78,885.345 1113.04,885.347 1114.31,885.349 1115.58,885.35 1116.85,885.352 1118.11,885.353 1119.38,885.355 1120.65,885.357 
  1121.91,885.358 1123.18,885.36 1124.45,885.361 1125.72,885.363 1126.98,885.364 1128.25,885.366 1129.52,885.368 1130.78,885.369 1132.05,885.371 1133.32,885.372 
  1134.59,885.374 1135.85,885.375 1137.12,885.377 1138.39,885.378 1139.65,885.38 1140.92,885.381 1142.19,885.382 1143.46,885.384 1144.72,885.385 1145.99,885.387 
  1147.26,885.388 1148.52,885.389 1149.79,885.391 1151.06,885.392 1152.33,885.394 1153.59,885.395 1154.86,885.396 1156.13,885.397 1157.39,885.399 1158.66,885.4 
  1159.93,885.401 1161.2,885.403 1162.46,885.404 1163.73,885.405 1165,885.406 1166.27,885.408 1167.53,885.409 1168.8,885.41 1170.07,885.411 1171.33,885.412 
  1172.6,885.413 1173.87,885.415 1175.14,885.416 1176.4,885.417 1177.67,885.418 1178.94,885.419 1180.2,885.42 1181.47,885.421 1182.74,885.422 1184.01,885.423 
  1185.27,885.424 1186.54,885.425 1187.81,885.426 1189.07,885.427 1190.34,885.428 1191.61,885.429 1192.88,885.43 1194.14,885.431 1195.41,885.432 1196.68,885.433 
  1197.94,885.434 1199.21,885.435 1200.48,885.436 1201.75,885.437 1203.01,885.437 1204.28,885.438 1205.55,885.439 1206.82,885.44 1208.08,885.441 1209.35,885.441 
  1210.62,885.442 1211.88,885.443 1213.15,885.444 1214.42,885.445 1215.69,885.445 1216.95,885.446 1218.22,885.447 1219.49,885.447 1220.75,885.448 1222.02,885.449 
  1223.29,885.449 1224.56,885.45 1225.82,885.451 1227.09,885.451 1228.36,885.452 1229.62,885.453 1230.89,885.453 1232.16,885.454 1233.43,885.454 1234.69,885.455 
  1235.96,885.456 1237.23,885.456 1238.49,885.457 1239.76,885.457 1241.03,885.458 1242.3,885.458 1243.56,885.459 1244.83,885.459 1246.1,885.46 1247.36,885.46 
  1248.63,885.461 1249.9,885.461 1251.17,885.462 1252.43,885.462 1253.7,885.462 1254.97,885.463 1256.24,885.463 1257.5,885.464 1258.77,885.464 1260.04,885.464 
  1261.3,885.465 1262.57,885.465 1263.84,885.466 1265.11,885.466 1266.37,885.466 1267.64,885.467 1268.91,885.467 1270.17,885.467 1271.44,885.468 1272.71,885.468 
  1273.98,885.468 1275.24,885.469 1276.51,885.469 1277.78,885.469 1279.04,885.469 1280.31,885.47 1281.58,885.47 1282.85,885.47 1284.11,885.47 1285.38,885.471 
  1286.65,885.471 1287.91,885.471 1289.18,885.471 1290.45,885.472 1291.72,885.472 1292.98,885.472 1294.25,885.472 1295.52,885.472 1296.79,885.473 1298.05,885.473 
  1299.32,885.473 1300.59,885.473 1301.85,885.473 1303.12,885.473 1304.39,885.474 1305.66,885.474 1306.92,885.474 1308.19,885.474 1309.46,885.474 1310.72,885.474 
  1311.99,885.474 1313.26,885.475 1314.53,885.475 1315.79,885.475 1317.06,885.475 1318.33,885.475 1319.59,885.475 1320.86,885.475 1322.13,885.475 1323.4,885.475 
  1324.66,885.475 1325.93,885.476 1327.2,885.476 1328.46,885.476 1329.73,885.476 1331,885.476 1332.27,885.476 1333.53,885.476 1334.8,885.476 1336.07,885.476 
  1337.33,885.476 1338.6,885.476 1339.87,885.476 1341.14,885.476 1342.4,885.476 1343.67,885.476 1344.94,885.476 1346.21,885.476 1347.47,885.476 1348.74,885.476 
  1350.01,885.476 1351.27,885.476 1352.54,885.476 1353.81,885.476 1355.08,885.476 1356.34,885.476 1357.61,885.476 1358.88,885.476 1360.14,885.476 1361.41,885.476 
  1362.68,885.476 1363.95,885.476 1365.21,885.476 1366.48,885.476 1367.75,885.476 1369.01,885.476 1370.28,885.476 1371.55,885.476 1372.82,885.476 1374.08,885.476 
  1375.35,885.476 1376.62,885.476 1377.88,885.476 1379.15,885.476 1380.42,885.476 1381.69,885.476 1382.95,885.476 1384.22,885.476 1385.49,885.476 1386.75,885.476 
  1388.02,885.476 1389.29,885.476 1390.56,885.476 1391.82,885.476 1393.09,885.476 1394.36,885.476 1395.63,885.476 1396.89,885.476 1398.16,885.476 1399.43,885.476 
  1400.69,885.476 1401.96,885.476 1403.23,885.476 1404.5,885.476 1405.76,885.476 1407.03,885.475 1408.3,885.475 1409.56,885.475 1410.83,885.475 1412.1,885.475 
  1413.37,885.475 1414.63,885.475 1415.9,885.475 1417.17,885.475 1418.43,885.475 1419.7,885.475 1420.97,885.475 1422.24,885.475 1423.5,885.475 1424.77,885.475 
  1426.04,885.475 1427.3,885.475 1428.57,885.475 1429.84,885.475 1431.11,885.475 1432.37,885.474 1433.64,885.474 1434.91,885.474 1436.18,885.474 1437.44,885.474 
  1438.71,885.474 1439.98,885.474 1441.24,885.474 1442.51,885.474 1443.78,885.474 1445.05,885.474 1446.31,885.474 1447.58,885.474 1448.85,885.474 1450.11,885.474 
  1451.38,885.474 1452.65,885.474 1453.92,885.474 1455.18,885.474 1456.45,885.473 1457.72,885.473 1458.98,885.473 1460.25,885.473 1461.52,885.473 1462.79,885.473 
  1464.05,885.473 1465.32,885.473 1466.59,885.473 1467.85,885.473 1469.12,885.473 1470.39,885.473 1471.66,885.473 1472.92,885.473 1474.19,885.473 1475.46,885.473 
  1476.72,885.473 1477.99,885.473 1479.26,885.473 1480.53,885.472 1481.79,885.472 1483.06,885.472 1484.33,885.472 1485.6,885.472 1486.86,885.472 1488.13,885.472 
  1489.4,885.472 1490.66,885.472 1491.93,885.472 1493.2,885.472 1494.47,885.472 1495.73,885.472 1497,885.472 1498.27,885.472 1499.53,885.472 1500.8,885.472 
  1502.07,885.472 1503.34,885.472 1504.6,885.472 1505.87,885.472 1507.14,885.472 1508.4,885.471 1509.67,885.471 1510.94,885.471 1512.21,885.471 1513.47,885.471 
  1514.74,885.471 
  "/>
<polyline clip-path="url(#clip862)" style="stroke:#e26f46; stroke-width:4; stroke-opacity:1; fill:none" points="
  247.558,993.223 248.825,980.001 250.092,966.698 251.359,953.324 252.627,939.886 253.894,926.395 255.161,912.858 256.428,899.285 257.695,885.686 258.963,872.069 
  260.23,858.444 261.497,844.82 262.764,831.207 264.031,817.615 265.298,804.052 266.566,790.528 267.833,777.051 269.1,763.632 270.367,750.279 271.634,737.001 
  272.902,723.806 274.169,710.702 275.436,697.699 276.703,684.803 277.97,672.022 279.237,659.365 280.505,646.837 281.772,634.445 283.039,622.197 284.306,610.098 
  285.573,598.154 286.841,586.37 288.108,574.753 289.375,563.306 290.642,552.034 291.909,540.941 293.176,530.032 294.444,519.309 295.711,508.776 296.978,498.435 
  298.245,488.289 299.512,478.341 300.78,468.592 302.047,459.044 303.314,449.698 304.581,440.555 305.848,431.615 307.115,422.88 308.383,414.349 309.65,406.023 
  310.917,397.9 312.184,389.982 313.451,382.266 314.719,374.751 315.986,367.438 317.253,360.324 318.52,353.408 319.787,346.688 321.054,340.163 322.322,333.83 
  323.589,327.688 324.856,321.734 326.123,315.966 327.39,310.382 328.658,304.979 329.925,299.755 331.192,294.707 332.459,289.831 333.726,285.127 334.993,280.59 
  336.261,276.217 337.528,272.007 338.795,267.956 340.062,264.06 341.329,260.318 342.597,256.725 343.864,253.28 345.131,249.979 346.398,246.819 347.665,243.797 
  348.932,240.909 350.2,238.154 351.467,235.529 352.734,233.029 354.001,230.652 355.268,228.396 356.536,226.258 357.803,224.234 359.07,222.322 360.337,220.519 
  361.604,218.822 362.872,217.229 364.139,215.738 365.406,214.344 366.673,213.046 367.94,211.842 369.207,210.728 370.475,209.702 371.742,208.762 373.009,207.906 
  374.276,207.13 375.543,206.434 376.811,205.814 378.078,205.268 379.345,204.795 380.612,204.392 381.879,204.056 383.146,203.787 384.414,203.581 385.681,203.438 
  386.948,203.354 388.215,203.329 389.482,203.36 390.75,203.446 392.017,203.584 393.284,203.774 394.551,204.013 395.818,204.3 397.085,204.633 398.353,205.01 
  399.62,205.431 400.887,205.894 402.154,206.396 403.421,206.938 404.689,207.517 405.956,208.132 407.223,208.781 408.49,209.464 409.757,210.18 411.024,210.926 
  412.292,211.702 413.559,212.507 414.826,213.339 416.093,214.197 417.36,215.081 418.628,215.989 419.895,216.921 421.162,217.875 422.429,218.85 423.696,219.845 
  424.963,220.86 426.231,221.893 427.498,222.944 428.765,224.012 430.032,225.095 431.299,226.194 432.567,227.308 433.834,228.435 435.101,229.575 436.368,230.727 
  437.635,231.891 438.902,233.065 440.17,234.25 441.437,235.444 442.704,236.647 443.971,237.858 445.238,239.077 446.506,240.303 447.773,241.535 449.04,242.774 
  450.307,244.018 451.574,245.267 452.841,246.52 454.109,247.778 455.376,249.038 456.643,250.302 457.91,251.569 459.177,252.837 460.445,254.108 461.712,255.379 
  462.979,256.652 464.246,257.925 465.513,259.198 466.78,260.471 468.048,261.744 469.315,263.016 470.582,264.286 471.849,265.555 473.116,266.822 474.384,268.087 
  475.651,269.35 476.918,270.61 478.185,271.867 479.452,273.12 480.719,274.371 481.987,275.617 483.254,276.86 484.521,278.098 485.788,279.332 487.055,280.561 
  488.323,281.785 489.59,283.005 490.857,284.219 492.124,285.428 493.391,286.631 494.658,287.828 495.926,289.019 497.193,290.205 498.46,291.383 499.727,292.556 
  500.994,293.722 502.262,294.881 503.529,296.034 504.796,297.179 506.063,298.318 507.33,299.449 508.597,300.573 509.865,301.69 511.132,302.799 512.399,303.9 
  513.666,304.994 514.933,306.08 516.201,307.158 517.468,308.228 518.735,309.29 520.002,310.344 521.269,311.39 522.537,312.428 523.804,313.457 525.071,314.478 
  526.338,315.49 527.605,316.494 528.872,317.49 530.14,318.477 531.407,319.456 532.674,320.425 533.941,321.387 535.208,322.339 536.476,323.283 537.743,324.218 
  539.01,325.144 540.277,326.062 541.544,326.971 542.811,327.87 544.079,328.761 545.346,329.644 546.613,330.517 547.88,331.382 549.147,332.237 550.415,333.084 
  551.682,333.922 552.949,334.751 554.216,335.572 555.483,336.383 556.75,337.186 558.018,337.98 559.285,338.765 560.552,339.541 561.819,340.309 563.086,341.067 
  564.354,341.817 565.621,342.559 566.888,343.291 568.155,344.015 569.422,344.731 570.689,345.437 571.957,346.136 573.224,346.825 574.491,347.506 575.758,348.179 
  577.025,348.843 578.293,349.499 579.56,350.146 580.827,350.785 582.094,351.416 583.361,352.039 584.628,352.653 585.896,353.259 587.163,353.857 588.43,354.447 
  589.697,355.029 590.964,355.603 592.232,356.169 593.499,356.727 594.766,357.277 596.033,357.819 597.3,358.354 598.567,358.88 599.835,359.4 601.102,359.911 
  602.369,360.415 603.636,360.912 604.903,361.401 606.171,361.882 607.438,362.357 608.705,362.824 609.972,363.283 611.239,363.736 612.506,364.181 613.774,364.62 
  615.041,365.051 616.308,365.476 617.575,365.893 618.842,366.304 620.11,366.708 621.377,367.105 622.644,367.495 623.911,367.879 625.178,368.257 626.445,368.628 
  627.713,368.992 628.98,369.35 630.247,369.702 631.514,370.047 632.781,370.387 634.049,370.72 635.316,371.047 636.583,371.368 637.85,371.684 639.117,371.993 
  640.384,372.296 641.652,372.594 642.919,372.886 644.186,373.172 645.453,373.453 646.72,373.729 647.988,373.998 649.255,374.263 650.522,374.522 651.789,374.776 
  653.056,375.024 654.323,375.268 655.591,375.506 656.858,375.739 658.125,375.967 659.392,376.191 660.659,376.409 661.927,376.623 663.194,376.832 664.461,377.036 
  665.728,377.236 666.995,377.431 668.262,377.622 669.53,377.808 670.797,377.99 672.064,378.167 673.331,378.34 674.598,378.509 675.866,378.674 677.133,378.834 
  678.4,378.991 679.667,379.144 680.934,379.292 682.202,379.437 683.469,379.578 684.736,379.715 686.003,379.849 687.27,379.978 688.537,380.104 689.805,380.227 
  691.072,380.346 692.339,380.462 693.606,380.574 694.873,380.683 696.141,380.789 697.408,380.891 698.675,380.99 699.942,381.086 701.209,381.179 702.476,381.269 
  703.744,381.356 705.011,381.44 706.278,381.521 707.545,381.599 708.812,381.675 710.08,381.748 711.347,381.818 712.614,381.885 713.881,381.95 715.148,382.012 
  716.415,382.071 717.683,382.129 718.95,382.183 720.217,382.236 721.484,382.286 722.751,382.333 724.019,382.379 725.286,382.422 726.553,382.463 727.82,382.502 
  729.087,382.539 730.354,382.574 731.622,382.607 732.889,382.637 734.156,382.666 735.423,382.693 736.69,382.719 737.958,382.742 739.225,382.763 740.492,382.783 
  741.759,382.802 743.026,382.818 744.293,382.833 745.561,382.846 746.828,382.858 748.095,382.868 749.362,382.877 750.629,382.884 751.897,382.89 753.164,382.895 
  754.431,382.898 755.698,382.9 756.965,382.9 758.232,382.899 759.5,382.897 760.767,382.894 762.034,382.89 763.301,382.885 764.568,382.878 765.836,382.87 
  767.103,382.862 768.37,382.852 769.637,382.841 770.904,382.83 772.171,382.817 773.439,382.804 774.706,382.789 775.973,382.774 777.24,382.758 778.507,382.741 
  779.775,382.724 781.042,382.705 782.309,382.686 783.576,382.666 784.843,382.646 786.11,382.625 787.378,382.603 788.645,382.58 789.912,382.557 791.179,382.534 
  792.446,382.51 793.714,382.485 794.981,382.46 796.248,382.434 797.515,382.408 798.782,382.381 800.049,382.354 801.317,382.326 802.584,382.299 803.851,382.27 
  805.118,382.242 806.385,382.213 807.653,382.183 808.92,382.154 810.187,382.124 811.454,382.093 812.721,382.063 813.988,382.032 815.256,382.001 816.523,381.97 
  817.79,381.939 819.057,381.907 820.324,381.875 821.592,381.843 822.859,381.811 824.126,381.779 825.393,381.747 826.66,381.714 827.927,381.681 829.195,381.649 
  830.462,381.616 831.729,381.583 832.996,381.55 834.263,381.517 835.531,381.484 836.798,381.451 838.065,381.418 839.332,381.385 840.599,381.352 841.867,381.319 
  843.134,381.286 844.401,381.254 845.668,381.221 846.935,381.188 848.202,381.155 849.47,381.122 850.737,381.09 852.004,381.057 853.271,381.025 854.538,380.992 
  855.806,380.96 857.073,380.928 858.34,380.896 859.607,380.864 860.874,380.832 862.141,380.8 863.409,380.769 864.676,380.737 865.943,380.706 867.21,380.675 
  868.477,380.644 869.745,380.613 871.012,380.583 872.279,380.552 873.546,380.522 874.813,380.492 876.08,380.462 877.348,380.432 878.615,380.403 879.882,380.374 
  881.149,380.344 882.416,380.316 883.684,380.287 884.951,380.258 886.218,380.23 887.485,380.202 888.752,380.174 890.019,380.147 891.287,380.119 892.554,380.092 
  893.821,380.065 895.088,380.039 896.355,380.012 897.623,379.986 898.89,379.96 900.157,379.934 901.424,379.909 902.691,379.884 903.958,379.859 905.226,379.834 
  906.493,379.809 907.76,379.785 909.027,379.761 910.294,379.737 911.562,379.714 912.829,379.691 914.096,379.668 915.363,379.645 916.63,379.622 917.897,379.6 
  919.165,379.578 920.432,379.556 921.699,379.535 922.966,379.513 924.233,379.492 925.501,379.472 926.768,379.451 928.035,379.431 929.302,379.411 930.569,379.391 
  931.836,379.372 933.104,379.352 934.371,379.333 935.638,379.314 936.905,379.296 938.172,379.278 939.44,379.26 940.707,379.242 941.974,379.224 943.241,379.207 
  944.508,379.19 945.775,379.173 947.043,379.156 948.31,379.14 949.577,379.124 950.844,379.108 952.111,379.092 953.379,379.077 954.646,379.062 955.913,379.047 
  957.18,379.032 958.447,379.017 959.714,379.003 960.982,378.989 962.249,378.975 963.516,378.962 964.783,378.948 966.05,378.935 967.318,378.922 968.585,378.909 
  969.852,378.897 971.119,378.885 972.386,378.872 973.653,378.86 974.921,378.849 976.188,378.837 977.455,378.826 978.722,378.815 979.989,378.804 981.257,378.793 
  982.524,378.783 983.791,378.772 985.058,378.762 986.325,378.752 987.592,378.743 988.86,378.733 990.127,378.724 991.394,378.715 992.661,378.706 993.928,378.697 
  995.196,378.688 996.463,378.68 997.73,378.671 998.997,378.663 1000.26,378.655 1001.53,378.647 1002.8,378.64 1004.07,378.632 1005.33,378.625 1006.6,378.618 
  1007.87,378.611 1009.13,378.604 1010.4,378.597 1011.67,378.591 1012.94,378.584 1014.2,378.578 1015.47,378.572 1016.74,378.566 1018,378.56 1019.27,378.555 
  1020.54,378.549 1021.81,378.544 1023.07,378.538 1024.34,378.533 1025.61,378.528 1026.88,378.523 1028.14,378.519 1029.41,378.514 1030.68,378.51 1031.94,378.505 
  1033.21,378.501 1034.48,378.497 1035.75,378.493 1037.01,378.489 1038.28,378.485 1039.55,378.481 1040.81,378.478 1042.08,378.474 1043.35,378.471 1044.62,378.468 
  1045.88,378.465 1047.15,378.462 1048.42,378.459 1049.68,378.456 1050.95,378.453 1052.22,378.451 1053.49,378.448 1054.75,378.446 1056.02,378.443 1057.29,378.441 
  1058.55,378.439 1059.82,378.437 1061.09,378.435 1062.36,378.433 1063.62,378.431 1064.89,378.429 1066.16,378.427 1067.42,378.426 1068.69,378.424 1069.96,378.423 
  1071.23,378.421 1072.49,378.42 1073.76,378.419 1075.03,378.418 1076.3,378.416 1077.56,378.415 1078.83,378.414 1080.1,378.413 1081.36,378.413 1082.63,378.412 
  1083.9,378.411 1085.17,378.41 1086.43,378.41 1087.7,378.409 1088.97,378.409 1090.23,378.408 1091.5,378.408 1092.77,378.407 1094.04,378.407 1095.3,378.407 
  1096.57,378.407 1097.84,378.406 1099.1,378.406 1100.37,378.406 1101.64,378.406 1102.91,378.406 1104.17,378.406 1105.44,378.406 1106.71,378.406 1107.97,378.406 
  1109.24,378.407 1110.51,378.407 1111.78,378.407 1113.04,378.407 1114.31,378.408 1115.58,378.408 1116.85,378.408 1118.11,378.409 1119.38,378.409 1120.65,378.41 
  1121.91,378.41 1123.18,378.411 1124.45,378.411 1125.72,378.412 1126.98,378.413 1128.25,378.413 1129.52,378.414 1130.78,378.415 1132.05,378.415 1133.32,378.416 
  1134.59,378.417 1135.85,378.418 1137.12,378.418 1138.39,378.419 1139.65,378.42 1140.92,378.421 1142.19,378.422 1143.46,378.422 1144.72,378.423 1145.99,378.424 
  1147.26,378.425 1148.52,378.426 1149.79,378.427 1151.06,378.428 1152.33,378.429 1153.59,378.43 1154.86,378.431 1156.13,378.432 1157.39,378.433 1158.66,378.434 
  1159.93,378.435 1161.2,378.436 1162.46,378.437 1163.73,378.438 1165,378.439 1166.27,378.44 1167.53,378.441 1168.8,378.442 1170.07,378.443 1171.33,378.444 
  1172.6,378.445 1173.87,378.446 1175.14,378.447 1176.4,378.448 1177.67,378.449 1178.94,378.451 1180.2,378.452 1181.47,378.453 1182.74,378.454 1184.01,378.455 
  1185.27,378.456 1186.54,378.457 1187.81,378.458 1189.07,378.459 1190.34,378.46 1191.61,378.461 1192.88,378.462 1194.14,378.463 1195.41,378.465 1196.68,378.466 
  1197.94,378.467 1199.21,378.468 1200.48,378.469 1201.75,378.47 1203.01,378.471 1204.28,378.472 1205.55,378.473 1206.82,378.474 1208.08,378.475 1209.35,378.476 
  1210.62,378.477 1211.88,378.478 1213.15,378.479 1214.42,378.48 1215.69,378.481 1216.95,378.482 1218.22,378.483 1219.49,378.484 1220.75,378.485 1222.02,378.486 
  1223.29,378.487 1224.56,378.488 1225.82,378.489 1227.09,378.49 1228.36,378.491 1229.62,378.492 1230.89,378.493 1232.16,378.494 1233.43,378.495 1234.69,378.495 
  1235.96,378.496 1237.23,378.497 1238.49,378.498 1239.76,378.499 1241.03,378.5 1242.3,378.501 1243.56,378.502 1244.83,378.502 1246.1,378.503 1247.36,378.504 
  1248.63,378.505 1249.9,378.506 1251.17,378.506 1252.43,378.507 1253.7,378.508 1254.97,378.509 1256.24,378.51 1257.5,378.51 1258.77,378.511 1260.04,378.512 
  1261.3,378.513 1262.57,378.513 1263.84,378.514 1265.11,378.515 1266.37,378.516 1267.64,378.516 1268.91,378.517 1270.17,378.518 1271.44,378.518 1272.71,378.519 
  1273.98,378.52 1275.24,378.52 1276.51,378.521 1277.78,378.522 1279.04,378.522 1280.31,378.523 1281.58,378.523 1282.85,378.524 1284.11,378.525 1285.38,378.525 
  1286.65,378.526 1287.91,378.526 1289.18,378.527 1290.45,378.527 1291.72,378.528 1292.98,378.529 1294.25,378.529 1295.52,378.53 1296.79,378.53 1298.05,378.531 
  1299.32,378.531 1300.59,378.532 1301.85,378.532 1303.12,378.533 1304.39,378.533 1305.66,378.534 1306.92,378.534 1308.19,378.534 1309.46,378.535 1310.72,378.535 
  1311.99,378.536 1313.26,378.536 1314.53,378.537 1315.79,378.537 1317.06,378.537 1318.33,378.538 1319.59,378.538 1320.86,378.539 1322.13,378.539 1323.4,378.539 
  1324.66,378.54 1325.93,378.54 1327.2,378.54 1328.46,378.541 1329.73,378.541 1331,378.541 1332.27,378.542 1333.53,378.542 1334.8,378.542 1336.07,378.543 
  1337.33,378.543 1338.6,378.543 1339.87,378.543 1341.14,378.544 1342.4,378.544 1343.67,378.544 1344.94,378.545 1346.21,378.545 1347.47,378.545 1348.74,378.545 
  1350.01,378.546 1351.27,378.546 1352.54,378.546 1353.81,378.546 1355.08,378.547 1356.34,378.547 1357.61,378.547 1358.88,378.547 1360.14,378.547 1361.41,378.548 
  1362.68,378.548 1363.95,378.548 1365.21,378.548 1366.48,378.548 1367.75,378.548 1369.01,378.549 1370.28,378.549 1371.55,378.549 1372.82,378.549 1374.08,378.549 
  1375.35,378.549 1376.62,378.55 1377.88,378.55 1379.15,378.55 1380.42,378.55 1381.69,378.55 1382.95,378.55 1384.22,378.55 1385.49,378.55 1386.75,378.551 
  1388.02,378.551 1389.29,378.551 1390.56,378.551 1391.82,378.551 1393.09,378.551 1394.36,378.551 1395.63,378.551 1396.89,378.551 1398.16,378.552 1399.43,378.552 
  1400.69,378.552 1401.96,378.552 1403.23,378.552 1404.5,378.552 1405.76,378.552 1407.03,378.552 1408.3,378.552 1409.56,378.552 1410.83,378.552 1412.1,378.552 
  1413.37,378.552 1414.63,378.552 1415.9,378.552 1417.17,378.552 1418.43,378.552 1419.7,378.553 1420.97,378.553 1422.24,378.553 1423.5,378.553 1424.77,378.553 
  1426.04,378.553 1427.3,378.553 1428.57,378.553 1429.84,378.553 1431.11,378.553 1432.37,378.553 1433.64,378.553 1434.91,378.553 1436.18,378.553 1437.44,378.553 
  1438.71,378.553 1439.98,378.553 1441.24,378.553 1442.51,378.553 1443.78,378.553 1445.05,378.553 1446.31,378.553 1447.58,378.553 1448.85,378.553 1450.11,378.553 
  1451.38,378.553 1452.65,378.553 1453.92,378.553 1455.18,378.553 1456.45,378.553 1457.72,378.553 1458.98,378.553 1460.25,378.553 1461.52,378.553 1462.79,378.553 
  1464.05,378.553 1465.32,378.553 1466.59,378.553 1467.85,378.553 1469.12,378.553 1470.39,378.553 1471.66,378.553 1472.92,378.553 1474.19,378.553 1475.46,378.553 
  1476.72,378.553 1477.99,378.553 1479.26,378.553 1480.53,378.553 1481.79,378.553 1483.06,378.553 1484.33,378.553 1485.6,378.553 1486.86,378.552 1488.13,378.552 
  1489.4,378.552 1490.66,378.552 1491.93,378.552 1493.2,378.552 1494.47,378.552 1495.73,378.552 1497,378.552 1498.27,378.552 1499.53,378.552 1500.8,378.552 
  1502.07,378.552 1503.34,378.552 1504.6,378.552 1505.87,378.552 1507.14,378.552 1508.4,378.552 1509.67,378.552 1510.94,378.552 1512.21,378.552 1513.47,378.552 
  1514.74,378.552 
  "/>
<path clip-path="url(#clip860)" d="
M1326.77 388.982 L1507.98 388.982 L1507.98 207.542 L1326.77 207.542  Z
  " fill="#ffffff" fill-rule="evenodd" fill-opacity="1"/>
<polyline clip-path="url(#clip860)" style="stroke:#000000; stroke-width:4; stroke-opacity:1; fill:none" points="
  1326.77,388.982 1507.98,388.982 1507.98,207.542 1326.77,207.542 1326.77,388.982 
  "/>
<polyline clip-path="url(#clip860)" style="stroke:#009af9; stroke-width:4; stroke-opacity:1; fill:none" points="
  1341.69,268.022 1431.24,268.022 
  "/>
<path clip-path="url(#clip860)" d="M 0 0 M1461.35 263.357 Q1460.63 262.941 1459.78 262.756 Q1458.94 262.547 1457.92 262.547 Q1454.31 262.547 1452.37 264.908 Q1450.45 267.246 1450.45 271.644 L1450.45 285.302 L1446.17 285.302 L1446.17 259.376 L1450.45 259.376 L1450.45 263.404 Q1451.79 261.043 1453.94 259.908 Q1456.1 258.751 1459.17 258.751 Q1459.61 258.751 1460.15 258.82 Q1460.68 258.867 1461.33 258.982 L1461.35 263.357 Z" fill="#000000" fill-rule="evenodd" fill-opacity="1" /><path clip-path="url(#clip860)" d="M 0 0 M1478.13 277.455 L1478.13 278.612 L1465.8 278.612 Q1465.98 281.066 1467.46 282.362 Q1468.97 283.658 1471.63 283.658 Q1473.18 283.658 1474.64 283.311 Q1476.07 282.987 1477.51 282.316 L1477.51 284.561 Q1476.07 285.117 1474.54 285.394 Q1473.04 285.672 1471.47 285.672 Q1467.55 285.672 1465.29 283.658 Q1462.99 281.644 1462.99 278.195 Q1462.99 274.63 1465.17 272.524 Q1467.32 270.441 1471 270.441 Q1474.29 270.441 1476.21 272.316 Q1478.13 274.214 1478.13 277.455 M1475.45 276.737 Q1475.42 274.793 1474.22 273.612 Q1473.02 272.455 1471.03 272.455 Q1468.78 272.455 1467.44 273.589 Q1466.1 274.7 1465.89 276.737 L1475.45 276.737 Z" fill="#000000" fill-rule="evenodd" fill-opacity="1" /><polyline clip-path="url(#clip860)" style="stroke:#e26f46; stroke-width:4; stroke-opacity:1; fill:none" points="
  1341.69,328.502 1431.24,328.502 
  "/>
<path clip-path="url(#clip860)" d="M 0 0 M1461.35 323.837 Q1460.63 323.421 1459.78 323.236 Q1458.94 323.027 1457.92 323.027 Q1454.31 323.027 1452.37 325.388 Q1450.45 327.726 1450.45 332.124 L1450.45 345.782 L1446.17 345.782 L1446.17 319.856 L1450.45 319.856 L1450.45 323.884 Q1451.79 321.523 1453.94 320.388 Q1456.1 319.231 1459.17 319.231 Q1459.61 319.231 1460.15 319.3 Q1460.68 319.347 1461.33 319.462 L1461.35 323.837 Z" fill="#000000" fill-rule="evenodd" fill-opacity="1" /><path clip-path="url(#clip860)" d="M 0 0 M1464.17 331.268 L1466.86 331.268 L1466.86 345.782 L1464.17 345.782 L1464.17 331.268 M1464.17 325.62 L1466.86 325.62 L1466.86 328.629 L1464.17 328.629 L1464.17 325.62 Z" fill="#000000" fill-rule="evenodd" fill-opacity="1" /></svg>
